/* XPM */
static char *cocodrilo[] = {
/* columns rows colors chars-per-pixel */
"64 64 110 2 ",
"   c #191400",
".  c #2D3D07",
"X  c #2C3D0B",
"o  c #2E400C",
"O  c #364B0E",
"+  c #3B4D0E",
"@  c #3F5A0D",
"#  c #374B10",
"$  c #3A4B13",
"%  c #3E4C1B",
"&  c #3F5910",
"*  c #415A0D",
"=  c #405510",
"-  c #435910",
";  c #4A5D16",
":  c #455318",
">  c #4A5D1B",
",  c #4B6015",
"<  c #4F6815",
"1  c #516317",
"2  c #536E16",
"3  c #546D19",
"4  c #597123",
"5  c #607822",
"6  c #A04B36",
"7  c #BD5434",
"8  c #C05533",
"9  c #D3754F",
"0  c #D47652",
"q  c #F27D4E",
"w  c #6D8525",
"e  c #6E8825",
"r  c #6D8529",
"t  c #708525",
"y  c #708429",
"u  c #758B29",
"i  c #799727",
"p  c #7A9628",
"a  c #76884C",
"s  c #9A8C11",
"d  c #998C1A",
"f  c #83963D",
"g  c #869C38",
"h  c #A69521",
"j  c #8DA33D",
"k  c #90A23E",
"l  c #B7A63C",
"z  c #B7A93E",
"x  c #DFD13A",
"c  c #E4CF2D",
"v  c #E3D02D",
"b  c #E2D030",
"n  c #E2D13B",
"m  c #AE9E46",
"M  c #AE9E4A",
"N  c #A69E56",
"B  c #8DA341",
"V  c #9DB742",
"C  c #9DB943",
"Z  c #ADA146",
"A  c #AFA148",
"S  c #B3A445",
"D  c #BAAB44",
"F  c #B2A449",
"G  c #B6AA4B",
"H  c #BBAC4D",
"J  c #A1B745",
"K  c #BFB14E",
"L  c #A8A057",
"P  c #BFB150",
"I  c #C1AF4D",
"U  c #C2B44E",
"Y  c #C8B74F",
"T  c #C3B451",
"R  c #C6B952",
"E  c #CABC54",
"W  c #CEBE59",
"Q  c #D0BE55",
"!  c #D1BF58",
"~  c #F69C6D",
"^  c #AEC155",
"/  c #B7CD5D",
"(  c #BACC5D",
")  c #BACC61",
"_  c #CEC155",
"`  c #CEC159",
"'  c #D4C456",
"]  c #D9C657",
"[  c #D5C856",
"{  c #DCCB57",
"}  c #D4C359",
"|  c #D8C75B",
" . c #D7C95C",
".. c #DCCB5C",
"X. c #DED15D",
"o. c #E1CE5D",
"O. c #E4D355",
"+. c #E4D35E",
"@. c #E8D55E",
"#. c #DECC60",
"$. c #CCDE6C",
"%. c #DFD260",
"&. c #E1CE61",
"*. c #E5D460",
"=. c #E8D462",
"-. c #CBE16B",
";. c #DEED84",
":. c #E0EC86",
">. c #E3DBAC",
",. c #FFFCD4",
/* pixels */
"*.+.*.*.*.*.+.*.*.*.=.*.+.*.*.*.+.*.*.*.+.=.+.*.*.*.+.*.*.@.*.*.*.+.*.*.*.*.*.*.*.*.*.+.*.*.*.*.*.*.*.*.*.@.*.*.*.*.*.*.*.*.*.*.",
"*.*.*.*.*.*.*.+.+.+.+.*.*.*.*.*.*.*.*.*.*.+.*.*.*.*.*.=.O.O.*.*.*.*.*.+.*.@.+.*.+.=.*.*.*.*.*.*.*.=.*.+.O.O.@.*.*.*.*.*.*.*.*.*.",
"+.*.*.*.*.*.*.*.*.*.*.+.*.*.*.*.*.*.*.*.*.*.+.*.*.@.*.O.n n O.*.*.@.*.*.*.+.*.*.*.+.*.+.*.*.*.+.*.*.*.O.n n O.*.*.*.*.*.+.@.@.*.",
"*.*.*.*.*.*.*.+.+.+.*.*.*.*.@.@.*.+.*.*.*.*.*.*.*.*.*.O.n n O.*.*.*.*.*.*.*.*.*.*.*.*.*.+.*.*.*.*.*.*.O.n n O.*.*.*.*.*.*.*.*.*.",
"*.*.*.+.=.*.*.+.*.*.*.*.*.*.@.*.*.*.*.*.*.*.+.*.*.*.*.*.O.O.*.*.+.*.*.@.*.+.*.*.*.+.*.*.*.+.*.*.*.=.*.+.O.O.*.*.*.*.*.@.*.*.*.*.",
"*.*.*.+.*.*.*.+.O.O.*.*.*.*.+.*.*.+.*.+.*.*.*.*.*.*.+.*.*.*.*.*.*.*.*.*.*.*.*.*.*.*.*.*.*.*.*.*.@.=.+.*.*.*.*.*.@.*.*.*.*.*.*.*.",
"+.*.*.+.*.*.*.O.n n O.*.*.*.+.*.*.*.+.*.+.*.*.*.+.*.*.*.*.*.*.@.*.*.*.*.*.*.*.+.*.*.*.*.*.*.*.*.*.*.*.*.*.*.*.*.+.+.*.*.*.*.@.X.",
"+.*.*.*.*.*.+.O.n n O.*.*.*.*.*.*.*.*.*.*.*.*.+.+.*.+.*.*.*.*.*.*.*.*.*.+.*.*.*.+.*.*.*.+.*.*.*.+.*.@.*.*.*.*.*.*.+.*.*.*.*.*.*.",
"*.*.*.*.*.*.+.*.O.+.+.+.*.*.*.*.*.*.*.*.*.*.*.*.=.*.@.*.*.*.*.*.@.*.=.*.+.*.*.*.=.@.*.*.=.*.*.*.*.+.*.*.*.*.*.+.*.*.*.*.*.+.*.*.",
"*.*.*.*.*.*.*.*.@.+.*.*.*.*.*.+.*.+.*.+.*.*.*.*.+.=.+.+.@.*.*.*.X.*.*.@.*.*.*.*.*.@.*.+.+.*.*.*.*.=.*.*.*.*.*.*.*.*.*.+.+.*.*.*.",
"*.*.+.*.@.*.*.*.*.*.*.*.*.*.*.*.*.*.+.*.+.*.*.*.*.=.+.=.*.*.=.+.*.*.@.*.*.*.*.*.@.@.*.*.*.@.*.*.*.*.*.*.*.*.*.*.*.*.*.*.*.+.*.@.",
"*.*.*.*.*.*.*.+.*.+.*.*.*.@.*.*.*.*.*.*.*.*.*.+.*.*.*.*.*.*.*.*.*.*.*.*.*.*.*.*.@.*.*.*.=.*.+.+.*.+.=.+.*.*.*.*.*.+.*.*.*.+.+.+.",
"*.*.*.*.+.*.*.*.+.@.+.+.*.*.*.*.*.*.+.*.*.*.*.*.*.+.*.+.*.=.*.*.*.*.*.+.*.*.%.*.*.*.*.+.+.+.*.*.+.*.*.%.*.*.*.*.*.+.*.*.*.*.*.*.",
"*.*.*.*.*.*.*.*.*.*.*.*.*.*.*.*.*.*.*.*.*.*.+.*.*.*.+.*.+.+.*.+.*.< +.X.; w # & e e > ..&., ..+.+.*.+.*.+.*.*.*.*.@.O.@.*.*.*.*.",
"*.*.*.*.*.*.*.*.*.*.*.*.*.*.*.*.+.*.*.*.*.+.+.*.*.*.*.*.+.o.> > r , r w r j / ` ) ) / ) ( j r $ $ ..%.X.X.%.+.*.*.O.n n O.*.*.*.",
"*.*.@.*.*.+.*.*.*.*.+.*.*.*.+.*.*.*.*.*.*.+.+.+.#.*.*., w r $ r B B / ) ) a ( j , B B ; B B j / ( j $ w e X.X.X.O.X.x x O.*.*.*.",
"@.X.*.*.*.+.+.*.*.*.*.+.*.+.*.*.*.*.*.*.*.r w ; r w w e j t j j ( ( ( ( k ; w r $ y j B j g $ r r r ) / g > r | ..+.O.O.+.+.*.*.",
"*.*.@.*.*.@.*.*.*.*.+.*.*.=.*.*.*.+.*.; e j w r w > g t j r e $ B j ; r r r j j k g :.( ( ( ( j j , y j ( / e ; r | ..o.*.*.*.*.",
"*.*.*.*.*.*.*.*.*.+.*.*.*.+.*.*.*.+.e $ j w r r j ( j r w ; w j ( B e j j j ( ( ( ( ( ( j j j j j j j > w j ( j w r ' ..=.*.*.+.",
"*.*.*.*.*.*.*.*.*.*.*.*.*.@.+.=.*.e e / j w $ j ) j e j t j j ( ( j > ( ( / B j j B j j j t e r e C w r j w 4 B ( ; R ' *.+.=.*.",
"*.*.*.*.*.@.+.+.*.*.*.*.+.+.+.B j % / B r r j ( j w r ; t j ( ( j j j j j j j j k j -.e C w 2 2 < 2 2 e w w u w B B e R +.+.*.*.",
"*.*.*.*.*.*.+.+.+.+.*.=.+.=.B g e B ( j # B ( j j w j w w j :.j j j $.B j j j j j w w e 2 2 > Z A F S X 3 2 w $ $ / > P +.*.*.+.",
"*.*.*.*.*.+.*.*.*.*.+.*.*.w w ; r j j w j ) ( j B r t e j ( ( j r j w w j j j j k e 2 2 M Z F G H K K K H G 2 e t ( w e +.+.+.=.",
"*.*.*.*.*.*.*.*.+.*.*.*.*.2 j r g ( r # j ( j j e B ; t g ( ( j ; w X 2 j j $.B j w w m A G H T R _ ` Q _ R T 3 ; ) B , *.*.=.*.",
"+.*.*.@.@.*.*.+.*.+.=.*.o.3 e r k ( t w ) ( j j e j 5 r j ( j j r j r 2 j j $.j j e w m F T E } ' | ....| ] } E $ ) j $ *.+.*.+.",
"*.*.*.*.O.O.+.*.*.+.*.+.*.B > e j ( t j ( ( j j r j y g j ) j r w j V j B j B g j $.$ F H E ]  .o.&.*.X.+.o...] 3 B > 2 *.*.*.*.",
"*.*.+.O.x n X.*.+.+.*.X.o.B e r ( ) w $ j ) w j e j > j ) ( j w w B w j j j B j j w m G T ' ..*.+.*.+.%.+.*.X...$ ) w e =.*.*.+.",
"@.*.*.O.n x O.*., j $ a | j w e ( ( e $ j / j j e j > t ( ( j r e j J j j k j j j 2 S G T ..#.+.*.*.*.+.*.*.o.3 ) > t w *.*.*.*.",
"*.@.*.*.O.O./ j B -.j j + j ; e g ` j j j / j w e j w j / g j > w j w ( j j j j e r 3 H _ [ o.*.*.*.*.*.o.*.j > j $ r e O.*.*.*.",
"*.*.+.+.+.+.B e B -.j j j j w w B / B e j B ; j r j w j ( k t e r w r 2 $.j j j w 3 p H E | ..&.*.X.*.&.r ( j $ + r w 3 O.=.*.*.",
"*.+.*.*.*.j j 2 j B j j j j r e B / j # e r $ j r ; r j ) j > t j w w 2 d j j 2 2 2 2 H E  .+.*.# r ) ; w + 2 w w V 2 3 +.*.*.*.",
"@.@.+.*.+.-.-.e e $.B j j j ; $ B B B j j r e j w $ w j j B $ B w V 2 2 d 2 2 2 2 2 F L R } ..> B ; ; r w w r r 2 2 o F *.=.*.*.",
"*.*.*.*.*.j g w 2 w w r k j r r j t + j j j j e r j j j j r w w w 2 2 . 2 2 X X X F G H E ] $ $ e r 3 2 3 i 2 2 3 F F G *.*.*.*.",
"*.*.*.+.O.j k V 2 2 2 w j g j w j k j j j j k j j j j $.$.w 2 3 2 + / d s . l G . G G T } ..= 3 ' R U H H H G G F H H U *.*.*.*.",
"=.*.*.*.*.B j r O Z - t e t w j j j B j B j j B j j j j j e 2 2 j B k j ; h l H T T T } ....#...! R T T U T T T U T E E +.*.*.*.",
"*.+.*.%.o.2 e 2 F S F e V e w j j 3 X j e j w j ; + j j j w X e J B u j j j D T E W } ....*.X.| ' ! } ] } ' } ] ] ] ] ..=.*.+.+.",
"+.*.*.r e w w r F G H 3 2 t w 2 t w 2 3 w j w w r r w w w 2 2 e r , B B B j D R } ..| ..+.#.*.#...| ....%...#...o...X.&.*.+.*.*.",
"*.*.2 t r e w > G K R 3 2 w w 2 e e ; j j j j +   r w w w 2 2 2 B j B g $.j w U } ....*.+.*.*.*.*.+.X.#.*.*.&.*.+.*.*.*.*.+.O.O.",
"*.*.. 3 3 w > ; H T } > 2 w r e j j j B j j j k j j w j 3 X < X j j j j $.j 2 K ' ] +.%.*.*.*.*.+.+.*.*.*.*.*.*.*.&.*.*.+.@.n c ",
"+.*.+.] ; T H H H T } ] 2 2 2 2 2 j B j e j j j j j 2 : 2 m Z j j j e e w . F K E  ...*.+.*.*.*.*.*.*.*.*.*.*.*.*.+.*.+.@.O.n c ",
"*.*.&.| _ R T U R }  ...2 2 * 2 + w ( j j j j j j e @ 3 3 m w e j j m A A G G T Q ..&.*.*.*.*.*.*.+.*.*.*.*.+.*.*.*.*.*.+.+.O.O.",
"*.+.+.o.| } } } _ ........@ * 3 2 w j j B j j j j r 2 m F $ w w w e 2 F G P T E ] ..*.+.*.*.+.*.*.*.*.*.*.*.*.*.+.*.*.*.*.*.+.+.",
"*.+.+.o.....| ..#.o.o.*...> - 3 2 9 2 j j j j r 3 * A F S 2 + ; y F 2 G T _ ` ] ..%.*.*.*.+.*.+.*.*.*.+.+.=.*.*.*.*.+.*.*.*.*.*.",
"O.O.*.*.*.+.+.+.*.+.+.&.X.] ! > 2 >.q j j j B j e M Z G T R 2 U X G H T E ] ....*.+.+.*.*.*.*.*.+.*.*.*.*.+.*.+.*.*.*.*.*.*.*.*.",
"b n O.*.*.+.*.+.*.*.*.*.+...} E 2 @ ,.r X e j 2 2 A G T ` } } E T T T E ] #.o.*.*.+.*.+.*.*.*.*.*.*.*.@.+.*.*.*.*.*.*.*.*.+.+.*.",
"v n O.*.*.*.+.*.*.*.+.=.*.%...] W 2 6 e w t r * w F H W ' #.|  ._ Q } ] | ..*.+.*.*.*.*.*.*.*.*.*.*.*.*.*.*.*.*.*.*.+.*.*.*.*.*.",
"O.O.*.*.*.+.*.*.*.*.*.*.+.+.%. .] 3 8 q > 2 2 ; ,.S T _ #...&...........+.#.*.*.*.*.*.*.*.*.*.+.*.*.*.*.*.*.+.*.*.*.*.*.*.*.*.*.",
"*.+.*.*.+.*.*.*.*.*.+.*.*.*.*.+.%.] @ 0 ~ ~ ~ 8 A N T } ..*.+.&.X.&.%.*.*.*.+.*.*.*.+.*.+.*.*.*.*.*.+.*.*.+.=.*.*.*.+.*.*.*.*.*.",
"*.*.*.*.+.*.*.*.+.*.+.*.*.*.+.+.%.{ O + 8 ,.7 < A G E ' #.*.*.*.+.+.+.+.*.*.+.*.+.*.*.*.*.+.*.*.*.*.*.*.@.*.*.+.*.*.*.*.*.*.*.*.",
"*.*.*.*.*.*.*.*.*.*.*.*.*.*.+.*.+.%.| ` T 1 X G G T _ ..%.*.*.*.+.*.*.*.*.*.*.*.*.*.*.*.*.*.*.*.@.*.*.+.*.*.*.*.*.+.*.+.@.*.*.*.",
"*.*.*.+.*.*.*.*.*.=.+.*.*.*.*.*.+.*.X. .E R T H I W | ..*.%.&.*.*.*.*.*.*.*.*.*.*.*.*.*.*.*.*.+.*.*.*.*.*.*.*.*.+.*.*.*.*.*.*.*.",
"+.*.*.*.*.+.*.*.*.+.*.*.*.+.*.*.*.*.*.*.*.*.*.*.*.*.+.*.*.=.*.*.*.*.*.*.*.*.@.+.*.*.*.@.+.*.*.*.*.@.*.*.*.+.*.*.*.*.*.+.+.+.*.*.",
"*.*.*.*.*.+.=.+.@.*.*.*.*.*.*.*.*.*.*.*.*.*.*.*.*.*.*.*.*.*.=.*.*.*.*.*.*.*.*.+.+.*.*.*.*.*.*.*.*.+.*.*.*.*.+.*.@.*.*.*.*.*.*.*.",
"*.*.*.*.*.*.+.*.*.*.*.+.*.+.*.*.*.*.*.*.*.*.*.*.*.*.*.=.*.*.*.*.*.*.*.*.*.*.+.@.*.*.@.+.*.*.+.*.*.*.@.*.*.+.*.*.*.*.*.@.O.O.*.*.",
"*.*.*.+.*.+.*.*.*.*.*.*.@.*.+.*.*.*.*.*.*.*.*.*.*.*.*.*.=.*.*.*.*.*.*.*.*.*.+.*.*.*.*.*.*.*.*.*.*.+.*.*.*.*.+.*.*.*.*.O.n x O.*.",
"+.*.*.*.*.*.*.*.*.*.*.*.*.*.*.*.*.+.*.*.*.*.+.*.*.*.*.*.*.*.*.*.*.*.*.*.*.*.@.*.*.*.*.*.*.*.*.*.*.*.*.*.*.*.*.*.*.*.*.O.n x @.*.",
"*.*.*.*.+.*.*.*.*.*.*.@.*.*.*.*.*.*.*.*.*.*.+.*.*.+.+.*.*.*.*.*.*.+.+.*.*.*.*.*.*.*.*.*.*.*.+.*.*.*.*.*.*.*.*.*.+.*.*.*.X.X.O.*.",
"*.*.*.*.*.*.*.+.@.*.*.*.+.*.*.*.*.*.*.*.*.*.*.*.*.*.*.*.*.*.*.*.*.*.*.*.*.@.*.*.*.*.*.*.*.*.*.*.*.*.+.*.*.*.*.+.*.*.*.*.@.@.@.*.",
"*.*.*.*.*.*.@.*.+.*.*.*.*.*.*.*.*.*.*.*.*.*.*.*.+.*.*.+.*.*.*.*.+.*.*.*.*.*.*.*.@.*.*.*.*.*.*.*.*.*.*.*.*.*.+.+.*.*.*.*.*.*.*.@.",
"*.@.O.O.+.*.*.*.*.*.*.*.*.*.*.*.*.*.*.*.*.*.*.+.*.*.*.*.+.+.*.*.*.*.*.*.*.*.*.*.O.O.*.@.*.*.*.*.*.*.*.*.*.*.+.@.*.*.*.*.*.*.*.O.",
"*.O.n n O.*.+.*.*.+.+.*.*.*.*.*.+.*.*.*.*.*.*.*.*.*.*.*.*.*.*.*.*.*.*.*.*.*.*.O.x x @.@.*.*.*.*.*.+.*.*.*.*.*.*.+.*.*.*.*.*.*.*.",
"*.O.n n @.*.*.+.@.+.+.*.*.*.O.O.+.*.*.*.*.*.*.*.+.*.*.*.*.*.*.*.*.*.*.*.*.*.-.O.x x O.@.+.*.+.*.*.*.*.*.*.*.*.*.*.*.*.*.*.*.*.*.",
"*.@.O.O.*.*.*.*.*.*.*.@.O.O.O.x O.*.*.*.*.*.*.*.*.*.*.*.*.*.@.*.*.*.*.*.*.*.@.O.O.O.*.*.+.*.+.*.*.*.*.+.*.*.*.*.*.*.*.*.*.*.*.*.",
"*.*.*.*.*.*.*.*.*.+.*.@.*.O.v v @.*.*.*.*.*.*.*.X.*.*.+.O.*.*.*.*.*.@.*.*.@.*.@.*.*.*.@.*.*.*.*.+.*.*.*.*.*.*.*.*.*.*.*.*.*.*.*."
};
