/* XPM */
static char *monke_right[] = {
/* columns rows colors chars-per-pixel */
"64 64 222 2 ",
"   c #786B34",
".  c #3D3568",
"X  c #4B3D63",
"o  c #433A69",
"O  c #493F69",
"+  c #433966",
"@  c #513F61",
"#  c #5A455B",
"$  c #564A5A",
"%  c #5E505E",
"&  c #6E4E4F",
"*  c #7E5646",
"=  c #75534F",
"-  c #7B564C",
";  c #7E584B",
":  c #6A4E53",
">  c #654A55",
",  c #6E5054",
"<  c #6D535B",
"1  c #65575D",
"2  c #745453",
"3  c #795650",
"4  c #7D5A51",
"5  c #73595F",
"6  c #775959",
"7  c #704F50",
"8  c #75665C",
"9  c #736856",
"0  c #4E4165",
"q  c #4C4169",
"w  c #524363",
"e  c #574B65",
"r  c #5C4C64",
"t  c #534669",
"y  c #564969",
"u  c #5B4C69",
"i  c #584664",
"p  c #5D5363",
"a  c #5E506A",
"s  c #594C72",
"d  c #5E5170",
"f  c #634E61",
"g  c #614E6A",
"h  c #655263",
"j  c #6A5562",
"k  c #635965",
"l  c #625169",
"z  c #6B5B69",
"x  c #715B6D",
"c  c #765C65",
"v  c #655571",
"b  c #6E5C74",
"n  c #715F76",
"m  c #6E6164",
"M  c #746463",
"N  c #7B6B63",
"B  c #7C626C",
"V  c #796667",
"C  c #796577",
"Z  c #6E607D",
"A  c #815847",
"S  c #845C4A",
"D  c #845B49",
"F  c #835D50",
"G  c #8A624E",
"H  c #8E6B4A",
"J  c #876A4F",
"K  c #916E4C",
"L  c #95724D",
"P  c #8D6552",
"I  c #85635B",
"U  c #8B6759",
"Y  c #8B685C",
"T  c #886956",
"R  c #946C55",
"E  c #966E5A",
"W  c #956D56",
"Q  c #857758",
"!  c #997255",
"~  c #9B7359",
"^  c #A27A5C",
"/  c #A37A5D",
"(  c #876967",
")  c #916E65",
"_  c #877566",
"`  c #9A7E6A",
"'  c #977566",
"]  c #856C75",
"[  c #8F7173",
"{  c #89727B",
"}  c #9B7C7B",
"|  c #957879",
" . c #A17F75",
".. c #93852D",
"X. c #AC9F3F",
"o. c #B8A92E",
"O. c #C5B33C",
"+. c #DFCC2E",
"@. c #DCCA39",
"#. c #E3D02F",
"$. c #E0CE3A",
"%. c #E3D13B",
"&. c #98874D",
"*. c #9D914D",
"=. c #9A8E52",
"-. c #968758",
";. c #9D9153",
":. c #8F825A",
">. c #A8974C",
",. c #B29D4E",
"<. c #A9855C",
"1. c #A88656",
"2. c #A39552",
"3. c #A69953",
"4. c #AA9956",
"5. c #B49A55",
"6. c #B89A5B",
"7. c #B49758",
"8. c #AEA14A",
"9. c #B3A64C",
"0. c #B6A949",
"q. c #BBAD4C",
"w. c #B8AA45",
"e. c #BFB04E",
"r. c #BFB045",
"t. c #B2A357",
"y. c #BEAA54",
"u. c #B4A45A",
"i. c #B7A85E",
"p. c #BDAD5D",
"a. c #B9A557",
"s. c #AEA15B",
"d. c #988764",
"f. c #9A817E",
"g. c #AD8561",
"h. c #A3846C",
"j. c #A68765",
"k. c #B48C63",
"l. c #B48C66",
"z. c #A79763",
"x. c #BA9266",
"c. c #BF9768",
"v. c #B39968",
"b. c #A3837C",
"n. c #A98878",
"m. c #B08E7E",
"M. c #B59A79",
"N. c #BCAA62",
"B. c #C2B34E",
"V. c #C2B346",
"C. c #C4AC5C",
"Z. c #C2A75C",
"A. c #C4B551",
"S. c #C7B852",
"D. c #CBBC54",
"F. c #C3B45E",
"G. c #CDB95B",
"H. c #CAB458",
"J. c #D1BB5D",
"K. c #D2BD50",
"L. c #D0BB4F",
"P. c #C19969",
"I. c #CCBA62",
"U. c #C6B560",
"Y. c #C1AA68",
"T. c #D8C84D",
"R. c #CFC056",
"E. c #D2C257",
"W. c #DBCB53",
"Q. c #D5C55A",
"!. c #DCCC5C",
"~. c #D8C75A",
"^. c #E0CF5E",
"/. c #E0CF52",
"(. c #E4D354",
"). c #E3D25E",
"_. c #E8D75F",
"`. c #E2D04F",
"'. c #DAC861",
"]. c #E1CF60",
"[. c #E5D460",
"{. c #7E738D",
"}. c #8E7780",
"|. c #957C80",
" X c #887D96",
".X c #9C8082",
"XX c #A38582",
"oX c #AB8C84",
"OX c #A78B87",
"+X c #AE928D",
"@X c #B3948A",
"#X c #BB9A8C",
"$X c #B59484",
"%X c #B49992",
"&X c #BE9D91",
"*X c #B29794",
"=X c #B08F81",
"-X c #C29F89",
";X c #C3A393",
":X c #CDAD9B",
">X c #C7A899",
",X c #D0AF9A",
"<X c #D2B19F",
"1X c #CCAEA2",
"2X c #C5A9A0",
"3X c #CEB2A7",
"4X c #D4B4A1",
"5X c #DBBAA5",
"6X c #DDBDAA",
"7X c #D3B6A6",
"8X c #E0BFAB",
"9X c #DDC5B8",
"0X c #E3C3AC",
"qX c #EACAB2",
"wX c #E5C7B3",
"eX c #EBD2BF",
"rX c #F3D2B9",
"tX c #D2CACF",
"yX c #EDD3C1",
"uX c #ECD3C1",
"iX c #F8EBE0",
"pX c #F7EADF",
/* pixels */
"[.[.[.[.[.[.[.[.[.[.[.[.[.[.[.[.[.[.[.[.[.[.[.[.[.[.[.[.[.[.[.[.[.[.[.[.[.[.[.[.[.[.[.[.[.[._.[.[.[.[.[.[.[.[.[.[.[.[.[.[.[.[.[.",
"[.[.[.[.[.[.[.[.[.[.[.[.[.[.[.[.[.[.[.[.[.[.[.[.[.[._._.(.(.[.[.[.[.[.[.[.[.[.[.[.[._.[.[.[.[.[.[.[._._.(.(.[.[.[.[.[.[.[.[.[.[.",
"[.[.[.[.[.[._.[.).[.[.[.[.[.[.[.[.[.[.[.[._.[.[.[.[.[.(.%.%.(.[.[.[.[.[.[.[.[.[.[.[.[.[.[.[.[.[.[.[.[.(.%.%.(.[.[.[.[.[.[.[.[.[.",
"[.[._.[.[.[.[.[.[.[.[.[.[.).[.[.[.[.[.[.[.[.[.[.[.[.[.(.%.%.(.[.[.[.[.[.[.[.[.[.[.[.[.[.[.[.[.[.[.[.[.(.%.%.(.[.[.[.[.[.[.[.[.[.",
"[.[.[.[.[.[.).[.[._.[.).^.[.[.[.[.[.[.[.[.[.[.[.[.[.[._.(.(.).[.[.[.[.[.[.[.[.[.[.[.[.[.[.[.[.[.[.[.[._.(.(._.[.[.[.[.[.[.[.[.[.",
"[.[.[.[.[.[._.).(.W.).[.[.!.J.G.J.J.J.'.[.[.[.[.[.[.[.[.[.[.[.[.[.[.[.[.[.[.[.[.[.[.[.[.[.[.[.[.[.[.[.[.[.[.[.[.[.[.[.[.[.[.[.[.",
"[.[.[.[.).[.'.W.@.@.(.)._.J.6.<.1.<.<.6.'.[.[.[.[.[.[.[.[.[.[.[.[.[.[.[.[.[.[.[.[.[.[.[.[.[.[.[.[.[.[.[.[.[.[.[.[.[.[.[.[.[.[.[.",
"[.[.[.).).[.[.(.@.@.K.G.G.Z.<.^ ~ ^ ^ <.Z.'.[.[.[.[.[.[.[.[.[.[.[.[.[.[.[.[.[.[.[.[.[.[.[.[.[.[.[.[.[.[.[.[.[.[.[.[.[.[.[.[.[.[.",
"[.[.[.).).).!.^.(.L.5.1.1.<.l.x.k.k.k.g.<.6.J.[.[.[.[.[.[.[.[.[.^.[.[.^.[.).[.[.).^.[.[.[.[.[.[.[.[.[.[.[.[.[.[.[.[.[.[.[.[.[.[.",
"[.[.).[.!.).!.~.J.a.^ E ~ / x.P.P.P.P.x.^ <.J.[.[.[.[.[.[.[.[.[.[.^._.[.[.'.J.H.J.J.J.J.J.J.J.J.[.[.[.[.[.[.[.[.[.[.[.[.[.[.[.[.",
"!.[.).!.!.!.W.G.7.^ ! ~ g.x.c.P.P.P.P.l.^ 1.J.[.[.[.[.).].).[.^.^.^.^.^.).K.>.! ^ <.<.<.1.1.<.6.~.[.[.[.[.[.[.[.[.[.[.[.[.[.[.[.",
").[.).!.!.!.E.C.1.E ~ g.x.P.P.P.P.c.c.g.W 1.J.[.[.[.].[.[.).).).).~.J.H.H.6.K F ! ^ ^ ^ ^ ^ ^ <.C.J.J.J.[._.[.[.[.[.[.[.[.[.[.[.",
"!.].!.!.~.E.E.y./ ^ <.x.c.P.P.P.P.x.<.! G L G.[.).).[.).).).^.!.^.J.1.L L L R W <.x.k.x.k.k.k.g.k.<.<.6.~.[.[.[.[.[.[.[.[.[.[.[.",
"[.!.!.!.E.H.y.5.1./ x.c.x.k.l.k.k./ ! P K 2.G.[.[.).[.^.).'.!.!.H.5.H * D S R ^ x.P.P.P.P.P.P.x./ ^ ^ <.Z.~.[.[.[._.(.(._._.[.[.",
").!.!.E.K.y.&.! <.c.P.x./ ^ / ~ R G D L 6.J.!.[.[.^.^.^.!.!.!.H.1.H A D P R E ^ x.P.P.P.P.P.P.x.x.k.x.g.k.6.J.[.[.(.%.%.(.[.[.[.",
"!.!.Q.E.L.,.H G / x.c.g.^ R R R K H K 1.K.).[.^.^.^.^.!.!.E.C.2.H * A G R W ! ^ <.x.k.x.P.P.P.P.P.P.x.k./ g.C.'.[.(.%.%.(.[.[.[.",
"!.!.Q.R.S.,.H G W ^ / ^ ~ R D K >.Z.y.H.!.).^.^.^.^.!.!.~.p.d.8 F D G R W ~ E ~ ^ / / / 6.P.P.P.P.x./ / k.k.1.6.J._.(.(._.[.[.[.",
"!.Q.E.D.A.>.H S R E ! E R P H &.Z.K.~.!.!.).^.^.^.!.~.~.E.u.V > = D R ~ ~ ~ E E R R R ~ / k.P.P.x.<.^ ^ g./ ^ 1.J._.[.[.[.[.[.[.",
"!.Q.D.S.B.>.H S R ! E R G H 2.Z.L.E.!.!.^.!.).!.!.~.Q.E.R.s.N r = S R ~ W E ~ W S S S G ^ / x.x./ ^ ! W ^ ^ E <.J._._.[.[.[.[.[.",
"Q.E.D.S.e.>.J 4 U ~ W P - K a.E.E.~.!.!.^.).).!.!.Q.Q.S.t.-.m 1 3 D P R W ~ W P S S P ) / / n.g./ / / n.n.h.' g.J._._.^.[.[.[.[.",
"~.E.D.A.e.2.8 6 U R G ; 1 N u.Q.!.!.!.^.).^.!.!.~.E.R.t.N r u 1 3 D S F W W F S A F  .$XM.m.} ' [  .>X5X5X>X .h.I._.).[.[.[.[.[.",
"Q.E.S.B.e.;.M j I R S = % N i.!.!.!.].!.^.^.!.!.~.E.R.2.p o y h 2 - D S P P S A F ) $X;X;X#XoXb.} oX8XrXrX<X .h.J._.[.[.[.[.[.[.",
"Q.E.S.B.q.2.M h 4 S A 7 # k i.^.!.).^.[.).^.!.!.Q.R.S.2.p o e l f < - D A S A S I ` $X;X;X>X4X<X&X;X8XqX5X;X .h.I.[.[.[.[.[.[.[.",
"Q.E.S.B.q.2.M h = A A 7 X k i.).).).).).^.!.!.!.R.D.S.;.1 o e a l f 3 A A A A P [ XX$X;X>X4X0X0X<X4XqX8X@X|.| n.Y.J.[.[.[.[.[.[.",
"Q.E.D.A.e.;.M r = A A & X k p._.).[.'.).^.^.!.Q.R.R.e.=.p + y l l f = A * * * P n.#X#X>X6X0X<X<X0XqXrX3X{.n .X=Xn.v.J.[.[.[.[.[.",
"Q.E.A.B.r.>.Q 8 6 - - = w p d.G.!.[.).).].!.Q.E.R.e.e.=.p o y a l j I E ' E F R m.;X>X4X0X4X+X*X6XrXrX3X X{.%X&X .h.I.[.[.[.[.[.",
"~.E.D.V.o.o.>.-.8 < - = h u p _ U._._.).].!.~.E.R.S.e.=.$ o e a l x b.#X,X-XE U m.>X6X0X<X+Xn C 3XrXrXeXtXtX9X4XXXh.I._.[.[.[.[.",
"Q.E.D.V.o.o.o.;.c r = ; < r q p z.U.'.).].!.~.R.R.e.q.*.9 $ i e r C @X4X5X;X) P m.:XqXqX5X*X{. X3XrX0XeXpXpXyX:X|.` H.(._.[.[.[.",
"!.E.D.S.r.r.q.=.p @ 7 A ; < r u p _ U.).^.!.~.R.e.e.r.>...  $ 0 q }.2X6X#X} F E n.,XqXrXwX9XtXtXuXwX4X5XyXyX0X%XC T O.%.(.[.[.[.",
"!.Q.E.S.e.e.q.2.9 % > = * ; 2 r q p z.G.~.!.~.R.i.3.2.&...  $ o q C *X>XoX) F I b.;X5X0X0XyXiXiXuX7X&X#X>X2X+X.X_ -.O.%.(.[.[.[.",
"!.Q.E.G.A.e.q.9.2.Q % # = A ; < r a M d.G.!.W.p.:.M M 8 9 1 1 t q y C | oXb.x c [ oX;X:X:X5XyXyX5X-XXX| { C n _ v.G.W.(._.[.[.[.",
"!.!.Q.K.S.A.q.q.e.>.8 % : 7 = 2 1 f y z z.i.i.2.8 k 1 f 1 f g r 0 0 t v |.|.n l B [ XX$X@X&X4X,X#Xb.] V M M M d.U.[.[.[.[.[.[.[.",
"^.!.~.Q.D.A.e.q.e.9.3.Q % w r 1 = , 0 t m ( N N 4 = = = 2 2 h h , > w q y d a l l x [ } }  .|. ./ F g g -.u.i.p.!.).).).).[.[.[.",
"^.!.~.~.E.D.A.e.q.r.e.3.8 p M 8 2 > X q y u f < = D S S G 4 < < 4 ; # X w i h j < c ( ( ) ( ( I 6 : f N t.E.W.!.^.^.).).[.[.[.[.",
"^.^.!.~.Q.D.S.A.e.e.e.9.2.2.3.-.1 0 + o y h 2 = D S P R R P 4 4 T P 2 2 6 I Y I ; = F F F F F 2 # 1 :.t.R.Q.!.^.^.).).).[.[.[.[.",
"[.^.!.!.~.E.R.S.e.e.q.q.e.e.A.3.p . o 0 r < ; A S G R ~ ! R G G R H G G ! ~ ^ ~ W P S D A A A & X k 4.E.E.Q.!.^.).).).).[.[.[.[.",
"^.^.^.^.!.Q.Q.D.S.A.e.e.q.e.r.;.% . q p 2 = ; S P W E ! ~ W R P S G P R ~ ^ g.x.k.1.W P D A A : X p s.W.~.~.^.^.].[.[.[.[.[.[.[.",
"[.[.^.^.!.!.Q.Q.E.S.A.e.e.9.;.Q p q h < - A A S P W E ~ ^ ~ ~ R F F P R W ^ g.x.P.l.^ P G S ; : X k u.!.!.^.^.^.).[.[.[.[.).(.(.",
").).[.^.^.!.!.Q.E.D.S.A.e.3.9 p r r , ; - A * A S G W ^ g.k.~ Y c < 4 G R ~ ^ <.c.k.W S P U 5 r + p i.^.^.^.^.^.).[.[.[.[.(.%.#.",
"[.)._.[.[.!.!.!.Q.E.D.S.e.=.p . y h ; A D D S S ; D R ^ k.k./ Y j f 3 D R W E ^ k.<.G D R Y h u a _ p.^._.^.[.[.[.[.[.[.[.(.%.#.",
"[.[.).).).^.^.~.Q.E.R.S.e.;.p . y h ; ; A S P R S S R ~ ^ ^ ~ Y z f = D R E ! ~ ^ ! S D R I r p d.p.'.).).).).[.[.[.[.[.[.).(.(.",
"[.[.[.[.).).^.^.!.Q.R.S.e.=.p q y h 2 ; ; S R G S S P E E W R I j j F G R E ! E R P S P U 5 0 k p.).).).).[.).[.[.[.[.[.[.[.[.[.",
"[.[.[.[.).).^.!.~.E.R.S.e.;.p . e l h < ; A D S D A D G R W G 4 h j I W ! ~ E R G G R U c r + k i.).).).).).[.[.[.[.[.[.[.[.[.[.",
"(.(.^.[.).).].!.Q.R.R.S.e.*.9 p i u a h = ; ; = - A A D P P S 2 < 5 Y ~ ! E E P 4 S P I h e a _ p.).).).).[.[.[.[.[.[.[.[.[.[.[.",
"#.%.(.[.).).^.!.~.Q.R.e.e.9.2.9 r O u j ; 3 1 < 3 D A A D F < 1 2 4 R ! ~ R G S < < F 2 @ l d.F.!.).).).).[.[.[.[.[.[.[.[.[.[.[.",
"#.%.(.[.[.).].!.~.Q.R.e.q.q.w.&.% o y f 3 ; < < - A A - = , < < F G R E R P 2 , < 1 , > w V p.).).).).).[.[.[.[.[.[.[.[.[.[.[.[.",
"(.(.).[.).).].^.!.Q.R.A.e.0.0.&.e + y 1 = A - 3 A A A = # # : F P W E R G 2 # # : , # i x ` U.).[.[._.[.[.[.[.[.[.[.[.[.[.[.[.[.",
"[.[.[.[.).).].^.~.Q.R.S.e.q.0.*.9 e e g 2 - - A = = 2 > w X > 4 P R R P ; > 0 w : : X t B h.N.U.N.R.!.).[.[.[.[.[.[.[.[.[.[.[.[.",
"[.[.[.[.[.).).^.!.Q.E.R.e.e.q.3.*.9 % q p 1 3 - < p # 0 w y w # F S D 3 # w w u f f X O ] ` h.d.N d.'.]._.[.[.[.[.[.[.[.[.[.[.[.",
"[.[.[.[.).[.).^.^.!.Q.R.e.e.0.0.8.&.% q v V Y I c r o o t y O w 6 F F , X o l x n n v v x x ] B N d.R.[.[.[.[.[.[.[.[.[.[.[.[.[.",
"[.[.[.[.[.).).).^.!.Q.E.R.e.e.0.9.&.p s | +X=Xn.[ x q . + O y l ( ( ( c 0 O x [ XX@XoX}.d t l ( M.R.'.[.[.[.[.[.[.[.[.[.[._.[.[.",
"[.[.[.[.[.[.).).^.!.!.E.R.S.e.0.9.&.e s .X:X:X>X@X| n u t t y l c [ b.} {.C { b.XXOX+X|.v O y N N.[.[.[.[.[.[.[.[.[.[.[.[.[.[.[.",
"[.[.[.[.[.[.[.).^.^.!.Q.R.S.e.q.0.&.e s XX,X8XwX6X1X@X} ] z y X g { >X6X3X2X&XXXn v b x C x u N p.[.[.[.[.[.[.[.[.[.[.[.[.[.[.[.",
"[.[.[.[.[.[.[.).).^.!.'.E.R.e.e.0.*.9 k |.%X,X8XwX0X4X;X@X|.Z l l ] *X3X3X1X&X.Xv y z ( d.d._ d.R.[.[.[.[.[.[.[.[.[.[.(.(.(.[.[.",
"[.[.[.[.[.[.).).).^.!.!.Q.E.S.e.q.8.*.:.V ] } @X;X<X0XqX8X1X@X|.[ B {.d C }.} [ ] ( 2.u.p.p.p.p.'.[.[.[.[.[.[.[.[._.[.(.%.%.(.[.",
"[.[.[.[.[.[.[.).).^.].!.Q.E.R.e.q.0.0.>.8 M V [ XX;X6X0X6X1X&XXXh.( h r 1 N ' ` ` z.y.D.E.!.^.).].].].[.[.[.[.[.[.[._.(.%.`.(.[.",
"[.[.[.[.[.[.[.[.).).^.^.Q.Q.R.e.e.q.9.8.2.:.z x [ OX;X>X@Xf.C ] -.3.=.=.;.3.4.t.u.p.S.R.E.!.!.).).).[.[.[.[.[.[.[.[.[.[.(.(.[.[.",
"[.[.[.[.[.[.[.[.[.).].^.!.Q.R.R.e.e.q.9.w.2.Q N ) d.M.M.h._ N Q 3.q.q.r.q.e.B.B.S.D.R.E.E.!.!.^.).[.).[.[.[.[.[.[.[.[.[.[.[._.[.",
"[.[.[.[.[.[.[.[.).[.].^.!.!.E.R.S.A.e.q.0.9.2.;.4.4.a.a.t.5.3.8.y.e.e.B.A.S.D.K.R.R.Q.Q.!.!.).).).[.[.[.[.[.[.[.[.[.[.[.[.[.[.[.",
"[.[.(.(.).[.[.[.[.).).].^.!.Q.E.E.S.e.e.q.0.r.q.q.q.q.e.B.B.A.S.A.S.S.D.D.R.E.E.T.T.!.!.^.).).).[.).[.[.[.[._.[.[.[.[.[.[.[.[.[.",
"[.(.`.%.(.[.[.[.[.).[.).^.^.!.Q.R.R.S.A.A.B.B.A.A.A.B.A.S.D.R.R.R.E.R.E.Q.Q.Q.T.@.@.T.^.).).).[.[.[.[.[.[.[.[.[.[.[.[.[.[.[.[.[.",
"[.(.%.%.(.[.[.[.[.[.[.).).^.W.W.W.~.E.R.D.S.H.D.S.D.D.D.R.Q.R.Q.Q.Q.Q.!.~.!.!.W.@.$./.^.^.[.).).[.[.[.[.[.[.[.[.[.[.[._.[.[.[.[.",
"_.).(.(.).[.[.[.[.[.[.[.).(.@.@.T.!.~.E.E.E.E.E.E.E.E.Q.Q.~.!.!.!.!.!.!.!.!.!.).!./.).[.).).[.[.[.[.[.[.[.[.[.[.[.[.[.[.[.[.[.[.",
").[._.).[.[.[.[.[.[.).[.)./.+.+.W.!.!.!.~.~.Q.Q.Q.Q.Q.!.!.!.!.!.!.!.).!.).^.^.).^.[.^.).).[.[.[.[.).[.[.[.[.[.[.[.[.[.[.[.[.[.[."
};
