/* XPM */
static char *monke_idle_64x64[] = {
/* columns rows colors chars-per-pixel */
"64 64 216 2 ",
"   c #4C3D61",
".  c #453C68",
"X  c #6D4D4F",
"o  c #7E5545",
"O  c #75534E",
"+  c #7A564D",
"@  c #7F594C",
"#  c #684D56",
"$  c #6D535C",
"%  c #69515D",
"&  c #745453",
"*  c #7D5951",
"=  c #70565E",
"-  c #775A58",
";  c #73615D",
":  c #7E6A5E",
">  c #756057",
",  c #534362",
"<  c #5D4C65",
"1  c #554868",
"2  c #5E4F69",
"3  c #534A63",
"4  c #5A5261",
"5  c #4B4167",
"6  c #634E61",
"7  c #655162",
"8  c #6B5563",
"9  c #6C5A63",
"0  c #64536A",
"q  c #6B5A6A",
"w  c #735E6D",
"e  c #735B65",
"r  c #6F5C70",
"t  c #715F76",
"y  c #736461",
"u  c #7C6C65",
"i  c #796466",
"p  c #7D6A7B",
"a  c #786575",
"s  c #6D6061",
"d  c #815847",
"f  c #845B4B",
"g  c #80574B",
"h  c #825C51",
"j  c #8B634E",
"k  c #90674F",
"l  c #916A4E",
"z  c #95724D",
"x  c #99774F",
"c  c #8B6554",
"v  c #84635B",
"b  c #89665B",
"n  c #8C695B",
"m  c #8A6857",
"M  c #936B54",
"N  c #946D5B",
"B  c #946B55",
"V  c #847659",
"C  c #9A7256",
"Z  c #9B7359",
"A  c #97725C",
"S  c #A0775B",
"D  c #A37A5C",
"F  c #A87F5D",
"G  c #8C6A63",
"H  c #8B6B6B",
"J  c #846A65",
"K  c #906E66",
"L  c #8A7567",
"P  c #9B7562",
"I  c #977B66",
"U  c #9A7C65",
"Y  c #9C7D69",
"T  c #95746A",
"R  c #846D76",
"E  c #8F7172",
"W  c #8A757A",
"Q  c #9A7A74",
"!  c #9B7B79",
"~  c #94787C",
"^  c #A27F69",
"/  c #DFCC2E",
"(  c #DDCB39",
")  c #D9C737",
"_  c #E2CF2F",
"`  c #E3D02F",
"'  c #E1CF3A",
"]  c #E3D13B",
"[  c #9A8C4E",
"{  c #91864E",
"}  c #9C8E50",
"|  c #998658",
" . c #9E9051",
".. c #A88C4E",
"X. c #A7984E",
"o. c #A98B51",
"O. c #A9845C",
"+. c #A68557",
"@. c #B1895F",
"#. c #B0875F",
"$. c #A39453",
"%. c #AC9B53",
"&. c #A5915D",
"*. c #AA9755",
"=. c #B39D55",
"-. c #B79B57",
";. c #AFA146",
":. c #B1A446",
">. c #B4A64A",
",. c #B6A949",
"<. c #BBAD4C",
"1. c #BEB04E",
"2. c #B3A254",
"3. c #BCAB54",
"4. c #B4A359",
"5. c #BCAB5D",
"6. c #BAA456",
"7. c #AEA059",
"8. c #9E816F",
"9. c #968664",
"0. c #9E807B",
"q. c #AE8661",
"w. c #A28469",
"e. c #A88865",
"r. c #B48C62",
"t. c #B88F64",
"y. c #B38B67",
"u. c #AC9663",
"i. c #BA9265",
"p. c #BA9967",
"a. c #A4837B",
"s. c #A78977",
"d. c #B08E7C",
"f. c #B6947A",
"g. c #BAA763",
"h. c #BDA17D",
"j. c #C1B34E",
"k. c #C4B551",
"l. c #C7B851",
"z. c #CBBC54",
"x. c #C5B45D",
"c. c #CAB45A",
"v. c #CDB95B",
"b. c #CAB657",
"n. c #D1BB5C",
"m. c #D3BE50",
"M. c #C19A66",
"N. c #C29A69",
"B. c #C29C74",
"V. c #C3B361",
"C. c #CDBA62",
"Z. c #CBB762",
"A. c #D2BE66",
"S. c #CAAB75",
"D. c #D8C84E",
"F. c #CFC055",
"G. c #D1C256",
"H. c #DCCB50",
"J. c #D5C559",
"K. c #D8C75A",
"L. c #DCCC5C",
"P. c #E2D14F",
"I. c #E0CF5D",
"U. c #E0CF52",
"Y. c #E4D354",
"T. c #E3D25E",
"R. c #E8D75F",
"E. c #D8C565",
"W. c #E5D460",
"Q. c #E0CE60",
"!. c #7E738D",
"~. c #997E80",
"^. c #887D95",
"/. c #9D8080",
"(. c #A58580",
"). c #AB8B84",
"_. c #A68A87",
"`. c #AD918C",
"'. c #B29284",
"]. c #BA9886",
"[. c #B3948A",
"{. c #BD9C8C",
"}. c #B49992",
"|. c #BC9D91",
" X c #B49994",
".X c #BCA39D",
"XX c #C19F89",
"oX c #C6A788",
"OX c #C2A293",
"+X c #CEAC97",
"@X c #CDAD9C",
"#X c #C4A79A",
"$X c #D1B19E",
"%X c #DAB89D",
"&X c #D0AD98",
"*X c #C9ACA0",
"=X c #CFB5AA",
"-X c #CBB0A6",
";X c #D4B4A1",
":X c #DABAA6",
">X c #DCBCAA",
",X c #D3B7A8",
"<X c #DDC4B6",
"1X c #E2C2AC",
"2X c #E8C6A7",
"3X c #EBCAB3",
"4X c #E9CCB8",
"5X c #EBD1BF",
"6X c #F3D3BA",
"7X c #D4CACB",
"8X c #D3CBD0",
"9X c #E7CFC1",
"0X c #EED4C1",
"qX c #F0DCCF",
"wX c #EEE2D9",
"eX c #F7EBE0",
/* pixels */
"W.W.W.W.W.W.W.W.W.W.W.W.W.W.W.W.W.W.W.W.W.W.W.W.W.W.W.W.W.W.W.W.W.W.W.W.W.W.W.W.W.W.T.W.W.W.W.R.W.W.W.W.W.W.W.W.W.W.W.W.W.W.W.W.",
"W.W.W.W.W.W.W.W.W.W.W.W.W.W.W.W.W.T.W.W.W.W.W.W.W.W.T.R.Y.Y.R.W.W.W.W.W.W.W.W.W.W.W.W.W.W.W.W.W.W.W.R.T.Y.Y.W.W.W.W.W.W.W.W.W.W.",
"W.W.W.W.W.W.W.W.W.W.W.W.W.W.W.W.W.W.W.W.W.W.W.W.W.W.W.Y.] ] Y.W.W.W.W.W.W.W.W.W.W.W.W.W.W.W.W.W.W.W.W.Y.] ] Y.W.W.W.W.W.W.W.W.W.",
"W.W.R.W.W.W.W.W.W.W.W.W.W.W.W.W.W.W.W.W.W.R.W.W.W.W.W.Y.] ] Y.W.W.W.W.W.W.W.W.W.W.W.W.W.W.W.W.W.W.W.W.Y.] ] Y.W.W.W.W.W.W.W.W.W.",
"W.W.W.W.W.W.W.W.W.W.W.W.W.W.W.W.W.W.W.W.T.W.W.W.W.W.W.R.Y.Y.T.W.W.W.W.W.W.W.W.W.W.W.W.W.W.W.W.W.W.W.W.R.Y.Y.R.W.W.W.W.W.W.W.W.W.",
"W.W.W.W.W.W.W.T.Y.Y.R.Q.K.v.v.n.L.T.T.T.T.W.W.W.W.W.W.W.W.W.W.W.W.W.W.W.W.W.W.W.W.W.W.W.W.W.W.W.W.W.W.W.W.W.W.W.W.W.W.W.W.W.W.W.",
"W.W.W.W.W.W.W.Y.] ] Y.K.o.z z o.v.R.T.T.T.T.T.T.W.W.W.W.W.W.W.W.W.W.W.W.W.W.W.W.W.W.W.W.W.W.W.W.W.W.W.W.W.W.W.W.W.W.W.W.W.W.W.W.",
"W.W.R.W.W.W.W.Y.] ] m.-.z g g z 4.v.L.I.I.I.T.T.W.W.W.W.W.W.W.W.W.W.W.W.W.W.W.W.T.W.W.W.W.W.W.W.W.W.W.W.W.W.W.W.W.W.W.W.W.W.W.W.",
"W.W.W.W.W.W.W.R.Y.m.o.z M k k B z o.b.L.L.I.T.T.W.W.R.T.T.R.R.T.T.W.W.W.R.R.I.Q.R.Q.R.T.W.W.W.W.W.W.W.W.W.W.W.W.W.W.W.W.W.W.W.W.",
"W.W.W.W.W.W.R.I.A.6.z h C D S c * l 3.K.L.L.I.T.T.I.n.n.n.n.n.v.v.n.v.v.b.n.I.I.I.W.W.T.T.W.W.W.W.R.W.W.W.W.W.W.W.W.W.W.W.W.W.W.",
"W.R.W.W.W.W.R.n.o.z k Z F q.S n = : 4.G.K.K.L.T.T.n.-.O.O.+.O.O.+.+.O.+.S ..v.R.T.I.I.I.I.W.W.W.T.W.W.W.W.W.W.W.W.W.W.W.W.W.W.W.",
"W.W.W.W.W.W.R.c.x f C F N.r.^ h 7 u 7.F.F.G.v.v.n.Z.#.S S S S ^ S ^ Z C f z -.c.c.v.L.T.T.T.T.I.T.T.W.T.W.W.W.W.W.W.W.W.W.W.W.W.",
"W.W.W.W.W.W.W.c.z f F M.N.r.M g 7 y %.l.m.j.-.@.M.N.p.t.r.r.r.r.r.t.t.q.C C D +.x o.v.T.T.T.I.W.W.W.W.W.W.W.W.W.W.W.W.W.W.R.W.W.",
"W.W.W.W.W.W.W.v.x k @.N.N.q.c & - V &.3.6.=.F ^ i.M.i.i.M.N.N.N.N.M.i.q.S N N k f l *.5.g.x.K.T.I.I.T.T.T.Q.W.W.W.R.Y.Y.R.R.W.W.",
"W.W.W.W.W.W.R.c.z k @.N.N.e.v e | $.+.D +.O.q.i.M.t.F O.t.N.N.N.N.t.q.S C C N B C n J u u 9.x.T.I.T.L.W.W.W.W.W.W.Y.] ] Y.W.W.W.",
"W.R.W.W.Q.R.R.c.x f ^ i.N.e.q 9 { ..x C B S t.M.t.q.S S y.t.r.r.t.q.S N C N C M B c $ 6 7 : &.x.J.L.I.L.W.W.W.W.W.Y.] ] Y.W.W.W.",
"W.W.W.W.W.W.R.c.x f C q.i.w.0 , > l B C N S t.i.F S C Z S D D D D S C C C B c f f f + O O - ; 9.x.K.L.L.T.T.W.W.W.T.Y.Y.W.W.W.W.",
"W.W.W.W.W.W.T.c.z f k D t.^ 2   # f B C C S q.y.^ N B c B B C N C B N B B c f g d @ d d d O 6 u 4.J.K.L.L.I.T.T.W.W.W.W.W.W.W.W.",
"W.W.W.Q.W.W.W.c.z f M D i.^ 6 . < = n C C C S P K G c f g f C A C N j f f f f o @ o @ d d O 6 i 4.F.J.K.L.L.I.T.T.W.W.W.W.W.W.W.",
"W.W.W.R.W.I.R.c.z g k D t.w.2 . 1 9 n C C C C A T G h o d f k C C k f o o d o o d d d d d + % u %.z.G.J.L.L.I.W.T.W.W.W.W.W.W.W.",
"W.W.W.W.W.W.W.c.z g M D t.w.2 . 1 9 n Z A C N N T G * o o f B C A B f o o o o o @ @ d d d O 7 y *.k.z.F.K.L.I.I.I.W.W.W.W.W.W.W.",
"W.W.W.W.W.W.R.v...l M S t.w.0 . 1 8 v B B B N P Q Q T P N N N N N N n N P P N c f o + + + $ 6 y $.1.l.z.G.K.L.I.T.W.W.W.W.W.W.W.",
"W.W.W.W.W.W.Q.I.n.-.z C @.e.w 1 < 6 h f f h G Q a.XX@X+X].a.T H T T a.].&X&X{.^ c O $ 7 8 7 4 ; $.1.k.z.G.K.L.I.I.W.W.W.W.W.W.W.",
"W.W.W.W.Q.W.W.I.I.c.z f F e.u r p H h d g h T (.OX:X1X1X;XOX(.Q ~ a.OX:X1X1X;X{.U v 8 2 2 q a W &.2.1.l.F.K.L.I.I.W.W.W.W.W.W.W.",
"W.W.W.W.W.W.W.T.T.c.l f B P H ! .X{.N o o c a.OX:X1X;X;X1X>X|.'.'.OX>X1X;X;X1X:X{.! i 1 2 a  X#Xs.e.2.l.F.J.L.I.I.W.W.W.W.W.W.W.",
"W.W.R.R.Y.Y.I.W.T.n...l M n K ).>X:XP o o N ].;X1X;X`.}.>X3X:X@X+X;X4X>X}.`.;X1X;X}.a 2 1 W ,X>X_.U 2.k.F.J.K.L.I.I.T.W.W.W.W.W.",
"W.W.W.Y.' ] Y.W.I.L.v.=.l h G ).>X:XP o o P +X1X;X`.t p =X6X3X1X1X3X6X-X!.t `.;X1X@Xp < 2 R =X1X_.U 2.k.z.F.K.L.I.I.W.W.W.W.W.W.",
"W.W.W.Y.' ' Y.W.T.T.I.b...M J ! ;X&XP o o A +X1X;X X!.^.=X6X6X6X6X6X6X=X^.!. X;X1X@XR # % R @X-X0.L %.1.z.F.J.L.I.T.Y.Y.T.W.W.W.",
"W.W.W.R.Y.Y.R.I.I.T.I.K.b.*.i R }.{.N o o N ].:X>X<X8X8X9X6X6X6X6X6X6X9X7X7X<X1X:X].G O O G {.}.R u $.j.l.F.J.L.E.Y.' ] Y.W.W.W.",
"W.W.W.W.W.W.W.Q.T.I.I.I.L.5.u r ! ! b O O b a.OX>X0XeXeX5X1X:X:X:X:X1X5XwXeX0X:XOXa.v O O b 0.~.r y $.<.j.z.J.K.I.U.( ' Y.W.W.W.",
"W.W.W.W.W.W.W.W.T.T.I.I.L.5.u 0 r w 8 7 7 e E (.OX>X0X0X,XOX'.(.(.).OX>X0X0X:XOX(.E e 7 % 9 w r 0 ; $.<.k.z.G.K.I.I.U.Y.T.W.W.W.",
"W.W.W.W.W.W.W.W.R.T.T.I.I.V.u < 7 7 2 2 2 0 i E a.XX;X$X|.).! ! ! ! ).|.$X;X|.(.E i 0 2 2 7 7 6 4 ; $.<.j.l.F.K.L.I.I.W.W.W.W.W.",
"W.W.W.W.W.W.W.W.W.W.W.W.R.V.u 6 & & 6 0 2 0 8 w T ^ a.(.! ! ).[.].).a.! (.a.! E a 0 7 2 2 0 & & 6 y $.<.j.l.F.J.L.T.W.W.W.W.W.W.",
"W.W.W.W.W.W.W.W.W.W.W.K.v.&.J 8 & & 9 8 8 9 8 = c c G G G T s.'.'.a.K G G H K H e 9 8 8 8 = - & % ; { %.3.l.F.J.K.L.L.W.Q.W.W.W.",
"W.W.W.W.W.W.W.W.W.T.W.C.9.u m : 9 9 h G n G b b h f f h h h c N N c h h h h N K b b b n n v 8 % & - - L 7.l.z.J.L.L.T.W.T.W.W.W.",
"W.W.W.W.W.W.W.W.W.W.W.V.u 8 v m = = b C C C C B c f k k k M j k k j k k f j k M C Z D D D A - % & & 4 y $.l.z.J.L.L.T.T.T.W.W.W.",
"W.W.W.W.W.W.W.W.W.R.T.V.u 7 * j g h B C C C C C M C F @.r.q.#.q.@.@.#.O.Z k f j B D r.t.t.F c & $ 6 < y %.k.z.G.K.L.T.T.T.T.W.W.",
"W.W.W.W.W.W.W.W.W.W.W.V.u 7 & d f j C ^ D D C N B S #.i.t.i.M.N.N.N.N.i.D c * h k Z r.N.N.r.M * 7 2 7 ; | 2.k.F.G.L.I.E.W.I.Y.Y.",
"W.W.W.W.W.W.W.W.W.W.R.V.u 7 O f j S O.r.t.q.S M j c C D D O.i.N.N.N.M.t.M * $ $ * M r.N.N.r.Z c 8 7 $ O ; V 6.F.G.L.L.W.L.Y.] _ ",
"W.W.W.W.W.W.W.W.W.E.G.u.J = + f B D t.N.N.t.Z c * f c B N D q.t.t.t.@.F j O 7 % O k q.N.N.t.S n 9 8 v v 0 ; %.z.F.J.K.L.W.Y.] / ",
"W.W.W.W.W.W.W.R.W.C.9.J b m @ f B D t.N.N.q.M h $ $ + j M C Z F D S l j j O % % & k @.N.N.t.S n 0 i 8.! r y X.l.F.G.K.L.T.T.Y.P.",
"W.W.W.W.W.W.W.W.W.V.u 8 b M j f B D t.N.N.y.k O % 4 $ * v n b b n v * O X # < 4 O j @.N.N.t.O.K 9 a }..XW J &.5.l.F.J.L.L.T.T.T.",
"W.W.W.R.W.W.W.R.W.V.u 7 b M j f j D t.N.N.#.k X 3 5 4 % 8 8 8 8 8 7 7 % ,   . , O k r.M.N.M.i.^ e p *X>X|.(.8.e.5.z.J.L.L.T.T.T.",
"Y.Y.R.R.W.W.W.W.E.g.L R T A j @ B S t.M.N.r.k X   5 4 > ; y y y y y y 9 % 3 . 5 & M r.N.M.M.i.U e p #X1X,X|.! U 2.z.G.J.L.L.I.T.",
"` ] Y.W.W.W.R.E.p.s._.).'.s.B f k D t.N.N.@.k X   3 : [ [ [ } } }  .$.[ [ V 3 , - S r.N.N.i.O.N 9 a `.;X1X;X(.I 4.k.F.J.K.I.I.T.",
"` ] Y.W.W.W.R.C.w.~ '.OXOXd.n f B S t.N.N.@.l X   4 { :.;.;.>.,.,.,.,.,.<.} 4 5 v D t.N.N.r.S n 8 a _.$X3X>X_.I 7.1.z.G.K.L.I.I.",
"Y.Y.T.R.W.W.T.C.w.! '.OXOXd.n d k D t.N.N.@.k X   4 { ;.>.>.,.<.<.<.<.j.1. .4 , h F i.N.N.t.D v % a ).$X3X>X).U %.j.l.F.J.L.I.I.",
"W.W.W.W.W.W.R.C.w.! OX$X$X].N g c ^ y.B.B.y.M X 5 4 { :.>.,.1.1.k.k.k.l.l.$.9 3 - Z r.N.N.r.D n 9 r ~ }.*X|.~ L %.1.k.z.J.L.L.I.",
"W.W.W.W.W.W.R.C.w.(.;X3X3X+XA g b Q f.XXXXd.c X   < [ :.,.<.1.k.z.z.z.F.F.4.y < O k q.N.M.t.D n 9 0 t a p a r u $.1.k.z.G.K.E.T.",
"W.W.W.W.W.W.T.Z.U ~ |.-X=X|.Y K ! [.OX$X@XXX^ -   7 [ ,.1.1.l.v.F.G.J.J.J.5.J e h ^ B.S.oXB.e.K 9 4 9 ; s = y V %.1.k.z.G.K.L.T.",
"W.W.W.W.W.W.W.V.L r a !.p R a.].@X>X1X3X3X:XXX~ q 9 } ,.<.1.z.G.J.J.L.K.K.x.U E ! XX%X2X2X%XoX! r $ V [ [ [ } X.>.1.k.z.G.K.I.I.",
"W.W.W.W.W.W.W.C.9.u i y r ~..X>X6X4X1X>X:X:X;X}.a y } ,.1.k.z.G.K.L.L.L.L.C.s.a.OX:X1X1X3X1X;X}.W J } X.;.:.,.,.<.1.l.z.G.L.I.I.",
"W.W.W.W.W.W.W.K.x.5.5.u.s..X7XeXqX1X].(.(.|.,X*Xp s  .<.1.l.F.J.K.L.I.I.Q.A.oXOX>X1X;X@X@X$X1X;X.X0.8.| %.>.,.<.1.k.z.F.K.L.I.I.",
"W.W.W.W.W.W.W.I.T.I.L.C.oX=XwXeX0X@X! H H ! @X#XE V  .<.1.l.F.J.L.L.I.T.Q.E.oX#X;X;XOXXX{.@X5X5X$X'.~ Y $.,.<.1.k.l.F.F.D.H.I.W.",
"W.W.W.W.W.W.T.W.T.I.H.E.oX=X5X5X>X|.! H H ~ (.s.| X.;.<.k.l.G.K.L.I.I.I.W.E.oX|.`.).|.OXOX=XwXwX,X'.! Y %.<.1.j.z.F.J.D.( ( U.T.",
"W.W.W.W.W.W.W.I.T.I.L.E.S.oX$X@X|.).w.I I I I | 2.,.<.<.k.z.J.K.L.I.I.Y.W.Q.S.f.s.^ ).'.'..X7X8X.X'.8.| =.<.j.l.v.G.K.D.( ( U.W.",
"W.W.W.W.W.T.W.T.T.I.L.L.E.V.'./.! 8.&.%.X.%.%.%.>.3.1.1.1.F.J.L.L.I.Q.T.T.Q.E.E.x.g.w.~ ~ ! _._./.8.&.%.2.1.1.l.G.K.L.K.U.U.T.T.",
"W.W.W.W.W.W.W.W.W.I.I.L.J.x.u.8.8.| 2.<.,.,.,.,.<.1.1.1.F.F.J.L.I.T.I.W.T.I.L.E.L.x.u.Y U 8.U I 8.| %.<.<.1.k.F.G.K.L.L.T.T.T.T.",
"W.W.W.W.W.W.W.W.T.I.I.I.L.J.x.5.5.5.<.1.1.1.1.1.1.1.1.F.G.J.L.L.I.T.W.I.T.T.T.L.L.G.5.5.6.2.=.%.%.2.>.<.1.1.l.F.J.K.L.T.T.T.W.T.",
"W.W.Y.Y.W.W.W.W.W.T.W.I.L.I.K.J.F.F.1.1.1.1.1.k.F.F.F.F.J.L.L.I.I.W.T.W.T.T.T.I.H.D.G.F.z.k.j.1.1.<.1.1.1.z.F.F.K.L.L.T.T.T.W.W.",
"W.Y.] ] Y.W.W.W.W.W.T.T.I.I.K.K.G.F.F.F.z.z.l.F.F.G.J.J.L.L.Q.I.T.T.W.T.T.T.T.U.( ) D.J.F.F.l.k.j.j.k.k.1.F.F.J.L.L.L.T.T.T.W.W.",
"W.Y.P.] Y.W.W.W.W.W.T.T.T.I.U.U.K.J.F.F.F.F.J.F.J.J.E.L.L.L.T.W.T.W.T.W.W.T.T.U.( ( D.K.J.F.F.F.z.z.z.z.F.F.E.L.L.I.T.T.W.W.W.W.",
"T.T.P.Y.W.W.W.T.W.W.W.T.W.U.( ) H.L.J.J.J.J.L.L.L.L.L.I.L.W.T.T.W.W.W.W.W.W.W.T.U.U.L.L.K.K.K.G.G.G.J.G.J.L.L.L.I.T.T.W.W.W.W.W.",
"W.R.W.R.W.W.W.W.W.W.T.W.T.P./ / H.L.L.L.L.E.L.L.L.I.I.T.T.T.T.T.W.W.W.W.W.W.W.T.I.W.I.I.L.L.L.K.K.K.K.K.L.L.L.I.I.I.T.T.W.W.W.W."
};
