/* XPM */
static char *monke_top[] = {
/* columns rows colors chars-per-pixel */
"64 64 216 2 ",
"   c #3F3667",
".  c #4C3E61",
"X  c #443B69",
"o  c #493E68",
"O  c #453964",
"+  c #5A455C",
"@  c #5B485F",
"#  c #6F4F4F",
"$  c #704F4F",
"%  c #7E5646",
"&  c #75524F",
"*  c #7B564C",
"=  c #7F5849",
"-  c #6D4F52",
";  c #624C5F",
":  c #634956",
">  c #6E5155",
",  c #6C535C",
"<  c #63555F",
"1  c #765450",
"2  c #785651",
"3  c #765854",
"4  c #7D5A51",
"5  c #735B5E",
"6  c #7C5D5B",
"7  c #70575E",
"8  c #73615E",
"9  c #7A645D",
"0  c #7F715A",
"q  c #4C4165",
"w  c #4E426A",
"e  c #534363",
"r  c #5D4A63",
"t  c #544769",
"y  c #564969",
"u  c #5B4C69",
"i  c #544A63",
"p  c #5B5261",
"a  c #5F506E",
"s  c #634E61",
"d  c #604F69",
"f  c #665262",
"g  c #6B5563",
"h  c #665B64",
"j  c #6D5A64",
"k  c #6B566C",
"l  c #6D596F",
"z  c #785E62",
"x  c #735D6A",
"c  c #745A60",
"v  c #725E71",
"b  c #6C5A70",
"n  c #6D6266",
"m  c #746462",
"M  c #7B6363",
"N  c #7D6C65",
"B  c #7A6667",
"V  c #7F7067",
"C  c #7A6577",
"Z  c #805747",
"A  c #815847",
"S  c #855C4B",
"D  c #885F4A",
"F  c #81574B",
"G  c #805D52",
"H  c #8C634E",
"J  c #89684B",
"K  c #91694F",
"L  c #90674D",
"P  c #96724E",
"I  c #98764E",
"U  c #866255",
"Y  c #8C6552",
"T  c #84635A",
"R  c #89665A",
"E  c #8C6A5B",
"W  c #8F6855",
"Q  c #936B54",
"!  c #966F59",
"~  c #946C55",
"^  c #83745B",
"/  c #887A56",
"(  c #9B7256",
")  c #95715E",
"_  c #9A7259",
"`  c #947452",
"'  c #A0775C",
"]  c #A27A5C",
"[  c #816C63",
"{  c #82676F",
"}  c #886A6C",
"|  c #827166",
" . c #84716C",
".. c #8A7368",
"X. c #9A7D66",
"o. c #987866",
"O. c #886E75",
"+. c #977B7C",
"@. c #906D63",
"#. c #A17F63",
"$. c #E3D02F",
"%. c #E3D13B",
"&. c #9A8D4E",
"*. c #94884E",
"=. c #9F924D",
"-. c #948354",
";. c #9D8F50",
":. c #9C8858",
">. c #9E9051",
",. c #A2934D",
"<. c #AC9E4A",
"1. c #A5954B",
"2. c #A6825C",
"3. c #AA845C",
"4. c #A98856",
"5. c #B08A5E",
"6. c #A39552",
"7. c #A99751",
"8. c #A69851",
"9. c #AA9B54",
"0. c #A8975A",
"q. c #B89A5B",
"w. c #B49957",
"e. c #A3854F",
"r. c #B2A546",
"t. c #B3A54A",
"y. c #B6A94A",
"u. c #BAAC4C",
"i. c #BEB04E",
"p. c #B1A253",
"a. c #BDA259",
"s. c #B8A858",
"d. c #8F8061",
"f. c #938362",
"g. c #998069",
"h. c #9A817B",
"j. c #A48164",
"k. c #AD8661",
"l. c #AE8864",
"z. c #AA846A",
"x. c #A48768",
"c. c #B58D63",
"v. c #B88F64",
"b. c #AC9A62",
"n. c #BA9266",
"m. c #BF9768",
"M. c #B39968",
"N. c #AA877A",
"B. c #AE9277",
"V. c #B49378",
"C. c #BEAF62",
"Z. c #BBA76A",
"A. c #BFA178",
"S. c #C1B34E",
"D. c #C4AB59",
"F. c #C3B551",
"G. c #C7B852",
"H. c #CBBC54",
"J. c #C3B35C",
"K. c #CCB55A",
"L. c #CCB95B",
"P. c #D1BB5D",
"I. c #C09966",
"U. c #C19968",
"Y. c #C29C78",
"T. c #C4B362",
"R. c #CCBA62",
"E. c #CBB461",
"W. c #CCA67B",
"Q. c #CCB066",
"!. c #CFC056",
"~. c #D1C157",
"^. c #D5C45A",
"/. c #D8C55C",
"(. c #DCCC5C",
"). c #D7C85A",
"_. c #E0CF5E",
"`. c #E5D354",
"'. c #E3D25E",
"]. c #E8D75D",
"[. c #E8D654",
"{. c #D9C564",
"}. c #E1CF60",
"|. c #E5D460",
" X c #E8D760",
".X c #E9D860",
"XX c #8B7580",
"oX c #9B7E80",
"OX c #9E8281",
"+X c #AA8A85",
"@X c #A78784",
"#X c #B08E80",
"$X c #B7978C",
"%X c #B79A93",
"&X c #B7A09E",
"*X c #C3A781",
"=X c #C3A08B",
"-X c #C5A698",
";X c #D1AE95",
":X c #D5B49B",
">X c #CEAEA1",
",X c #CFB2A5",
"<X c #DBBAA4",
"1X c #DDBCAA",
"2X c #D0B0A2",
"3X c #DCC2B1",
"4X c #E6C4A6",
"5X c #E3C1AB",
"6X c #EACCB6",
"7X c #F3D4BC",
"8X c #EED0B9",
"9X c #DBCFCD",
"0X c #F4DBC7",
"qX c #EBDED8",
"wX c #F1E4DB",
"eX c #F8ECE2",
/* pixels */
"|.|.|.|.|.|.|.'.|.|.|.|.|.|.|.|.|.|.|.|.|.|.|.|.|.|.|.|.|.|.|.|.|.|.|.|.|.|.|.|.'.|.|.|.|.|.|.|.|.|.|.|.|.|.|.|.|.|.|.|.|.}.|.|.",
"|.|.|.|.|.|.|.|.|.|.|.|.|.|.|.|.|.|.|.|.|.|.|.|.|.|.'.'.`.`.'.|.|.|.|.|.|.|.|.|.|.|.|.|.|.|.|.|.|.|.'.'.`.`.'.|.|.|.|.|.|.|.|.|.",
"|.|.'.|.|.|.|.|.|.|.|.|.|.|.|.|.|.|.|.|.|.|.|.|.|.|. X`.%.%.`.|.|.|.|.|.|.|.|.|.|.|.|.|.|.|.|.|.|.|.|.`.%.%.`.|.|.|.|.|.|.|.|.|.",
"|.|.|.|.|.|.|.|.|.|.|.|.|.|.|.'.|.|.|.|.|. X|.|.|.|.|.[.%.%.[.|.|.|.|.|.|.|.|.|.|.|.|.|.|.|.'.|.|.|.|.`.%.%.`.|.|.|.|.|.|.|.|.|.",
"|.|.|.|.|.|.|.|.|.|.|.|.|.|.|.|.|.|. X|. X X X.X.X X|. X[.[.].'.|.|.|.|.|.|.|.|.|.'.|.|.|.|.|.|.|.|.|.'.`.`.'.|.|.|.|.|.|.|.|.|.",
"|.|.|.|.|.|.|.'.`.`.'.|.|.|.|.|.|._./.P.P.P.P.P.P.P.^.L.L.P._.'.|.|.'.|.|.|.'.|.|.|.|.|.|.|.|.|.|.|.|.|.|.|.|.|.|.|.|.|.|.|.|.|.",
"|.'.|.|.|.|.|.`.%.%.`.|.|.|.|. X'./.q.4.3.3.3.4.3.3.5.2.I 4.P.'.'.'.|.|.(.|.|.'.|.|.|.|.|.|.|.|.|.|.|.|.|.|.|.|.|.|.'.|.|.|.|.|.",
"|.|.|.|.|.|.|.`.%.%.`.|.|.}./.P.{.E.c._ #._ ' _ ' ' ( ( U P a.K.K.K.)._.|.|.(.|.|.|.'.|.|.|.|.].|.|.|.|.|.|.|.|.|.|.|.|.|.|.|.|.",
"|.|.'.|.|.|.|.'.`.`.'.]. XP.q.c.I.I.m.v.c.v.v.c.c.v.v.k.( ~ ] 2.I e.H.'.'.(.'.'.'.'.'.'.|.|.|.'.|.|. X'.|.|.|.'.'.|.|.|.|.|.|.|.",
"|.|.|.|.|.|.'.|.|.|.|._./.D.3.] v.U.I.I.m.m.U.U.U.m.n.c.( ( ~ W S Q 0.J.).(.(.'.'.'.'.|.|.|.|.{./.L.P.P.L./.(.'.|.|.|.|.|.|.|.|.",
"|.|.|.|.|.|.|.|.|.|. X{.q.5.c.n.n.U.U.U.U.m.U.U.U.n.2.' _ ( _ ! Q R [ f.C.(.(.(.(.'.'.|.|.|.|./.q.3.3.4.3.q.^.'.|.|.|.|.|.|.|.|.",
"|.|.|.|.|.|.|.|.|.}.P.D.] _ v.U.U.m.U.U.U.m.n.v.v.k._ ( ) _ ~ ! ~ R , M 0.J.~.(.(.(.P.L.P.P.P.D.5._ ' _ ! ] a.P.(.|.|.|.|.|.|.|.",
"|.|.|.'.|.|.|.|.'.P.4.P ` ' v.U.U.I.U.U.U.n.2.' ' ' ( _ ! ! _ Q H F * 3 9 f.C.).(.P.w.3.3.4.4.3.c.v.v.k._ ( P 4.P. X|.|.|.'.|.|.",
"|.|.|.|.|.|.|.|.'.K.` 4 W ' c.v.v.v.v.v.v.k.' _ ! ~ ! _ ( ! _ Q H Z % & r n p.!.L.a.3.' ' _ ' j.n.U.U.v.] Y Z P K. X[.`.'.|.|.|.",
"|.|.|.|.|.|.|. X].T.[ 7 R ( _ ] ] ] ] ] ] ' _ ~ ! _ ! _ ! ( ( ! S = Z & + h 0.F.w.3.c.c.v.v.v.v.m.U.U.n.] W F P K.[.%.%.`.|.|.|.",
"|.|.|.|.|.|.|.|.].T.N g T ~ ! _ ! ! _ ~ ! ! ! ! ( _ ~ ! Q Q Q Y S = Z $ O p :.w.2.2.v.U.U.U.v.v.c.l.l.j.) R H e.P.[.%.%.`.|.|.|.",
"|.|.|.|.|.'. X|.].T.V f 3 H Q ~ ( ~ _ _ ! _ _ ! ( ! _ Q H S S S S A Z # . i E 3.c.v.U.U.U.n.3.( Q U M x k 9 :.u./.'.[.`.'.|.|.|.",
"|.|.|.|.|.|.|..X].T.N s * S Q ) _ _ ~ ! ~ _ ~ _ ! _ _ Q S % = Z Z Z Z # . e T ] v.U.U.U.U.v.] W S * f u u m ,.G.(. X|.|.|.|.|.|.",
"'.|.|.|.|.|.|.'. XC.N ; 1 S Q _ _ ! ( ! _ _ _ _ ( ! _ Q S = = Z Z Z F > . e 6 ' v.U.U.U.U.n.' Q S & ; u u m 6.F.(. X|.|.|.|.|.|.",
"|.|.|.|.|.|.|.|.^.Z.h.{ 4 S Q ) ! _ ! ( _ ~ ~ Q Q Q Q Y S F Z Z Z F * - @ f @.k.n.m.c.5.5.j.! R J J 9 m m ^ 8.F.(.'.|.|.|.|.|.|.",
"|.|.|.|.|.|. X{.M.+X-X%X! S Q _ _ ! ! _ _ ! H S S S H S Z = Z = S * , , 6 ! j.n.I.c.( H H U 7 9 -.1.,.>.>.8.t.G.(. X|.|.|.|.|.|.",
"|.|.|.|.|.|.'.R.x.@X1X<Xo.Z H Q ~ Q E E R T 4 * 1 * 1 1 & 1 1 * & > , M ) 3.c.c.l.#.K J J J 9 0 ,.y.y.y.u.u.u.G.(.|.|.'.|.|.|.|.",
"|.|.|.|.|. X XR.z.@X1X:Xo.A S S S G 5 g g g f f f f f ; e e ; s e @ 5 ) k.v.] o.[ M *.1.1.,.=.6.t.y.y.u.u.S.F.H.(.|.|.|.|.|.|.|.",
"|.|.|.|.|. X XR.X.oX2X;Xo.A % Z Z * , f f f f f f , f r + q t y y g o.2.v.k.) T 5 ^ 1.r.t.y.y.y.u.u.i.i.F.F.F.~.(.|.|.|.|.|.|.|.",
"|.|.|.|.|.|..XT...O.%X$X! % % F Z % 2 1 1 1 2 1 2 4 * 1 1 : . u ..l.v.c.3.! z c / =.<.y.y.y.i.i.i.F.F.G.H.H.!.).'.|.|.|.|.|.|.|.",
"|.|.|.'.[.[.].T.V b +.+.9 * * F S S S D S S S D S S Z F D 4 s x j.v.v.] ! z m 0 =.r.y.t.y.i.i.F.G.G.H.H.~.^.^.(.|.|.|.|.|.|.|.|.",
"|.|.|.`.%.%.[.T.V u y a f , * S Y Q ~ Q Q Q Q Q ~ H S S Y ~ X.j.#.] ( G ; < / =.<.r.t.u.i.G.G.H.H.^.~.).).).(.(.}.'.|.|.|.|.|.|.",
"|.|.|.`.%.%.[.E.V t w q r , * H Q _ _ ! ( ! _ ! ~ W L Q ' 2.v.l.) G 1 : O i *.r.r.t.u.i.F.G.H.~.~.).).(.(.(.(.'.|.'.`.`.'.|.|.|.",
"|.|.|.'.`.`.'.T.V u y r > * = S Q ! _ _ ! _ _ Q H H ] 5.n.c.2.) M f + .   p *.r.t.y.i.F.G.^.~.).).(.(.(.(.'._.{.|.`.%.%.`.|.|.|.",
"|.|.|.|.|. X|.T.N y u g 4 S S H ( ' ' ' ' ' ' ( Q ( c.m.n.3.( U 5 f q . O i / ,.t.u.i.G.!.~.).(.(._.(.'._._.|.|.|.`.%.%.`.|.|.|.",
"|.|.|.|.|. X XT.n w t j R Q Q ( k.v.v.v.n.v.v.c.l.c.m.c.( H H H R T & + . q f ^ 9.i.G.H.^.~.(.(._.(.|.'.'.|.}.|.|.'.`.`.'.|.|.|.",
"|.|.|.|.|.|. XC.h   t j E ( ! ' v.U.U.U.I.U.m.U.I.U.I.c.H % % F Q Q H $ q X t m 6.i.G.H.).).(.(.'.'._.|.'.|.|.|.|.|.|.|.|.|.|.|.",
"|.|.|.|.|..X XC.h O t c R ( ! ' c.U.U.U.U.U.U.U.U.U.m.5.H % % S W Q D $ . X t m 8.i.G.!.).).(.'.'.'.|.'.'.|.|.|.|.|.|.|.|.|.|.|.",
"|.|.|.|.|.|..XC.x o r 5 E ( ' k.v.U.U.m.m.m.m.U.m.U.U.c.( H L Q ( ( Y * + e u m 6.S.G.H.).).(.(.'.'.|.|.|.|.|.|.|.|.|.|.|.|.|.|.",
"|.|.|.|.|.|..XT.B u > G W ' k.v.m.U.U.m.U.m.U.m.m.U.I.m.c.c.l.c.c.3._ U 2 - s m 6.i.F.H.^.).(.'.'.'.'.|.|.|.|.'.|.|.|.|.|.|.|.|.",
"|.|.|.|.|. X.XT.| ; & D ' ] v.U.U.U.m.U.U.U.m.U.m.U.m.m.n.c.v.n.U.m.k.( H 4 , 8 -.9.i.H.~.).(._.'.{.|.|.|.|.|.|.|.|.|.'.|.|.|.|.",
"|.|.|.|.|..X.XT.V < & H 2.n.I.U.U.U.U.U.U.U.U.U.m.U.U.n.k.' ' k.n.m.n.k._ Y S 3 8 / p.G.H.).(._.'.'.}.|.|.|.|.|.|.|.|.|.|.|.|.|.",
"|.|.|.|.|.|..XT.V ; & L c.U.U.U.v.v.c.v.v.n.I.U.U.m.n.l._ ~ ~ ( k.n.U.v.] ~ S 1 s m 0.G.!.).).(.(.'.|.|.|.|.|.|.|.|.|.|.|.'.`.`.",
"|.|.|.|.|. X.XT.N ; & L c.U.U.v.2.' ' ' ' 2.n.U.U.n.3.' ( Q H H ( k.n.n.' Q S 1 s B 9.G.H.~.).(.'.'.|.'.'.|.|.|.}.|.|.|.|.`.%.$.",
"|.|.|.|.|.|..XK.| , 4 Q 2.v.n.c.' ! E R E ) ] c.c.2._ Q E R = S Y ' n.n.] ~ S 1 s m 8.S.G.~.).(.(.|.'.|.|.|.|.|.|.|.|.|.|.`.%.$.",
"|.|.|.|.'. X XK.` * U ~ ' ] ' ' ( ! z g g c R L L H H 4 5 , * S Q ] n.n.] ~ S 1 f m 6.i.G.H.~.(.(.'.'._.'.|.|.|.|.|.|.|.|.'.`.`.",
"|.|.|.|.|.|. XK.I S Q ! _ ~ Q Q Q T f t y s > & # # # > , , 4 H Q _ k.2.( H S * s m 6.i.F.H.~.(.(._.}.|.|.|.|.|.|.|.|.|.|.|.|.'.",
"|.|.|.|.|. X XK.I S Q _ _ Q H S D 2 e X w q r s e . . + > 4 Y ! ~ ! W H H S = * f m >.i.G.H.~.(.(.'.'.|.|.|.|.|.|.|.|.|.|.|.|.|.",
"`.`.'.'.|.|. XK.I F W ! _ Q S * & : e X X q h 5 p i q e 1 H ( ] ] ( Q H Z * * 3 5 ^ 8.u.i.H.~.).(._._.'.|.}.|.|.|.|.|.|.|.|.|.|.",
"$.%.[.|.|. X XK.I S Q ( ! Q S & + e t y t h / =.*.^ h f U ( 5.v.v.c.c.] H * , 5 -.=.t.u.i.H.~.(.(._.|.|._.|.|.|.|.|.|.|.|.|.'.|.",
"$.%.`.|.|.|. XK.I F Y ( ( Q H $ . X y f u 8 *.r.r.&.8 g R ' v.I.I.I.U.c.L & s m =.r.t.u.F.H.~.).(._._.'.|.|.|.|.|.|.|.|.|.|.|.|.",
"`.`.'.|.|. X XK.P F W ( ! Q S $ . X u u p 8 =.r.r.&.M g R ] v.I.I.I.U.k.L 1 s m &.t.y.i.F.H.~.).(.|.|.|.|.|.|.|.|.|.|.'.|.|.|.|.",
"|.|.|.|.|.|..XR.2.E ! ! ) L H & q q u k b B -.1.t.;.m g R #.Y.W.W.W.U.c.L & s M ;.t.i.i.G.!.).(.(.(.'.'.|.|.'.|.|.|.|.|.|.|.|.|.",
"|.|.|.|.|.|.|.{.*XN.o.@.) ~ ~ G + q b { { } o.x.<.6.8 g U z.;X4X4X:XW.c.L & ; m ;.y.i.i.H.~.).(.}._.|.'.'.|.|.|.|.|.|.|.|.|.|.|.",
"|.|.|.|.|. X X{.$X$X+XN.N.z.z.} u u | X.X.X.g.f.p.9./ N o.V.<X7X7X4XW.k.U 3 5 ^ 6.y.i.G.H.~.(.(.'.'.'.|.|.|.|.|.|.|.|.'.|.|.|.|.",
"|.|.|.|.|.|..XR.B.+X-X<X<X:X=XN.b h -.,.7.7.9.w.u.u.p.b.B.-X3X7X7X4X*Xl.M 5 / 1.t.y.i.G.!.).(.(._._.|.|.|.|.|.|.|.|.|.|.|.|.|.|.",
"|.|.|.|.|.|..XR.g.+.2X6X6X1X-XOXb 8 &.r.t.t.y.u.i.F.G.E.*X>X6X0X7X4XY.j.0 0 ,.y.y.u.i.H.!.).(._.|.'.}.|.|.|.|.'.|.|.|.|.|.|.|.|.",
"|.|.|.|.|.|. XT.| C $X:X:X-X+XO.b n =.y.t.t.u.i.F.F.H.E.*X,XqXeX0X<XV.o.:.=.<.y.u.i.F.H.~.(.(.(._.|.}.|.|.'.|.|.|.|.|.|.|.|.|.|.",
"|.|.|.|.|.|. X~.f. .h.@X@XoXO.B m 0 =.t.y.u.i.F.G.H.~.T.B.&X9XqX0X<X@Xo.6.r.r.y.u.F.L.~.).(._.|._.|.|.|.|.|.|.|.|.|.|.'.`.`.'.|.",
"|.|.|.|.|.|.|.{.R.b. .C C b k M -.8.t.y.i.i.G.G.H.~.~.s...XX&X3X8X1X@Xo.6.y.y.u.i.G.H.~.).(.(.|.'.'.|.|.|.|.|.|.|.|.|.`.%.%.`.|.",
"|.|.|.|.|.|.|.'.'.R.f.m m m M ^ 8.y.y.u.i.G.H.!.^.).).J.f. .h.%X-X%X+...6.y.u.i.F.H.!.).(.(.}._.|.|.|.|.|.|.|.|.|.|.|.`.%.%.`.|.",
"|.|.|.'.|.|.|.|.'.).C.s.p.9.9.9.y.u.u.i.F.H.!.~.).(.(.~.J.b.V C C C b B >.u.i.i.G.~.^.(.(.'.'.|.|.'.|.|.|.|.|.|.|.|.|.'.`.`.'.|.",
"|.|.|.|.|.|.|.'.}._.(.(.).~.!.H.G.G.G.H.!.~.).).(.(._._._.L.f.N N V N d.p.G.G.H.L.).).(._.'.'.'.|.|.|.|.|.|.|.|.|.|.|.|.|.|.|.|.",
"|.|.|.|.|.|.|.|.|.'.'.'._.'.(.(.(.(.(.(.{._._.'._.|.|.|.|.(.R.C.C.T.T.R.^.(.(._.(.|.}.|.'.|.|.|.|.|.|.|.'.|.|.|.|.|.|.|.|.|.|.|.",
"|.|.`.`.|.|.|.|.|.|.|.|.|.|.|.|.|. X|.|. X X|.|.|.|.|.|.|.|. X X.X X X X X|.].'.`.`.'.|.|.|.|.|.|.|.|.|.|.|.|.|.|.|.|.|.|.|.|.|.",
"|.`.`.$.`.|.|.|.|.|.|.|.|.'.|.|.'.|. X|.|.|.|.|.|.|.|.|.|.|.|. X|. X X|.|.|.|.`.%.%.`.|.|.|.|.|.|.}.'.|.|.|.|.|.|.|.|.|.|.|.|.|.",
"|.`.%.%.`.|.|.|.|.|.|.|.|.'.[.[.'.|.|.|.|.|.|.|.|.|.|.|.|.|.|.|.|.|.|.|.|.|.|.`.%.%.`.|.|.|.|.|.|.|.|.|.|.|.'.|.|.|.|.|.|.|.|.|.",
"|.'.`.`.'.|.|.|.|.'.|.|.'.`.%.%.`.|.|.|.|.|.|.|.|.|.|.|.|.|.|.|.|.|.|.|.|.|.|.|.`.`.'.|.|.|.|.|.|.|.|.|.|.|.|.|.|.|.|.|.|.|.|.|.",
"|.|.|.'.|.|.|.|.|.|.|.|.|.`.$.$.`.|.|.|.|.|.|.'.|.|.|.|.|.|.|.|.|.|.|.|.|.|.|.|.|.|.|.|.|.|.'.|.|.|.|.|.|.|.|.|.|.'.|.}.|.|.|.|."
};
