/* XPM */
static char *monke_idle_64x64_15[] = {
/* columns rows colors chars-per-pixel */
"64 64 224 2 ",
"   c #311E1B",
".  c #37231D",
"X  c #001E20",
"o  c #052221",
"O  c #0B2F29",
"+  c #0A2724",
"@  c #182522",
"#  c #0C332A",
"$  c #0E3B2A",
"%  c #12352B",
"&  c #133C2B",
"*  c #1C3528",
"=  c #163D34",
"-  c #362824",
";  c #2D3329",
":  c #421E1D",
">  c #44211F",
",  c #492623",
"<  c #522D28",
"1  c #5A372A",
"2  c #5D3432",
"3  c #4A372C",
"4  c #643C34",
"5  c #6B3D36",
"6  c #6A3E39",
"7  c #673D39",
"8  c #623A2F",
"9  c #13432E",
"0  c #15492D",
"q  c #144331",
"w  c #1A4B33",
"e  c #1A453E",
"r  c #1C4B3E",
"t  c #164536",
"y  c #1C533C",
"u  c #1D5B3C",
"i  c #1A5030",
"p  c #0E4332",
"a  c #2C422D",
"s  c #384929",
"d  c #274935",
"f  c #364D33",
"g  c #3C4D31",
"h  c #21543C",
"j  c #225B3D",
"k  c #265739",
"l  c #365235",
"z  c #3A5434",
"x  c #3A5C35",
"c  c #39573A",
"v  c #385128",
"b  c #1E643C",
"n  c #1F6028",
"m  c #24633C",
"M  c #2A633E",
"N  c #246B3C",
"B  c #296D3C",
"V  c #3A653A",
"C  c #267238",
"Z  c #2B743C",
"A  c #2C7B3E",
"S  c #33793C",
"D  c #226329",
"F  c #5A4228",
"G  c #43542A",
"H  c #444D31",
"J  c #415232",
"K  c #435B36",
"L  c #455C38",
"P  c #485E38",
"I  c #6C4636",
"U  c #74453A",
"Y  c #764A39",
"T  c #7B4A3B",
"R  c #794535",
"E  c #7A5739",
"W  c #6C4B2D",
"Q  c #466536",
"!  c #5C6639",
"~  c #4B7839",
"^  c #646E3C",
"/  c #696F3A",
"(  c #6A713E",
")  c #68713A",
"_  c #786936",
"`  c #1D4D40",
"'  c #1E5440",
"]  c #1E5A41",
"[  c #205640",
"{  c #215C41",
"}  c #2C5E42",
"|  c #3B5B43",
" . c #246442",
".. c #266B43",
"X. c #286D42",
"o. c #2C6342",
"O. c #3A6643",
"+. c #267343",
"@. c #2A7443",
"#. c #2C7C43",
"$. c #307E42",
"%. c #3E7348",
"&. c #466744",
"*. c #4D7344",
"=. c #477846",
"-. c #517745",
";. c #516C47",
":. c #717D45",
">. c #844D3B",
",. c #894F3C",
"<. c #87513D",
"1. c #8C533D",
"2. c #845C3B",
"3. c #95593E",
"4. c #98683E",
"5. c #88773B",
"6. c #A16F3E",
"7. c #A4723D",
"8. c #815D40",
"9. c #9B6B42",
"0. c #957943",
"q. c #8C6441",
"w. c #A67340",
"e. c #32833D",
"r. c #35893C",
"t. c #378938",
"y. c #39933D",
"u. c #3D9D3E",
"i. c #3C9A35",
"p. c #348E35",
"a. c #3FA13D",
"s. c #4D9A37",
"d. c #42A537",
"f. c #44AD36",
"g. c #41A53C",
"h. c #44AB39",
"j. c #49A437",
"k. c #47B236",
"l. c #49B435",
"z. c #4BB933",
"x. c #47B436",
"c. c #51B439",
"v. c #64B73C",
"b. c #70BF3F",
"n. c #64A33C",
"m. c #72C13F",
"M. c #2F8243",
"N. c #318542",
"B. c #348B42",
"V. c #3A8A44",
"C. c #369141",
"Z. c #399442",
"A. c #3C9A41",
"S. c #3FA040",
"D. c #4C8847",
"F. c #558647",
"G. c #579648",
"H. c #72864A",
"J. c #76944F",
"K. c #6B8D4C",
"L. c #55A744",
"P. c #6FB146",
"I. c #898A22",
"U. c #8E9C2E",
"Y. c #B9B632",
"T. c #B0A82D",
"R. c #C7B833",
"E. c #E3D02F",
"W. c #E3D13B",
"Q. c #EAD538",
"!. c #F0D93D",
"~. c #8C8D48",
"^. c #878A47",
"/. c #8B964C",
"(. c #959A4D",
"). c #938F4B",
"_. c #AF9C49",
"`. c #A89747",
"'. c #B39D4C",
"]. c #B8994C",
"[. c #A78A47",
"{. c #92A24E",
"}. c #99A74D",
"|. c #95AA53",
" X c #91B54D",
".X c #AAA34B",
"XX c #BAA34E",
"oX c #B4A649",
"OX c #ADA751",
"+X c #AFA951",
"@X c #A4AC50",
"#X c #B2AC52",
"$X c #BAAC52",
"%X c #B5B154",
"&X c #BDB455",
"*X c #BBBB59",
"=X c #B8B958",
"-X c #B0B34C",
";X c #CABA4A",
":X c #C2B554",
">X c #CABB53",
",X c #C2BD5B",
"<X c #C6BB57",
"1X c #D0BF54",
"2X c #BCC257",
"3X c #ACC450",
"4X c #C1CE56",
"5X c #C3C25B",
"6X c #CEC558",
"7X c #D1C156",
"8X c #D5C559",
"9X c #DBCC5D",
"0X c #DBCB54",
"qX c #C9D158",
"wX c #DAD05F",
"eX c #E0CF5E",
"rX c #E4D353",
"tX c #E3D25E",
"yX c #EAD757",
"uX c #F2DD5B",
"iX c #E5D460",
"pX c #E9D661",
"aX c #ECD962",
"sX c #F0DC63",
/* pixels */
"iXiXiXiXiXiXiXiXiXiXiXiXiXiXiXeXiXiXtXiXiXiXiXiXpXaXsX#XJ o o @ + o o J $XsXsXaXiXiXaXaXpXiXyXaXpXaXaXaXiXiXiXiXiXiXiXiXiXiXiXiX",
"iXiXiXiXiXiXiXiXiXiXiXiXiXiXiXiXiXiXiXiXiXaXpXeX,X=X*X(.K & 9 9 9 & & z /.%X#X:X9X9X:X#X2X4X4X2X4X2X-X&X0XyXyXpXpXiXiXiXiXiXiXiX",
"iXiXtXiXiXiXiXiXiXiXiXiXiXiXiXiXiXiXiXtXwXaXaX,XH.&.-.D.S Z Z Z C C k j &.&.J :.;X>X( Q n.m.m.m.m.n.Q / Y.Q.yXaXaXaXpXiXiXiXiXiX",
"iXiXiXiXiXiXiXiXiXiXiXiXpXiXpXpXiXiXaXaXaXwX,X/.| ` ' ..$.N.$.$.S S B  .] w 9 Q  X}.Q n i.l.x.k.f.p.0 v I.T.oXOXOX%X9XiXiXiXiXiX",
"iXiXiXiXiXiXiXiXiXiXiXiXpXpXaXpXyXyXpXaXaX<XH.| ` ` ] ..X.X.{ [ h {  ...#.e.p.d.v.v.d.i.f.f.g.A.y.A j d v v g g f ^ &XiXiXiXiXiX",
"iXiXiXtXiXiXpXyXrXyXyX0X&XOXOX%X2X2X2X4X4X X=.u { { X.X. .y ` = e h  .$.y.g.h.l.x.x.l.f.f.g.Z.N.+.m [ h l g J g g ( &XiXiXiXiXiX",
"iXiXiXiXiXiXpXrXW.!.yX:X/ g g Q n.m.m.b.b.v.j.y.e.N.B.$.{ r e e e [ $.Z.h.k.g.h.k.x.h.A.y.e.@...{ r $ l ~.#X#X#X#X&X9XiXiXiXiXiX",
"iXiXiXiXiX9X&X-XY.Y.2X{.x & 9 D i.z.z.l.l.l.x.h.S.A.A.V...h h e ` k B.g.h.d.A.A.h.d.Z.M.@...{ [ ` = # l (.5X*X*X%X:X9XiXiXiXiXiX",
"iXiXiXpXiX&X/ K s.F.G.D.N.e.p.i.k.z.z.x.z.k.h.A.A.A.A.Z.V.@.` ` e j s.a.Z.B.Z.A.S.Z.M. .[ ' r r ` e = h =.F.F.*.P ( :XpXpXiXiXiX",
"iXiXiXpXaX#XK p b @.#.M.B.A.f.l.x.x.x.z.z.k.a.u.A.Z.Z.Z.Z.$.{ ` ` j i.h.B.B.Z.A.Z.M...] ` e r ` ` ` ` y  .....b p K #XaXpXiXiXiX",
"iXiXiXpXaX=X*.y +.#.#.#.M.B.u.a.S.a.x.x.z.x.x.h.A.Z.N.M.M.#. .] [ ..C.S.Z.Z.A.Z.N.#. .] r r { { { {  ...#.M.e.A C s.=XsXpXiXiXiX",
"iXiXiX9X&X/.O.y b m ..N X.#.N.B.B.C.a.L.f.k.k.h.A.Z.V.M.#.@.......+.N.B.Z.V.V.M.M.@.@...{ j { { { { { m +.e.M.M.B.G.|.5XeXpXiXiX",
"iXpXpX&X^ a % # & * & w u ........+.N.Z.S.S.L.A.A.A.Z.B.M.#.@.+.@.@...+.#.M.@...#.#.B.B.M.#.{ r ` h r [  .X...+.B.V.D.J.5XaXpXpX",
"iXiXpX&X^ g J g * + + & j ....{ ] ] ..@.M.B.M.V.V.V.B.B.#.@.#.#.#.@. . .+... . .@.#.B.Z.A.V.@.b M j k } =.F.F.=.S b b =./.:X9XpX",
"iXiXiX9X&X#X$X~.a o X * B $...{ ` ` ' ] ....................#.#.#.@... . . . . . ...#.B.Z.A.A.a.d.y.B.G.|.2X2X(.l 9 u m f :.&XpX",
"iXiXiXiXaXpXqX{.z % % 0 B @.@...` ` ` `  ...@.....+..... . .+.#.#.@. . . . . .{  ...#.V.A.S.L.x.l.l.g.L.3XqXqX@X^ l h p # L %XaX",
"iXiXiXaXaXqX XD.M h u h j m A $...h h ` #.V.N.V.B.B.B.#... .@.M.#.+. . .X.@. . .X.#.B.A.h.h.g.g.l.l.l.c.m.m.m. X3X/.H # p *.=XsX",
"iXiXaXwX5X|.D.+.@.@.@.m [ { @.$...{ j Z y.g.C.B.Z.A.A.C.#.@.@.#.#.#.....#.@.+.X.@.#.N.Z.u.g.g.g.f.z.z.l.a.a.x.z.3X@X;.L *.K.}.#X",
"iXiXaX5XJ.=.@.+.#.e.N.#. . .....h j t.d.f.d.$.@.C.A.A.Z.B.N.N.#.M.#.#.@.#.#.B.M.X...X.X.Z e.d.l.z.z.z.l.S.S.A.L.L.P.}.=X*X(.! f ",
"iX9X:X(.=...B @.$.N.e.A ..{ k { k A d.l.h.y.S $.Z.S.A.A.Z.B.#.....+.#.#.+.#.B.V.@...{ ' { @.y.h.f.f.f.h.S.Z.C.Z.y.L. XwXaX:X^ f ",
"pX&X) x Z e.M.M.@.X.X...[ ` ` m t.h.l.d.e.S y.d.x.a.a.Z.B.#.{ ` ' { @.+...X.#.N.B.$.{ ` ' ..M.C.g.L.S.A.A.A.Z.Z.M.B.L. XqXeX:XOX",
"aX#Xg $ C C.N.A  .[ { [ ` = ` m d.z.z.d.e.e.d.z.x.a.a.C.#...[ ` ` { ..#.X.X.@.N.Z.B.h ` ' { X.#.N.N.C.Z.A.A.A.C.B.M.C.G.{.<X9XaX",
"aX#Xg & C B.#. .[ ` ` ` ` ` ' Z d.z.z.k.d.d.z.l.L.S.A.V.@. .{ { {  .@.M.N.N...#.g.i.j ` ` `  .X.#.M.M.B.Z.A.A.A.Z.C.Z.e.z :.:XaX",
"sX#XP 0 B +.b k | ;.&.&.} [  .M.u.l.l.z.z.z.k.h.Z.B.B.#. .{ { { { ..@.M.u.V.X.B g.d.B h ` ` ' { +.+.+.#.V.C.C.C.Z.Z.C.A 0 L %XsX",
"sX=X-.u b u p l ).,X*X|.G.N.B.B.u.g.k.l.z.k.g.Z.#.X.X...` ` {  .{ ..+.B.S.S.M.+.d.h.y.X.[ e ` ` { .. ...#.N.M.M.M.M.N.#.b D.*XaX",
"#X(.=.M ~ ~ x ! (.$X$X}.G.A.A.A.u.d.h.l.k.h.A.N...{ [ ' e ` { {  ...#.C.S.S.e.B.h.l.h.y.X.h y ` ' ]  . ...m N N ....N b +.D.{.#X",
"H f r V U.Y.oX(.! z H Q V.A.A.S.k.a.g.L.S.A.B.#...{ ` ` ` ` { { { ..M.A.k.x.a.f.l.l.l.g.y.A  .{ ' ' { j q * * & 9 * $ q u j z J ",
"X % l H.R.!.uX&XQ # # i N.A.A.A.a.a.y.M.V.N.#.X.{ ` ` ` ` [ [ { {  .M.G.k.z.z.z.k.l.l.k.L.M...j ` '  .j q $ % % + % s G -.&.& o ",
"X a ~.,X0XyXaX2XF.u b +.B.A.A.Z.y.e.+.X.X.X...{ ' ` e r [ { ` r r { @.B.d.z.z.x.g.g.l.k.g.N. .` { {  . .h h h t + s I.Y.&X/.a X ",
"g ( :XaXaX9X&X{.D.+.@.#.B.Z.C.C.M.+.u ' ' ] { { ` ` ` [  .{ ` e e ` ..N.a.x.l.k.S.u.h.l.g.N.h ` { ..X.X.....N u 9 v I.R.rX:X( g ",
"#X&X9XaXaX&X( l j ....X.#.M.M.M.M.N q % e [ { { ` ` [ { ..} r e e r { #.Z.g.l.k.A.a.f.k.L.M.j r j X.#.S X... . .j k v ) :XwX&X#X",
"aXpXiXpXaX+Xg O r  .{  .@.M.#.+.N m l f e w  ...` [ { .. .{ y ` e ` { X.N.g.f.l.g.g.k.f.u.#.{ r { @.N.N.X... .....i # g #XaXaXyX",
"pXiXiXpXaX+Xf # ` ] { ..@.#.#.b 9 l ~.~.g 9 C #...j  . . .{ ` ` e ` { @.B.S.k.l.z.a.z.z.S.+.h ` { @.N.N.@. . .....r # g +XaXaXpX",
"iXiXiXpXaX+XP = u  . . .b @.D.F.K :.>X&XQ 0 B @.....X.@...{ e = = e w M N.S.h.l.z.z.z.a.C.+.r t y ..#.$.+.X.X.@.B m 0 Q %XaXpXtX",
"iXiXiXpXpX=X;.]  .+.@.b q x {.*X%X:XtX2XF.B j j  .X.#.#.X.j = O % O % w N.A.A.h.z.z.z.L.a.A 9 # e [ ..@.$.e.N.N.e.A C G.*XaXpXiX",
"iXiXiXiXpX=X=...D.G.G.D.K ^ :XaXaX9X:X{.G.A j '  .A e.N.M h * @ @ @ @ * S Z.Z.A.a.z.a.S.A.e.V f = t w j A N.N.e.B.r.N.D.{.:X9XpX",
"iXiXiXiXaX=X=.%.|.2X*X=X#X&X9XaXaX:X( x e.M...M @.B.r.M.{ d ;         ; B M.M.B.Z.S.S.A.B.F.|.~.g + O 9 m @.@.+.r.N.A M z ( &XaX",
"iXiXiXiXpX*XK.J.*XaXaXpXaXaXiXiXaX%XQ 0 C r.@.+.S N.N.Z ' *   : : : > 3 l ..+.M.Z.Z.Z.B.#.G.5X,X:.g g l k y y u Z #.B y # g oXyX",
"iXiXiXiXiXwX,X,XwXpXpXiXpXiXiXiXpX2XF.C e.B.N.$.@.X.@.j = @ - , > < 2 3 * i +.N.Z.Z.M.M.#.G.2XwX&X#X#X~.f O O 9 b ....y O G T.E.",
"iXiXiXiXiXiXpXpXiXiXiXiXiXiXiX9X&X{.G.r.N.N.r.e.X. . .j J H 1 1 1 8 U I ; * k +.B.C.M.+.+.G.*XpXpXaXsX:X/ g g P -.=.@.i $ G T.Q.",
"iXiXiXiXiXiXiXiXiXiXiXiXiXiXaX&X) V S B.+.@.e.N.+.{ ' &.(._.q.,.,.,.1.R < - * w +.M.M.@.#.G.*XpXpXpXpX9X&X+X+X%X=X|.=.u # J oXyX",
"iXiXiXiXiXiXiXiXiXiXiXiXiXiXaX+Xg $ C B.@.A $.$. .` p | ).].9.,.,.1.1.>.1 - @ $ N #.M.#.+.F.*XpXpXiXiXiXpXpXaXaXaX=X=.p O z +XuX",
"iXiXiXiXiXiXiXiXtXiXiXiXiXiXaX+Xg $ C r.e.$.@.m ' = # * F I I 6 5 5 R I 2 - @ = b M.#.+. .D.=XpXpXiXiXiXpXpXpXpXaX#XL + + J #XaX",
"rXrXtXiXiXiXiXiXiXiXiXiXiXaXaX+Xg $ N e.N.#. .} &.&.L 3 - : < 2 2 I Y R 2 , ; ; u ..#.+.u *.=XpXpXtXiXiXiXiXiXpXpX:X:.; O z +XaX",
"E.W.rXiXiXiXiXiXiXiXiXiXiXiXaX+XJ & u @.@. .y O.(.=X%X).2 : 2 5 7 Y 6.4.R 2 < ; * t B B q L %XyXpXiXiXiXiXiXiXiXiX9X&X^.a g +XaX",
"E.W.rXiXiXiXiXiXiXiXiXiXiXpXpX#XJ # i  . ...| :.*XyXpXXX5 , 5 >.Y <.w.w.1.U 5 4 H x X.j # g +XaXpXiXiXiXtXiXiXiXiXpXaX&X/ ) &XaX",
"rXrXtXiXiXiXiXiXiXiXiXiXtXaXaX+XJ # y  . .%.^.OX>X8X8XXX<.5 ,.,.8.3.3.3.q.1.,.9.).^.=.y O g +XaXpXiXiXiXiXiXiXiXiXpXaX9X&X&X8XiX",
"iXiXiXiXiXiXiXiXiXiXtXiXiXaXpX#Xg # y b u &.@X6X>X>X>X].2.>.3.3.3.9.3.,.,.1.3.w.[.^.V w d ^ $XtXiXiXiXiXiXiXiXiXiXiXtXiXaXaXiXiX",
"iXiXiXiXiXiXiXiXiXiXiXiXiXpXaX+Xl O u u $ z (.1X1X>X>XXX9.q.3.3.3.3.T I 5 T 7.7.E F * a :._.>X1XwXyXiXiXiXiXiXiXiXiXiXiXpXpXiXiX",
"iXiXiXiXtXiXiXiXiXiXiXiXiXiXpX&X( l k d f ! .X>X;X>X1XXX3.,.8.,.1.<.T Y I 2.4.2., . ; ! .X1X>X>X9XwXiXiXiXiXiXiXiXiXiXiXiXiXiXiX",
"iXiXiXiXiXiXiXiXiXiXiXtXiXiXiX9X:X^.f d ( .X&X>X>X;X1X'.8.5 U R R T <.3.6.4.<.1 > 1 5..X<X>X>X>X>X8XiXiXiXiXiXiXiXtXiXiXiXiXiXiX",
"iXiXiXiXiXiXiXiXiXiXiXiXiXiXiXpXaX&X! ! .X7X>X>X>X:XXX5.U 6 6 R Y T <.3.6.4.T < : F `.1X>X>X>X>X>X>X9X9XtXiXiXiXiXiXiXiXiXiXiXiX",
"iXiXiXiXiXiXiXiXiXiXiXiXiXiXiXiXaX8XOX_.$X>X>X>X>X'.E 1 F U 8.,.1.,.Y U R T ,.R , F `.7X>X>X>X>X>X>X>X8XeXtXiXiXiXiXiXiXiXiXiXiX",
"iXiXiXiXiXiXiXiXiXiXtXiXiXiXiXiXiXeX1X>X>X>X>X>X>X_._ F 4 U 8.8.3.,.T U 5 5 >.R , F `.7X>X>X>X>X>X>X>X1XeXpXiXiXiXiXiXiXrXrXtXiX",
"iXiXiXiXiXwXiXiXiXiXiXiXiXiXiXiXiXeX1X>X;X>X<X>X>X:X_.7.E 6 U T R >.8.8.1.>.R 1 : 1 `.;X>X>X>X>X>X<X<X1X9XpXiXiXiXiXiXrXW.W.rXiX",
"iXiXiXiXiXiXiXiXiXiXiXiXiXiXiXiXiXtX8X>X>X>X>X>X>X>X>XXX0.E U 7 6 R 1.3.1.R 1 < 1 _ _.;X>X:X>X>X>X>X>X8XeXtXiXiXiXiXiXrXW.W.rXpX",
"iXiXiXiXiXiXiXiXiXiXiXiXiXiXiXiXiXiXeX8X1X>X>X>X>X>X>X:XXX[.E 6 6 U 8.q.R 2 > 2 5.'.:X>X>X>X>X>X>X>X8XeXtXiXiXiXiXiXiXtXrXrXtXiX",
"iXiXiXiXiXiXiXiXiXiXiXiXiXiXiXiXiXiXiXeX>X>X>X>X>X>X>X>X<XXX0.8.8.q.9.9.8.5 F >.'.>X>X;X>X>X>X>X>X8XtXiXiXiXiXiXiXiXiXiXiXiXiXiX",
"iXiXiXiXiXiXiXiXiXiXiXiXiXiXiXiXiXiXpX9X7X>X>X>X>X>X>X>X>X:X].'.].].XXXX'.`.`._.:X>X>X>X>X>X>X1X9XeXiXiXiXiXiXiXiXiXiXiXiXiXiXiX",
"iXtXrXrXtXiXiXiXiXiXiXtXiXiXiXiXiXiXiXeX8X1X>X:X>X>X>X>X>X>X>X>X<X>X>X>X>X1X1X;X;X;X;X>X>X>X>X1XeXpXiXiXiXiXiXiXiXiXiXiXiXiXiXiX",
"iXrXW.W.rXiXiXiXiXiXiXiXiXiXiXiXiXiXiXiXiX8X>X>X:X>X>X>X>X>X>X>X>X>X>X>X>X>X1X;XR.R.;X>X>X>X8XeXiXiXiXiXiXtXiXiXiXwXiXiXiXiXiXiX",
"iXrXrXW.rXiXiXiXiXiXiXiXiXtXrXrXtXiXiXiXiXeX8X1X1X1X1X>X1X>X>X>X>X>X:X>X>X>X>X;XR.R.;X8X7X8XtXiXiXiXiXiXiXiXiXiXiXiXiXiXiXiXiXiX",
"iXtXrXrXtXiXiXiXiXiXiXiXiXrXW.W.rXiXiXiXiXiXeXeXeXeXeX8X>X:X>X;X>X>X>X>X>X>X>X;X;X;X8XeX9XiXiXiXiXiXiXiXiXiXiXiXiXiXiXiXiXiXiXiX",
"iXiXiXrXiXiXiXiXiXiXiXiXiXrXE.E.rXiXiXiXiXiXiXiXiXpXiXeX1X>X>X:X>X>X>X>X>X>X:X>X>X7XeXiXiXiXiXiXiXiXiXiXiXiXiXiXiXiXiXiXiXiXiXiX"
};
