/* XPM */
static char *monke_idle_64x64_4[] = {
/* columns rows colors chars-per-pixel */
"64 64 172 2 ",
"   c #02033B",
".  c #08083B",
"X  c #110E38",
"o  c #0F103E",
"O  c #15143B",
"+  c #1A1838",
"@  c #161437",
"#  c #3F2D2F",
"$  c #3D362E",
"%  c #3F382F",
"&  c #2B2531",
"*  c #2D2A33",
"=  c #2D2B3E",
"-  c #272436",
";  c #3F2D30",
":  c #312E3E",
">  c #322932",
",  c #363031",
"<  c #3A3331",
"1  c #34313F",
"2  c #412F2E",
"3  c #43312F",
"4  c #433B2F",
"5  c #402F30",
"6  c #403A30",
"7  c #4D3E35",
"8  c #7E721B",
"9  c #4A422D",
"0  c #53422A",
"q  c #50482A",
"w  c #554536",
"e  c #544C35",
"r  c #594936",
"t  c #585036",
"y  c #5B5339",
"u  c #6E4D24",
"i  c #6B5624",
"p  c #705325",
"a  c #705B25",
"s  c #6D6023",
"d  c #726423",
"f  c #7C7227",
"g  c #72673F",
"h  c #2E2C41",
"j  c #272641",
"k  c #302E41",
"l  c #363342",
"z  c #393542",
"x  c #3E3A43",
"c  c #4A4742",
"v  c #534D43",
"b  c #5D5848",
"n  c #565146",
"m  c #645D49",
"M  c #67604B",
"N  c #746940",
"B  c #7B7247",
"V  c #8F651E",
"C  c #9A6E1F",
"Z  c #85791C",
"A  c #9D711E",
"S  c #897D29",
"D  c #857B3D",
"F  c #817445",
"G  c #857947",
"H  c #887E45",
"J  c #877A48",
"K  c #867D50",
"L  c #93821E",
"P  c #99861C",
"I  c #9C891F",
"U  c #BF8614",
"Y  c #AD9E1F",
"T  c #BEA614",
"R  c #B8A71E",
"E  c #9F8B20",
"W  c #9C8E2D",
"Q  c #B3A322",
"!  c #BEAD22",
"~  c #B9AA3E",
"^  c #C18714",
"/  c #C38913",
"(  c #CD8F11",
")  c #CE9311",
"_  c #CD9A11",
"`  c #D19210",
"'  c #C0A714",
"]  c #CDA711",
"[  c #C2AA13",
"{  c #C8AF12",
"}  c #C1AF19",
"|  c #CCB111",
" . c #D1B510",
".. c #EDA50A",
"X. c #EAAA0B",
"o. c #FCAF07",
"O. c #F8AD08",
"+. c #EABC0B",
"@. c #FEB207",
"#. c #FCBA07",
"$. c #F8B608",
"%. c #F8BC08",
"&. c #C0AF23",
"*. c #C5B326",
"=. c #C9B727",
"-. c #CAB728",
";. c #CEBE34",
":. c #C8B739",
">. c #D0BE36",
",. c #ECC60A",
"<. c #ECCD0B",
"1. c #F8C208",
"2. c #F8CD08",
"3. c #FBC807",
"4. c #FDD207",
"5. c #FDDC07",
"6. c #F8D208",
"7. c #F8D808",
"8. c #F0D10A",
"9. c #FFE106",
"0. c #D6C438",
"q. c #E3D02F",
"w. c #E3D13B",
"e. c #8B8146",
"r. c #8D8349",
"t. c #908646",
"y. c #948945",
"u. c #91864A",
"i. c #958A4B",
"p. c #9A8E4C",
"a. c #9D914E",
"s. c #9E9351",
"d. c #AA9E4B",
"f. c #A39647",
"g. c #A29651",
"h. c #A59952",
"j. c #AA9E54",
"k. c #ADA04B",
"l. c #BEAF40",
"z. c #B6A84A",
"x. c #BBAD4C",
"c. c #B4A64D",
"v. c #BFB04E",
"b. c #AFA256",
"n. c #ADA158",
"m. c #B2A556",
"M. c #B9AB57",
"N. c #BCAE59",
"B. c #B6A856",
"V. c #BEB05A",
"C. c #C5B646",
"Z. c #CCBB47",
"A. c #C1B34E",
"S. c #CBBC4C",
"D. c #C4B551",
"F. c #C7B852",
"G. c #CBBC54",
"H. c #CEBE58",
"J. c #D3C34B",
"K. c #DAC94D",
"L. c #CFC056",
"P. c #D1C256",
"I. c #DBCA51",
"U. c #D4C459",
"Y. c #D8C75A",
"T. c #DCCC5C",
"R. c #E0CF5D",
"E. c #E4D354",
"W. c #E3D25E",
"Q. c #E5D460",
"!. c #E8D760",
"~. c #EBD961",
/* pixels */
"Q.Q.Q.Q.Q.Q.Q.Q.Q.Q.Q.Q.Q.Q.Q.Q.Q.Q.Q.Q.Q.Q.Q.Q.Q.Q.Q.Q.Q.Q.Q.Q.Q.Q.Q.Q.Q.Q.Q.Q.Q.Q.Q.Q.Q.Q.Q.Q.Q.Q.Q.Q.~.Q.Q.Q.Q.Q.Q.Q.Q.Q.Q.Q.",
"Q.Q.Q.Q.Q.Q.Q.Q.Q.Q.Q.Q.Q.Q.Q.Q.Q.Q.Q.Q.Q.Q.Q.Q.Q.Q.Q.Q.E.E.W.!.Q.Q.Q.Q.Q.Q.Q.Q.Q.Q.Q.Q.Q.Q.Q.Q.Q.Q.Q.W.E.E.Q.Q.Q.Q.Q.Q.Q.Q.Q.Q.",
"Q.Q.Q.Q.Q.Q.Q.Q.Q.Q.Q.Q.Q.Q.Q.Q.Q.Q.Q.Q.Q.Q.Q.Q.Q.Q.Q.E.w.w.E.Q.Q.Q.Q.Q.Q.Q.Q.Q.Q.Q.Q.Q.Q.Q.Q.Q.Q.Q.Q.E.w.w.E.Q.Q.Q.Q.Q.Q.Q.Q.Q.",
"Q.W.Q.Q.Q.Q.!.Q.Q.Q.Q.Q.Q.Q.Q.Q.Q.Q.Q.Q.Q.Q.~.Q.~.Q.~.E.w.w.E.Q.Q.Q.Q.Q.Q.Q.Q.Q.Q.Q.Q.Q.Q.Q.Q.Q.Q.Q.Q.E.w.w.E.Q.Q.Q.Q.Q.Q.Q.Q.Q.",
"Q.Q.Q.W.!.Q.Q.Q.Q.!.Q.Q.Q.Q.Q.W.Q.Q.Q.Q.Q.~.!.~.~.Q.!.W.E.E.R.W.Q.Q.Q.Q.Q.Q.Q.Q.Q.Q.Q.Q.Q.Q.Q.Q.Q.Q.Q.W.E.E.W.Q.Q.Q.Q.Q.Q.Q.Q.Q.",
"Q.Q.Q.Q.Q.Q.Q.W.E.E.W.Q.Q.Q.Q.!.Q.Q.Q.Q.Q.Y.N.m.m.n.b.N.Y.W.Q.Q.Q.Q.W.Q.Q.Q.Q.Q.Q.Q.Q.Q.Q.Q.Q.Q.Q.Q.Q.Q.Q.Q.Q.Q.Q.Q.Q.Q.Q.Q.Q.Q.",
"Q.Q.Q.Q.Q.Q.Q.E.w.w.E.Q.Q.Q.Q.Q.Q.Q.Q.Q.~.N.m z z x z m N.Q.Q.Q.W.Q.Q.Q.Q.Q.Q.Q.Q.Q.Q.Q.Q.Q.Q.Q.Q.!.Q.Q.Q.Q.Q.Q.Q.Q.Q.Q.Q.Q.Q.Q.",
"Q.Q.Q.Q.Q.Q.Q.E.w.w.E.Q.Q.Q.Q.Q.Q.Q.~.~.~.m.x         x j.R.R.R.R.R.W.W.Q.Q.Q.Q.Q.Q.Q.Q.Q.Q.Q.Q.Q.Q.Q.Q.Q.Q.Q.!.Q.Q.Q.Q.Q.Q.Q.Q.",
"Q.Q.W.Q.Q.Q.Q.W.E.E.W.Q.Q.Q.Q.Q.Q.Q.!.~.~.B.x   .     z h.R.R.R.R.R.Q.Q.Q.Q.Q.Q.Q.Q.Q.Q.Q.Q.Q.Q.Q.Q.Q.Q.Q.Q.Q.Q.Q.Q.Q.Q.Q.Q.Q.Q.",
"Q.Q.!.Q.Q.Q.Q.Q.Q.Q.Q.Q.Q.Q.Q.Q.Q.T.N.n.B.K k   . . . x g.Y.Y.Y.T.R.R.W.W.Q.Q.Q.Q.Q.Q.Q.Q.Q.Q.Q.Q.Q.Q.Q.Q.Q.Q.Q.Q.Q.Q.Q.Q.Q.Q.Q.",
"Q.Q.Q.Q.Q.Q.Q.Q.Q.!.Q.Q.Q.Q.Q.!.!.N.M x x k o . . . . z g.P.P.U.Y.T.R.Q.W.W.Q.Q.Q.Q.Q.Q.Q.Q.Q.Q.Q.Q.Q.Q.Q.Q.Q.Q.Q.Q.Q.Q.Q.Q.Q.Q.",
"Q.Q.Q.Q.Q.Q.Q.Q.Q.Q.Q.Q.Q.Q.Q.!.!.j.x     O 1 < @ . . 1 p.G.H.P.Y.T.R.W.W.W.W.Q.Q.Q.Q.Q.Q.Q.Q.Q.Q.Q.Q.Q.Q.Q.Q.Q.Q.Q.Q.Q.Q.Q.Q.Q.",
"Q.Q.Q.Q.Q.Q.Q.Q.Q.Q.Q.Q.Q.Q.Q.!.~.n.x     $ L P $ .   1 i.F.G.G.U.Y.R.R.R.Q.Q.Q.Q.Q.Q.Q.Q.Q.Q.Q.Q.Q.Q.Q.Q.Q.Q.Q.Q.Q.Q.Q.Q.W.Q.Q.",
"Q.Q.W.Q.Q.Q.Q.Q.Q.Q.Q.Q.Q.Q.Q.!.~.m.x     4 { { 4   . 1 y.A.F.G.U.Y.T.R.R.W.W.Q.Q.Q.Q.Q.Q.Q.Q.Q.Q.Q.Q.Q.Q.Q.Q.Q.Q.W.E.E.W.!.Q.Q.",
"Q.Q.!.Q.Q.Q.Q.Q.Q.Q.Q.Q.Q.Q.Q.!.~.n.z     4 { { 7     1 u.A.A.G.U.T.R.R.W.W.Q.W.Q.Q.Q.Q.Q.Q.Q.Q.Q.Q.Q.Q.Q.Q.Q.Q.Q.E.w.w.E.Q.!.Q.",
"Q.Q.Q.Q.Q.Q.Q.Q.Q.Q.Q.Q.Q.Q.Q.T.D.i.y $ $ d  .[ 4     1 t.A.A.G.H.Y.T.R.W.Q.Q.Q.Q.Q.Q.Q.Q.Q.Q.Q.Q.Q.Q.Q.Q.Q.Q.Q.!.E.w.w.E.Q.Q.Q.",
"Q.Q.Q.Q.Q.Q.Q.Q.Q.Q.Q.Q.Q.~.!.N.m n I [ '  .8.[ 4     k t.A.A.F.P.U.T.Q.Q.Q.Q.Q.Q.Q.Q.Q.Q.Q.Q.Q.Q.Q.Q.Q.Q.Q.Q.!.Q.W.E.E.W.Q.Q.Q.",
"Q.Q.Q.Q.Q.Q.Q.Q.Q.Q.Q.Q.Q.!.!.n.z < T 9.9.5.5.| s % < e g p.c.G.G.U.T.T.T.T.Q.Q.Q.Q.Q.Q.Q.Q.Q.Q.Q.Q.Q.Q.Q.Q.Q.W.!.W.Q.Q.!.Q.Q.Q.",
"Q.W.!.Q.Q.Q.W.!.Q.Q.Q.Q.Q.Q.~.j.z < ' 5.5.5.5.<.| T [ I e v a.G.P.U.T.W.Q.Q.Q.W.W.Q.Q.Q.W.Q.Q.Q.Q.Q.Q.Q.Q.Q.Q.Q.Q.Q.Q.Q.Q.Q.Q.Q.",
"Q.Q.Q.Q.Q.Q.Q.Q.Q.Q.Q.Q.Q.~.~.j.z < T 5.5.7.7.7.5.9.9.T 4 : u.A.L.U.T.T.T.Q.W.Q.Q.Q.Q.Q.Q.Q.Q.Q.Q.Q.!.Q.Q.Q.Q.Q.Q.Q.Q.Q.Q.Q.Q.Q.",
"Q.Q.Q.Q.Q.Q.Q.Q.Q.Q.Q.Q.~.~.~.j.l < T 5.5.7.7.7.7.9.9.T % k r.D.G.P.Y.T.Q.Q.W.W.Q.Q.Q.Q.Q.Q.Q.Q.Q.Q.Q.Q.Q.Q.Q.Q.Q.Q.Q.Q.Q.Q.Q.Q.",
"Q.Q.Q.Q.Q.Q.Q.Q.Q.Q.!.Y.N.m.m.i.y a { 5.5.7.7.7.7.5.5.T % k r.D.G.L.U.T.T.Q.W.Q.Q.Q.Q.Q.Q.Q.Q.Q.Q.Q.Q.Q.Q.Q.Q.W.Q.Q.Q.Q.Q.Q.Q.Q.",
"Q.Q.Q.Q.Q.Q.W.!.Q.Q.~.N.m x z y E | <.7.7.6.7.7.7.5.5.T % k r.v.F.H.U.T.T.Q.W.W.Q.Q.Q.W.Q.Q.Q.Q.Q.Q.Q.W.Q.Q.Q.Q.Q.Q.!.Q.Q.Q.Q.Q.",
"Q.Q.Q.Q.Q.Q.Q.Q.Q.Q.~.m.z     4 [ 9.5.7.7.7.7.7.7.5.5.T % h r.v.D.G.P.T.T.T.Q.W.Q.Q.Q.Q.Q.Q.Q.Q.Q.Q.Q.Q.Q.Q.Q.!.Q.Q.W.Q.Q.Q.Q.Q.",
"Q.Q.Q.Q.!.Q.Q.Q.Q.!.!.b.x     4 T 9.5.7.7.7.6.7.7.5.5.T % h e.v.D.G.P.T.R.R.Q.Q.R.Q.Q.Q.Q.Q.Q.Q.Q.Q.Q.Q.Q.Q.Q.Q.Q.Q.Q.Q.Q.Q.Q.Q.",
"Q.Q.W.W.E.E.W.Q.Q.!.!.b.x     6 T 9.5.7.7.7.7.7.7.5.5.T $ = D ~ l.C.S.J.J.I.T.Q.Q.Q.Q.Q.Q.Q.Q.Q.Q.Q.Q.Q.Q.Q.Q.Q.Q.Q.Q.Q.Q.Q.Q.Q.",
"Q.Q.!.E.w.w.E.Q.Q.!.!.m.x   . 6 T 5.5.7.7.7.7.7.7.5.5.T $ - f Y Q Q ! *.=.;.I.Q.Q.W.Q.Q.Q.Q.Q.Q.Q.Q.Q.Q.Q.Q.Q.Q.W.W.!.Q.Q.Q.Q.Q.",
"Q.Q.!.E.w.w.E.Q.Q.!.!.b.x .   6 T 5.5.7.7.7.7.7.7.7.5.{ s 9 a 8 8 L Q ! } =.I.Q.Q.W.Q.Q.Q.Q.Q.Q.Q.Q.Q.Q.Q.Q.Q.Q.!.W.E.E.W.Q.Q.Q.",
"Q.Q.Q.W.E.E.W.Q.Q.Q.!.b.x   . 6 T 5.7.7.7.7.7.7.7.7.7.<. .P q & & e f.:.*.=.K.Q.Q.Q.Q.Q.Q.Q.!.Q.Q.Q.Q.Q.Q.Q.Q.Q.Q.E.w.w.E.Q.Q.Q.",
"Q.Q.Q.Q.Q.!.Q.Q.Q.Q.!.b.x   . 6 ' 5.5.7.7.7.7.7.7.7.7.5.5.[ 6     z g.Z.*.*.K.Q.Q.W.W.Q.Q.Q.W.Q.Q.Q.Q.Q.Q.Q.Q.Q.Q.E.w.w.E.!.Q.Q.",
"Q.Q.Q.Q.Q.Q.Q.Q.Q.!.!.b.x     6 ' 5.5.7.7.7.7.7.7.7.7.5.9.' 4     l a.Z.*.*.J.Q.Q.Q.Q.W.Q.Q.Q.Q.Q.Q.Q.Q.Q.Q.Q.Q.Q.W.E.E.W.Q.Q.Q.",
"Q.Q.Q.Q.Q.Q.Q.Q.Q.Q.!.b.c     6 ' 5.5.7.7.7.7.7.6.7.7.5.5.T 4     l y.:.! *.J.T.W.W.W.W.Q.Q.Q.Q.Q.Q.Q.Q.Q.Q.Q.Q.!.Q.Q.Q.!.Q.Q.Q.",
"Q.Q.Q.Q.Q.Q.Q.Q.Q.Q.Q.m.x   . 4 T 5.7.7.7.7.7.7.7.7.7.5.5.T %     * S R R &.J.Y.R.W.W.W.Q.Q.Q.Q.Q.Q.Q.Q.Q.Q.Q.Q.Q.Q.Q.Q.Q.Q.Q.Q.",
"Q.Q.Q.Q.Q.Q.Q.Q.Q.!.!.m.x     4 T 5.5.7.7.7.7.7.7.7.7.5.5.{ a ; 5 0 d Z Z W A.Y.T.R.W.Q.R.Q.Q.Q.Q.Q.Q.Q.Q.Q.Q.Q.Q.Q.Q.Q.Q.Q.Q.Q.",
"Q.Q.Q.Q.Q.Q.Q.Q.Q.Q.!.j.x .   6 T 9.5.7.7.7.7.7.7.7.7.7.7.,._ ^ ^ A 0 & * y k.Y.T.T.W.W.Q.Q.Q.Q.Q.Q.Q.Q.Q.Q.Q.Q.Q.Q.Q.Q.Q.Q.Q.Q.",
"Q.Q.Q.Q.Q.Q.Q.Q.Q.!.!.m.x   . 4 ' 5.5.7.6.7.7.7.7.7.7.7.7.2.#.@.@./ 3     z s.Y.Y.Y.R.W.Q.R.Q.R.Q.Q.Q.Q.Q.Q.Q.Q.Q.Q.Q.Q.Q.Q.Q.Q.",
"Q.Q.Q.Q.Q.Q.Q.Q.Q.Q.!.m.x     4 T 5.5.7.7.7.7.6.7.7.7.7.7.6.#.o.@.^ 3     l a.P.Y.Y.R.R.W.W.W.W.Q.Q.Q.Q.Q.Q.Q.Q.Q.Q.Q.Q.Q.Q.Q.Q.",
"Q.Q.Q.Q.Q.Q.Q.Q.Q.Q.!.j.x     9 ' 9.5.7.7.7.7.7.7.7.7.7.8.3.$.o.@.U 5     l p.L.Y.Y.T.W.W.W.W.W.R.Q.Q.Q.Q.Q.Q.Q.Q.Q.Q.Q.Q.W.E.E.",
"Q.Q.Q.Q.Q.Q.Q.Q.Q.Q.!.m.x .   4 [ 9.5.7.7.7.7.7.7.7.7.2.1.O.O.o.o.U #     1 i.G.P.P.T.R.T.W.W.W.Q.Q.Q.Q.Q.Q.Q.Q.Q.Q.Q.Q.Q.E.w.q.",
"Q.Q.Q.Q.Q.Q.Q.Q.Q.~.~.j.x     , E  .,.6.2.6.6.7.6.2.6.1.%.$.$.#.#.) p # # r F i.p.a.g.m.H.R.R.W.R.Q.R.Q.Q.Q.Q.Q.Q.Q.Q.Q.Q.E.w.q.",
"Q.Q.Q.Q.Q.Q.Q.Q.Q.Q.!.m.x   . @ * a _ #.@.1.6.6.%.$.$.%.3.8.6.2.6.+.) U / A r l l l l m B.R.W.R.Q.R.Q.R.Q.Q.Q.Q.Q.Q.Q.Q.Q.W.E.E.",
"Q.Q.Q.Q.Q.Q.Q.Q.Q.!.!.n.x         ; U o.o.$.2.2.$.O.O.$.2.7.7.7.7.6.#.@.@.U ;         l h.R.R.W.Q.Q.Q.Q.R.Q.Q.Q.Q.Q.Q.Q.Q.Q.!.Q.",
"Q.Q.Q.Q.Q.Q.Q.Q.Q.Q.!.j.x         5 U o.O.$.2.6.$.O.O.$.2.7.7.7.7.6.#.@.@.U ;         l g.T.R.T.R.W.Q.Q.Q.Q.W.Q.Q.Q.Q.Q.Q.Q.Q.Q.",
"E.E.W.Q.Q.Q.Q.Q.Q.!.!.N.m x x = o 5 ^ @.@.#.1.3.%.$.$.%.6.7.6.2.2.1.$.o.@.( u ; 5 5 5 r J g.h.j.j.M.U.R.W.R.W.Q.Q.Q.Q.Q.Q.Q.Q.Q.",
"q.w.E.Q.Q.Q.Q.Q.Q.W.Q.U.N.j.b.B j ; U @.@.@.$.%.1.6.2.6.7.6.1.$.#.$.O.O.O.X.( U U ^ ^ A r l z z z m m.W.W.R.W.W.Q.W.Q.Q.Q.Q.Q.Q.",
"q.w.E.!.Q.Q.Q.Q.Q.Q.R.Q.W.W.W.m.b r A U U ) X.1.7.7.7.7.6.3.O.O.O.O.O.O.O.O.o.@.@.@.@.) u & X     l g.R.R.R.R.Q.W.Q.W.Q.Q.Q.Q.Q.",
"E.E.W.W.Q.Q.Q.Q.Q.Q.W.W.W.W.T.G.j.G r ; ; a ] 4.7.7.7.6.%.$.O.O.O.O.O.O.O.O.@.@.o.o.@...( V >     1 g.T.T.T.T.W.W.W.Q.Q.Q.Q.Q.Q.",
"!.Q.Q.Q.Q.Q.Q.Q.Q.Q.W.W.R.R.T.T.Y.g.l     % T 9.5.7.7.2.$.O.O.O.O.O.O.O.O.O.O.O.o.O.O.@.@./ 3     1 a.Y.Y.Y.T.T.W.Q.Q.W.Q.Q.Q.Q.",
"Q.Q.Q.Q.W.!.Q.Q.Q.Q.Q.W.W.R.R.R.T.s.z     % T 9.9.7.7.6.$.O.O.O.O.O.O.O.O.O.O.O.O.O.O.@.@./ 3     1 p.G.P.Y.I.R.R.W.W.Q.Q.W.Q.Q.",
"Q.Q.Q.Q.Q.Q.Q.Q.Q.Q.W.Q.Q.R.R.R.R.m.m l l y P { ,.4.6.3.#.o.o.o.O.@.o.o.O.@.@.@.o.o.o...` C w = : n f.G.G.H.Y.T.R.W.W.Q.Q.Q.Q.Q.",
"Q.Q.Q.Q.Q.Q.Q.Q.Q.!.Q.W.Q.R.Q.R.R.L.m.h.s.G e i _ #.#.#.@.@.@.@.@.@.@.@.@.@.@.@.@.@.$.( u 7 g e.e.p.c.D.G.H.U.T.R.W.W.W.W.W.Q.Q.",
"Q.Q.Q.Q.Q.Q.Q.Q.Q.W.Q.Q.Q.Q.Q.W.R.R.R.Y.Y.n.n w A ^ ^ ^ U U U / U U U U U U U U ^ ^ U C 7 e y.z.x.x.x.D.G.H.U.T.W.W.W.W.Q.Q.Q.Q.",
"Q.Q.Q.Q.Q.Q.Q.Q.Q.Q.Q.Q.Q.Q.Q.R.W.R.R.R.Y.F.n.G r 2 3 3 3 3 3 3 3 3 3 3 3 3 3 3 3 3 3 w g t.d.z.x.A.A.D.G.H.Y.T.R.W.W.W.W.Q.Q.Q.",
"Q.Q.Q.Q.Q.Q.Q.Q.Q.Q.Q.Q.Q.R.Q.Q.W.W.W.R.T.T.U.s.l       .                 . .         = H z.z.z.x.x.D.G.H.U.Y.T.R.W.W.R.R.E.Q.Q.",
"Q.Q.Q.Q.Q.Q.Q.Q.Q.Q.Q.Q.Q.Q.R.Q.W.W.W.R.R.T.T.s.l       . .         .                 = H z.x.x.A.D.G.H.Y.Y.T.R.Q.Q.Q.R.w.w.E.Q.",
"Q.Q.Q.Q.Q.Q.Q.Q.Q.Q.Q.Q.Q.Q.Q.Q.Q.W.W.W.R.W.R.m.m l l 1 l 1 l 1 1 l l l 1 1 1 1 l k h e i.z.x.v.D.F.H.U.Y.R.R.R.R.Q.Q.E.w.w.E.Q.",
"Q.Q.Q.Q.Q.Q.Q.Q.Q.Q.Q.Q.Q.Q.Q.Q.Q.R.Q.W.W.W.R.L.B.s.a.a.i.i.t.r.r.e.e.e.e.e.e.e.H r.H y.k.x.x.D.G.H.U.Y.T.R.R.W.Q.Q.Q.W.E.E.W.!.",
"Q.Q.Q.Q.Q.Q.Q.Q.Q.Q.Q.Q.Q.Q.Q.Q.Q.Q.W.W.W.W.R.R.T.T.Y.L.G.F.v.v.v.v.v.v.x.x.x.x.x.x.x.N.x.A.A.G.H.U.Y.T.R.R.Q.W.R.Q.Q.Q.Q.Q.Q.W.",
"Q.Q.!.Q.Q.Q.Q.Q.Q.Q.Q.Q.Q.Q.Q.W.Q.Q.Q.W.W.W.W.R.R.R.T.P.L.F.F.D.v.v.A.A.v.v.v.v.D.D.D.D.D.F.G.G.P.Y.T.R.R.W.W.Q.Q.Q.Q.Q.!.Q.Q.Q.",
"!.W.E.E.W.Q.Q.Q.Q.Q.Q.Q.Q.Q.Q.Q.Q.Q.Q.Q.W.W.W.W.R.R.T.Y.L.L.F.F.F.F.F.F.F.F.F.C.C.C.D.G.G.G.G.U.Y.T.R.R.R.Q.W.Q.Q.Q.Q.Q.Q.Q.Q.Q.",
"Q.E.w.w.E.Q.Q.Q.Q.Q.Q.Q.Q.Q.Q.Q.Q.Q.Q.Q.Q.R.Q.W.R.R.R.T.Y.U.U.U.L.L.U.L.U.U.U.J.>.;.S.P.U.U.Y.Y.T.R.R.Q.W.Q.Q.Q.Q.Q.Q.Q.Q.Q.Q.Q.",
"!.E.K.w.E.Q.Q.Q.Q.Q.Q.Q.Q.W.E.E.W.Q.Q.Q.Q.Q.Q.W.W.W.R.R.T.T.Y.T.T.T.T.T.Y.Y.T.P.0.0.I.T.T.Y.T.T.T.R.R.W.W.Q.W.!.W.Q.Q.Q.Q.Q.Q.Q.",
"W.W.E.E.W.!.Q.Q.Q.Q.Q.Q.Q.E.w.w.E.Q.Q.Q.Q.Q.Q.W.Q.W.W.R.R.R.T.T.T.T.T.T.T.T.T.T.I.I.T.T.T.T.R.R.R.W.Q.Q.W.Q.Q.Q.!.Q.Q.Q.Q.Q.Q.Q.",
"W.W.W.W.Q.Q.Q.Q.Q.Q.Q.Q.Q.E.q.q.E.Q.Q.Q.Q.Q.Q.Q.Q.W.W.Q.Q.Q.R.R.R.T.R.R.R.R.T.R.R.R.R.R.R.R.R.Q.Q.W.W.Q.Q.Q.Q.Q.Q.Q.Q.Q.Q.Q.Q.Q."
};
