/* XPM */
static char *monke_idle_64x64_3[] = {
/* columns rows colors chars-per-pixel */
"64 64 177 2 ",
"   c #02033B",
".  c #0F0F3E",
"X  c #191438",
"o  c #141337",
"O  c #3D2C2E",
"+  c #3C352E",
"@  c #3F382E",
"#  c #2E2B32",
"$  c #2C2B3E",
"%  c #272539",
"&  c #342B32",
"*  c #322F3E",
"=  c #3C2B30",
"-  c #3F3930",
";  c #34313F",
":  c #402E2F",
">  c #44322F",
",  c #423B2E",
"<  c #402F30",
"1  c #403A30",
"2  c #534B2A",
"3  c #4F4135",
"4  c #544436",
"5  c #584736",
"6  c #524B36",
"7  c #594C37",
"8  c #574F38",
"9  c #5C5338",
"0  c #5B5237",
"q  c #6E4E25",
"w  c #6E5625",
"e  c #6E5825",
"r  c #705025",
"t  c #705B25",
"y  c #6E6025",
"u  c #736624",
"i  c #72673F",
"p  c #766A3F",
"a  c #2E2C41",
"s  c #292742",
"d  c #302E42",
"f  c #353242",
"g  c #3A3643",
"h  c #3E3A43",
"j  c #4E4A42",
"k  c #534D41",
"l  c #5E5746",
"z  c #5D5749",
"x  c #5D5849",
"c  c #635D4A",
"v  c #67604B",
"b  c #776D42",
"n  c #9B6F1E",
"m  c #93681E",
"M  c #8B7E1D",
"N  c #9C711F",
"B  c #917F1D",
"V  c #9C6F20",
"C  c #817627",
"Z  c #867C3D",
"A  c #817447",
"S  c #847C45",
"D  c #887E47",
"F  c #897E48",
"G  c #827A50",
"H  c #8E811E",
"J  c #9B8A1D",
"K  c #BE8514",
"L  c #BDA514",
"P  c #B2A217",
"I  c #8E832C",
"U  c #9D8A20",
"Y  c #90842A",
"T  c #B3A322",
"R  c #B7A72B",
"E  c #BCAB24",
"W  c #C18714",
"Q  c #C28813",
"!  c #CC8F11",
"~  c #CC9611",
"^  c #D09210",
"/  c #D09C10",
"(  c #C0A713",
")  c #C1A914",
"_  c #CBAF11",
"`  c #CBA711",
"'  c #D0AB11",
"]  c #CCB211",
"[  c #C5B21A",
"{  c #D0B510",
"}  c #ECA40A",
"|  c #ECAD0A",
" . c #FBAF07",
".. c #F8AD08",
"X. c #FEB207",
"o. c #FCBB07",
"O. c #F8B608",
"+. c #F8BB08",
"@. c #C5B425",
"#. c #CBB823",
"$. c #C9B728",
"%. c #CCBA29",
"&. c #CDBC33",
"*. c #D0BE3D",
"=. c #EBC60B",
"-. c #ECCD0A",
";. c #F8C408",
":. c #F8CD08",
">. c #FCC907",
",. c #FDD307",
"<. c #FDDC07",
"1. c #F8D208",
"2. c #F8D808",
"3. c #FFE106",
"4. c #D5C33A",
"5. c #E3D02F",
"6. c #E1CF3A",
"7. c #E3D13B",
"8. c #8C8146",
"9. c #8D8249",
"0. c #948A46",
"q. c #908649",
"w. c #958A4B",
"e. c #998E4D",
"r. c #9D924F",
"t. c #9C9147",
"y. c #9C9151",
"u. c #AC9F4A",
"i. c #A79941",
"p. c #A39751",
"a. c #A59954",
"s. c #AA9E54",
"d. c #AEA14A",
"f. c #B5A747",
"g. c #B6A949",
"h. c #BBAD4C",
"j. c #BAAC40",
"k. c #BFB043",
"l. c #BFB04E",
"z. c #AEA256",
"x. c #ADA258",
"c. c #B1A456",
"v. c #B7A956",
"b. c #B9AB57",
"n. c #B7A958",
"m. c #BCAE59",
"M. c #BEB15A",
"N. c #C4B545",
"B. c #C7B847",
"V. c #C1B34F",
"C. c #CCBC4C",
"Z. c #C9B946",
"A. c #C4B550",
"S. c #C7B853",
"D. c #CBBB54",
"F. c #CDBD59",
"G. c #D5C44B",
"H. c #D9C74D",
"J. c #DCCB4D",
"K. c #CFC056",
"L. c #CFC058",
"P. c #D2C256",
"I. c #DCCB51",
"U. c #D4C459",
"Y. c #D8C759",
"T. c #DCCB5C",
"R. c #E0CF5E",
"E. c #E0CE53",
"W. c #E4D353",
"Q. c #E8D754",
"!. c #E3D35E",
"~. c #E8D75C",
"^. c #E9D85C",
"/. c #DFCE60",
"(. c #E5D460",
"). c #E8D761",
"_. c #EAD960",
/* pixels */
"(.(.(.(.(.(.(.(.(.(.(.(.(.(.(.(.(.(.(.(.(.(.(.(.(.(.(.(.(.(.(.(.(.(.(.(.(.(.(.(.(.(.(.(.(.(.(.(.(.(.(.(.(.(.(.(.(.(.(.(.(.(.(.(.",
"(.(.(.(.(.(.(.(.(.(.(.(.(.(.(.(.(.(.(.(.(.(.(.(.(.(.!.!.W.W.(.(.(.(.(.(.(.(.(.(.(.(.(.(.(.(.(.(.(.(.!.!.W.W.(.(.(.(.(.(.(.(.(.(.",
"(.(.(.(.(.(.(.(.!.(.(.(.(.(.(.(.(.(.(.(.(.(.(.!.(.(.(.W.7.7.W.(.(.(.(.(.(.(.(.(.(.(.(.(.(.(.(.(.(.(.).W.7.7.W.(.).(.(.(.(.(.(.(.",
"(.(.(.!.(.(.(.(.).(.(.(.(.(.(.(.(.(.(.(.).).).).(.).(.W.6.7.W.(.(.(.(.(.(.(.(.(.~.(.(.(.(.(.(.(.(.(.(.W.7.7.W.(.(.(.(.(.(.(.(.(.",
"(.(.(.(.(.(.(.(.(.(.(.(.!.(.(.(.(.(.(.(.).).).^.).).(.!.W.W.!.!.(.(.(.(.(.(.(.(.(.(.(.(.(.(.(.(.(.(.(.!.W.W.!.(.(.(.(.(.(.(.(.(.",
"(.(.(.).(.(.).!.W.Q.!.(.).(.(.(.(.(.).T.M.z.z.z.z.m.T.!.!.!.(.(.(.!.(.(.(.(.(.(.(.(.(.(.(.).!.(.(.(.(.(.(.).(.(.(.(.(.(.(.(.(.(.",
"(.(.(.!.(.(.(.W.7.7.W.(.(.(.(.(.(.).(.m.v h h h g c b.!.!.(.!.(.!.(.(.(.(.(.(.(.(.(.(.(.(.(.(.(.(.(.(.(.(.(.(.(.(.(.(.(.(.(.(.(.",
"(.(.(.(.(.(.(.W.7.7.W.(.(.(.(.(.(.)._.c.h         g s.!.!.!.R.!.!.(.(.(.(.(.(.(.(.!.(.(.(.(.(.(.(.(.(.(.(.(.(.(.(.(.(.(.(.(.(.(.",
"(.(.(.(.(.(.(.(.W.W.!.(.(.(.(.(.(.(._.c.h   .     h s.T.R.T.T.!.!.(.(.(.(.(.(.(.(.(.(.(.(.(.(.(.(.(.(.(.(.(.(.(.(.(.(.(.(.(.(.(.",
"(.(.(.(.(.(.(.(.(.(.(.(.(.(.).).(./.M.G d         ; p.Y.Y.Y.T.R.!.!.!.(.(.(.(.(.(.(.(.(.(.(.(.(.(.(.(.(.(.(.(.(.(.(.(.(.(.(.(.(.",
"(.(.(.(.(.(.(.(.(.(.(.(.(.(.)._._.S.c s .         1 p.P.U.U.Y.T.R.(.(.!.(.(.(.(.(.(.(.(.(.!.(.(.(.(.(.(.(.(.(.(.(.!.(.(.(.(.(.(.",
"(.(.(.(.(.(.(.(.(.(.(.).(./.m.c.c.w.0 @ 1 1 3 & o g r.D.D.P.Y.T.R.!.R.(.(.(.(.(.(.(.(.(.(.(.(.(.(.(.(.(.(.(.(.).(.).(.(.(.(.).(.",
"(.(.(.(.(.(.(.(.(.(.(.).).m.c g g 9 U ( ) ) ) B & d w.S.D.F.U.T.T.R.!.!.(.(.(.(.(.(.(.(.(.(.(.(.(.(.(.(.(.(.(.(.(.(.(.(.(.^.(.(.",
"(.(.(.(.(.(.(.(.(.(.(.)._.c.g     + ) 3.3.3.3.) 1 f 9.A.D.F.P.Y.T.R.!.!.!.!.(.(.(.(.(.(.(.(.(.(.(.(.(.(.(.(.(.(.(.(.W.W.!.!.(.(.",
"(.(.(.(.(.(.(.(.(.(.(.)._.x.g     + L 3.<.<.3.L , d 9.A.A.S.P.T.R.R.(.(.(.!.(.(.(.(.(.(.(.(.(.(.(.(.(.(.(.(.(.(.(.W.7.7.W.(.(.(.",
"(.(.(.(.(.(.(.(.(.(././.S.w.9 1 @ u ] <.<.<.<.L @ a 8.V.A.S.P.Y.T.R.R.(.!.(.(.(.(.(.(.(.(.(.(.(.(.(.(.(.(.(.(.(.(.W.7.7.W.(.(.(.",
"(.(.(.).(.(.(.(.(.).).m.c 0 U ) L ] =.2.2.<.<.L @ $ F l.V.D.P.T.R.R.R.R.R.(.(.(.(.(.(.(.(.(.(.(.(.(.(.).(.(.(.(.(.!.W.W.!.(.(.(.",
"(.(.(.(.(.(.(.(.(.).).s.f + L 3.3.<.2.2.2.2.<.L , a F h.V.D.U.Y.T.R.(.(.(.(.(.(.(.(.(.(.(.(.(.(.(.(.(.(.(.(.(.(.(.^.(.(.).(.(.(.",
"(.(.(.(.(.(.(.(.(.).).s.g + L <.3.<.2.2.<.<.<.L @ a D h.V.S.P.T.T.R.R.(.(.(.(.(.(.(.!._.(.(.!.(.(.(.(.(.(.(.).(.(.(.(.(.(.(.(.(.",
"(.(.(.(.(.(.(.(.).)._.x.g + L <.<.<.2.2.2.2.<.L , * D h.V.S.P.Y.T.R.(.R.(.(.(.(.(.(.(.(.(.(.).(.(.(.(.(.(.(.!.(.(.(.(.(.(.(.(.(.",
"(.(.(.(.(.(.(.).)._._.x.f + L <.<.2.2.2.2.<.<.L @ a D h.V.S.U.Y.R.R.R.(.(.(.(.(.!.(.(.(.(.(.(.(.(.(.(.(.(.(.(.(.(.(.(.(.(.(.(.(.",
"(.(.(.(.(.(.(.Y.m.c.n.w.0 y _ <.2.2.2.2.2.<.<.L , a D h.V.S.P.Y.T.R.R.(.(.(.(.(.(.(.(.(.(.(.(.(.(.(.(.).(.(.(.(.!.(.(.(.(.(.(.(.",
"(.(.(.(.(.).).m.c g h 9 U ] -.2.2.2.2.2.2.<.<.L @ $ D h.V.S.L.Y.T.R.!.(.(.(.(.(.(.(.).(.(.(.(.(.(.(.(.(.(.(.(.(.).(.(.(.(.(.(.(.",
"(.(.(.(.(.).).c.g     , ) 3.<.2.2.2.2.2.2.2.<.L , a D h.V.S.L.Y.T.R.!.(.(.(.(.(.(.!.(.(.(.(.(.(.(.(.!.(.!.(.(.(.(.(.(.(.(.(.(.(.",
"(.(.(.(.).)._.x.h     , ) <.<.2.2.2.2.2.2.<.<.L + a F b.V.S.L.Y.T.!.(.(.(.(.(.(.(.(.(.(.(.(.(.(.(.(.(.(.(.(.(.(.(.(.(.(.(.(.(.(.",
"(.(.(.!.W.Q._.c.h     , ( <.<.2.2.2.2.2.2.<.<.L + s 8.k.k.N.Z.C.G.H.H.J.I.E.!.(.(.(.(.(.(.(.(.(.(.(.(.(.(.(.(.(.(.(.(.(.(.(.(.(.",
"(.(.(.W.7.7.Q.x.h     , ( <.<.2.2.2.2.2.2.<.<.L + s F j.R T E E @.$.%.%.%.4.E.(.(.(.(.(.(.(.(.(.(.(.(.(.(.(.(.(.(.!.).(.(.(.(.(.",
"(.(.(.W.6.7.Q.c.h     , L <.<.2.2.1.2.2.2.2.<._ y 6 b Z C H T @.$.$.%.#.[ %.I.(.(.(.(.(.(.(.(.(.).(.(.(.(.(.(.(.(.!.W.W.!.(.(.(.",
"(.(.(.!.W.Q.^.x.h     3 L <.<.2.2.2.2.2.1.2.2.-.] U 6 % % 6 i.G.G.G.G.G.#.%.E.).(.(.(.(.(.(.(.(.!.(.(.(.(.(.(.(.(.W.7.7.W.(.(.(.",
"(.(.(.(.(.).).c.h     , ) <.2.2.2.2.2.2.2.2.2.<.3.] y + + 8 F z.F.T.R.H.%.%.J.(.(.(.(.(.(.(.(.(.(.(.(.(.(.(.(.(.(.W.7.7.W.).(.(.",
"(.(.(.(.(.).).x.h     , L <.<.2.2.2.2.2.2.2.2.2.<.-.] L L J 8 z s.T.T.H.%.%.J.).(.(.(.(.!.(.(.(.(.(.(.(.(.(.(.(.(.!.W.W.!.(.(.(.",
"(.(.(.(.(.(.).c.h     3 L 3.<.2.2.2.2.2.2.2.2.2.2.2.<.3.3.L + a y.H.H.*.@.%.J.(.(.(.(.(.(.(.).!.(.(.(.(.(.(.(.(.(.).(.(.(.(.(.(.",
"(.(.(.(.(.).).z.h     , L <.2.2.2.2.2.2.2.2.2.2.2.2.<.<.3.L + a e.C.&.@.L $.J.(.(.!.(.(.(.(.(.(.(.(.(.(.(.(.(.(.(.(.(.(.(.(.(.(.",
"(.(.(.(.(.).).z.j     , ) <.<.2.2.2.2.2.2.2.2.2.2.2.1.:.1.` w 4 A 0.Y J P $.H.(./.(.(.(.!.(.(.(.(.(.(.(.(.(.(.(.(.(.(.(.(.(.(.(.",
"(.!.(.(.(.(.~.x.h     1 L <.<.2.2.2.2.2.2.2.2.2.2.:.+.O.+.| ^ N 5 * & 2 J @.H./.(.!.(.(.(.(.(.(.(.(.!.(.(.(.(.(.(.(.!.(.(.(.(.(.",
"(.(.(.(.(.).).z.g     1 ) 3.<.2.2.2.2.2.2.2.2.2.2.:.O..... .X.W :     # H $.G.R.!.(.R.(.R.(.!.(.!.(.(.(.(.(.(.(.(.(.(.(.(.(.(.(.",
"(.(.(.(.(.(.(.z.g     , ) 3.<.2.2.2.2.2.2.2.2.2.2.:.+..... .X.K O     # H @.G.R.!.!.R.!.!.(.(.(.(.!.(.(.(.(.(.(.(.(.(.(.(.(.(.(.",
"(.(.(.(.(.(.(.m.c g f 7 U ] -.<.2.2.2.2.2.2.2.2.1.>.+.O.+.+.o./ t @ @ 2 u Y t.y.a.c.P.(.!.!.(.(.!.(.).~.(.(.(.(./.(.(.(.(.!.W.W.",
"!.(.(.(.(.(.(.T.n.s.s.8.8 t ] <.2.2.2.2.2.2.2.:.+.+.;.:.:.:.:.=.] L L J 2 $ f f f c b.!.!.!.(.(.).).).).).!.!.(.(.(.(.(.(.W.7.5.",
"(.(.(.(.(.(.(.!.!.(.!.a.d + L <.2.2.2.2.:.:.:.:.+.;.:.2.2.2.:.:.,.<.,.' e = O + O 5 9.s.z.z.x.x.z.z.c.z.z.M.Y.(.(.R.(.(.(.W.7.5.",
"(.(.(.!.(.(.!.!.!.!.R.a.f + L <.2.2.2.1.+.O.O.+.:.:.2.2.2.:.+.+.o.o.o.| ! K K K K N 7 g h h h h h h j ; h v b.!.!.R.(.(.(.!.W.W.",
"(.(.(.(.(.(.(.!.!.!.R.p.f @ L 3.<.<.2.:.+.....O.:.2.2.2.2.:.O...........X.X...X.X.Q O                     ; z.!.R.R.R.!.R.(.(.!.",
"(.(.(.(.(.!.!.!.T.(.(.a.f + L <.3.<.2.1.O.....O.:.<.2.2.2.:.+.............X.X.X.X.W <               .     ; a.R.T.T.R.!.!.!.(.(.",
"W.W.!.(.(.(.(.(.!.(.(.n.c 8 J L L ] =.>.O.....O.:.2.1.:.2.;.O...................X.! r O > > > > > & X   . ; p.Y.Y.T.T.T.R.(.!.(.",
"5.7.W.(.(.(.(.(.!.(.(.U.n.9.8 + + e / o.X.....O.1.1.+.O.O.O.O.....................} ! W K W W W Q m O     ; r.L.P.P.T.T.!.(.!.!.",
"5.7.W.(.(.(.(.(.(.!.!.(.!.n.x d a 4 N ^ } ....O.;.;.O............................... .X. .X.X.X.o.Q >     g e.C.K.L.U.T.R.!.!.!.",
"W.W.!.!.(.(.(.(.(.!.(.(.!.U.n.y.y.b 4 q ! X. ...O.O.................................O. . . . .X.X.Q >     ; 0.S.D.K.U.T./.R.!.!.",
"(.(.(.(.(.(.(.(.!.(.!.!.!.R.T.T.Y.y.s O K X.X. . .......................O.................X. .X.X.Q >     ; q.l.A.D.L.Y././.!.!.",
"(.(.(.(.!.(.(.(.(.(.!.!.!.!.T.T.Y.r.$ O K X.X.X. . ...................................X.X.X.X.X.o.W :     * 9.V.V.D.P.Y.T.R.!.!.",
"(.(.(.(.(.(.(.(.(.(.(.!.(.!.!.T.Y.z.x 6 N K K K K ! }  . .O. . .X. . . . .O.X.....X.X.} ! K K K W n 4 * $ k e.l.V.D.U.T.R.!.!.!.",
"(.(.(.(.(.(.(.(.(.!.(.(.!.(.!.T.T.K.z.8.6 O O O O q ^ X.X.X.X.X.X. .X. . . .X.X.X.X.X.^ q O + O O 4 p D D 0.d.l.V.D.U.Y.T.T.!.!.",
"(.(.(.(.(.(.).(.(.(.(.(.(.!.!.!.R.T.T.z.l f $ f a 4 N Q Q Q K Q K W K W W W K K K K K n 3 s s s s 6 0.g.h.h.h.l.D.F.U.Y.R.R.!.!.",
"(.(.(.(.(.(.(.(.(.(.(.(.(.!.(.R.!.!./.K.z.r.e.0.9.b 5 > > > > > > > > > > > > > > , : 4 b b S S S q.u.g.h.h.V.A.D.L.U.T.(.(.R.(.",
"(.(.(.(.(.(.(.(.(.!.(.(.(.(.(.(.!.!./.T.T.Y.L.K.D.0.$                         .       $ S f.g.g.g.h.g.h.h.A.A.D.L.U.Y.R.E.W.R.(.",
"(.(.(.(.(.(.(.(.(.(.(.(.(.(./.!.!.!.!.T.T.Y.U.L.K.w.d                                 $ 8.g.g.g.h.h.l.A.A.S.F.P.Y.Y.T.I.6.7.W.(.",
"(.(.(.(.(.(.(.(.(.(.(.(.(.(.(.(.!.!.!.!.T.T.Y.P.L.u.l f f ; ; g ; ; f g ; ; ; * * * * k 0.g.h.h.l.A.A.D.S.F.P.Y.Y.T.R.E.6.6.W.(.",
"(.(.(.(.(.(.(.(.(.(.(.(.(.(.(.!.(.!.!.(.R.R.T.T.Y.S.z.p.r.t.w.q.q.q.8.8.8.8.8.8.8.8.8.0.d.g.l.l.S.D.D.F.P.U.Y.T.T.R.R.!.W.W.!.!.",
"(.(.(.(.(.(.(.(.(.(.(.(.(.(.(.(.(.(.(.R.!.(.!./.T.Y.Y.Y.P.L.D.A.V.l.l.l.h.h.h.h.l.l.l.l.l.l.S.S.D.P.P.U.Y.T.T.T.T.!.!./.!.(.(.!.",
"(.(.).(.(.(.(.(.(.(.(.(.(.(.(.(.(.(.(.!.!.!.!./.T.T.Y.Y.Y.U.L.D.S.V.V.V.V.V.V.V.l.l.S.l.l.l.S.L.P.Y.T.T.T.T.R.!.(.!.(.(.(.(.(.(.",
"(.!.W.W.!.(.(.(.(.(.!.).(.(.(.(.(.(.(.(.!.!.!.!.!.T.T.T.T.Y.U.L.D.D.D.D.D.S.S.C.B.B.D.S.L.K.L.U.Y.T.T./.T.(.!.!.(.!.(.(.(.(.(.(.",
"(.W.7.7.W.(.(.(.(.(.(.(.(.).(.(.!.(.(.(.(.(.(.!.(.!.R.R.T.T.Y.Y.P.P.P.P.P.U.P.G.4.%.G.L.L.U.U.Y.T.T.R.(.!.!.!.(.!.(.(.(.(.(.(.(.",
"(.W.7.7.W.(.(.(.(.(.(.(.(.!.W.W.!.(.(.(.(.(.!.!.!.(.(.!.(.T.T.T.T.T.T.T.Y.Y.Y.I.4.4.G./.T.T.T.T.T.!.R.(.(.!.(.!.(.(.(.(.(.(.(.(.",
"(.(.W.W.!.).(.(.(.(.(.(.(.W.7.7.W.(.(.(.(.(.(.(.(.!.(.!.R.R.(.T./.T.T.T.R.T.T.T.I.I.E.T./././.!.!.R.!.(.(.(.(.(.(.(.(.(.(.(.(.(.",
"(.(.).(.(.(.(.(.(.(.(.(.(.W.5.5.W.(.(.(.(.(.(.(.(./.(.!.(.!.(.!.(.T.R.T.!.T.R.T.R././.R.R.T.!.!.(.!.!.(.!.(.(.(.(.(.(.!.(.(.(.(."
};
