/* XPM */
static char *monke_idle_64x64_0[] = {
/* columns rows colors chars-per-pixel */
"64 64 168 2 ",
"   c #02033B",
".  c #07083B",
"X  c #0E0E3D",
"o  c #191438",
"O  c #151338",
"+  c #3D2B2E",
"@  c #3D362E",
"#  c #3F382F",
"$  c #242233",
"%  c #2E2B3E",
"&  c #2B2835",
"*  c #352B31",
"=  c #3F2D30",
"-  c #3C3530",
";  c #35323F",
":  c #402E2F",
">  c #44322F",
",  c #423B2E",
"<  c #4D3D2A",
"1  c #402F30",
"2  c #766B1B",
"3  c #786D1B",
"4  c #4B432B",
"5  c #50402A",
"6  c #4C4635",
"7  c #544435",
"8  c #584737",
"9  c #544C36",
"0  c #594A37",
"q  c #574739",
"w  c #5A4A38",
"e  c #595037",
"r  c #5A5138",
"t  c #6D4D25",
"y  c #6E5625",
"u  c #6B5A22",
"i  c #665C20",
"p  c #705025",
"a  c #705B25",
"s  c #6E6025",
"d  c #706225",
"f  c #7B7026",
"g  c #2D2B40",
"h  c #252340",
"j  c #302E41",
"k  c #353242",
"l  c #383542",
"z  c #3D3943",
"x  c #524D43",
"c  c #565043",
"v  c #5B5546",
"b  c #5F5949",
"n  c #625C49",
"m  c #756D40",
"M  c #776D45",
"N  c #7B7144",
"B  c #9B6F1D",
"V  c #93681E",
"C  c #877A1D",
"Z  c #9D711F",
"A  c #917F1D",
"S  c #807526",
"D  c #9D7120",
"F  c #857B3D",
"G  c #857A47",
"H  c #887F47",
"J  c #8B7E4A",
"K  c #9C891F",
"L  c #99861C",
"P  c #BE8514",
"I  c #AC9D1F",
"U  c #B09F15",
"Y  c #BDA514",
"T  c #B0A01C",
"R  c #9A8720",
"E  c #9E8B20",
"W  c #8B803D",
"Q  c #968A3C",
"!  c #A29420",
"~  c #AF9F21",
"^  c #B2A222",
"/  c #B8A824",
"(  c #BAAB3E",
")  c #B8A933",
"_  c #C18714",
"`  c #C28813",
"'  c #CC8E11",
"]  c #CC9611",
"[  c #D09210",
"{  c #D09C10",
"}  c #C0A713",
"|  c #CCA712",
" . c #C1A913",
".. c #CBAF11",
"X. c #D0AB10",
"o. c #CCB211",
"O. c #D0B510",
"+. c #ECA40A",
"@. c #ECAD0A",
"#. c #FBAF07",
"$. c #F8AD08",
"%. c #FEB207",
"&. c #FCBB07",
"*. c #F8B608",
"=. c #F8BB08",
"-. c #C2B132",
";. c #EBC60B",
":. c #ECCD0B",
">. c #F8C408",
",. c #F8CD08",
"<. c #FCC907",
"1. c #FDD307",
"2. c #FDDC07",
"3. c #F8D208",
"4. c #F8D808",
"5. c #FFE106",
"6. c #DFCC2E",
"7. c #D7C638",
"8. c #D8C638",
"9. c #DECC3A",
"0. c #E2D02F",
"q. c #E0CE3A",
"w. c #E3D13B",
"e. c #8D8247",
"r. c #8D834A",
"t. c #918649",
"y. c #958A4B",
"u. c #9A8E4B",
"i. c #9D914E",
"p. c #9E9351",
"a. c #A3974D",
"s. c #A79A4F",
"d. c #A19651",
"f. c #A69B54",
"g. c #AA9E54",
"h. c #BEAE41",
"j. c #B5A74E",
"k. c #BCAE4A",
"l. c #BEB04D",
"z. c #ADA052",
"x. c #B3A655",
"c. c #B6A957",
"v. c #B5A858",
"b. c #B9AC58",
"n. c #BDAF51",
"m. c #C3B444",
"M. c #CABA47",
"N. c #C1B24E",
"B. c #CFBF4D",
"V. c #C4B651",
"C. c #C7B851",
"Z. c #CBBC54",
"A. c #CEBE59",
"S. c #DACA4F",
"D. c #D0C04D",
"F. c #CFC056",
"G. c #CFC05A",
"H. c #D1C256",
"J. c #DDCC52",
"K. c #D5C559",
"L. c #D7C85A",
"P. c #DCCC5C",
"I. c #E2D14F",
"U. c #E0CF52",
"Y. c #E0CF5E",
"T. c #E4D254",
"R. c #E3D25F",
"E. c #E5D460",
/* pixels */
"E.E.E.E.E.E.E.E.E.E.E.E.E.E.E.E.E.E.E.E.E.E.E.E.E.E.E.E.E.E.R.R.R.R.P.P.P.P.P.R.Y.R.R.R.R.R.E.E.E.E.E.E.E.E.E.E.E.E.E.E.E.E.E.E.",
"E.E.E.E.E.E.E.E.E.E.E.E.E.E.E.E.E.E.E.E.E.E.E.E.E.E.E.E.T.U.E.R.R.R.P.L.P.P.P.P.Y.Y.R.R.E.R.E.E.E.E.R.R.T.T.E.E.E.E.E.E.E.E.E.E.",
"E.E.E.E.E.E.E.E.E.E.E.E.E.E.E.E.E.E.E.E.E.E.E.E.E.E.E.T.w.w.U.R.P.P.L.L.L.L.P.P.Y.Y.Y.Y.R.R.E.E.E.E.E.T.w.w.T.E.E.E.E.E.E.E.E.E.",
"R.E.E.E.E.E.E.E.E.E.E.E.E.E.E.E.E.E.E.E.E.E.E.E.E.E.E.T.w.w.U.R.P.L.L.L.L.L.L.L.Y.Y.Y.Y.R.R.R.R.E.E.E.T.w.w.T.E.E.E.E.E.E.E.E.E.",
"E.E.E.E.E.E.E.E.E.E.E.E.E.E.E.E.E.E.E.E.E.E.E.E.E.E.E.E.T.T.Y.P.L.K.F.F.K.K.L.L.L.P.P.Y.Y.R.Y.E.E.E.E.E.T.T.E.E.E.E.E.E.E.E.E.E.",
"E.E.E.E.E.E.E.R.T.T.E.E.E.E.E.E.E.E.E.E.E.E.E.E.E.E.E.E.E.E.P.P.L.K.F.l.s.p.i.i.a.x.A.P.Y.Y.R.R.R.E.E.E.E.E.E.E.E.E.E.E.E.E.E.E.",
"E.E.E.E.E.E.E.T.w.w.T.E.E.E.E.E.E.E.E.E.E.E.E.E.E.E.E.E.E.R.P.P.K.H.F.s.v ; ; ; l n x.Y.P.P.Y.Y.R.R.E.E.E.E.E.E.E.E.E.E.E.E.E.E.",
"E.E.E.E.E.E.E.T.w.w.T.E.E.E.E.E.E.E.E.E.E.E.E.E.E.E.E.E.E.T.P.L.H.H.F.u.; . . .   l a.L.P.P.P.Y.R.R.R.E.E.E.E.E.E.E.E.E.E.E.E.E.",
"E.E.E.E.E.E.E.E.T.T.E.E.E.E.E.E.E.E.E.E.E.E.E.E.E.R.R.R.R.R.P.L.H.H.F.y.k   . .   l i.L.L.L.P.Y.Y.R.R.R.E.E.E.E.E.E.E.E.E.E.E.E.",
"E.E.E.E.E.E.E.E.E.E.E.E.E.E.E.E.E.E.E.E.E.E.E.E.E.E.R.R.R.P.P.L.H.F.D.y.k . .     % M z.Z.J.P.Y.Y.R.R.R.R.R.E.E.E.E.E.E.E.E.E.E.",
"E.E.E.E.E.E.E.E.E.E.E.E.E.E.E.E.E.E.E.E.E.E.E.E.E.R.R.R.Y.Y.P.L.F.F.l.y.k .     . X h b g.L.P.P.Y.Y.R.R.R.R.R.E.E.E.E.E.E.E.E.E.",
"E.E.E.E.E.E.E.E.E.E.E.E.E.E.E.E.E.E.E.E.E.E.E.E.E.E.R.R.R.P.P.L.F.F.C.y.k O * 4 , # # 9 G d.a.x.A.Y.R.R.R.R.R.E.E.E.E.E.R.E.E.E.",
"E.E.E.E.E.E.E.E.E.E.E.E.E.E.E.E.E.E.E.E.E.E.E.E.E.R.R.R.Y.P.P.L.F.C.V.t.j & L Y  .Y Y K e k k n v.Y.Y.Y.R.E.R.R.E.E.E.E.E.E.R.E.",
"E.E.E.E.E.E.E.E.E.E.E.E.E.E.E.E.E.E.E.E.E.E.E.E.E.E.E.R.Y.Y.P.L.F.F.C.t.g 4 Y 5.5.5.5. .#     k f.Y.Y.Y.Y.R.R.E.E.R.T.T.E.R.R.E.",
"E.E.E.E.E.E.E.E.E.E.E.E.E.E.E.E.E.E.E.E.E.E.E.E.E.E.Y.E.Y.Y.P.L.F.C.l.t.j # Y 5.2.2.5. .#     l g.Y.Y.Y.R.E.R.R.E.T.w.w.T.E.E.R.",
"E.E.E.E.E.E.E.E.E.E.E.E.E.E.E.E.E.E.E.R.E.E.E.E.E.E.E.Y.Y.P.P.K.F.F.C.r.j # Y 5.2.2.2.o.s # - e J x.A.Y.Y.R.R.E.E.T.w.w.T.E.E.E.",
"E.E.E.E.E.E.E.E.E.E.E.E.E.E.E.E.E.E.E.E.E.E.E.E.E.E.R.R.Y.P.P.K.F.Z.C.r.% # Y 2.2.4.4.:.o.Y Y K 0 b x.P.R.P.R.R.R.R.U.T.R.E.R.R.",
"E.E.E.E.E.E.E.E.E.E.E.E.E.E.E.E.E.E.E.E.E.E.E.E.E.E.E.Y.P.P.P.K.F.Z.C.r.% # Y 2.2.4.3.2.2.5.5.Y , ; d.P.R.P.R.R.R.R.E.E.R.R.E.R.",
"E.E.E.E.E.E.E.E.E.E.E.E.E.E.E.E.E.E.E.E.E.E.E.E.R.R.E.Y.Y.P.P.L.F.Z.N.t.k # Y 2.4.4.4.4.2.5.2.Y , j d.P.P.P.R.R.R.R.R.E.E.R.R.R.",
"E.E.E.E.E.E.E.E.E.E.E.E.E.E.E.E.E.E.E.E.E.E.E.E.E.R.R.R.Y.P.L.L.F.Z.C.r.% # Y 2.2.4.4.4.4.2.2.Y - k p.J.P.R.P.R.R.R.R.R.R.R.E.R.",
"E.E.E.E.E.E.E.E.E.E.E.E.E.E.E.E.E.E.E.E.E.E.E.E.R.R.E.R.Y.P.L.K.Z.Z.C.r.k # Y 2.2.4.4.4.4.2.2.Y - j p.L.P.R.P.R.Y.E.R.R.R.R.R.R.",
"E.E.E.E.E.E.E.E.E.E.E.E.E.E.E.E.E.E.E.E.E.E.E.E.R.R.R.Y.P.L.K.K.Z.C.N.r.g , Y 2.2.3.4.4.4.4.2.o.s q G d.f.x.F.R.R.Y.E.E.R.E.Y.E.",
"E.E.E.E.E.E.E.E.E.E.E.E.E.E.T.E.E.E.E.E.E.E.E.E.R.R.Y.P.P.L.K.F.C.V.N.r.g # Y 2.4.4.4.4.4.4.4.:.o.E r k ; n c.R.R.E.E.Y.E.Y.E.R.",
"E.E.E.E.E.E.E.E.E.E.E.E.E.E.E.E.E.E.E.E.E.E.E.E.R.Y.P.P.P.L.K.F.C.V.l.e.g # Y 2.2.4.4.4.4.4.4.2.5. .,     l g.R.R.R.R.R.R.E.R.R.",
"E.E.E.E.E.E.E.E.E.E.E.E.E.E.E.E.E.E.E.E.R.R.R.R.R.R.P.L.L.K.F.F.V.n.k.H g # Y 2.2.4.4.4.4.4.4.2.2. .,     z z.R.R.E.R.R.R.E.Y.E.",
"E.E.E.E.T.T.E.E.E.E.E.E.E.E.E.E.E.E.E.E.R.R.R.R.R.P.L.L.D.D.h.h.h.h.( F g - Y 2.4.4.4.4.4.4.4.2.2. .,     z g.R.R.R.E.R.R.R.R.R.",
"E.E.E.T.w.w.T.E.E.E.E.E.E.E.E.E.E.E.E.E.R.R.Y.Y.P.L.L.D.) / ^ ^ ~ ~ I f $ - Y 4.2.4.3.4.4.4.4.2.2. .,     z g.R.E.R.R.R.E.R.R.E.",
"E.E.E.T.w.w.T.E.E.E.E.E.E.E.E.E.T.E.E.E.R.Y.Y.P.P.L.L.D./ U T ! C 3 2 i 4 s o.2.2.4.4.4.4.3.4.2.2.} ,     z g.R.R.R.T.T.Y.R.E.Y.",
"E.E.E.E.T.T.E.E.E.E.E.E.E.E.E.E.E.E.R.R.R.Y.P.P.L.L.L.h./ T ) Q 6 $ $ 4 K O.:.4.4.4.4.4.4.4.3.2.2.} ,     z g.R.Y.U.q.q.U.E.Y.E.",
"E.E.E.E.E.E.E.E.E.E.E.E.E.E.E.E.E.E.R.R.Y.Y.P.L.L.H.H.l.^ ! Q N 9 - - d O.5.2.4.4.4.4.4.4.4.4.2.2. .,     z g.R.Y.J.q.q.T.R.E.R.",
"E.E.E.E.E.E.E.E.E.E.E.E.E.E.E.E.E.E.E.R.P.P.L.L.H.F.l.h.^ L 6 6 R Y Y o.:.2.4.4.4.4.4.4.3.4.4.2.2.Y ,     z g.R.Y.P.U.U.Y.E.Y.E.",
"E.E.E.E.E.E.E.E.E.E.T.E.E.T.E.E.T.E.T.E.L.L.K.F.F.F.l.h.I 3 $ * Y 5.5.2.4.4.4.4.4.4.4.4.4.4.4.2.2.Y 6     z g.R.R.Y.R.R.R.R.R.R.",
"E.E.R.E.R.R.R.R.R.R.R.R.P.Y.P.R.P.P.P.P.L.K.H.Z.C.V.V.h.~ 3 $ - Y 5.2.2.4.4.4.4.4.4.4.4.4.4.4.2.2.Y 4     z g.R.R.Y.R.E.R.R.R.R.",
"R.E.E.R.R.R.R.R.R.Y.P.R.P.P.P.L.P.L.K.K.H.Z.A.C.V.j.i.F f u < y | 1.1.3.4.4.4.4.4.4.4.4.4.4.4.4.2.Y ,     z g.R.R.R.R.R.R.R.R.R.",
"R.E.R.R.R.Y.R.P.P.P.P.L.P.L.L.L.K.K.H.F.Z.Z.V.V.N.u.c % & 5 D ] @.*.*.=.,.4.4.4.4.3.4.4.4.4.4.2.2.Y ,     z g.R.R.Y.R.R.R.R.R.R.",
"R.R.R.R.Y.P.P.L.L.K.L.L.L.L.K.K.H.A.Z.C.Z.C.V.l.l.e.g     1 ` %.#.$.$.*.,.4.4.4.4.4.4.4.4.4.4.4.5. .,     l f.E.R.Y.R.R.R.R.R.R.",
"R.R.R.Y.P.L.L.L.K.H.H.H.H.F.Z.Z.Z.V.V.V.V.V.n.k.k.J g     = P %.#.$.$.=.,.4.4.4.4.4.4.4.4.4.4.2.5. .,     l g.E.R.Y.Y.R.R.R.P.R.",
"E.R.Y.P.P.L.K.K.H.H.Z.Z.Z.Z.C.C.V.V.V.j.i.r.J J H f r - , a ] &.=.*.*.=.,.,.4.4.4.4.4.4.4.4.4.:.O.E r k l n v.E.R.Y.R.R.R.R.U.J.",
"E.R.Y.P.L.K.H.F.Z.C.C.C.N.C.N.N.N.N.l.u.x j g g g 9 R Y  .o.;.,.,.,.,.>.=.>.3.4.4.4.4.4.4.2.2...s r r.g.g.v.H.P.Y.Y.R.R.R.U.q.6.",
"R.R.P.P.K.K.Z.n.a.y.y.y.y.t.t.t.e.e.e.m < + 1 = * y X.2.1.1.,.3.4.4.4.3.=.=.>.,.,.3.3.4.3.2.2.Y - k f.E.E.E.P.P.Y.Y.R.R.Y.J.9.6.",
"R.Y.Y.L.L.H.Z.a.v ; ; ; ; ; k ; ; % g q B _ P P P ' @.&.&.=.*.=.3.4.4.4.3.>.=.*.*.=.3.4.4.2.2.Y ; k f.E.Y.Y.Y.P.P.Y.Y.P.P.P.P.J.",
"E.R.P.L.K.A.Z.y.;         . .         1 _ %.%.%.%.%.$.$.$.$.$.*.,.4.4.4.4.,.=.$.$.*.,.4.2.2.5.Y # k f.Y.Y.P.P.P.Y.P.Y.P.P.P.P.P.",
"R.Y.P.L.H.H.B.y.;   . . .     .       = _ %.%.*.*.$.$.$.$.$.$.*.,.4.4.4.4.3.*.$.$.*.3.4.2.5.5.Y - k f.Y.Y.Y.P.Y.P.Y.P.P.P.R.P.P.",
"U.U.P.L.L.H.Z.y.; . . o * > > > > > 1 p ' #.#.$.$.$.$.$.$.$.$.*.>.3.,.3.3.,.*.$.$.*.,.;.o.Y Y R r n v.Y.Y.P.P.P.P.P.P.P.P.P.P.P.",
"0.q.J.L.K.H.Z.u.;   . * V ` _ _ _ _ P ' +.#.$.$.$.$.$.$.$.$.$.*.*.=.*.=.3.3.*.$.$.%.&.{ p - - 9 r.b.K.Y.Y.P.P.P.P.Y.P.P.P.P.P.P.",
"6.q.J.P.K.H.A.u.l     > ` %.%.%.#.#.#.#.#.$.$.$.$.$.$.$.$.$.$.$.$.$.$.*.>.>.*.$.#.+.[ D q k k b b.E.E.Y.Y.P.P.Y.P.P.P.P.P.P.P.Y.",
"U.U.U.L.L.K.H.a.l   . > ` %.%.#.#.#.*.#.$.$.$.$.$.$.$.$.$.$.$.$.$.$.$.$.*.*.$.#.#.' t q J f.f.v.K.Y.Y.Y.Y.P.P.P.P.P.P.Y.Y.P.Y.P.",
"R.Y.Y.Y.L.L.L.u.l     > ` %.%.#.#.#.$.$.$.$.$.$.$.$.$.$.$.$.$.$.$.$.$.#.#.#.*.%.%.P * j f.E.E.R.Y.Y.P.Y.Y.P.Y.P.P.Y.P.P.P.Y.P.P.",
"R.R.R.Y.P.P.L.d.k     : ` %.%.%.#.#.$.$.$.$.$.$.$.$.$.$.$.$.$.$.$.$.$.#.#.#.%.%.=.P ; k f.E.E.Y.Y.Y.Y.Y.P.P.Y.Y.P.Y.P.P.P.P.P.L.",
"R.R.R.R.Y.Y.Y.x.n l ; w Z ` P P P ' +.#.%.#.*.%.#.#.#.#.#.#.#.#.#.#.*.+.' P P P P B 9 b v.Y.Y.Y.Y.Y.P.P.P.P.P.P.P.P.P.P.P.L.L.P.",
"E.E.R.R.Y.Y.Y.A.x.f.f.J 8 + + + + t [ %.%.%.%.%.%.#.#.%.%.%.%.%.#.%.%.[ t + * @ + 8 r.b.G.Y.Y.Y.Y.P.Y.P.P.Y.P.P.Y.P.P.P.P.L.P.L.",
"E.E.E.R.E.R.Y.Y.Y.Y.Y.c.b k k ; k 8 Z ` P P P P _ _ P _ P _ P P _ _ _ D q k k k k b b.E.Y.Y.P.Y.Y.P.P.P.P.P.P.P.P.P.P.P.P.P.L.P.",
"E.E.E.R.R.R.Y.Y.R.R.R.H.x.d.d.p.i.G 0 : > > > > > > > > > > , 1 > : : w r.f.f.f.f.v.K.Y.Y.P.Y.Y.P.P.P.P.P.Y.P.P.P.P.P.L.L.P.P.P.",
"R.E.E.E.E.E.E.E.R.R.P.P.P.P.L.P.L.a.k                     . .         l z.R.E.R.R.Y.Y.P.P.P.P.P.P.Y.Y.P.P.P.P.P.P.L.P.L.K.L.L.K.",
"E.E.E.E.E.R.R.Y.R.R.R.P.R.P.Y.R.Y.f.k                     .           l z.R.R.R.Y.Y.P.P.P.Y.Y.P.P.P.P.P.Y.P.P.P.L.P.P.S.7.7.L.P.",
"E.E.E.E.E.R.E.R.R.R.R.R.R.Y.P.P.Y.c.n l z z z z z z z z z z z z z z l n v.R.Y.P.P.Y.P.P.P.P.P.P.P.Y.P.Y.P.P.P.P.P.L.L.S.7.7.S.L.",
"E.E.E.E.E.E.E.E.R.R.R.R.R.R.R.P.Y.H.c.g.g.g.g.z.g.g.g.g.g.g.g.g.g.g.g.b.H.P.R.P.Y.Y.P.P.P.P.P.P.P.P.P.P.P.P.P.L.P.L.L.L.S.S.L.L.",
"E.E.E.E.E.E.E.E.R.R.R.E.E.R.R.E.Y.Y.E.R.R.R.R.R.E.R.E.R.E.R.E.E.R.R.R.R.Y.P.P.P.Y.Y.P.P.P.Y.P.Y.P.P.P.P.P.P.L.P.L.P.P.L.P.L.K.K.",
"E.E.E.E.E.E.E.E.R.R.R.R.R.E.R.E.R.R.R.R.R.R.R.R.R.E.E.E.E.E.E.E.R.R.R.R.E.P.E.P.P.Y.Y.P.P.Y.P.P.P.P.P.P.L.P.P.L.P.L.P.P.L.L.K.L.",
"E.E.T.T.E.E.E.E.E.E.E.R.R.Y.E.E.E.R.R.R.E.R.E.R.R.R.R.R.R.R.R.R.E.R.E.R.E.E.R.Y.J.J.P.P.P.P.P.P.Y.P.P.P.P.L.L.P.L.P.L.L.L.K.K.K.",
"E.T.w.w.T.E.E.E.E.R.E.E.E.R.E.E.R.R.R.R.E.R.E.Y.R.E.R.R.E.R.R.R.R.R.R.R.Y.R.P.U.9.9.S.Y.Y.P.P.Y.P.P.P.P.P.L.P.L.P.L.L.L.K.L.K.K.",
"E.R.w.w.T.E.E.E.E.E.R.E.E.R.T.U.R.R.R.R.Y.R.R.E.E.Y.E.R.R.R.R.R.R.R.R.E.E.R.R.J.9.9.J.Y.P.P.P.P.Y.P.P.L.L.P.L.P.L.L.L.K.K.K.L.K.",
"E.R.T.T.E.E.E.R.R.E.E.E.E.T.q.w.T.R.E.Y.E.R.R.R.Y.E.Y.E.R.R.R.R.R.R.R.R.R.R.P.P.J.J.P.Y.P.P.P.P.P.L.L.P.P.L.P.L.L.L.L.K.L.K.K.K.",
"E.E.E.E.E.E.E.E.R.E.E.E.E.T.0.0.U.E.E.E.R.R.E.Y.E.R.R.R.R.R.R.R.R.R.R.R.R.R.R.P.P.Y.P.P.Y.P.P.P.P.P.P.L.L.P.L.L.L.K.K.K.K.K.K.L."
};
