/* XPM */
static char *monke_idle_64x64_2[] = {
/* columns rows colors chars-per-pixel */
"64 64 163 2 ",
"   c #02023B",
".  c #07083B",
"X  c #0B0C3C",
"o  c #120E37",
"O  c #14123A",
"+  c #141337",
"@  c #3E2D2E",
"#  c #3E352E",
"$  c #3F382E",
"%  c #282632",
"&  c #25243D",
"*  c #2E2C3F",
"=  c #292734",
"-  c #322532",
";  c #342C32",
":  c #3F2E30",
">  c #312E3E",
",  c #3D3230",
"<  c #35323E",
"1  c #343035",
"2  c #402E2E",
"3  c #43312F",
"4  c #423A2E",
"5  c #4D3D2B",
"6  c #402F30",
"7  c #403930",
"8  c #7C711C",
"9  c #51412A",
"0  c #4E4835",
"q  c #544536",
"w  c #524B35",
"e  c #594837",
"r  c #5C4C38",
"t  c #5D5438",
"y  c #6B4B24",
"u  c #6E5626",
"i  c #705225",
"p  c #705B25",
"a  c #6D6023",
"s  c #706225",
"d  c #2E2C40",
"f  c #302E40",
"g  c #353342",
"h  c #393644",
"j  c #3C3844",
"k  c #534D41",
"l  c #565146",
"z  c #5D5646",
"x  c #585448",
"c  c #645D4A",
"v  c #676042",
"b  c #67604B",
"n  c #68614B",
"m  c #776E41",
"M  c #7C7043",
"N  c #91661E",
"B  c #9B6F1E",
"V  c #8C7F1E",
"C  c #9C701F",
"Z  c #917F1D",
"A  c #857A28",
"S  c #827546",
"D  c #877E47",
"F  c #887F47",
"G  c #877B48",
"H  c #897F48",
"J  c #857C50",
"K  c #9D8A1F",
"L  c #BE8514",
"P  c #BC8C14",
"I  c #BC9D15",
"U  c #BCA414",
"Y  c #B9A816",
"T  c #B8A71E",
"R  c #B9A81D",
"E  c #8D8129",
"W  c #91863F",
"Q  c #978B3B",
"!  c #A08D20",
"~  c #A69720",
"^  c #B5A522",
"/  c #BCAB24",
"(  c #BFAF3F",
")  c #BDAD34",
"_  c #C18714",
"`  c #C28813",
"'  c #CD8F11",
"]  c #CE9010",
"[  c #CD9A11",
"{  c #D09311",
"}  c #C1A913",
"|  c #CCA811",
" . c #CCB211",
".. c #D0B510",
"X. c #ECA50A",
"o. c #EBAC0B",
"O. c #FBAF07",
"+. c #F8AD08",
"@. c #FEB206",
"#. c #FCBA07",
"$. c #F8B608",
"%. c #F8BB08",
"&. c #C2B025",
"*. c #CDBC34",
"=. c #EBCD0B",
"-. c #EAC50B",
";. c #F9C308",
":. c #F8CD08",
">. c #FCC607",
",. c #FCD307",
"<. c #FDDC07",
"1. c #F8D208",
"2. c #F8D808",
"3. c #FFE106",
"4. c #D6C538",
"5. c #E3D02F",
"6. c #E3D13B",
"7. c #8B8146",
"8. c #8D8349",
"9. c #928740",
"0. c #958B47",
"q. c #92864A",
"w. c #94894C",
"e. c #988D4B",
"r. c #998D43",
"t. c #9E924F",
"y. c #A2964E",
"u. c #AC9F49",
"i. c #A29651",
"p. c #A59952",
"a. c #AB9E56",
"s. c #AEA14B",
"d. c #BBAD4C",
"f. c #BFB04D",
"g. c #AEA156",
"h. c #B2A556",
"j. c #BBAD54",
"k. c #BBAE59",
"l. c #BEB05A",
"z. c #C6B644",
"x. c #CCBC47",
"c. c #C1B34F",
"v. c #CBBB4B",
"b. c #C4B551",
"n. c #C7B852",
"m. c #CBBC54",
"M. c #C0B25A",
"N. c #D2C24B",
"B. c #D8C84F",
"V. c #CFC056",
"C. c #D2C257",
"Z. c #DBCA52",
"A. c #D5C559",
"S. c #D7C85A",
"D. c #DCCC5C",
"F. c #E0CF5E",
"G. c #E4D354",
"H. c #E8D654",
"J. c #E3D25F",
"K. c #E9D75D",
"L. c #E5D460",
"P. c #E8D760",
"I. c #EBDA61",
/* pixels */
"L.L.L.L.L.L.L.L.L.L.L.L.L.L.L.L.L.L.L.L.L.L.L.L.L.L.L.L.L.L.L.L.L.L.L.L.L.L.L.L.L.L.L.L.L.L.L.L.L.L.J.P.L.L.L.L.L.L.L.L.L.L.L.L.",
"L.L.L.L.L.L.L.L.L.L.L.L.L.L.P.L.L.L.L.L.L.L.L.L.L.L.L.L.G.H.L.L.L.L.L.L.L.L.L.L.L.L.L.L.J.L.L.L.L.L.J.J.G.G.L.L.L.L.L.L.L.L.L.L.",
"L.L.L.L.L.L.L.L.L.L.L.L.L.L.L.L.L.L.L.L.L.L.L.L.L.L.L.G.6.6.G.L.L.L.L.L.L.L.L.L.L.L.L.L.P.L.L.L.L.L.P.G.6.6.G.L.L.L.L.L.L.L.L.L.",
"L.J.L.L.L.L.L.L.L.L.L.L.L.L.L.L.L.L.L.L.L.L.L.L.P.P.P.K.6.6.G.L.L.L.L.L.L.L.L.L.L.L.L.J.L.L.L.L.L.L.L.G.6.6.G.L.L.L.L.L.L.L.L.L.",
"L.L.L.J.L.L.L.L.L.L.L.L.L.L.L.J.L.L.L.L.L.L.L.L.P.P.P.K.H.G.J.J.J.J.L.L.L.L.L.L.L.L.L.L.L.L.L.L.L.L.L.J.G.G.J.P.L.L.L.L.L.L.L.L.",
"L.L.L.L.L.L.L.J.G.H.J.L.L.L.L.L.L.L.L.L.L.L.P.D.k.g.h.h.g.k.S.J.J.J.J.L.L.L.L.L.L.L.L.L.L.L.L.L.L.L.L.L.L.L.L.L.L.L.L.L.L.L.L.L.",
"L.L.L.L.L.L.L.G.6.6.G.L.L.L.L.L.L.L.L.L.L.P.I.M.n j j j j c k.J.L.J.L.L.J.L.L.L.L.L.L.L.L.J.L.L.L.L.L.L.L.L.L.L.L.P.L.L.L.L.L.L.",
"L.L.L.L.P.L.L.G.6.6.G.L.L.L.L.L.L.L.L.L.P.D.M.J f         h p.J.F.J.F.J.J.J.L.L.L.L.L.L.L.L.L.L.L.L.L.L.L.L.L.L.L.L.L.L.L.L.L.L.",
"L.L.L.L.L.L.J.J.G.G.J.L.L.L.L.L.L.L.L.P.P.k.n f +   .   . < p.D.D.D.F.F.F.L.L.L.L.L.L.L.L.L.L.L.L.L.L.L.L.L.L.L.L.L.L.L.L.L.L.L.",
"L.L.L.L.L.L.K.L.L.L.L.L.L.L.L.L.L.L.P.I.I.h.h   . . . . . j p.S.S.S.D.F.F.L.L.L.L.L.L.L.L.L.L.L.L.L.L.L.L.L.L.L.L.L.L.L.L.L.L.L.",
"L.L.L.L.L.L.L.L.L.L.L.L.L.L.L.L.L.L.P.I.I.h.h     . . . . < y.C.A.A.S.D.F.L.L.J.J.L.L.L.L.L.L.L.L.L.L.L.L.L.L.L.L.L.L.L.L.L.L.L.",
"L.L.L.L.L.L.L.L.L.L.L.L.L.L.L.P.L.D.k.g.h.w.t 7 4 4 4 ; + h e.m.m.m.S.S.F.J.F.L.L.L.L.L.L.L.L.L.L.L.L.L.L.L.L.L.L.L.L.L.L.L.L.L.",
"L.L.L.L.L.L.L.L.L.L.L.L.L.L.L.P.P.k.n h j t ! } } } } Z ; f q.n.m.m.A.D.D.F.J.J.L.L.L.L.L.L.L.L.L.L.L.L.L.L.L.L.L.L.L.L.L.P.L.L.",
"L.L.L.L.L.L.L.L.L.L.L.L.L.L.L.P.P.g.j     4 } 3.3.3.3.} 4 d 8.c.m.m.C.S.D.F.J.J.J.J.L.L.L.L.L.L.L.L.L.L.L.L.L.L.L.J.G.G.J.J.L.L.",
"L.L.J.P.L.L.L.L.L.L.L.L.L.L.L.P.P.h.h     4 } 3.3.<.3.U 4 d 8.c.b.m.C.D.F.F.F.J.L.L.L.L.L.L.L.L.L.L.L.L.L.L.L.L.P.G.6.6.G.L.L.L.",
"L.L.L.L.L.L.L.L.L.L.L.L.L.L.L.P.I.h.j     4 U <.<.<.<.U 4 f H c.c.m.C.S.D.F.J.J.J.L.L.L.L.L.L.L.L.L.L.L.L.L.L.L.L.G.6.6.G.L.L.L.",
"L.L.L.L.L.L.L.L.L.L.L.L.L.L.L.P.I.h.j     7 Y <.<.<.<.U 4 * H d.b.n.C.S.D.F.J.L.L.L.L.L.L.L.L.L.L.L.L.L.L.L.L.L.L.J.G.G.J.L.L.L.",
"L.L.L.L.L.L.L.L.L.L.L.L.L.L.P.S.l.w.t 7 , s  .<.2.<.<.U 4 d F d.b.n.C.D.D.F.F.F.L.L.L.L.L.L.L.L.L.L.L.L.L.L.L.L.L.K.L.L.L.L.L.L.",
"L.L.J.L.L.L.J.L.L.L.L.L.L.P.P.k.c t K } }  .=.2.2.<.<.U 4 d D d.j.b.C.S.F.F.J.L.J.L.J.L.L.L.L.L.L.L.L.L.L.L.L.L.L.L.L.L.L.L.L.L.",
"L.L.P.L.L.L.L.L.L.L.L.L.L.P.L.a.g < U 3.3.<.2.2.2.<.<.U # * D d.b.n.C.S.D.F.F.J.L.L.L.L.L.L.L.L.L.L.L.L.J.L.L.L.L.L.L.L.L.L.L.L.",
"L.L.L.L.L.L.L.L.L.L.L.L.L.P.P.a.h $ } <.<.<.2.2.2.<.<.U 4 * F d.d.b.C.S.D.F.F.J.J.L.L.L.L.L.L.L.L.L.L.L.L.L.L.L.L.L.L.L.L.L.L.L.",
"L.L.L.L.L.L.L.L.L.L.L.L.L.P.P.a.h , U <.<.2.2.2.2.<.<.U # * F d.b.n.m.A.D.F.J.L.J.L.L.L.L.L.L.J.L.L.L.L.L.L.L.L.L.L.J.L.P.L.L.L.",
"L.L.L.L.L.L.L.L.L.L.L.L.L.P.L.g.h $ U <.<.2.2.2.2.<.2.U # d F f.c.m.C.A.D.F.F.J.J.L.L.L.L.L.L.L.L.L.L.L.L.L.L.L.L.L.L.L.L.L.L.L.",
"L.L.L.L.L.L.P.J.L.L.L.L.L.P.P.a.h $ U <.2.2.2.2.2.2.2. .p 0 m 8.0.y.M.S.D.F.J.J.J.J.L.L.L.L.L.L.J.P.L.L.J.P.L.L.L.L.L.L.L.L.L.L.",
"L.L.L.L.L.L.L.L.L.L.L.L.L.L.I.g.h $ U <.<.2.2.2.2.2.2.=...K w f > z g.A.S.D.J.J.L.L.L.L.L.L.L.L.L.L.L.L.L.L.L.L.L.L.L.L.L.L.L.L.",
"L.L.K.J.G.G.J.L.L.L.L.L.L.P.L.g.h $ U <.<.2.2.1.2.2.2.<.3.} 4     > r.x.N.B.D.J.F.L.J.L.L.L.L.L.L.L.L.L.L.L.L.L.L.L.L.L.L.L.L.L.",
"L.L.L.G.6.6.G.L.L.L.L.L.L.L.L.a.h $ U <.2.2.2.2.2.2.2.<.<.} 7     1 E &.&.*.B.J.J.J.J.L.L.L.L.L.L.L.L.L.L.L.L.L.L.K.L.L.L.L.L.L.",
"L.L.L.G.6.6.G.L.L.L.L.L.L.L.P.a.h $ U <.<.2.2.2.2.2.2.<.<.U 0     ; E R U &.N.F.J.L.J.L.L.L.L.L.L.L.L.L.L.L.L.L.L.J.G.G.J.L.L.L.",
"L.L.L.J.G.G.J.P.L.L.L.L.L.P.P.g.h $ U <.<.2.2.2.2.2.2.<.<.Y 7     < 7.) ^ / N.D.L.L.L.L.J.L.L.L.L.L.L.L.L.L.L.L.L.G.6.6.G.P.L.L.",
"L.L.L.L.L.P.L.L.L.L.L.L.L.L.P.a.h $ U <.<.2.2.2.2.2.2.<.<.Y 7     < q.*.^ / x.D.D.L.D.L.L.L.L.L.L.L.L.L.L.L.L.L.L.G.6.6.G.L.L.L.",
"L.L.L.L.L.L.L.L.L.L.L.L.L.P.P.a.h $ Y <.<.2.2.2.2.2.1.<.<.} 7     f w.d.^ ^ x.D.D.L.J.J.L.L.L.L.L.L.L.L.L.L.L.L.L.J.G.G.J.L.L.L.",
"L.L.L.L.L.L.L.L.L.L.L.L.L.L.P.g.h $ U <.<.1.2.1.2.2.2.2.,.| p 6 2 q M Q ~ ^ v.D.D.F.J.L.J.L.L.L.L.L.L.L.L.L.L.L.L.P.L.L.L.L.L.L.",
"L.L.L.L.L.L.L.L.L.L.L.L.L.P.P.a.h $ U <.2.2.2.2.2.2.2.1.%.o.] _ _ C q 0 V ^ x.S.D.F.L.J.L.L.J.L.L.L.L.L.L.L.L.J.L.L.L.L.L.L.L.L.",
"L.L.L.L.L.L.L.L.L.L.L.L.L.P.P.g.h $ U <.<.2.2.2.2.2.2.:.$.+.O.@.@._ 2 % 8 ^ v.A.D.F.F.L.L.F.L.L.L.L.L.L.L.L.L.L.L.L.L.L.L.L.L.L.",
"L.L.L.L.L.L.L.L.L.L.L.L.L.L.P.a.h $ U <.<.2.2.2.2.2.<.1.$.+.+.@.@.L 6 % 8 ^ z.C.S.D.F.J.J.L.L.L.L.L.L.L.L.L.L.L.P.L.L.L.L.L.L.L.",
"L.L.L.L.L.L.L.L.L.L.L.L.L.L.P.a.h $ U <.2.2.1.:.:.:.1.;.%.$.%.#.#.P , % 8 ^ x.m.S.S.F.J.L.F.L.L.L.L.L.L.L.L.L.L.L.L.L.L.L.L.L.L.",
"L.L.L.L.L.L.L.L.L.L.L.L.L.L.P.a.h 7 U 3.3.1.;.$.%.$.$.%.:.:.:.,.,.I # % 8 T z.m.A.S.D.J.J.J.J.L.J.L.L.L.L.L.L.L.L.L.L.L.L.L.L.L.",
"L.L.L.L.L.L.L.L.L.L.L.L.L.L.P.a.h , I ,.,.;.%.$.$.$.%.%.:.:.:.1.,.| u 5 p A W p.m.S.D.F.J.J.L.J.L.L.L.L.L.L.L.J.L.L.L.L.L.J.G.G.",
"L.L.L.L.L.L.L.L.L.L.L.L.L.L.P.a.h # P #.$.%.:.1.:.:.:.:.%.$.$.%.%.o.{ C 9 = < z g.S.S.D.F.L.J.J.L.L.L.L.L.L.L.L.L.L.L.L.L.G.6.5.",
"L.L.L.L.L.L.L.L.L.L.L.L.L.P.P.a.g @ L @.@.$.:.2.2.2.2.:.$.+.+.+.+.O.@._ 6     g y.S.S.D.D.J.J.J.J.L.L.L.L.L.L.L.L.L.L.L.L.G.6.5.",
"L.L.L.L.L.L.L.L.L.L.L.L.L.P.P.a.g @ L @.@.#.:.2.2.2.2.1.%.+.+.+.+.O.@._ :     g t.A.A.S.D.J.J.J.L.J.L.L.L.J.L.L.L.L.L.L.L.J.G.G.",
"L.L.L.L.L.L.L.L.L.L.L.L.L.L.L.k.c e C _ _ [ -.2.,.:.:.;.$.+.+.+.+.+.@.] i @ : q S p.n.S.D.J.J.J.F.L.J.L.L.L.L.L.P.L.L.L.L.L.P.J.",
"L.L.L.L.L.L.L.L.J.L.L.L.L.L.J.S.k.q.r : : p  .,.;.$.$.$.+.+.+.+.+.+.+.X.' _ _ B q l p.S.D.D.D.G.F.L.J.L.L.L.L.L.L.L.L.L.L.L.L.L.",
"G.G.J.P.L.L.L.L.L.L.L.L.L.L.J.L.P.g.j     3 } >.$.+.+.+.+.+.+.+.+.+.+.+.@.@.@.] y q S y.i.h.C.F.F.L.J.L.J.L.L.L.L.L.L.L.L.L.L.L.",
"5.6.G.L.L.L.L.L.L.L.L.L.L.L.L.J.J.g.h     3 P #.@.+.+.+.+.+.+.+.+.+.+.+.@.@.@.X.] B q g g c h.F.F.J.J.L.L.J.L.L.L.L.L.L.L.L.L.L.",
"5.6.G.L.L.L.L.L.L.L.L.L.L.L.J.J.K.a.j     6 _ @.O.+.+.+.+.+.+.+.+.+.+.+.+.+.+.O.@._ 3     < p.S.D.D.F.F.J.J.L.L.L.P.J.L.L.L.L.L.",
"G.G.J.P.L.L.L.L.L.L.J.L.L.L.L.L.K.a.j     2 _ @.@.+.+.+.+.+.+.+.+.+.+.+.+.+.+.+.@._ 3     h y.A.D.S.F.F.J.L.L.J.L.L.L.L.L.L.L.L.",
"L.L.L.L.L.L.L.L.L.L.L.L.L.L.J.L.K.k.c h g e C { X.O.@.@.+.@.+.+.+.+.+.+.+.+.+.$.@._ 3 .   < t.V.A.A.D.F.J.J.J.L.J.L.L.L.L.L.L.L.",
"L.L.L.L.L.L.L.L.L.L.L.L.L.L.J.J.L.A.k.p.p.G q y ' @.@.@.O.O.+.+.+.+.+.+.+.+.+.@.@._ 3     h 0.m.m.A.S.D.F.L.J.J.L.L.L.L.L.L.L.L.",
"L.L.L.L.L.L.L.L.L.L.P.J.L.L.L.J.L.J.J.J.D.g.l q B _ _ L L ' X.+.+.+.+.+.+.+.O.X.{ N : . . < w.c.m.m.A.D.F.F.J.L.J.L.L.L.L.L.L.L.",
"L.L.L.L.L.L.L.L.L.L.L.L.L.L.L.L.F.L.J.J.D.m.a.S q 6 3 3 2 i ] @.O.+.+.+.+.O.@.] i - + . . > q.c.n.m.C.D.F.F.J.J.J.J.L.L.L.L.L.L.",
"L.L.L.L.L.L.L.L.L.L.L.L.L.L.L.L.L.J.D.D.D.D.S.y.g         # L @.@.@.@.O.O.@.@.` 6     . . > q.c.n.m.C.S.F.F.F.J.L.L.L.L.L.L.L.L.",
"L.L.L.L.L.L.L.L.L.L.L.L.L.L.L.L.L.J.J.F.D.D.F.p.g         @ _ @.@.@.O.@.@.#.@.` 3     .   > q.c.c.m.C.D.D.F.J.J.J.J.L.L.L.L.L.L.",
"L.L.L.L.L.L.L.L.L.L.L.L.J.L.L.L.L.L.J.J.J.J.F.h.c h h < < q C L L L L L C _ ` N - O & f > k 0.c.c.m.C.S.D.F.J.J.L.L.L.L.G.G.L.L.",
"L.L.L.L.L.L.L.L.L.L.L.L.L.L.L.L.L.L.J.J.J.J.D.m.h.y.y.t.e.S q @ @ # @ @ 2 2 2 % . d v 7.F 0.u.c.c.m.S.D.F.F.F.J.F.L.L.G.6.6.G.L.",
"L.L.L.L.L.L.L.L.L.L.L.J.L.L.L.L.L.L.F.J.J.J.J.J.D.D.C.C.m.p.k * * > * * f f > d * w 0.d.d.d.d.c.n.m.S.S.D.F.J.J.L.L.L.G.6.6.G.L.",
"L.L.L.L.L.L.L.L.L.L.L.L.L.P.L.L.L.L.L.J.J.J.F.F.G.D.S.A.C.j.i.w.8.8.8.8.7.7.D D G 0.u.d.d.d.c.b.m.m.A.D.D.J.J.J.L.L.L.L.G.G.L.L.",
"L.L.L.L.L.L.L.L.P.J.L.L.L.J.L.L.L.L.L.L.J.J.L.L.J.F.D.A.C.m.m.m.n.b.c.c.f.d.d.d.d.d.d.d.j.c.n.m.m.m.S.S.J.J.J.J.F.L.L.L.L.L.L.L.",
"L.L.L.L.L.L.L.L.L.L.L.L.L.L.L.L.L.L.L.L.L.L.L.F.J.J.D.D.S.C.C.m.m.n.n.c.c.c.c.b.b.b.b.b.b.m.m.m.S.D.S.J.F.L.J.L.L.L.L.L.L.L.L.L.",
"L.J.G.H.J.L.L.L.L.L.L.L.L.L.L.L.L.L.L.L.L.F.F.L.J.J.J.F.D.S.S.A.C.C.C.m.m.n.n.n.z.z.n.m.m.m.S.S.S.D.D.J.J.L.J.L.L.L.L.L.L.L.L.L.",
"L.G.6.6.G.L.L.L.L.L.L.L.L.L.L.L.L.L.L.L.L.F.L.J.J.J.J.F.F.D.D.D.S.A.A.C.A.A.C.N.*.*.v.m.A.A.D.D.D.D.F.L.J.L.L.L.L.L.L.L.L.L.L.L.",
"L.G.6.6.G.L.L.L.P.L.L.L.L.J.G.G.L.L.L.L.L.L.L.J.J.J.J.J.F.F.J.D.D.D.S.D.S.S.S.B.4.4.G.S.S.D.F.F.F.L.F.L.L.L.L.L.L.L.L.L.L.L.L.L.",
"L.L.H.G.J.L.L.L.L.L.L.L.L.G.6.6.G.L.L.L.L.L.L.L.L.L.F.L.J.J.J.J.F.F.D.D.D.D.D.F.D.Z.D.D.F.F.F.F.F.L.L.L.L.L.L.L.L.L.L.L.L.L.L.L.",
"L.L.L.L.L.L.L.L.L.L.L.L.L.G.5.5.G.L.L.L.L.L.L.L.L.L.L.L.J.J.J.J.J.J.J.F.F.F.F.F.F.F.F.F.F.F.L.F.L.F.L.L.L.L.L.L.L.L.L.L.L.L.L.L."
};
