/* XPM */
static char *monke_idle_64x64_1[] = {
/* columns rows colors chars-per-pixel */
"64 64 138 2 ",
"   c #02033B",
".  c #09093B",
"X  c #141037",
"o  c #14133C",
"O  c #191738",
"+  c #3D2C2E",
"@  c #3D362E",
"#  c #3F382E",
"$  c #27273F",
"%  c #2D2B3F",
"&  c #332531",
"*  c #312E3E",
"=  c #363132",
"-  c #34313F",
";  c #412F2E",
":  c #42312F",
">  c #443C2F",
",  c #402F30",
"<  c #403730",
"1  c #403930",
"2  c #4F4035",
"3  c #524234",
"4  c #554D36",
"5  c #5A4A38",
"6  c #595136",
"7  c #5C5338",
"8  c #6D4D25",
"9  c #6D5524",
"0  c #6E5925",
"q  c #705025",
"w  c #705825",
"e  c #6E6025",
"r  c #706225",
"t  c #72673F",
"y  c #756A3F",
"u  c #272740",
"i  c #2D2B40",
"p  c #312E41",
"a  c #363343",
"s  c #393644",
"d  c #3E3A44",
"f  c #4E4A42",
"g  c #524D41",
"h  c #5C5647",
"j  c #645E4B",
"k  c #67604A",
"l  c #68604B",
"z  c #7A7142",
"x  c #90661D",
"c  c #9B6F1E",
"v  c #9C711F",
"b  c #9E7220",
"n  c #857C45",
"m  c #897F46",
"M  c #83794E",
"N  c #93811E",
"B  c #9D8A1F",
"V  c #BE8414",
"C  c #BD8D14",
"Z  c #BD9E14",
"A  c #BEA614",
"S  c #BFA814",
"D  c #C18613",
"F  c #C28813",
"G  c #CC8F11",
"H  c #CD9211",
"J  c #D09210",
"K  c #D09C10",
"L  c #CBA611",
"P  c #C2A913",
"I  c #CDA911",
"U  c #CCB111",
"Y  c #D0B510",
"T  c #EBA40B",
"R  c #EBAC0B",
"E  c #FBAF07",
"W  c #F8AD08",
"Q  c #FEB206",
"!  c #FDBC07",
"~  c #F8B608",
"^  c #F8BA08",
"/  c #ECC60A",
"(  c #EBCD0B",
")  c #FDC107",
"_  c #FDCB07",
"`  c #F8C408",
"'  c #F8CD08",
"]  c #FCD207",
"[  c #FDDC07",
"{  c #F8D208",
"}  c #F8D908",
"|  c #FFE106",
" . c #DFCD39",
".. c #E3D02F",
"X. c #E1CE3A",
"o. c #E3D13B",
"O. c #8C8146",
"+. c #8C8248",
"@. c #908646",
"#. c #948947",
"$. c #92864C",
"%. c #958A4A",
"&. c #988D4C",
"*. c #9E924F",
"=. c #AB9F49",
"-. c #A29751",
";. c #A59952",
":. c #AB9E56",
">. c #ACA04A",
",. c #B5A747",
"<. c #B6A949",
"1. c #BBAD4C",
"2. c #BEB04E",
"3. c #AEA256",
"4. c #ADA158",
"5. c #B1A457",
"6. c #B5A855",
"7. c #B9AB57",
"8. c #BCAE59",
"9. c #BFB15A",
"0. c #C1B24F",
"q. c #C8B84F",
"w. c #C4B551",
"e. c #C7B852",
"r. c #CABB54",
"t. c #CFC055",
"y. c #D1C257",
"u. c #DDCC51",
"i. c #D4C459",
"p. c #DCCB5C",
"a. c #E0CF52",
"s. c #E0CF5E",
"d. c #E4D354",
"f. c #E3D25F",
"g. c #E8D75E",
"h. c #E5D460",
"j. c #E8D760",
"k. c #EBD961",
/* pixels */
"h.h.h.h.h.h.h.h.h.h.h.h.h.h.h.h.h.h.h.h.h.h.h.h.h.h.h.h.j.h.h.h.h.h.h.h.h.h.h.h.h.h.h.h.h.h.h.h.h.h.h.h.j.h.h.h.h.h.h.h.h.h.h.h.",
"h.h.h.h.h.h.h.h.h.h.h.h.h.h.h.h.h.h.f.h.h.h.h.h.g.h.h.f.d.d.h.h.h.h.h.h.h.h.h.h.h.h.h.h.h.h.h.h.h.h.h.f.d.d.h.h.h.h.h.h.h.h.h.h.",
"h.h.h.h.h.h.h.h.h.h.h.h.h.h.h.h.h.h.h.h.h.h.h.h.h.h.h.d.o.o.d.h.h.h.h.h.h.h.h.h.h.h.h.h.h.h.h.h.h.h.h.d.o.o.d.h.h.h.h.h.h.h.h.h.",
"h.f.h.h.h.h.h.h.h.h.h.h.h.h.h.h.h.h.h.h.h.h.h.h.h.h.h.d.o.o.d.j.j.j.j.h.h.f.f.h.f.h.h.h.h.h.h.h.h.h.h.d.o.o.d.h.h.h.h.h.h.h.h.h.",
"h.h.h.f.h.h.h.h.h.j.h.h.h.h.h.h.h.h.h.h.h.h.h.h.h.h.h.f.d.d.j.j.j.j.j.h.h.h.h.f.f.h.h.h.h.h.h.h.h.h.h.f.d.d.h.h.h.h.h.h.h.h.h.h.",
"h.h.h.h.h.h.j.f.d.d.f.h.h.h.h.h.h.h.h.h.h.h.h.h.h.h.h.h.j.p.8.5.5.3.3.8.i.h.h.h.f.f.f.f.f.h.h.h.h.h.h.h.h.h.h.h.h.h.h.h.h.h.h.h.",
"h.h.h.h.h.h.h.d.o.o.d.h.h.h.h.h.h.h.h.g.h.h.h.h.h.h.h.j.j.8.j d d d d j 8.j.h.f.h.f.h.f.f.h.h.h.h.h.h.h.h.h.h.h.h.h.h.h.h.h.h.h.",
"h.h.h.h.h.h.h.d.o.o.d.h.h.j.f.h.h.h.h.h.h.h.h.h.h.h.h.j.j.5.d         p M :.:.7.i.f.f.f.h.f.f.h.h.h.h.h.h.h.h.h.h.h.h.h.h.h.h.h.",
"h.h.f.h.h.h.h.f.d.d.f.h.h.h.h.h.h.h.h.h.h.h.f.h.h.h.h.j.g.:.d     . . X % d s j 6.s.s.s.f.f.f.f.h.h.h.h.h.h.h.h.h.h.h.h.h.h.h.h.",
"h.h.h.h.h.j.f.h.j.h.h.h.h.h.h.h.h.h.h.h.h.h.h.h.h.h.h.j.g.5.d . . . . .       - ;.p.p.s.s.f.f.f.h.h.h.h.h.h.h.h.h.h.h.h.h.h.h.h.",
"h.h.h.h.h.h.f.h.j.h.h.h.h.h.h.h.h.h.g.h.h.h.h.h.h.h.h.h.g.5.d . . . .         a -.p.u.p.p.f.f.f.h.h.h.h.h.h.h.h.h.h.h.h.h.h.h.h.",
"h.h.h.h.h.h.h.h.h.h.h.h.h.h.h.h.h.h.h.h.h.h.h.h.h.h.h.h.j.5.d . . O = > > > > 6 m 3.r.i.p.p.p.f.f.f.h.h.h.h.h.h.h.h.h.h.h.h.h.h.",
"h.h.h.h.h.h.h.h.h.h.h.h.h.h.h.h.h.h.h.h.h.h.h.h.f.h.h.j.j.5.d     = N P P P P B 4 h ;.i.p.p.f.f.s.h.h.h.h.h.h.h.h.h.h.h.h.h.h.h.",
"h.h.h.h.h.h.h.h.h.h.h.h.h.h.h.h.h.h.h.h.h.h.h.h.h.h.h.h.j.:.d     > P | | | | A @ p %.y.i.i.i.f.s.h.f.h.h.h.h.h.h.f.d.d.f.h.h.h.",
"h.h.h.f.h.h.h.h.h.h.h.h.h.h.h.h.h.h.h.h.h.h.h.h.h.h.h.j.j.5.d     > P [ [ [ | A @ i $.r.y.y.i.p.p.h.f.h.h.h.h.j.h.d.o.o.d.h.h.h.",
"h.h.h.j.h.h.h.h.h.h.h.h.h.h.h.h.h.h.h.h.f.h.h.h.h.h.h.h.j.5.d     > P [ [ [ [ A @ p $.r.y.y.i.p.s.s.h.s.h.h.h.j.h.d.o.o.d.h.h.h.",
"h.h.h.h.h.h.h.h.h.h.f.h.h.h.h.h.h.h.h.h.h.h.h.h.h.h.h.h.j.4.d .   > P [ [ [ [ A @ i +.q.r.y.i.p.p.h.f.h.h.h.h.h.h.f.d.d.f.h.h.h.",
"h.h.h.h.h.h.h.h.h.h.j.h.h.h.f.h.h.h.h.h.f.j.h.h.h.h.h.h.j.5.d     1 A [ [ } [ U 0 4 z @.&.;.r.i.p.p.s.f.h.h.h.h.h.f.h.h.h.h.h.h.",
"h.h.h.j.h.h.h.h.h.h.h.h.h.h.h.h.h.h.h.h.h.h.h.h.h.h.h.j.j.3.d     1 A [ } } } ( Y B 4 * - j >.p.p.p.s.h.h.s.h.h.h.h.h.h.h.h.h.h.",
"h.h.h.f.h.h.f.h.h.h.h.h.h.h.h.h.h.h.h.h.h.h.h.h.h.h.h.h.j.3.d   . > P [ [ } } [ | P >     - -.i.i.p.p.f.h.s.f.h.h.h.h.h.h.h.h.h.",
"h.h.h.h.h.h.h.h.h.f.j.h.h.h.h.h.h.h.h.h.h.j.h.h.h.h.h.h.j.4.d     1 P [ } } } [ | P >     - -.i.i.p.p.s.f.f.h.h.h.h.h.h.h.h.h.h.",
"h.h.h.h.h.j.h.h.h.h.h.h.h.f.h.h.h.h.h.j.h.f.h.h.h.h.h.h.j.5.d     < P [ [ } } } [ A 1     - &.r.i.i.p.s.f.f.f.f.h.h.h.h.h.h.h.h.",
"h.h.h.h.h.h.h.h.h.h.h.h.h.h.h.h.h.h.h.f.h.h.h.h.h.h.h.j.k.6.d     < A [ [ } } [ [ P > .   s %.r.t.i.i.p.s.f.h.h.f.h.h.f.h.h.h.h.",
"h.h.h.h.h.h.h.h.h.h.h.h.h.h.h.h.h.h.h.h.h.h.h.h.h.h.h.p.9.%.7 @ @ r U [ [ } } [ [ A 1     - #.w.r.r.i.p.s.f.f.f.h.h.h.h.h.h.h.h.",
"h.h.f.h.j.h.h.h.h.h.h.h.h.h.h.h.h.h.f.h.h.h.h.h.h.h.j.8.j 4 B P P U ( } } } } } [ A 1 .   a @.0.e.r.y.p.p.h.f.s.h.h.h.h.h.h.h.h.",
"h.h.g.f.d.d.h.h.h.h.h.h.h.h.h.h.h.h.h.h.h.h.h.h.h.j.j.:.a @ A | [ [ } } } } } [ [ P 1 .   * O.0.w.r.y.i.p.p.s.h.h.h.h.h.h.h.h.h.",
"h.h.h.d.o.o.d.h.h.h.h.h.h.h.h.h.h.h.h.h.h.h.h.h.h.j.j.4.s @ A | [ [ } } } } } } [ P 1     - +.2.w.e.y.p.p.s.s.h.f.f.h.h.h.h.h.h.",
"h.h.h.d.o.o.d.h.h.h.h.h.h.h.h.h.h.h.h.h.h.h.h.h.h.h.j.:.s @ A [ [ [ } } } } } [ [ P >   . * O.0.w.r.y.p.p.s.s.h.f.f.d.d.f.h.h.h.",
"h.h.h.f.d.d.f.j.h.h.h.h.h.h.h.h.h.h.h.h.h.h.h.h.h.h.j.4.s 1 A [ [ { } } } } } [ [ P >     - O.1.2.e.y.p.p.s.f.h.h.d.o.o.d.h.h.h.",
"h.h.h.h.h.j.h.h.h.h.h.h.h.h.h.h.h.h.h.h.h.h.h.h.j.j.k.4.s @ A [ [ } } } { } } [ [ A >     - O.1.w.e.y.i.p.s.s.h.h.d.o.o.d.h.h.h.",
"h.h.h.h.h.h.h.h.h.h.h.h.h.h.h.h.h.f.j.h.h.h.f.h.j.k.k.4.s = A [ [ } } } } } } } [ P >     - O.1.2.e.i.p.p.s.f.f.h.f.d.d.f.h.h.h.",
"h.h.h.h.h.h.h.h.h.h.h.h.h.h.h.h.h.h.h.h.h.j.j.p.9.3.5.$.5 9 L { ' ' { } } } } [ [ P >   . - O.7.2.e.t.p.p.p.f.f.f.f.h.h.h.h.h.h.",
"h.h.h.h.h.h.h.h.h.h.h.h.h.h.h.h.h.h.h.h.h.j.j.8.j s s 5 b J R ~ ^ ^ { } } } } [ [ P >   . p O.1.0.w.i.p.p.f.f.f.h.f.h.h.h.h.h.h.",
"h.f.h.h.h.h.h.h.h.h.h.h.h.h.h.h.h.h.h.h.h.j.k.4.d     ; F Q E W W ^ ' } } } } [ [ A >     - O.1.0.w.y.i.p.p.s.f.f.h.h.h.h.h.h.h.",
"h.h.h.h.h.h.h.h.h.h.h.h.h.h.h.h.h.h.h.h.h.j.j.4.d     ; D Q E W W ~ ' } } } } [ [ P >     - O.1.0.e.i.p.p.f.f.f.f.h.h.h.h.h.h.h.",
"h.h.h.h.h.h.h.h.h.h.h.h.h.h.h.h.h.h.h.h.h.j.k.5.s     < F ! ! ^ ~ ^ ' ' ' ' ' { [ P >   . * O.1.0.e.i.i.p.p.s.f.h.f.h.h.h.h.h.h.",
"h.h.h.h.h.h.h.h.h.h.h.h.h.h.h.h.h.h.h.h.h.j.k.5.d     @ Z ] ] ' ' ' ^ ~ ~ ~ ~ ` ] P >     - O.1.0.w.y.p.p.f.f.f.f.h.h.h.h.h.h.h.",
"h.h.h.h.h.h.h.h.h.h.h.h.h.h.h.h.h.h.h.j.h.p.8.$.5 ; + w I ] { ' { ' ^ ~ ~ ~ ~ ! _ A >     - O.1.0.e.r.p.p.p.f.f.f.f.h.h.h.h.d.a.",
"h.h.h.h.h.h.h.h.h.h.h.h.h.h.h.h.h.h.h.j.h.8.j 5 b F D H R ~ ~ ~ ~ ^ ` ' ' ' ' ' ) F :     - O.1.w.e.r.p.p.p.f.f.h.f.h.h.g.d.a...",
"h.f.h.h.h.h.h.h.h.h.h.h.h.h.h.h.h.h.j.j.k.:.a + V Q Q E W W W W W ^ { } } } [ ] ! F :     - O.1.0.r.i.p.p.f.f.f.f.h.g.h.f.d.o...",
"h.h.h.h.h.h.h.h.h.h.h.h.h.h.h.h.h.h.h.k.k.4.a = V ~ Q E W W W W W ~ ' } } } } { ! D ;     i O.2.w.r.r.p.p.s.f.f.f.h.h.h.h.f.d.d.",
"h.h.h.j.h.h.h.h.h.h.h.h.h.h.h.j.j.p.8.:.4.$.g 8 G E E W W W W W W ~ ` { } [ } / K b 3 % i 5 %.2.w.r.i.p.p.p.s.f.h.f.h.h.h.h.h.f.",
"h.h.h.f.h.h.h.h.h.h.h.h.h.h.h.j.k.9.j a a 5 b J T E W W W W W W W W ~ ^ { [ [ I w > t n m #.>.1.w.r.i.p.p.s.f.f.h.h.h.h.h.h.h.h.",
"d.d.f.h.h.f.h.h.h.h.h.h.h.h.h.p.9.$.5 + & 8 J E E W W W W W W W W W W ~ ` { ] Z < u n ,.<.<.1.0.w.r.r.p.p.f.f.f.h.f.h.h.h.h.h.h.",
"..o.d.h.h.h.h.h.h.h.h.h.h.j.j.8.j 5 v V D G T E W W W W W W W W W W W W ~ ^ ! C , i n ,.<.1.7.0.r.r.p.p.p.f.f.f.f.h.h.h.h.h.h.h.",
"..o.d.h.h.h.h.h.h.h.h.h.h.j.k.:.a + V Q E E E E W W W W W W W W W W W W E Q Q V ; i n <.1.1.w.r.r.r.p.p.f.f.f.h.h.h.h.h.h.h.h.h.",
"d.d.f.j.h.h.h.h.h.h.h.h.h.j.j.:.s + V Q Q E W W W W W W W W E W W W W E E Q Q D + i n <.1.0.w.r.r.i.p.p.f.f.f.h.h.h.h.h.h.h.h.h.",
"h.h.h.h.h.h.h.h.h.h.h.h.h.j.j.4.s + V Q Q E W W W W W W W E E E ~ E E T G V V c > g $.1.1.w.r.r.p.p.p.s.s.f.h.h.h.h.h.h.h.h.h.f.",
"h.h.h.h.h.h.h.h.h.h.h.h.h.j.j.3.s : V Q Q Q E W W W W W W W ~ E Q Q Q J 8 + + 3 t #.=.1.0.w.r.i.p.p.f.f.h.h.h.h.h.h.h.h.h.h.h.h.",
"h.h.h.h.h.f.h.h.h.h.h.j.h.h.h.4.s & x F F H T E W W W W E T G V V F F b > $ $ f #.<.1.1.0.r.i.i.p.p.s.f.s.h.h.h.h.h.h.h.h.h.h.h.",
"h.h.h.h.h.h.h.h.h.h.h.f.h.h.j.3.d X & : @ 8 G Q E W W E Q G q + , < ; > z n n O.=.1.7.0.e.r.i.i.p.p.f.f.s.h.h.h.h.h.h.h.h.h.h.h.",
"h.h.h.h.h.h.h.h.h.h.h.h.h.j.j.3.d         , D Q Q E E Q Q F +         % n ,.,.,.1.1.8.0.r.i.i.p.p.p.f.f.f.h.h.h.h.h.h.h.h.h.h.h.",
"h.h.h.h.h.h.h.h.h.h.f.h.h.h.j.3.d     .   : F Q Q ~ E Q Q F ;         % m <.<.1.1.w.w.r.i.i.p.p.f.h.f.h.h.h.h.h.h.h.h.h.h.h.h.h.",
"h.h.h.h.h.j.h.h.h.h.h.h.h.h.f.9.j % X     & x F V V V V F c 3 % p p * g #.<.1.1.1.w.r.r.i.p.p.f.f.f.f.f.h.h.h.h.h.h.h.h.s.d.h.h.",
"h.h.h.h.h.h.h.h.h.h.h.h.h.h.h.p.8.M %     X & @ , ; ; ; + 3 y m m m m %.=.1.1.0.r.r.y.i.p.p.p.f.f.h.h.h.h.h.h.h.h.h.h.d.o.o.d.h.",
"h.h.h.h.h.h.h.h.h.h.h.h.h.h.h.f.g.8.j s - a a p p i i i % f @.1.1.,.1.1.1.7.w.r.r.i.i.p.s.s.s.f.s.h.h.h.h.h.h.h.h.h.h.d.o.X.d.h.",
"h.h.h.h.h.h.h.h.h.h.h.h.h.h.f.f.f.i.5.-.*.&.#.+.+.+.+.O.m #.>.1.1.1.1.0.w.w.w.r.r.p.p.p.f.f.f.f.f.h.h.h.h.h.h.h.h.h.h.h.d.d.g.h.",
"h.h.h.h.h.h.h.h.h.h.h.h.h.h.h.p.s.s.p.p.y.t.e.0.2.2.1.2.1.1.1.1.1.1.0.r.r.r.r.i.i.p.s.f.s.f.f.f.h.h.h.h.h.h.h.h.h.h.h.h.h.h.h.h.",
"h.h.h.h.h.h.h.h.h.h.h.h.h.h.h.h.s.s.s.p.p.t.r.r.w.0.0.w.0.0.7.0.w.r.r.r.y.i.i.p.p.p.f.f.f.f.f.f.h.h.h.h.h.h.h.h.h.h.h.h.h.h.h.h.",
"h.f.d.d.f.h.h.h.h.h.f.h.h.h.h.h.h.f.s.p.p.t.t.r.r.r.e.r.r.r.r.r.r.r.y.y.i.i.p.p.u.u.s.f.f.f.h.h.h.h.h.h.h.h.h.h.h.h.h.h.h.h.h.h.",
"h.d.o.o.d.h.h.h.h.h.h.h.h.f.h.h.h.s.f.s.p.p.p.i.i.t.t.i.r.i.i.y.i.i.i.p.p.p.s.a.X.X.a.h.h.h.h.h.h.h.h.h.h.h.h.h.h.h.h.h.h.h.h.h.",
"j.d.o.o.d.h.h.h.h.h.h.h.h.f.d.d.f.s.h.s.p.p.p.p.p.p.p.p.p.p.p.p.p.p.p.p.s.f.h.d.X.X.d.h.h.h.h.h.h.h.h.h.h.h.h.h.h.h.h.h.h.h.h.h.",
"h.h.d.d.f.h.h.h.h.h.h.h.h.d.o.o.d.h.h.f.f.s.s.p.p.p.p.p.p.p.p.p.p.s.s.f.f.s.h.s.d.d.s.h.h.h.h.h.h.f.h.h.h.h.h.h.h.h.h.h.h.h.h.h.",
"h.h.j.j.h.h.h.h.h.h.h.h.h.d.....d.h.s.h.s.h.s.s.s.p.p.p.s.s.p.s.p.h.s.f.h.f.f.f.h.h.f.h.h.h.h.h.h.h.h.h.h.h.h.h.h.h.h.h.h.h.h.h."
};
