/* XPM */
static char *monke_idle_64x64_8[] = {
/* columns rows colors chars-per-pixel */
"64 64 233 2 ",
"   c #0D1A14",
".  c #1B1C13",
"X  c #1B170F",
"o  c #250D0A",
"O  c #26120D",
"+  c #2A120D",
"@  c #2B1C0E",
"#  c #2E1510",
"$  c #221B13",
"%  c #2B1C14",
"&  c #311612",
"*  c #341A13",
"=  c #391E15",
"-  c #381E18",
";  c #0D2618",
":  c #142416",
">  c #13261A",
",  c #142C1A",
"<  c #1B2B1B",
"1  c #1A2616",
"2  c #15331B",
"3  c #163B1B",
"4  c #1A3C1B",
"5  c #193518",
"6  c #0E3618",
"7  c #272816",
"8  c #3C2415",
"9  c #3D2815",
"0  c #35241C",
"q  c #3D221A",
"w  c #372A1A",
"e  c #263918",
"r  c #353415",
"t  c #132E20",
"y  c #153424",
"u  c #153B25",
"i  c #153C29",
"p  c #1A3B25",
"a  c #0D3520",
"s  c #222D21",
"d  c #293324",
"f  c #393822",
"g  c #3C2B23",
"h  c #42251C",
"j  c #452B1A",
"k  c #492C1C",
"l  c #412817",
"z  c #4A331C",
"x  c #49391F",
"c  c #533D1D",
"v  c #442621",
"b  c #462921",
"n  c #4C2D23",
"m  c #482621",
"M  c #502F23",
"N  c #4D3123",
"B  c #433126",
"V  c #533326",
"C  c #543B23",
"Z  c #553428",
"A  c #593629",
"S  c #5C3A2B",
"D  c #5A3926",
"F  c #633E2E",
"G  c #603E27",
"H  c #15441D",
"J  c #1A441B",
"K  c #164A1E",
"L  c #194C1C",
"P  c #15531D",
"I  c #1A531D",
"U  c #1B5B1E",
"Y  c #165A1D",
"T  c #0F4D1A",
"R  c #24441A",
"E  c #244B1B",
"W  c #2C441B",
"Q  c #245D1E",
"!  c #25521A",
"~  c #38511D",
"^  c #1B631E",
"/  c #1C6B1E",
"(  c #17671E",
")  c #1C741F",
"_  c #1C7B1F",
"`  c #24631E",
"'  c #246D1F",
"]  c #29651E",
"[  c #26731E",
"{  c #277A1E",
"}  c #38791E",
"|  c #164424",
" . c #1A4422",
".. c #164C24",
"X. c #194C25",
"o. c #174428",
"O. c #195422",
"+. c #195B21",
"@. c #165223",
"#. c #244C24",
"$. c #394927",
"%. c #235325",
"&. c #245C24",
"*. c #285627",
"=. c #395426",
"-. c #3A5633",
";. c #1A6321",
":. c #1B6C21",
">. c #166322",
",. c #1C7121",
"<. c #1D7920",
"1. c #256322",
"2. c #266C20",
"3. c #2A6E20",
"4. c #296125",
"5. c #237320",
"6. c #2A7120",
"7. c #287D20",
"8. c #277B20",
"9. c #3C6F2B",
"0. c #427C1E",
"q. c #48721A",
"w. c #424A27",
"e. c #444C28",
"r. c #4B4923",
"t. c #564321",
"y. c #5A4525",
"u. c #45542A",
"i. c #465A32",
"p. c #65412D",
"a. c #6A452E",
"s. c #6B4C2E",
"d. c #644A2B",
"f. c #635526",
"g. c #675928",
"h. c #6B5A2C",
"j. c #69552C",
"k. c #735E2A",
"l. c #6A4530",
"z. c #6E4932",
"x. c #664130",
"c. c #734D33",
"v. c #6C5131",
"b. c #615032",
"n. c #7B5536",
"m. c #7F5939",
"M. c #765334",
"N. c #704D2F",
"B. c #407C22",
"V. c #476437",
"C. c #4F6A29",
"Z. c #756A2E",
"A. c #74632D",
"S. c #6D6D36",
"D. c #7B6F31",
"F. c #7A6433",
"G. c #7B7031",
"H. c #717135",
"J. c #6E7037",
"K. c #56401C",
"L. c #6F7E41",
"P. c #845D3A",
"I. c #836C38",
"U. c #8A7E37",
"Y. c #8C7D39",
"T. c #867636",
"R. c #946A42",
"E. c #1D811E",
"W. c #29821F",
"Q. c #2A881F",
"!. c #3D821E",
"~. c #3F8421",
"^. c #298420",
"/. c #41831D",
"(. c #428C1E",
"). c #4C8F1D",
"_. c #42941F",
"`. c #4D9E1F",
"'. c #48971E",
"]. c #4CA01F",
"[. c #408422",
"{. c #418C20",
"}. c #48842C",
"|. c #4D9C20",
" X c #449422",
".X c #589320",
"XX c #4E8931",
"oX c #6B8F33",
"OX c #71A22D",
"+X c #728143",
"@X c #8D8239",
"#X c #96883D",
"$X c #B7AC29",
"%X c #9CC63C",
"&X c #D5C836",
"*X c #E3D02F",
"=X c #E4D13B",
"-X c #E8D53D",
";X c #8B8B42",
":X c #998942",
">X c #8C9645",
",X c #9E9141",
"<X c #989847",
"1X c #A99946",
"2X c #AA9648",
"3X c #94A543",
"4X c #ABA147",
"5X c #B6A54B",
"6X c #B4AA4E",
"7X c #BBAB4E",
"8X c #B7A649",
"9X c #B3AD51",
"0X c #BEAC50",
"qX c #B5B253",
"wX c #BEB352",
"eX c #B6BC51",
"rX c #BDB44B",
"tX c #C4B648",
"yX c #C1AF50",
"uX c #C3B352",
"iX c #CABA55",
"pX c #C5BB56",
"aX c #C9B64E",
"sX c #D5C559",
"dX c #DCCC5D",
"fX c #CFCC53",
"gX c #E5D354",
"hX c #E8D655",
"jX c #E5D45C",
"kX c #E8D75B",
"lX c #E5D460",
"zX c #E8D761",
"xX c #EBD962",
/* pixels */
"lXlXlXjXlXlXlXlXlXlXlXlXlXlXlXlXlXlXlXlXlXjXlXlXlXlXlXlXjXlXlXlXlXlXlXlXlXlXlXlXlXlXlXlXlXlXlXlXlXlXlXlXjXlXlXlXlXlXlXlXlXlXlXlX",
"lXlXlXlXlXdXlXlXlXlXlXlXlXlXlXlXlXlXlXlXlXlXlXlXlXlXlXjXhXhXkXzXxXlXlXlXxXlXlXlXlXlXlXlXlXlXlXlXlXlXlXjXdXgXjXlXlXlXlXlXlXlXjXlX",
"lXlXlXlXlXlXlXlXlXlXlXlXlXlXlXlXlXlXlXlXlXlXdXlXlXlXxXkXgX*XjXzXxXlXxXxXxXlXlXlXjXlXlXlXlXlXlXlXlXlXlXgX=X=XgXlXlXlXlXlXlXlXlXlX",
"lXlXlXlXlXlXlXlXlXlXlXlXlXlXlXlXlXlXlXlXlXlXlXlXzXdX7XtX&X&XrXqX9XqXqX9X5XuXdXxXzXzXzXzXlXlXjXlXlXlXlXgX=X=XgXlXlXlXlXlXlXlXlXlX",
"lXlXlXlXlXlXlXlXlXlXlXlXjXlXlXlXlXlXlXlXlXlXlXlXxXuXA.A.tXtXL.i.V.V.V.i.r.F.uXxXxXxXxXlXlXlXlXlXlXlXlXjXgXgXlXlXlXlXlXlXlXlXlXlX",
"lXlXlXlXlXlXlXjXgXgXlXlXlXlXlXlXlXlXjXlXlXlXlXdXuX#Xy.d.2X2Xu.t t t t 1 * D #X7X9X6X6XwXsXlXlXlXlXlXlXlXlXlXlXlXlXlXlXlXlXlXlXlX",
"lXlXjXlXlXlXlXgX=X=XgXlXlXlXlXlXlXlXlXlXlXxXzXuXS.r.M.m.P.v.w $ % $ $ 0 C p.d.t.r.e.w.S.uXzXzXlXlXlXlXdXlXlXlXlXlXjXlXlXlXlXlXlX",
"lXlXlXlXlXlXlXgX=X=XgXlXlXlXlXdXlXlXlXlXlXxXxX9Xe.d b.m.x.n * + + + + l c.c.8 X : ; ; e.9XxXzXlXlXlXlXlXlXlXlXlXlXlXlXlXlXlXlXdX",
"lXlXlXlXlXlXlXjXgXgXlXlXlXlXlXlXlXlXlXlXlXzXxX9Xi.y d g n h * + + + + j P.m.w : 3 H a i.9XxXzXlXlXlXlXlXlXlXlXlXlXlXlXlXlXlXlXlX",
"lXlXjXlXlXlXlXlXlXlXlXdXlXlXlXlXlXlXlXxXxXdXuX>X9.| 2 < w 0 % O + O O 8 s.s.d 2 L P u i.9XxXzXjXlXlXlXlXlXlXlXlXlXlXlXlXlXlXlXlX",
"lXlXlXlXlXlXlXlXlXlXlXlXlXlXlXlXlXlXzXxXxXuXJ.=.1.+.| y < 7 1 . 1 . . 7 9 9 1 2 K K 6 u.6XxXzXlXlXlXlXlXlXlXlXjXlXlXlXlXlXlXlXjX",
"lXlXlXlXlXlXlXlXlXlXlXlXlXlXlXlXjXdXwX9XqX;X$.2 P >.o.y > > , , , 2 , > X $ < J U P 3 u.9XxXxXzXzXlXlXlXlXlXlXlXlXlXlXlXlXlXlXlX",
"lXdXlXlXlXlXlXjXlXlXlXlXlXlXlXlXzXuXS.u.i.-.d y 3 3 i y > 1 H K K K L 4 1 < I / ,.( @.V.eXxXxXxXxXxXxXzXlXlXlXlXlXlXlXlXlXlXlXlX",
"lXlXlXlXlXlXlXlXlXlXlXlXlXlXlXlXxX6Xw.> X.O.o.u t 5 o.X.J J ` [ [ ' 6.] ! ! / { Q.{ O.9.>XqXeXeX6X6X6XwXdXlXlXlXlXjXgXgXdXlXlXlX",
"lXlXlXlXlXlXlXlXjXlXlXlXlXlXlXzXxX0Xe.5 } } %.i  .I ;.:./ { _.`.|.`.|.`.'./.' [ _.{.&.#.-.V.XX}.i.w.w.J.wXxXlXlXlXgX=X=XgXlXlXlX",
"lXlXlXlXlXlXlXlXlXlXlXlXlXxXxXdXuX;X$.E |.|.&.o...+.) _ / [ /.).).).).).)./.&.1.~.[.&.i | ..:.Y 6     w.6XxXxXlXjXdX=X=XgXlXlXlX",
"lXlXlXlXlXlXlXlXlXlXlXlXxXxXxXpXJ.$.L ] `.|.*.i i O.,./ L 4 R E R E W R R #. .o.%.*.@...P ....| ,     e.9XxXxXlXlXjXgXgXjXlXlXlX",
"lXlXjXlXlXlXlXlXlXlXlXdXwX9X9X#X$.6 K 1.[.[.%.i i o.;.U 5 : > > , , , , 1 2 p o.o.O.1.' I K i u 4 5 3 =.#XuXdXjXlXlXlXlXlXlXlXlX",
"lXlXlXlXlXlXlXlXlXlXxXwXS.w.w.$.J K P +.&.%.O.X.o.i 3 5 : 1 3 K L J H K H | i | >.7.{.!.E , y o.U / / Q $.S.wXjXlXlXlXlXlXlXlXlX",
"lXlXlXlXlXlXlXlXlXxXxXqXu.; > 3 ` ' 1.+.@.X.O.@.o.y , , , 4 ` 3.[ ' 3.' ;.U u | ;.^.|.(.E 2 u @.( _ ) / E C.qXxXxXlXlXlXlXlXlXlX",
"lXlXlXlXdXlXlXlXlXxXxXqXV.T H Q !._.{ ) :.:.+...o.i y y y #./.`.`.`.`._.7.^ 3 3 O.2.W.{ U L ..O.^ ^ ^ ' !.OXfXzXzXlXlXlXlXlXlXlX",
"lXlXlXlXlXlXlXzXxXdXpX>X9.@.P ] (.(.W._ / ' ' 1. .i i i u %./.`.`.`.`._.W.^ 5 , K O.;.:.U O.+.O.@.....&.!..X3XuXdXlXjXlXlXlXlXlX",
"lXlXlXlXlXlXzXxXxXsXoX9.U U O.I E ! [ ) L ! /.!.R 2 H | 2 4 Q [ 3.3.[ 3.;.I 2 1 u o...@.O.+.U O. .o.o. .E W $.J.pXxXlXlXlXlXlXlX",
"lXjXlXlXlXdXuX9XeX3XB.^ U Y +.K 3 3 U I 2 e } 0.e 5 Q Q 5 , 3 L H J K K L H 5 y y i i o.O.^ ' 1.X. .i u t > : $.>XpXdXlXlXlXlXlX",
"lXlXlXlXzXeXJ.=.}.|.|.~.] U O.U L H 3 5 > , #.#., e /./.J : : , , , , , , 5 L H | i i X.>.7._.{.1.@.@.| u y H X.-.L.wXxXlXlXlXlX",
"lXlXlXjXlX$X=.T P [ ~.~.&.K K K L H 2 , e E  .u , #./.(.~ R 4 3 5 4 5 5 , 2 ..O.*.%.p o.:.W.(./.' +.^ ;.&.%.@.| a -.9XzXxXlXlXlX",
"lXlXlXhX=X$X/.T H 3 &.%.4 2 , 2 , , y #.} /.1...u  .1.} _.(.[ ( ( ( ( U | u u &.[.B.E 3 ( [ ! ! ` _ _ 7._.0.E ; ; $.6XzXlXlXlXlX",
"lXlXlXgX=X&XOX9.4 > u i < > , < e R  .%.0./.1...| | | Q !._.Q.E.E.E.E.) ..i | &.[.} e 4 [ [ J 3 ^ ) ) W.'.(.! R $.S.tXhXjXlXlXjX",
"lXlXlXjXgXdXfX>X$.: H ..u y y #.} [.1...E R  .o.....2 J Q [ <.E.E.<.E.,...o.>.:.E R y %.~._.` L U +.>./ ^.W.) 9.<XtX&X=XgXlXlXlX",
"lXlXlXlXlXkXzXqXC.J L @.| o.o.&. X'.[ P 3 , y u H J , , 3 P >.:.,.,.,.;...@.;.+.3 , u 4.|.`.2.+.+.^ +.;./ ) _ ~.3XaX&X=XgXlXlXlX",
"lXlXlXlXlXzXxXfXOX} I | ....@.+.W.Q.{ :.U 3 2 , , , : : ; 2 H ..o.X.X.@.>.>.O.o.u u ..3.`.`.3.+./ 5.) ) ( ;._ 5.=.S.rXhXlXlXlXlX",
"lXlXlXlXlXlXlXfX%XoX=.3 ..U U +.:.,.^.{ U J 3 5 5 , 5 5 , 2 | ..o.X.X.+.W.7.O.i y u ..1.~.[.1.+.:.,.:.:.;.U ( Q ~ S.wXxXzXlXlXlX",
"lXlXlXlXlXlXlXlXfX4Xr.1 J U U I ..1.{.(.E 3 U ;.L I ( U | | +.,.,.,.:.7.~.~.5...2 , i X.%.%.+.@.X.X...O.:.^ J =.;XiXdXzXlXlXlXlX",
"lXlXlXlXlXlXzXdXfX#Xx 1 L ( ^ Y o.#.[.B.R 3 +.,.5.5.[ ;.| | >.,.,.,.:.8. X X7.` 5 : y y i ..+.O. .y y X.7.[ 3 $.;XiXdXlXlXlXlXlX",
"lXlXlXlXlXxXxXpX+X-.7 5 U _ _ ^ 3 y #.%.o.u o.4.{.{.[ P 2 2 | ..o.o...@.1.}  X/.R : : 2 | +.:.^ u > t E (.{.O.d $.S.uXlXlXlXlXlX",
"lXlXlXlXlXdXwX;X*.; : 5 I ` ` I 5 > t i y y y *.{.{.Q H > ; y | o.o.o.o.H Q (./.E , , 5 J ^ 7.[ e . . e B.[.#.t   w.6XzXxXlXlXlX",
"lXlXlXlXzXwXS.f t   : > 7 7 e 7 1 > > > 1 t y o.1.] 3 , : > H ..I .... .6 3 ` ] I L J 3 5 E (./.r O O 7 #.#.7 .   $.9XxXzXlXlXlX",
"lXlXlXlXzXwXS.$.e.w.d % # + + + $ 7 . : 1 y #.&.X.3 < 7 : 3 Q [ ' ' [ &.5 < 4 L U / [ Q 5 e q.q.r O + @ s 7 @ % f J.wXzXlXjXgXgX",
"jXlXlXlXlXdXwX9X9X:Xy.0 + + + & 0 0 % $ t #.[./.W t 0 0 . e ~.|.`.].`.).x 0 % e ` W.'.q.r O w r @ + + * g 0 % z #XuXdXlXlXgX=X*X",
"lXlXlXlXlXlXxXlXiX2Xl.q & + + * n n * % s *.[.B.W 7 g b d r B..X.X.X.Xq.r.h = 7 ! [ (.q.r @ * * + + + * v v * y.yXxXzXlXlXgX=X*X",
"lXlXlXlXlXxXxXsXY.p.Z h & + + 8 F G = * 0 f *.*.f b Z Z b g r.r.r.r.r.r.S Z b q 7 7 r r w j M n & + + * V V h s.uXxXzXlXlXjXgXgX",
"lXlXlXlXlXdXuX:Xp.m h 0 & + + = p.F 8 & h B d d g n S Z N b v v b m m M Z S N g * & & 8 n A S V * + + * k A Z s.:XiXdXzXlXlXlXlX",
"lXlXlXlXzXuXA.C D V 0 * + + o * k n * * M A B B g b n n n b b b v v b n N n b v h h h k p.z.A v * o + + * k F s.p.A.uXkXlXlXlXlX",
"gXgXlXlXxX5Xc # n V * + = l 8 h j h = q A S Z M A S V n b n M n M V n n N N S S V n M A z.z.Z b k j k l & = F D & c 5XxXzXlXlXlX",
"*X=XgXxXxX5Xc + h m * = D a.z.G N v v b S F S F m.m.l.S n n S S S S S S S x.m.m.x.S S F x.F n Z N.P.P.N.8 * k n + C 5XzXzXlXlXlX",
"*X=XgXxXzXyXk.z h = + 8 p.n.n.a.N q q m Z S F c.P.P.F n v m Z S S S S S S x.m.m.x.S S S F A m V m.I.R.n.h + - h z k.yXzXlXlXlXlX",
"gXgXlXlXxXsX5XI.z + + = D z.z.S q * # - v Z S F c.p.j * # - j n M n n B M Z S S V M n Z S Z - h F c.c.F = + + z I.5XsXzXlXlXlXlX",
"lXlXlXlXlXsX5XT.D = = h A F F Z q * h m v M F F A n 9 8 9 9 x c Z C Z C Z B q v n V n N F S q q A F F A j = h D Y.5XsXlXlXlXlXlX",
"lXlXlXlXxXuXR.l.a.p.A A S F F A k V c.N.V n S A h 9 t.f.f.f.f.h.g.g.g.g.h.t.9 8 F l.M V z.z.M h A F F F Z F c.n.z.I.uXxXlXlXlXlX",
"lXlXlXlXlX0Xb.b p.z.x.x.x.F x.A h V P.P.A h V N l z g.Z.Z.Z.Z.Z.Z.Z.Z.Z.G.g.z z G G n M a.a.M n A F F F F z.P.n.V b.0XlXxXlXlXlX",
"lXlXlXlXxX0Xv.v N A p.x.F x.F A q l F p.h & * l t.g.Z.Z.Z.Z.Z.Z.Z.Z.Z.Z.Z.Z.g.t.k = * q G G q = Z F F F F F y.Z b v.0XxXlXlXlXlX",
"lXlXlXlXxX0Xv.q v n Z S F F F A k k V k * + + 8 g.Z.Z.Z.Z.Z.Z.Z.Z.Z.Z.Z.Z.Z.G.f.8 O + * m M k h A F F F F Z n v v v.0XxXlXlXlXlX",
"lXlXlXxXxX7Xv.v v n n Z S F F l.n.N.k & + + + 8 f.Z.Z.Z.Z.Z.Z.Z.Z.Z.Z.Z.Z.Z.Z.f.9 O + + & j D a.F F F S Z n b v v v.yXxXlXlXlXlX",
"lXlXlXlXxXyXF.Z B v q b A F F z.P.P.M * + O + 9 f.G.G.Z.G.Z.G.G.G.G.G.Z.G.Z.Z.f.9 + + + & h a.c.l.F F A m v v b Z F.yXkXjXgXjXlX",
"lXlXlXlXlXiX:Xh.Z q * q A F F l.z.c.a.D 8 + O 9 f.G.T.@X@X@X@X@X@X@X@XU.@XT.G.f.9 + + & - m F F F F F A q * h C h.:XiXjX=X=XgXlX",
"lXlXlXlXxXsX5XY.b.N & * M F S S F z.n.p.8 + + 9 g.T.@X#X#X#X#X1X#X1X#X#X#X@XT.g.9 o + * v M F F F F F G * & n z.Y.5XsXgX=X=XgXlX",
"lXlXlXzXlXdXuX1XY.j.8 + h n n A c.c.c.S = + + l Z.@X@X#X1X5X5X5X6X8X5X1X#X#X@XZ.l + + * l z G F F F F V * 8 j.Y.1XuXdXjXgXgXjXlX",
"lXlXlXlXlXdXiX6X1XY.f.z h q q n D p.G n * o o j I.,X,X1X7XyXwX0XwXrXuX7X1X#X#XT.j o o + q h n A A V V V z d.Y.1X6XiXdXlXlXlXlXlX",
"lXlXlXlXlXdXiX0X7X4X1XI.j # # # = q m h & o o z @X6X5X5X7XrX7XyX7X7XyX7X5X5X7X#Xz o o + + * * * * & & z I.,X4X5X7XiXdXlXlXlXlXlX",
"lXjXgXgXjXdXiXiXiXiXiX2Xk.c t.C C y.s.s.y.c c k.4XiXiXiXiXiXiXiXiXiXiXuXiXiXfX1Xk.c c D D K.c t.D c c A.1XsXiXiXiXiXdXlXlXlXlXlX",
"lXgX=X=XgXlXdXdXdXdXdXsXyX5X5X5X5X5XyX7X7X5X5XyXsXdXdXdXdXdXdXdXdXdXdXdXdXdXdXsX$X$X$X5X5X5X5X5X8X8X5XyXsXdXdXdXdXdXjXlXlXlXlXlX",
"lXgX=X=XgXlXlXlXzXlXzXlXxXzXhXhXzXzXzXzXxXzXzXzXzXjXzXzXlXzXlXlXjXlXzXlXjXlXjXgX=XgXkXzXxXxXzXxXxXxXxXzXlXlXzXzXlXlXlXlXlXlXlXlX",
"lXlXgXgXjXlXlXlXlXlXlXlXzXhX-X-XgXzXzXzXzXzXzXzXlXlXlXlXlXlXlXlXlXlXlXlXlXlXjXjXhXhXjXzXxXzXzXzXlXzXzXkXlXlXlXlXlXlXlXlXlXlXlXlX",
"lXlXlXlXlXlXlXlXlXlXlXlXlXgX*X*XgXlXlXlXlXjXlXlXlXlXlXlXlXlXlXlXlXlXlXlXlXlXlXlXlXlXlXlXlXlXlXlXlXlXlXlXlXlXlXlXlXlXlXlXlXlXlXlX"
};
