/* XPM */
static char * Left_xpm[] = {
"64 64 68 1",
" 	c #E5D460",
".	c #E4D35E",
"+	c #E4D354",
"@	c #E6D562",
"#	c #E3D13C",
"$	c #E6D563",
"%	c #071821",
"&	c #03161F",
"*	c #05161F",
"=	c #051720",
"-	c #E3D13B",
";	c #171E23",
">	c #171E24",
",	c #7D4436",
"'	c #8B4939",
")	c #8A4938",
"!	c #8C4A39",
"~	c #9C503C",
"{	c #9B503C",
"]	c #041720",
"^	c #262326",
"/	c #7B4436",
"(	c #994F3B",
"_	c #9B4F3B",
":	c #9A4F3C",
"<	c #E5D45C",
"[	c #151D22",
"}	c #9A4F3A",
"|	c #2E2E33",
"1	c #212931",
"2	c #1F2830",
"3	c #A55B49",
"4	c #A65C4A",
"5	c #A45B49",
"6	c #D9A2A1",
"7	c #E6AFB0",
"8	c #E3ADAE",
"9	c #CA9C9E",
"0	c #E9A8A4",
"a	c #F4B4B2",
"b	c #F3B3B1",
"c	c #FFC1C1",
"d	c #FFC0C0",
"e	c #FDBEBE",
"f	c #FFC0C1",
"g	c #181F25",
"h	c #945446",
"i	c #AC6555",
"j	c #DCA4A3",
"k	c #FBBDBE",
"l	c #3B3B42",
"m	c #302E33",
"n	c #F3B4B2",
"o	c #383940",
"p	c #E4AEAF",
"q	c #994E39",
"r	c #E3AEAF",
"s	c #FFC2C2",
"t	c #081821",
"u	c #A35A48",
"v	c #222A32",
"w	c #B06757",
"x	c #03151E",
"y	c #CD9EA0",
"z	c #393940",
"A	c #8B4A39",
"B	c #E3D02F",
"C	c #E4D350",
"                                                                ",
"                           .++.                    .++.@        ",
"                           +##+$                   +##+         ",
"                           +##+                    +##+         ",
"                %%%%%%%%%%%%%%%%%%%%%%%%           .++.@        ",
"       .++.     %%%%%%%%%%%%%%%%%%%%%%%%            @@          ",
"       +##+$    %&&%%&%*%===============                        ",
"       +-#+     ;>>>>>>;;>>>>>>>>>>>>>>;                        ",
"       .++. %%=;,'))))))))))))))')))))',;*%%                    ",
"            %%=>!~~~~~~~~~~~~~{{{~~~~~~!;%%%                    ",
"            =]=;'{{{{{{{{{{{{{{{{{{{{{{';]%&                    ",
"            ;>;^!~{{{{{{{{{{{{{{{{{{{{~!^;>;      @.            ",
"        %%=;/!'!({{{{{{{{{{{{{{{{{{{{{~(''!,;*%%        @.   .@ ",
"        %%=>'_~~~({{{{{{{{{{{{{{{{{{{{({{{~';%%%        @.++.@@ ",
"        %%=>'~:{~~~~~~{~~({{{{{{{{{{{{{{{{{)>&%%       @ +##+  .",
"        %%=;)~{(!)))))'!({{{{{{{{{{{{{{{{{{)>%%%.        +##+  @",
"        %%=>'~~!^;>>>>;^!~{{{{{{{{~~{{~~{{{);%%%@     ..@<++.   ",
"        %%=>)~~);&=%==];'~{{{{{{{{{~{{{({{~)>&%%      @@    @   ",
"        %%=>)~~';&*===&['~::{{{{(((}(((({{{)>]%%         @      ",
"        %%=>)~{!|111112|,'''{{({33444444~({'>]%%         .      ",
"        %%=>'~:567888879|;;^!~}30abbbba04(~)>%%%  .@            ",
"        %%=>':(4bcccccc71&];!}}4accdcccb4(~)>]%%                ",
"        %%=;)((5bccccec81&=;!}}4bfdddddb3(~)>]%%                ",
"        %%=gh45ij787kcc7l11m!}}4bcdddddb4(~);%%%                ",
"        %%*1jnnjo22l7ccep8863(q4bfddddcb3{{);*%%  @.            ",
"   .++. %%=1rss72]]28cecccca4}}4bfddddfb3{~);*%%                ",
"   +##+ tt*1rss71==18cecffcb4}}4bfedfccb4{~);*%%                ",
"   +##+ %t=1jss71==18ccceffb4}}4bfdeaba0u{~);%%%        @<++.   ",
"   .++. %%=1pcs7v=*1pfceccfb4(q4bffaw343{{{)>*%%    .@.  +##+   ",
"        %%%18csjv==18ccecefb4((4bffb4((({{~)>%%%    @.@@ +##+@  ",
"     $  %%=18cc71xx18cefcfcb4((4bccb4}(}{~~'>%%%    .@@. .++.   ",
"        %%*1y77yz11l7cfeaaa04(}30aa04_}(A'',;&%%    @@.@.@  @   ",
"            111lypppeccaw344~({~4444~(~!^;>;                    ",
"            **&18cccfefb3q(({{{(:((((~~);=]=                    ",
"           .%%*17cccccca4}~~~~{~:~~~~~~!>=%%                    ",
"            %%=1y78888p6h))))))'')))))!,>=%%                    ",
"                211111v1g;g;>>>>>>>>;;>;$                      $",
"                ====**=**===========*%==                     .++",
"                %%t=***===**=========%%%                     +#B",
"                %ttt1vvv1111g;>;>>>;t=%%                     +#B",
"                %%=197888876h'))'''/;]=%                     .++",
"                %%%18ccccccn4(~~(~~'>]%%                        ",
"   .            %%=18ceccccn4({{{{~)>]%%                        ",
"++. @           %%*18cck78865({{{{~);%%%                        ",
"B#+             %%%18ccpl11|'{{{{{~);*%%                        ",
"B#+             %%=18ccp2&];'{{{{{~);%%%                        ",
"++.@            %%*17cc81*];'{{({{{)>&%%                        ",
"@.              %%=16aa61&%gh455{{~)>%%%                        ",
"                %%%gh44hg=*16nn03({)>=%%                        ",
"                %%&;'{();==17ccn4{~'>=%%                        ",
"                %%%>){{);]*17ccb4{~!>=%%                        ",
"                %%&>){~!^;;|9776h)',;=%%                        ",
"                %%%>'~{(''',|111;;;;                            ",
"                %%&>)~({~(~'[%*]*%==                       .++. ",
"                %%%;'~{{{:~';]]]=%%%                       +##+ ",
"                %%&;/'''({~!^;>[t=%%                       +##+$",
"             @  %%*%;;;^!{{{'''/;=%%                       .++. ",
"             .  %%t%==];){({~{~'>=%%                            ",
"  @             %%%%%%=>)({q{{:';=%%.$   @                      ",
"@.++.          @%%%%%%=>h444434h>=%%..@.++.                     ",
"@+##+        .@@%%%%%%%16abbbba61*%%$. +##+                     ",
" +##+        .++%%%%%t*1pccdccc71=%%.$ +##+                     ",
"@.++.@       +##%%%%%%*18cddfecp1=%%   .++.                     ",
"            @CBB%%%%%%*18cddcecp1=%%  .$  $                     "};
