/* XPM */
static char * Monkey_xpm[] = {
"64 64 76 1",
" 	c #E5D460",
".	c #E4D35E",
"+	c #E4D354",
"@	c #E6D562",
"#	c #E3D13C",
"$	c #E6D563",
"%	c #071821",
"&	c #051720",
"*	c #05161F",
"=	c #E3D13B",
"-	c #171E24",
";	c #191F25",
">	c #171E23",
",	c #7C4436",
"'	c #894838",
")	c #894837",
"!	c #8C4A39",
"~	c #8B4A39",
"{	c #03161F",
"]	c #8D4B3A",
"^	c #9C503C",
"/	c #9B4F3B",
"(	c #9C513D",
"_	c #9B503C",
":	c #161D23",
"<	c #9A4F3A",
"[	c #262426",
"}	c #9A4F3C",
"|	c #E5D45C",
"1	c #894938",
"2	c #041720",
"3	c #232B33",
"4	c #2E2E33",
"5	c #7E4638",
"6	c #323035",
"7	c #302F34",
"8	c #CC9D9F",
"9	c #E4ADAE",
"0	c #C99B9D",
"a	c #161D22",
"b	c #E3ADAE",
"c	c #E2ACAD",
"d	c #DAA2A0",
"e	c #A35A48",
"f	c #FFC2C2",
"g	c #FFC0C0",
"h	c #F1B2B0",
"i	c #A65C4B",
"j	c #F3B4B1",
"k	c #03151E",
"l	c #FFBFBF",
"m	c #994E39",
"n	c #F4B4B2",
"o	c #FBBDBD",
"p	c #AD6556",
"q	c #975748",
"r	c #E5AFAF",
"s	c #3C3C43",
"t	c #202831",
"u	c #3B3A41",
"v	c #F5B4B1",
"w	c #F3B3B0",
"x	c #DBA3A2",
"y	c #965546",
"z	c #A75D4B",
"A	c #0A1A23",
"B	c #E9A7A3",
"C	c #E7A7A3",
"D	c #282528",
"E	c #945446",
"F	c #242326",
"G	c #E3D02F",
"H	c #B06858",
"I	c #A55B49",
"J	c #D8A1A0",
"K	c #E4D350",
"                                                                ",
"                           .++.                    .++.@        ",
"                           +##+$                   +##+         ",
"                           +##+                    +##+         ",
"                    %%%%%%%%%%%%%%%%%%%%%%%%       .++.@        ",
"       .++.         %%%%%%%%%%%%%%%%%%%%%%%%        @@          ",
"       +##+$        &&*&&&&&&&&&&&&&&&&&&&&&                    ",
"       +=#+         --;>--------------------                    ",
"       .++.     %%%-,')!!)))~'')'''!''~'~)!,-%%%                ",
"                %%{-]^/((((((^^_^^((^^^^(((!-*%%                ",
"                %{%:'((<(_______^<(<____(/():%%{                ",
"                -::[](<(_________(<(____<((![:>:  @.            ",
"            %%&-,!'!<//(______________^_(<^}''!,-&%%    @.   .@ ",
"            %%&-!^^^_<(/______________^^<(</^^(]-&%%    @.++.@@ ",
"            %%&-'^<_(/(((((/______}__^^^(^^(^__'-&%%   @ +##+  .",
"            %%&-'^__!)))!))!_______<!'''))!!__^'-&%%     +##+  @",
"            %%&-'^_'[:--:-:['^____^![:::--:[!/(!-&%%  ..@|++.   ",
"            %%&:'^_1-2{%**2:'^___^^':&&*&**:!(/)-&%%  @@    @   ",
"            **{:'^^1:{****{:~^____^':{****{:)(():{**     @      ",
"            33345'!)43333336]^_____!73333337,!),4333     .      ",
"        %%*389904aa40bbbccbde}^^___edbbcbcc04::409b83*%%        ",
"        %%*3bffb3{{3bffffgfhi}_/___ijffffffb3{{3bffb3*%%        ",
"        %%*3bffc3k*3cfllfffji<}<__minfffllfc3{{3cfgc3**%        ",
"        %&*3cgf94a:7cflobbbdpiiiiiepdbc9olf96::6bffc3*%%        ",
"        %%*3cflhq))qhgfrst3udvhhwwwxu3ts9ffwy')yhgfc3*%%        ",
"   .++. %%*3bfghi}/zhggc3k{tbffgggfbt{{tclgwi<<ihggc3*%&        ",
"   +##+ &A*3bffni<<iwggc3*&3cggggggc3{{3cffwi<<inffb3*&A        ",
"   +##+ &&*389bdi<<iwgfc3**3cfgggggb3{{3cflwi<}idb983*&A@|++.   ",
"   .++.     3334!<<iwffc3**3cgggggfc3**3cgfwi_^]7333.@.  +##+   ",
"            **{:'/_iwgfb3*{3cgggglgb3**3bggwi_^':{**@.@@ +##+@  ",
"     $      %%*:!^^zhffb3kk3cgggggfb3%*3bffwi_^!;&&&.@@. .++.   ",
"            %%&;,''yBnvduttsrfggggfrs336xnwCy)',:*&A@@.@.@  @   ",
"                >;:Dyiipdbc9oflfgglo9bbdpiiy[:;>                ",
"                %{{:)_mihfffllllggllfffji<_):{{%                ",
"           .    {%{>)(_inflfffflffgffffji(^':{{{                ",
"                ->:[,!'Edbccccccccccccbdy'!,[:;>                ",
"            %%*-,'!,F:>;333333333333333t;>:F,!',-%%%           $",
"            %A{-~^^!:{%{{***************{%%:!^^]-{%%         .++",
"            %{{:'^^':%*********{*****{**%{{:'^^':%{%         +#G",
"            :;:[]^^][:::3333333333333333;>:D!^^'[:--         +#G",
"        %%%-,')!__^<!''ydbccccccccccccbdy''!<__<!)!,:AA{     .++",
"        %%{-]^/(__</^^_ijfffflfflffllffhi}^^__<_(((]>{{A        ",
"   .    %{%:'(___(((_}<iwfgglllllfllgffhi<__((^^/<^':{{%        ",
"++. @   -::[](_<!))!}<<iBnwnllflllllnwnBi}_<]~''<^^![:>:        ",
"G#+ %%%:,'']<_(][::['^_^iiipjgggfllvHiii_<^][::[!^^_!)!,-{%%    ",
"G#+ %%%-!^^^__(':{%:'^__<<miwfggflfne<<<<_^':%%:'^}_(((!-%%%    ",
"++.@%%{-'^_<<<_)>%%>'^____<ijfggggfhi<}^___':{%:'<<<__^'-%%%    ",
"@.  %%%-'_<_iiiE;{{;'^____<IBnwwwwhBi<}}__^'-%{;Eiii^_^'-{%%    ",
"    %%%-'_<iBwnd3{*-'^_____^Iiiiiiii^<____(]:**tJnjBi__)>{%%    ",
"    %%{-'^_iwffb3**-'^_________m<<<}______('-**3bffji__)>%%%    ",
"    %%%-]^(ijffb3*%-'^^_________<_________^'-%*3bffhi^^';{%%    ",
"    %%*-,')yJbb0t**:'^^___________________^'-{{309bdy'',:%%%    ",
"        -->;t33tA%{;'^____________________()-%{At333-::-        ",
"        %{%{****{%%>'^____________________()-{%%&&**%*%*   .++. ",
"        %%%%%%%%%%{;'^_______^^^^^^^_}<(<(()-%%%%%%%%%%%   +##+ ",
"        %%%%%%%%%%%>!^______')~)'''!<<(<(/(!:%%%%%%%%%%%   +##+$",
"             @  %%&:'^____^![:--;::[]((____)>%%%           .++. ",
"             .  %%&;'^^<__^':{%*{%{:)(____()-*%%                ",
"  @             &%*:'(<<___):%%%A%{;)(<<_<}':{%%                ",
"@.++.          @A&*;yiiiiiiy;{%%%%{;EiiiiiiE;%%%                ",
"@+##+        .@@%%&3dhwwwwnd3**%*A*tdvwwwwhd3*%%                ",
" +##+        .++%%*3bfgfggfb3*%%%**3cffllffb3*%%                ",
"@.++.@       +##%%*3cfggggfc3*%%%%*3cfllgggc3*%%                ",
"            @KGG&&*3cfggglgc3*%%%%*3cflfglfb3*%%                "};
