/* XPM */
static char *monke_left[] = {
/* columns rows colors chars-per-pixel */
"64 64 223 2 ",
"   c #3D3568",
".  c #4B3D63",
"X  c #443A69",
"o  c #493F69",
"O  c #433966",
"+  c #513F61",
"@  c #5A455B",
"#  c #574A5B",
"$  c #5D505E",
"%  c #6E4E4F",
"&  c #7E5646",
"*  c #75534F",
"=  c #7B564C",
"-  c #7E584B",
";  c #6A4E53",
":  c #654A55",
">  c #6E5054",
",  c #6D535B",
"<  c #64565E",
"1  c #745453",
"2  c #795650",
"3  c #7D5A51",
"4  c #73595F",
"5  c #775959",
"6  c #704F50",
"7  c #6F6359",
"8  c #75665D",
"9  c #766B50",
"0  c #4E4165",
"q  c #4C4169",
"w  c #524363",
"e  c #574B65",
"r  c #5B4C64",
"t  c #534669",
"y  c #564969",
"u  c #5B4D6A",
"i  c #584664",
"p  c #5D5364",
"a  c #5E506A",
"s  c #594C72",
"d  c #5E5170",
"f  c #634E62",
"g  c #614E6A",
"h  c #655263",
"j  c #6A5562",
"k  c #635965",
"l  c #625169",
"z  c #6B5B68",
"x  c #715B6D",
"c  c #765C65",
"v  c #655571",
"b  c #6E5C74",
"n  c #715F76",
"m  c #6E6164",
"M  c #746463",
"N  c #7B6B64",
"B  c #7C626C",
"V  c #796668",
"C  c #796577",
"Z  c #6E607D",
"A  c #8D7538",
"S  c #815847",
"D  c #845C4A",
"F  c #845B49",
"G  c #835D50",
"H  c #8A624E",
"J  c #8E6B4B",
"K  c #8A6B4A",
"L  c #916E4C",
"P  c #95724D",
"I  c #8D6552",
"U  c #85635B",
"Y  c #8B6759",
"T  c #8B685C",
"R  c #886956",
"E  c #946C55",
"W  c #966E5A",
"Q  c #956D56",
"!  c #857858",
"~  c #997255",
"^  c #9B7359",
"/  c #977D5D",
"(  c #A27A5C",
")  c #A37A5D",
"_  c #876967",
"`  c #916E65",
"'  c #877565",
"]  c #9A7E6A",
"[  c #977566",
"{  c #856C75",
"}  c #8F7173",
"|  c #89727B",
" . c #9B7C7B",
".. c #957879",
"X. c #A17F75",
"o. c #9F8F1C",
"O. c #AB9B1D",
"+. c #928328",
"@. c #988938",
"#. c #B8A82C",
"$. c #BCAB35",
"%. c #B29C2E",
"&. c #C0B02F",
"*. c #C8B736",
"=. c #E2CF2F",
"-. c #E3D02F",
";. c #E3D13B",
":. c #95894D",
">. c #9B8548",
",. c #9D914E",
"<. c #9B8E52",
"1. c #978759",
"2. c #9D9153",
"3. c #8F825A",
"4. c #A8964D",
"5. c #A5845A",
"6. c #A9855C",
"7. c #A88756",
"8. c #A39552",
"9. c #A69952",
"0. c #AA9955",
"q. c #B89A5B",
"w. c #B49956",
"e. c #B09C43",
"r. c #BBAD42",
"t. c #B3A64C",
"y. c #B6A949",
"u. c #BBAD4C",
"i. c #B5A747",
"p. c #BFB04E",
"a. c #BFB044",
"s. c #B2A257",
"d. c #BEAB55",
"f. c #B4A45A",
"g. c #B7A85E",
"h. c #BDAD5D",
"j. c #B9A557",
"k. c #AEA150",
"l. c #988764",
"z. c #9A817D",
"x. c #AD8561",
"c. c #A3846C",
"v. c #A58766",
"b. c #B48C63",
"n. c #B48C66",
"m. c #A79763",
"M. c #BA9266",
"N. c #BF9768",
"B. c #B39969",
"V. c #A3837C",
"C. c #A98878",
"Z. c #B08E7E",
"A. c #B59A79",
"S. c #BCAA62",
"D. c #C2B34E",
"F. c #C6B747",
"G. c #C4AB5C",
"H. c #C4B551",
"J. c #C7B852",
"K. c #CBBC54",
"L. c #C3B45E",
"P. c #CDB95B",
"I. c #CAB459",
"U. c #D1BB5D",
"Y. c #C19969",
"T. c #CBBA61",
"R. c #C6B560",
"E. c #C1AA68",
"W. c #D2C24D",
"Q. c #CFC056",
"!. c #D2C257",
"~. c #D5C55A",
"^. c #DCCC5C",
"/. c #D8C859",
"(. c #E0CF5E",
"). c #E4D353",
"_. c #E3D25E",
"`. c #E8D75F",
"'. c #E3D24F",
"]. c #D9C761",
"[. c #E0CE60",
"{. c #E5D460",
"}. c #7E738D",
"|. c #8E7780",
" X c #957C80",
".X c #887D96",
"XX c #9C8082",
"oX c #A38582",
"OX c #AB8C84",
"+X c #A78B87",
"@X c #AE928D",
"#X c #B3948A",
"$X c #BB9A8C",
"%X c #B59484",
"&X c #B49992",
"*X c #BE9D91",
"=X c #B29794",
"-X c #B08F81",
";X c #C29F89",
":X c #C3A393",
">X c #CDAD9B",
",X c #C7A899",
"<X c #D0AF9A",
"1X c #D2B19F",
"2X c #CCAEA2",
"3X c #C5A9A0",
"4X c #CEB2A7",
"5X c #D4B4A1",
"6X c #DBBAA5",
"7X c #DDBDAA",
"8X c #D3B6A6",
"9X c #E0BFAB",
"0X c #E3C3AC",
"qX c #EACAB2",
"wX c #E5C7B3",
"eX c #EBD2BF",
"rX c #F3D2B9",
"tX c #DDC5B8",
"yX c #D2CACF",
"uX c #EDD3C1",
"iX c #ECD3C1",
"pX c #F8EBE0",
"aX c #F7EADF",
/* pixels */
"{.{.{.{.{.{.{.{.{.{.{.{.{.{.{.{.{.{.{.{.{.{.{.{.{.{.{.{.{.{.{.{.{.{.{.{.{.{.{.{.{.{.{.{.{.{.{.{.{.{.{.{.{.{.{.{.{.{.{.{.{.{.{.{.",
"{.{.{.{.{.{.{.{.{.{.{.{.{.{.{.{.{.{.{.{.{.{.{.{.{.{.`._.).).{.{.{.{.{.{.{.{.{.{.{.{.{.{.{.{.{.{.{.{.{.`.).)._.{.{.{.{.{.{.{.{.{.",
"{.{.{.{.{.{.{.{.{.{.{.{.{.{.{.{.{._.{.{.{.{.{.`.{.{.{.).;.;.).{.{.{.{.{.{.{.{.{.{.{.{.{.{.{.{.{.{.{.{.).;.;.).{.{.{.{.{.{.{.{.{.",
"{.`.{.{.{.{.{.{.{.{.{.{.{.{.{.{.{.{.{.{.{.{.{.{.{.{.{.).;.;.).{.{.{.{.{.{.{.{.{.{.{.{.{.{.{.{.{.{.{.{.).;.;.).{.{.{.{.{.{.{.{.{.",
"{.{.{.{.{.{.{.{.{.{.{.{.{.{.{.{.{.{.{.{.{.{.{.{.{.{.{._.).)._.{.{.{.{.{.{.{.{.{.{.{.{.{.{.{.{.{.{.{.(.(.).)._._.{.{.{.{.{.{.{.{.",
"{.{._.{.{.{.{.`.).).`.{.{.{.{.{.{.{.{.{.{._.{.{.{.{.{.{.{.{.{.{.{.{.{.{.{.{.{.{.{.{.{.{./.U.U.U.U.U.(.`.`.(._._.(.{.{.{.{.{.{.{.",
"{.{.{.{.{.{.{.).;.;.).{.{.{.{.{.{.{.{.{.{.{.{.{.{.{.{.{.{.{.{.{.{.{.{.{.{.{.{.{.{.{.{.].q.6.5.6.6.q.U._.(._.(._.[.{.{._.{.{.{.{.",
"{.{.{.{.{.{.{.).;.;.).{.{.{.{.`.{.`.{.{.{.{.{.{.{.{.{.{.{.{.{.{.{.{.{.{.{.{.{.{.{.{.U.G.6.( ( ) ) 6.G.U.U.U.^.(._.(._._.{.{.{.{.",
"{.{.{.{.{.{.{.`.).).{.{.{.{.{.{.{.{.{.{.`.{.{.{.`._._._._.{.{._.{.{.{.{.{.{.{.{.{.].q.6.b.b.b.b.b.b.x.6.7.w.U.(.(.(._._.{.{.{.{.",
"{.{.{.{.{.{.{.{.{.{.{.{.{.{.{.{.~.U.U.U.U.U.U.I.I.U.^._._._._._.{.{.{.{.{.{.{.{.{.P.6.^ b.Y.Y.Y.Y.M.) ^ Q ( G.U./.^.^._._._.(.{.",
"{.{.{.{.{.{.{.{.{.{.{.{.{.{.{./.q.6.6.6.6.6.7.5.~ 7.U._._._._._.[.{._.{.{.{.{.{.`.U.6.( b.Y.Y.Y.Y.Y.b.x.^ ~ ) w.I.^.^.^.^.{.{._.",
"`.{.{.{.{.{.{.{.{.{.{.[.].U.U.G.6.( ( ) ^ ( ( ^ H P w.I.I.P./._.(._.(._._.{.{.{.{.P.5.Q 6.M.Y.Y.Y.Y.Y.Y.) ( Q 6.G././.^.^.^.{.(.",
"{.{.{.{.{.{.{.{.{.{.{.~.q.6.6.6.b.b.b.b.b.b.b.x.~ L L P L 7.P.(.(.(._._._.{._.{.`.I.P H ~ 6.M.Y.Y.Y.Y.Y.b.) ^ x.G.K.~.^.^.(.(._.",
"{.{.{.{.{.{.{.{.{.[.].G.x.( ^ 6.b.Y.Y.Y.Y.Y.Y.M.( E G F & K w.J./.(.(.(.(._._.{.{.P.7.L E ^ ) b.b.b.b.M.Y.Y.) ) 4.D.F.W./.^.(.(.",
"{.{.{.{.{.{.{.{.{.^.q.6.b.b.b.M.M.Y.Y.Y.Y.Y.Y.b.) Q E I F F J 7.I.^.^.^.^._._.{.{.^.P.w.L F H L ( ( ) 6.Y.Y.Y.) ~ @.#.*.!.^.^.(.",
"{.{.{.{.{.{.{.{.U.G.6.) b.M.Y.Y.Y.Y.Y.Y.M.M.b.b.( Q ^ E H F & K 8.G.!.^.^.(.(._._._._.U.7.L L L H E Q ( ) Y.Y.) H A %.*.W./.^.^.",
"`.{.{.{.{.{.{./.q.6.b.b.) 6.Y.Y.Y.Y.Y.Y.) ) ) ( ^ ^ Q Q E I D 3 M 3.h././.^.(.(.[._._.^.J.d.j.8.L H E ^ ( ( ) ^ D J i.F.K.~./.^.",
"{.{.{.{.{.{.{.U.5.( x.x.^ ( ) Y.Y.Y.Y.) ^ I I E Q W ^ ^ ^ E D = h N f.!././.^.(.^._.^.^.^./.!.p.P L L E Q W ^ I S L 4.H.K.!./.^.",
"{.{.{.{.{.{.{.U.6.^ ^ ^ Q Q ( ) b.M.) ^ G F F H E ^ ^ ^ W Q D 1 h M f.Q.!././.(._.[.^.(.^.^.!.Q.u.7.L D E ^ W E S J 4.D.H.Q.~./.",
"{.{.{.{.{.{.{.U.6.[ c.n.n.X.[ ( x.n.) ] W I F F I E Q W E H D = h m 3.s.J.!./.^.[.^._.[.^.^./.!.!.j.E G I E Q E G I 4.p.H.K.!./.",
"{.{.{.{.{.{.{.U.v.X.:X7X6X,XV.` [ X.-X%X%XX.I S D I E E I D S 2 < u h 8 s.Q.~./.(.(.(.(.[.^.^.^./.j.! , 2 I Q Y 4 8 8.p.H.K.!./.",
"{.{.{.{.{.{.{.U.c.V.8XqXrX7X-X . XOX$X:X:X%X` F S D I I S S = 1 h y X p 2.Q.Q./.^.(.(.(.(.[.^.^./.g.M $ 6 D I U j 8 2.p.D.K.!.~.",
"{.{.{.{.{.{.{.U.v. .*X6XqX0X:X$X5X5X,X;X;X#X[ U G F D S F 2 , h h y X p 8.Q.Q.~./.^.(.(._.[.[.[.(.g.m 0 6 S D 3 h M 2.u.H.K.!.~.",
"{.{.{.{.{.[.].E.C. . X&X7XqX5X5X9X9X5X,X:X;XoX} G & S & & 2 < a a y o p 2.p.Q.Q.~.^.(.(.(.[.{.{.).g.p 0 ; S F = f M 8.u.p.J.!.~.",
"{.{.{.{.`.U.N.C.-XXXb }.4XeXqX7X6X5X9X7X>X;X#XC.Y S S & & 1 h g a y X p 2.p.K.Q.~.^.^.(._._.[.{.`.h.k . ; F S = f M 2.p.D.K.!.~.",
"{.{.{.{.).U.v. .*X&X}..X4XrXrX7X#X@X5X9X1X,X:X-XE G E [ W U j l p y O # :.$.D.K.!.^.^.(.(._.{.].L.l.k w 6 & = 5 4 ! 9.p.D.H.!./.",
"{.{.{.`.;.*.6. X5XtXyXyXeXrXrX4XC b @X5X9X7X,XZ.Y W ;X<X$X] x a l y X # A #.a.K.!.~.(.(._.{.{.Q.' p u f = = , 8 1.9.t.d.H.K.!.~.",
"{.{.{.).'.*./  X2XrXaXaXeXwXrX4X.X.X=X6XqXqX>XZ.Y W :X6X6X&XC u e y r 9 +.O.r.K.!.~.^.(._.].Q.l.p q r , & 1 r 7 8.r.r.r.D.K.!./.",
"{.{.{.`.).I.' C #X7XuXuX6X8XqXeXyXyXwXqXrXwX<XZ.I G X.$X6X2X{ t o p ! @.o.O.$.Q.!.~.^.(._.R.' p u r 1 = & 6 0 p 2.r.#.$.F.K.~./.",
"{.{.{.{.{.I.l.' z.@X3X,X$X*X6XuXpXpXuX9XwX6X:XV._ G } OX3X=XC t o p ! @.+.+.,.g.K./.^./.T.m.k . r , - - * ; $ 8 2.*.#.$.F.Q.~.^.",
"{.{.{.{.{.].P.m.' C C | ..V.:X6XiXuX6X>X>X:XOX} c c OXOX XC t o t p z 8 7 7 8 3.h.^.^.L.l.M a r > - S * @ $ ! 9.t.p.a.D.K.~./.^.",
"{.{.{.[.{.{._.T.l.M M M B { V.%X>X1X*X#X#XoX} c g x  X|.v + . w r g h f f h h M 2.h.h.m.m y h , 1 * > ; $ 7 9.p.y.p.H.J.Q.!.^.^.",
"{.{.{.{._._.(.^.L.g.f.1.k i 8 [ X. XX. . .} c l l a d s o w : ; h h 1 1 1 = 2 5 8 N ' z t w > 1 , r + < ! 9.t.y.p.p.H.K.!./.^.[.",
"{.{.{.{.{.(.(.(.^.^.!.f.8 < % 1 ` _ _ ` _ _ c h j h y w . @ 2 D , , G D D D F = , f u y X . : 1 8 m p 8 9.p.p.p.p.H.K.Q.~.^.^.(.",
"{.{.{._._._.(.(.^././.J.j.3.$ # * G G G G G = 3 U U U 3 1 2 I I G 3 I E E I S F = , h y o O . < 1.9.8.8.t.p.p.p.H.K.Q.!.~.^.(.(.",
"{.{.{.{.{.{._.(.(.^./.~.~.0.p . % S S S F D H P ( ) ^ Q H H E I H H E W ~ Q I S F = , r 0 X   p 8.D.D.u.u.u.p.H.H.Q.Q./.(.(._._.",
"{.{._.{.{.{._.(.(.(.^././.f.p 0 % S S S H ^ ) b.b.b.~ ~ E I H H I Q Q W ^ W E I D - - 1 h q X p 2.a.p.y.p.p.H.K.Q.!.~.^.(.(.(.{.",
"{.{.{.{.{.{.{._._.(.^.(.~.f.p q ; G F G I ( M.Y.M.b.( Q E I G 3 E ^ ( ( ^ Q Q I D & S = , r 0 r ! 9.t.p.p.H.H.Q.!.~.^.^.(.^.).'.",
"{.{.{.{.{._.`._._._.(.(.(.g.p X f 4 G E I E b.b.6.( ^ E I 3 , j Y ( b.x.( E H D F & S - = 1 f y p 8 9.p.D.H.Q.Q.~.(.(.^.(.).;.=.",
"{.{.{.{.{.{._._._._._._._.h.3.p i f ` Q S I 6.b.( Q W E D = h j T ( b.x.( E S F D D S - & 3 , y   p 2.p.H.Q.Q./.~.(.(.(._.).;.=.",
"{.{.{.{.{.{.{.{.{.{.(.(.(./.L.l.g i U E D D ~ ( ^ E ^ E F 1 h c T ^ ( ( ^ E D D I J D S F = h y X p 2.p.p.Q.!./.^.(.(._._.(.).).",
"{.{.{.{.{.{.{.{.{.{.{._.[.{._.g.k o c I H H I E ^ ^ ^ E H 2 h j U E Q Q Q I D D I E D & = 1 h y X p 2.p.Q.Q.!.^.^.(._._._.{.{.{.",
"{.{.{.{.{.{.{.{.{._.{.(.(._._.h.k O g c Y I H H E W ^ E E U j h 3 H Q Q I D - F D D D 2 , h p y X p 2.p.p.Q.!.^.(.(.(._.{.{.{.{.",
").).`._.{.{.{.`.{.{.{.{.{._._.h.' p y h U I G - I E E ^ ^ Y c ; 1 3 I I D & & - 3 2 & 2 < u u y p 7 2.p.p.Q.~.~.^.(._._.{.{.{.{.",
"-.;.).{.{.{.{.{.{.`.{._.{.(.{.~.L.l.l + 2 G , , G I E ^ ^ Q G 1 , , 3 D F & & = , , = 1 h y q p 9 ,.t.u.p.Q.~.^.^.(._._._._.{.{.",
"-.;.).{.{.{.{.{.{.{.{.{.{.{.{._._.S.V w ; > < , ; 2 I E Q Q G G , , ; * - S S = , , = 2 , y X # <.y.y.p.p.Q.~.~.(.(._._.{.{.{.{.",
").)._.`.{.{.{.{.{.{.{.{.{._.{.{._.J.] x i @ ; > @ @ = H Q ^ Q I 3 ; @ @ * S S - = 2 - 3 j y X p :.i.u.p.p.Q.!.^.^._._._.{.{.{.{.",
"{.{.{.{.{.{.{.{.{.{.{.{._.].R.R.T.S.c.x t . ; > + + : G G E Q G 3 ; 0 0 : * * = & & = > f y e 7 ,.i.u.p.Q.Q.~.^.(.(._.{.{.{.{.{.",
"{.{.{.{.{.{.{.{.{.{.{.{.`.T.l.' ] c.] B t O i f y t 0 @ 2 G F G @ 0 t y w w r ; = = < p q p 9 ,.k.y.p.p.Q.!.~.^.^._._.{.{.{.{.{.",
"{.{.{.{.{.{.{.{.{.{.{.{.{.!.l.V B { B n v v C B x a o + 1 G D 5 i q t t X o u c U T V b q p :.t.i.y.p.J.Q.~.^.[.(._._.{.{.{.{.{.",
"{.{.{.{.{.{.{.{.{.{.{.{.{.].T.m._ l t v |.+X@XoX| z o . _ _ ` _ h t o X   . x } V.-XOX| y p :.t.y.p.p.Q.!.~.^.(._._._.{.{.{.{.{.",
"{.{.{.{.{.{.{.{.{.{.{.`.{.{.{.R.N y q v  X+X+XoXV...C C  X X} x l t t t u n  .#X,X<X>XXXs e :.i.y.p.p.Q.!.^.^.(._._.{.{.{.{.{.{.",
"{.{.{.{.{.{.{.{.{.{.{.{.{.{.{.R.N u x B B b v n XX*X3X8X7X,X| g 0 t v {  .#X2X7XwX9X<XXXs e :.y.p.p.J.Q.~.^.^._.(.{.{.{.{.{.{.{.",
"{.{.{.{.{.{.{.{.{.{.{._.{.{._.T.l.' ] ] N z y l XX*X4X8X4X=X{ l a n  .%X,X5X0XwX9X1X&X .m 7 ,.y.p.p.Q.~.^.].(.(._.{.{.`.).).{.{.",
"{.{.{.{.{.{.{.{.{.{.{.{.{._._.].I.h.L.h.f.1._ { ....| C }.b C {  X#X2X9X0X0X5X:X#X XC N 3.,.k.u.p.J.Q.~.^.^._._.{.{.{.'.;.;.).{.",
"{.{.{.{.{.{.{.{.{.{.{.{.{._._._._.^./.!.Q.G.m.l.] [ N < w $ ' l.OX&X2X9XwX6X:XoX} B M ! ,.i.y.u.p.Q.~.~.^.^.(.{._.{.{.'.;.'.).{.",
"{.{.{.{.{.{.{.{.{.{.{.{.{._._._.(.(./.~.Q.K.h.s.j.0.9.,.:.,.0.1._ { z.#X,X*X+X} C m 3.,.t.i.u.p.p.Q.!.^.^.(._.(._.{.{.{.'.).{.{.",
"{.{.{.{.{.{.{.{.{.{.{.{.{.{.{._.(.(././.Q.Q.Q.J.H.p.p.p.p.u.p.9.! N [ c.A.A.v.' N 9 ,.r.y.y.p.p.Q.Q.~.^.(.(.{._._.{.{.{.{.{.{.{.",
"{.{.{.{.{.{.{.{.{.`.{.{.{.{.{._.(.(.^.^./.!.!.Q.Q.K.H.H.p.p.p.u.0.0.0.s.j.j.0.0.2.9.t.y.u.p.H.J.Q.!./.^.(.(._.{.{.{.{.{.{.{.{.{.",
"{._.).).`.{.{.{.{.{.{.{.{.{.{.{.{.(.(.(.(././.~.!.Q.Q.K.K.K.J.J.H.H.H.D.u.u.u.u.r.r.u.u.p.p.K.Q.!.~.^.(.(.{.{.{.{.{.{.{.{.{.{.{.",
"{.).;.;.).{.{.{.{.{.{.{.{._.{.{._._.(.(.(.(.^.^././.!.!.!.!.Q.Q.Q.Q.K.J.H.H.H.a.$.&.W.p.p.Q.Q.!.~.^.(.(.(.{.{.{.{.{.{.{.{.{.{.{.",
"{.).'.;.).{.{.{.{.{.{.{.{._.).)._.{.{._.(.(.^.(.^.^.^.^./.~.~./.~.!.!.Q.Q.K.K.F.*.$.W.F.Q.!.!.^.^.(.(._._.{.{.{.{.{.{.{.{.{.{.{.",
"`.`.'.).`.{.{.{.{.{.{.{.{.).;.;.).{.{.(.[.(.(.(.(.(.^.[.(.^.^.^.^./././.~.!.!.!.W.W.!.!.~.~.~.^.(.(._._.{.{.{.{.{.{.{.{.{.{.{.{.",
"_.{.{.`.{.{.{.{.{.{.{.{.{.).-.-.).{.{.{.{.{.{._.(.[.(.(.(.(.].^.(.^.^./.^./.~.~.~.~./.~.^.^.^.(.(.(.(.{.{.{.{.{.{.{.{.{.{.{.{.{."
};
