/* XPM */
static char *tiger_2[] = {
/* columns rows colors chars-per-pixel */
"64 64 20 1 ",
"  c black",
". c gray25",
"X c gray44",
"o c #805018",
"O c #906028",
"+ c #A87838",
"@ c #E3D02F",
"# c #E3D13B",
"$ c #E3D13C",
"% c #C09050",
"& c #E0B840",
"* c #E4D354",
"= c #E4D35E",
"- c #E5D45C",
"; c #E5D460",
": c #E6D563",
"> c #E0E878",
", c #909090",
"< c gray66",
"1 c #F8F8F8",
/* pixels */
";;;;;;;;;;;;;;;;;;;;;;;oooooo;;;;;;;;;;;;;;;;;;;;;;;;;;;;;;;;;;;",
";;;;;;;;;;;;;;;;;;;;;;;oooooo*;;;;;;;;;;;;;;;;;;;;;=**;;;;;;;;;;",
";;;;;;;;;;;;;;;;;;;;;oooo;;*$oo;;;;;;;;;;;;;;;;;;;;*$$*;;;;;;;;;",
";;;;;;;;;;;;;;;;;;;;;oooo;;*$oo;;;;;;;;;;;;;;;;;;;;*$$*;;;;;;;;;",
";;;;;;;;;;;;;;;;;;;;;oo;;;;=*ooooo;;;;;;;;;;;;;;;;;=**=;;;;;;;;;",
";;;;;;;=**;;;;;;;;;;;oo;;;;;;ooooo;;;;;;;;;;;;;;;;;;:;;;;;;;;;;;",
";;;;;;;*$$*;;;;;;;;oooo;;;;;;ooooo;;;;;;;;;;;;;;;;;;;;;;;;;;;;;;",
";;;;;;;*$$*;;;;;;;;oooo;;;;;;ooooo;;;;;;;;;;;;;;;;;;;;;;;;;;;;;;",
";;;;;;;=**=;;;;;;oo%%oo;;;;ooooooo;;;;;;;;;;;;;;;;;;;;;;;;;;;;;;",
";;;;;;;;;;;;;;;;;oo%%oo;;;;ooooooo;;;;;;;;;;;;;;;;;;;;;;;;;;;;;;",
";;;;;;;;;;;;;;;oo%%++oo;;oo%%&&%%%oo;;;;;;;;;;;;;;;;;;;;;;;;;;;;",
";;;;;;;;;;;;;;;oo%%++oo;;oo%%&&%%%oo;;;;;;;;;;;;;;;;;;;;;;;;;;;;",
";;;;;;;;;;;;;;;oo++oo;;oo%%&&&&&&&%%oo;;;;;;;;;;;;;;;;;;;=;;;;;;",
";;;;;;;;;;;;;;;oo++oo;;oo%%&&&&&&&%%oo;;;;;;;;;;;;;;;;;;:;**;;:;",
";;;;;;;;;;;;;;;oooo;;oo%%&&>>>>&&&%%++oo;;;;;;;;;;;;;;;;;*$$*;;;",
";;;;;;;;;;;;;;;oooo;;oo%%&&>>>>&&&%%++oo;;;;;;;;;;;;;;;;;*$$*;;;",
";;;;;;;;;;;;;;;oooo;;oo%%&&>>>>&&&%%++oo::;;:=;-;;;;;;;;;=**=:=:",
";;;;;;;;;;;;;;;oo;;;;oo&&>>>>&&&&&&&%%oo==;==:=:;;;;;;;:;;;;:=-=",
";;;;;;;;;;;;;;;oo;;;;oo&&>>>>&&&&&&&%%oo:==:::=:;;;;;;;;;:;;;;:;",
";;;;;;;;;;;;;;;;;;;oo%%&&>>&&>>&&&&&%%++oo:=;-:=;;;;;;;;;=;;;;;;",
";;;;;;;;;;;;;;;;;;;oo%%&&>>&&>>&&&&&%%++oo=-::-:;;;;;;;;;;;;;;;;",
";;;;;;;;;;;;;;;;;;;oo%%&&&&>>>>&&&&&++++oo=:=:;=;;;;;;;;;;;;;;;;",
";;;;;;;;;;;;;;;;;;;oo%%&&&&>>>>&&&&&++++oo:::=::;;;;;;;;;;;;;;;;",
";;;;;;;;;;;;;;;;;;;oo%%&&&&>>&&>>>&&++++++oo=;--;;;;;;;;;;;;;;;;",
";;;;;;;;;;;;;;;;;;;oo%%&&&&>>&&>>>&&++++++oo=:=::=:=;;:-;;-:;;;;",
";;;=**=;;;;;;;;;;oo%%%%&&>>&&>>&&&&&%%++++oooo:==:=;;;;=;;=:;;;;",
";;;*$$*;;;;;;;;;;oo%%%%&&>>&&>>&&&&&%%++++oooo::-:;;;;=:;=:=;;;;",
";;;*$$*;;;;;;;;;;oo%%%%&&>>>>>>&&&%%%%++++oo%%oo;;;;;;:=:-**=;;;",
";;;=**;;;;;;;;;;;oo%%%%&&>>>>>>&&&%%%%++++oo%%oo;;;;-;==;*$#*=:=",
";;;;;;;;;;;;;;;;;oo%%&&&&>>>>&&&&&%%%%++++oo%%oo;;;;:=::;*$$*:=:",
";;;;;;;;;;;;;;;;;oo%%&&&&>>>>&&&&&%%%%++++oo%%oo;;;;-::=;=**=;-:",
";;;;;;;;;;;;;;;oooo%%&&&&&&&&&&&&&%%++++++oooooo;;;;::=:;;:=:;;;",
";;;;;;;;;;;;;;;oooo%%&&&&&&&&&&&&&%%++++++oooooo;;;;;;;;;;;;;;;;",
";;;;;;;;;;;;;;;oooooo%%&&&&&&&&%%%%%++++oooo++oo;;;;;;;;;;;;;;;;",
";;;;;;;;;;;=;;;oooooo%%&&&&&&&&%%%%%++++oooo++oo;;;;;;;;;;;;;;;;",
";;;;;;;;;;;;;;;oooooooo%%ooooooooooo++oooooooo;;;;;;;;;;;;;;;;;;",
";;;;;;;;;;;;;;;oooooooo%%ooooooooooo++oooooooo;;;;;;;;;;;;;;;;;:",
";;;;;;;;;;;;;;;oo&&++oooo++&&&&+++++oooo++&&oo;;;;;;;;;;;;;;;=**",
";;;;;;;;;;;;;;;oo&&++oooo++&&&&+++++oooo++&&oo;;;;;;;;;;;;;;;*$@",
";;;;;;;;;;;;;;;oo++&&oo&&>>>>>>&&&%%++oo&&++oo;;;;;;;;;;;;;;;*$@",
";;;;;;;;;;;;;;;oo++&&oo&&>>>>>>&&&%%++oo&&++oo;;;;;;;;;;;;;;;=**",
";;;;;;;;;;;;;;;;:oo++&&&&>>>>&&&&&&&%%++++oooo;;;;;;;;;;;;;;;;;;",
";;;=;;;;;;;;;;;;=oo++&&&&>>>>&&&&&&&%%++++oooo;;;;;;;;;;;;;;;;;;",
"**=;:;;;;;;;;;;;-:;oo&&%%&&>>&&&&&&&OO++oooo;;;;;;;;;;;;;;;;;;;;",
"@#*:=:=-;;;;;;;;;;;oo&&%%&&>>&&&&&&&OO++oooo=:;;;;;;;;;;;;;;;;;;",
"@$*=:=;:;;;;;;;;;oo&&>>OO++&&++&&&OOOO++&&++oo;:;;;;;;;;;;;;;;;;",
"**=:;;;;;;;;;;;;;oo&&>>OO++&&++&&&OOOO++&&++oo=-;;;;;;;;;;;;;;;;",
";=;;;;;;;;;;;;;oo&&>>>>&&%%OOOOOOO&&%%++&&&&++oo;;;;;;;;;;;;;;;;",
";:=-;;;;;;;;;;;oo&&>>>>&&%%OOOOOOO&&%%++&&&&++oo;;;;;;;;;;;;;;;;",
":=;:;;;;;;;;;;;oo&&>>>>&&%%OOOOOOO&&%%++&&&&++oo;;;;;;;;;;;;;;;;",
";;;;;;;;;;;;;;;oo++&&&&OOOO&&++&&&OOOO++&&++oo  ;;;;;;;;;;;;;;;;",
";;;;;;;;;;;;;;;oo++&&&&OOOO&&++&&&OOOO++&&++oo  ;;;;;;;;;;;;;;;;",
";;;;;;;;;;;;;;;;=oo++%%>>&&>>&&&&&%%++&&++oo    ;;;;;;;;;;;;;;;;",
";;;;;;;;;;;;;;;;:oo++%%>>&&>>&&&&&%%++&&++oo    ;;;;;;;;;;;=**=;",
";;;;;;;;;;;;;;;;=  oooo&&&&       &&++%%oo      ;;;;;;;;;;;*$$*;",
";;;;;;;;;;;;;;;;:  oooo&&&&       &&++%%oo      ;;;;;;;;;;;*$$*:",
";::=;;;;;;;;;:=:=  oooo%%&&&&  &&&&&%%oooo      ;;;;;;;;;;;=**=;",
";-=:;;;;;;;;;=:=:  oooo%%&&&&  &&&&&%%oooo      ;;;;;;;;;;;;;;;;",
";;:=;;;;;;;;=:=-=  oo++oo,,XXooXXXXXoo%%%%oo  ;;;;;;;;;;;;;;;;;;",
":=**=;;:;;;;:=:::  oo++oo,,XXooXXXXXoo%%%%oo  ;;;;;;;;;;;;;;;;;;",
":*$$*:=-;;:-==::=  oooooo11,,oo,,,11&&++&&++oo  ;;;;;;;;;;;;;;;;",
"=*$$*=:=;;;=-;**=  oooooo11,,oo,,,11&&++&&++oo  ;;;;;;;;;;;;;;;;",
":;**=:;;;;;:=*$$*==      <<       <<..oo..oo..;;;;;;;;;;;;;;;;;;",
";-=:;;;;;;:-;*@@*:;      <<       <<..oo..oo..;;;;;;;;;;;;;;;;;;"
};
