/* XPM */
static char *tiger_0[] = {
/* columns rows colors chars-per-pixel */
"64 64 24 1 ",
"  c black",
". c gray25",
"X c gray44",
"o c #A80810",
"O c #805018",
"+ c #906028",
"@ c #A87838",
"# c #E3D02F",
"$ c #E3D13B",
"% c #E3D13C",
"& c #C09050",
"* c #E0B840",
"= c #E4D354",
"- c #E4D35E",
"; c #E5D45C",
": c #E5D460",
"> c #E6D562",
", c #E6D563",
"< c #E0E878",
"1 c #909090",
"2 c gray66",
"3 c #C0C0C0",
"4 c #D8D8D8",
"5 c #F8F8F8",
/* pixels */
"::::::::::::::::::::::::::OOOOOO::::::::::::::::::::::::::::::::",
"::::::::::::::::::::::::::OOOOOO:::::::::::::::::::-==::::::::::",
"::::::::::::::::::::::::OO@@@@@@OO:::::::::::::::::=%%=:::::::::",
"::::::::::::::::::::::::OO@@@@@@OO:::::::::::::::::=%%=:::::::::",
"::::::::::::::::::::::::OOOOOOOOOOOO:::::::::::::::-==::::::::::",
":::::::-==::::::::::::::OOOOOOOOOOOO::::::::::::::::::::::::::::",
":::::::=%%=:::::::::::::OOOO::::::::::::::::::::::::::::::::::::",
":::::::=%%=:::::::::::::OOOO::::::::::::::::::::::::::::::::::::",
":::::::-==-:::::::::::::OOOOOO::::::::::::::::::::::::::::::::::",
"::::::::::::::::::::::::OOOOOO::::::::::::::::::::::::::::::::::",
"::::::::::::::::::::::::::OOOOOO::::::::::::::::::::::::::::::::",
"::::::::::::::::::::::::::OOOOOO::::::::::::::::::::::::::::::::",
"::::::::::::::::::::::::::::OOOOOO:::::::::::::::::::::::-::::::",
"::::::::::::::::::::::::::::OOOOOO::::::::::::::::::::::,:==::,:",
"::::::::::::::::::::::::::OO&&**&&OO:::::::::::::::::::::=%%=:::",
"::::::::::::::::::::::::::OO&&**&&OO:::::::::::::::::::::=%%=:::",
"::::::::::::::::::::::::OO&&******&&OO-,,:,-,-,-:::::::::-==-,-,",
"::::::::::::::::::::::::OO&&******&&OO:-;---;,-,:::::::,::::,-;-",
"::::::::::::::::::::::OO&&**<<<<**&&&&OO,:-,:,;::::::::::,::::,:",
"::::::::::::::::::::::OO&&**<<<<**&&&&OO::,-,-,-:::::::::-::::::",
"::::::::::::::::::::::OO**<<<<****&&&&OO:::::,-,::::::::::::::::",
"::::::::::::::::::::::OO**<<<<****&&&&OO;,::;,,-::::::::::::::::",
"::::::::::::::::::::OO&&********&&&&&&@@OO,,,-,:::::::::::::::::",
"::::::::::::::::::::OO&&********&&&&&&@@OO,--,-;::::::::::::::::",
"::::::::::::::::::::OO&&**<<**&&&&&&@@@@OO,,-,-,,-,-::,;::;,::::",
":::-==-:::::::::::::OO&&**<<**&&&&&&@@@@OO-;-,,;-,-::::-::-,::::",
":::=%%=:::::::::OOOOOOOO&&OOOOOOOOOO@@OOOOOOOO,,;,::::-,:-,-::::",
":::=%%=:::::::::OOOOOOOO&&OOOOOOOOOO@@OOOOOOOO,-::::::,-,;==-:::",
":::-==::::::::::OO**@@OOOO@@****@@@@OOOO@@**OO,,::::;:--:=%$=-,-",
"::::::::::::::::OO**@@OOOO@@****@@@@OOOO@@**OO--::::,-,,:=%%=,-,",
"::::::::::::::::OO@@OO@@**<<<<<<****@@@@OO@@OO::::::;,,-:-==-:;,",
"::::::::::::::::OO@@OO@@**<<<<<<****@@@@OO@@OO::::::,,-,::,-,:::",
"::::::::::::::::::OOOO**++@@**@@**++++@@OOOO::::::::::::::::::::",
"::::::::::::::::::OOOO**++@@**@@**++++@@OOOO::::::::::::::::::::",
":::::::::::-::::::OO@@**22  ++++++  22@@@@OO::::::::::::::::::::",
"::::::::::::::::::OO@@**22  ++++++  22@@@@OO::::::::::::::::::::",
"::::::::::::::::::OO**<<55  **@@**  55@@**@@OO:::::::::::::::::,",
"::::::::::::::::::OO**<<55  **@@**  55@@**@@OO:::::::::::::::;==",
"::::::::::::::::OO**<<<<****      **@@@@****@@OO:::::::::::::=%#",
"::::::::::::::::OO**<<<<****      **@@@@****@@OO:::::::::::::=%#",
"::::::::::::::::OO@@**********  ****@@****@@OO::::::::::::::::==",
"::::::::::::::::OO@@**********  ****@@****@@OO::::::::::::::::::",
":::-::::::::::::::OO@@&&&&XX@@@@@@XX22&&@@OO::::::::::::::::::::",
"==-:,:::::::::::::OO@@&&&&XX@@@@@@XX22&&@@OO::::::::::::::::::::",
"#%=:-:::::::::::::OOOOOOOO33XXOOXX33&&OOOOOO::::::::::::::::::::",
"#%=:::::::::::::::OOOOOOOO33XXOOXX33&&OOOOOO::::::::::::::::::::",
"==-,::::::::::::OO@@OO@@OO5511oo1155OO@@OO@@OO::::::::::::::::::",
",-::::::::::::::OO@@OO@@OO5511oo1155OO@@OO@@OO::::::::::::::::::",
"-,-;::::::::::::..OOOO&&@@4411OO1144@@&&OOOO..::::::::::::::::::",
",-:,::::::::::::..OOOO&&@@4411OO1144@@&&OOOO..::::::::::::::::::",
"::::::::::::::::-,  OO**&&22@@@@@@22&&**@@      ::::::::::::::::",
"::::::::::::::::,-  OO**&&22@@@@@@22&&**@@      ::::::::::::::::",
"::::::::::::::::--  OO@@&&@@OOOOOO@@****OO      ::::::::::::::::",
"::::::::::::::::,-  OO@@&&@@OOOOOO@@****OO      :::::::::::-==-:",
"::::::::::::::::-,  OO&&&&OO      OO&&&&OO      :::::::::::=%%=:",
"::::::::::::::::,-  OO&&&&OO      OO&&&&OO      :::::::::::=%%=,",
":,,-:::::::::,-,::::OO**OO          OO**OO    :::::::::::::-==-:",
":;-,:::::::::-,-::::OO**OO          OO**OO    ::::::::::::::::::",
"::,-::::::::-,-;::OO&&&&@@OO      OO@@&&&&OO  ::::::::::::::::::",
",-==-::,::::,-,,::OO&&&&@@OO      OO@@&&&&OO  ::::::::::::::::::",
",=%%=,-;::-,--,,OO@@**@@**OO      OO**@@**@@OO  ::::::::::::::::",
"-=%%=-,-:,;-;:==OO@@**@@**OO      OO**@@**@@OO  ::::::::::::::::",
",:==-,:::::,-=%%..OO..OO..          ..OO..OO..::::::::::::::::::",
":;-,::::::,;:=##..OO..OO..          ..OO..OO..::::::::::::::::::"
};
