/* XPM */
static char * Top_xpm[] = {
"64 64 58 1",
" 	c #E5D460",
".	c #E4D35E",
"+	c #E4D354",
"@	c #E6D562",
"#	c #E3D13C",
"$	c #E6D563",
"%	c #071821",
"&	c #03161F",
"*	c #05161F",
"=	c #E3D13B",
"-	c #171E24",
";	c #171E23",
">	c #191F25",
",	c #161D23",
"'	c #7C4436",
")	c #894838",
"!	c #8A4938",
"~	c #8B4A39",
"{	c #8D4B3A",
"]	c #8C4A39",
"^	c #7D4436",
"/	c #9C503C",
"(	c #9C513D",
"_	c #9B503C",
":	c #9B4F3B",
"<	c #041720",
"[	c #262426",
"}	c #051720",
"|	c #9A4F3A",
"1	c #9A4F3C",
"2	c #0A1A23",
"3	c #E5D45C",
"4	c #161D22",
"5	c #232B33",
"6	c #302F34",
"7	c #CC9D9F",
"8	c #E4ADAE",
"9	c #E2ADAE",
"0	c #DAA2A0",
"a	c #A35A48",
"b	c #FFC2C2",
"c	c #F3B3B0",
"d	c #A55B49",
"e	c #FFC0C1",
"f	c #E2ACAD",
"g	c #F5B4B2",
"h	c #A75D4B",
"i	c #F3B4B2",
"j	c #E4AEAE",
"k	c #222A33",
"l	c #242326",
"m	c #E3D02F",
"n	c #945446",
"o	c #E9A7A3",
"p	c #F4B4B1",
"q	c #C99B9D",
"r	c #202831",
"s	c #E4D350",
"                                                                ",
"                           .++.                    .++.@        ",
"                           +##+$                   +##+         ",
"                           +##+                    +##+         ",
"                    %%%%%%%%%%%%%%%%%%%%%%%%       .++.@        ",
"       .++.         %%%%%%%%%%%%%%%%%%%%%%%%        @@          ",
"       +##+$        %&%&%%&%&%&%%&%&&%%&%&*%                    ",
"       +=#+         --;>,-------------------                    ",
"       .++.     %%&-')))!!~)))))))){!!!!!!]^-%%%                ",
"                %%%,]///(((////_//((((:(:(:!-<%%                ",
"                *%*,)/______/___________:((],<%%                ",
"                >;,[{/__________________(::][,,-  @.            ",
"            %%}-'!!]|___________________|(_|))]'-*%%    @.   .@ ",
"            %%}-]:(:____________________(|1_///{-%%%    @.++.@@ ",
"            %%}-!(______________________|/__/_/)-&%%   @ +##+  .",
"            %%}-!_______________________(|__///)-%%%     +##+  @",
"            2}*-)/____________________________/)-&%%  ..@3++.   ",
"            2}*,)/___________________________//)-%%%  @@    @   ",
"            **&4)/_____________________________),&**     @      ",
"            5556{______________________________~6555     .      ",
"        %%*57890a______________________________a09975*%%        ",
"        %%*59bbcd_____________________________|dcbb95*%%        ",
"        %%*59becd______________________________dcebf5**%        ",
"        %**5fbecd______________________________dcbef5*%%        ",
"        %%*5fbecd|_____________________________dgbbf5*%%        ",
"   .++. %%*59bech______________________________dgge95*%%        ",
"   +##+ }2*59bbcd|_____________________________dibb95*%%        ",
"   +##+ }}*57890a|_____________________________a0j975*%%@3++.   ",
"   .++.     5556{______________________________{6kkk.@.  +##+   ",
"            **&,)/____________________________/)-<<%@.@@ +##+@  ",
"     $      %%*,)///________________________///~-&%%.@@. .++.   ",
"            %%}>^){{________________________{))'-%%%@@.@.@  @   ",
"                -;,[{/____________________/{[,,-                ",
"                <%<,!/_____/____________///~,&%<                ",
"           .    %&&;)/__////________((__///);<%<                ",
"                --,['{))))))________]!!!))]'l;;-                ",
"            %%}-'))'l;-;>;,[]//___({[,,;--,l'])'-%%%           $",
"            %%}-~//{;<<%&%%,)//___(~,&&%&%<,]//{-&%%         .++",
"            }}}-)//],<&%&%&,)/____/),%%&%**>)//),%&%         +#m",
"            --,[{//][,----,[]/____/)[,,>--,[]//)[,--         +#m",
"        %%&-'))]__(|]))]))]]||______]!!!!!!]|__|{])',%%%     .++",
"        %%%,{///__|::/((//((_1____|___(:(::(__|_(//{-*%%        ",
"   .    &%*,)(||_(((_1|(__________________|(((//__/),<*%        ",
"++. @   >,,[{((|)!!]|_/|_________________/||{~))|_/)[,;;        ",
"m#+ %%}-']!]__/{[,,[]/____________________/{[,,[)//_]!!'-&%%    ",
"m#+ %%}-!((:__/),&%,)/____________________/),%%,)/__(((]-%%%    ",
"++.@%%}-!_____/),%&-)/____________________/),&%,)__|__/)-%%%    ",
"@.  %%}-!___addn>&%>)/____________________/)-%&>nhda/_/)-&%%    ",
"    %%}-)/|dopp05**,)/____________________({,*&50piod_(!,*%%    ",
"    %%}-)/(dpbb95**,)/____________________()-**59bbid_(!-*%%    ",
"    %%}-]/(dibb95*%,](____________________/)-%*59bbch_/)-*%%    ",
"    %%}-'])n089q5&&>!(____________________/)-&*r7990n)]'-%%%    ",
"        -->>555r2&*;!(________|/__________(!-%&2r555>,--        ",
"        }}*}&****2*>!(________(|__________(!,%2*******&%   .++. ",
"        }2%%%%}}2**;!:_______(:(////_1|(|(:!>&%%}%%%%%%%   +##+ ",
"        %}%%%%%%&2&,!(_____|]!!!)))]||(|(:(!,*%%%%%%%%%%   +##+$",
"             @  %%%-)/____({[,-->;,[)//___(!,*%%           .++. ",
"             .  %%&-)/___((),&%&&%%,)/____(!;&%%                ",
"  @             %%%-)(____/)-%%%2%*-)/____(!;&2%                ",
"@.++.          @%%&-{(____/)-&%%%%&-~/___((~;%%%                ",
"@+##+        .@@%%&-)/|(__(!,%%%*2&>!(____/)-*%%                ",
" +##+        .++%%%,)//|__(!>&%%2&2;!(____/)-%%%                ",
"@.++.@       +##%%&>)/|(|(:!;%*2&2&;!(____/)-%%%                ",
"            @smm%%%;]/(|(:(!,*2&2*&,!(____/)-&%%                "};
