/* XPM */
static char *monke_idle_64x64_5[] = {
/* columns rows colors chars-per-pixel */
"64 64 157 2 ",
"   c #02033B",
".  c #090A3B",
"X  c #13113A",
"o  c #191738",
"O  c #3C2B2E",
"+  c #3D362E",
"@  c #3F382F",
"#  c #2E2A31",
"$  c #24233E",
"%  c #2F2C3F",
"&  c #322632",
"*  c #312D33",
"=  c #312E3E",
"-  c #363132",
";  c #3F3830",
":  c #34313F",
">  c #44322E",
",  c #433C2F",
"<  c #403930",
"1  c #50472A",
"2  c #52492A",
"3  c #534436",
"4  c #584736",
"5  c #554D35",
"6  c #5A4937",
"7  c #524B3A",
"8  c #5A5137",
"9  c #575038",
"0  c #5A5238",
"q  c #6E4E25",
"w  c #6E5325",
"e  c #6E5825",
"r  c #715525",
"t  c #6D6024",
"y  c #706324",
"u  c #2E2C42",
"i  c #302E40",
"p  c #363342",
"a  c #393543",
"s  c #3E3A44",
"d  c #534D41",
"f  c #5B5546",
"g  c #5C5748",
"h  c #635C45",
"j  c #645D4A",
"k  c #67604B",
"l  c #756A42",
"z  c #7A6F41",
"x  c #91671E",
"c  c #9B6E1F",
"v  c #85791B",
"b  c #9D711F",
"n  c #817546",
"m  c #877A47",
"M  c #897E45",
"N  c #847A50",
"B  c #93811E",
"V  c #9A871B",
"C  c #9C891F",
"Z  c #BE8414",
"A  c #BEA614",
"S  c #BFA814",
"D  c #8D8129",
"F  c #9E8B20",
"G  c #94882A",
"H  c #BBAA22",
"J  c #C18714",
"K  c #C28813",
"L  c #CB8E11",
"P  c #CC9411",
"I  c #CB9811",
"U  c #D19310",
"Y  c #D09A10",
"T  c #C0A714",
"R  c #CBA711",
"E  c #C2A913",
"W  c #CCAB11",
"Q  c #CCB211",
"!  c #D0B410",
"~  c #ECA50A",
"^  c #EBAC0B",
"/  c #FCAF07",
"(  c #F0A70A",
")  c #F8AC08",
"_  c #ECBE0A",
"`  c #FEB206",
"'  c #FBBA07",
"]  c #F8B608",
"[  c #F8BC08",
"{  c #C4B331",
"}  c #D0BF34",
"|  c #ECC60A",
" . c #EBCD0B",
".. c #FFC306",
"X. c #FCCD07",
"o. c #F8C608",
"O. c #F8CC08",
"+. c #FCD107",
"@. c #FDDC07",
"#. c #F8D108",
"$. c #F8D808",
"%. c #FFE106",
"&. c #D6C438",
"*. c #E3D02F",
"=. c #E3D13B",
"-. c #8C8146",
";. c #8D8349",
":. c #958B47",
">. c #998D43",
",. c #91864A",
"<. c #94894B",
"1. c #998E4C",
"2. c #9D924E",
"3. c #9C9150",
"4. c #A0944D",
"5. c #A3984F",
"6. c #A29651",
"7. c #A59A53",
"8. c #AA9D54",
"9. c #ADA14A",
"0. c #B9AB46",
"q. c #B7A948",
"w. c #BBAD4C",
"e. c #BEB04E",
"r. c #AFA256",
"t. c #AEA158",
"y. c #B1A457",
"u. c #B6A956",
"i. c #B8AB57",
"p. c #B6A958",
"a. c #BCAE59",
"s. c #BFB15A",
"d. c #CBBB45",
"f. c #C1B34E",
"g. c #C7B84F",
"h. c #C9BA48",
"j. c #C4B651",
"k. c #C7B852",
"l. c #CBBC54",
"z. c #CBBD58",
"x. c #D1C14C",
"c. c #D8C74F",
"v. c #CFC055",
"b. c #D2C257",
"n. c #DAC953",
"m. c #D5C559",
"M. c #D8C75A",
"N. c #DCCB5C",
"B. c #E0CF5E",
"V. c #E4D354",
"C. c #E9D754",
"Z. c #E3D25F",
"A. c #E8D75C",
"S. c #E9D85D",
"D. c #E5D460",
"F. c #E8D760",
"G. c #EBDA61",
/* pixels */
"D.D.D.D.D.D.D.D.D.D.D.D.D.D.D.D.D.D.D.D.D.D.D.D.D.D.D.D.F.D.D.D.D.D.D.D.D.D.D.D.Z.D.D.D.D.D.F.D.D.D.D.D.D.D.D.D.D.D.D.D.D.D.D.D.",
"D.D.D.D.D.D.D.D.D.D.D.D.D.D.D.D.D.D.D.D.D.D.D.D.D.D.D.D.V.C.D.D.D.D.D.D.D.D.D.D.D.D.D.D.D.D.Z.D.D.D.Z.Z.V.V.D.D.D.D.D.D.D.D.D.D.",
"D.D.D.D.D.D.D.D.D.D.D.D.D.D.D.D.D.D.D.D.D.D.D.D.D.D.D.Z.=.=.V.D.D.D.D.D.D.D.D.D.D.D.D.D.D.D.D.D.D.D.F.V.=.=.V.D.D.D.D.D.D.D.D.D.",
"D.Z.D.D.D.D.D.D.D.D.D.D.D.D.F.D.D.D.D.D.F.D.D.D.D.D.F.V.=.=.V.F.D.D.D.D.D.D.D.D.D.D.D.D.D.D.D.D.D.D.D.V.=.=.V.D.D.D.D.D.D.D.D.D.",
"D.D.D.Z.D.D.D.D.D.F.D.D.D.D.D.Z.D.D.D.D.D.D.D.D.D.D.F.F.C.C.A.Z.D.B.Z.D.D.D.D.D.D.D.D.D.D.D.D.D.D.D.D.Z.V.V.Z.F.D.D.D.D.D.D.D.D.",
"D.D.D.D.D.D.D.Z.V.V.Z.D.D.D.D.D.D.D.D.D.D.D.D.D.F.N.a.t.y.y.r.a.m.D.Z.Z.B.D.D.D.D.D.D.D.D.D.D.D.D.D.D.D.D.F.D.D.D.D.D.D.D.D.D.D.",
"D.D.D.D.D.D.D.V.=.=.V.D.D.D.D.D.D.D.D.D.D.D.F.F.F.a.k a s s a j i.D.Z.D.D.D.D.D.Z.D.D.D.D.D.D.D.D.D.D.D.D.D.D.D.D.D.D.D.D.D.D.D.",
"D.D.D.D.D.F.D.V.=.=.V.D.D.D.D.D.D.D.D.D.D.D.F.G.G.t.s         a 8.B.Z.B.B.B.B.D.D.D.D.D.D.D.D.D.D.D.D.D.D.D.D.D.D.D.D.D.D.D.D.D.",
"Z.D.D.D.D.F.Z.Z.V.V.Z.D.D.D.D.D.D.D.D.D.D.F.F.G.G.y.s       . a 7.B.N.N.B.B.B.D.D.D.D.D.D.D.D.D.D.D.D.D.D.D.D.D.D.D.D.D.D.D.D.D.",
"D.D.D.D.D.Z.F.D.D.D.D.D.D.D.D.D.D.D.D.D.F.N.a.8.y.N =   . . . a 6.M.N.N.N.B.B.D.Z.D.D.D.D.D.D.D.D.D.D.D.D.D.D.D.D.D.D.D.D.D.D.D.",
"D.D.D.D.D.D.D.D.D.D.D.D.D.D.D.D.D.D.D.F.F.s.j p a u X   . . . : 4.m.b.b.M.N.B.D.B.D.D.D.D.D.D.D.D.D.D.D.D.D.D.D.D.D.D.D.D.D.D.D.",
"D.D.D.D.D.D.D.D.D.D.D.D.D.D.D.D.D.F.D.N.s.<.d ; + , , O o . . a 1.l.l.b.M.N.B.Z.D.Z.Z.D.D.D.D.D.D.D.D.D.D.D.D.D.D.D.D.D.D.D.D.D.",
"D.D.D.D.Z.F.D.D.D.D.D.D.D.D.F.D.D.F.F.a.j 8 V A A A E B - .   a :.l.l.z.b.N.N.B.B.D.Z.D.D.D.D.D.D.D.D.D.D.D.D.D.D.D.D.D.D.D.D.D.",
"D.D.D.D.D.D.D.D.D.D.D.D.D.D.D.D.D.F.F.8.p + A %.@.%.%.E ,     : ,.j.j.l.b.M.N.B.B.Z.D.Z.D.D.D.D.D.D.D.D.D.D.D.D.D.Z.V.V.Z.A.D.D.",
"F.Z.D.D.D.D.D.D.D.D.D.D.D.D.D.D.D.F.G.8.a + A %.@.@.%.E ,     p ,.f.g.l.b.M.N.B.B.B.D.D.D.D.D.D.D.D.D.D.D.D.D.D.D.V.=.=.V.D.D.D.",
"D.D.D.D.D.D.D.D.D.D.D.D.D.D.D.D.F.G.G.8.a + A @.@.@.@.S ,   . : -.f.g.k.b.M.N.B.D.D.D.D.D.D.D.D.D.D.D.D.D.D.D.D.F.V.=.=.V.D.D.D.",
"D.D.F.D.D.D.D.D.D.D.D.D.D.D.D.D.F.G.G.t.a - A @.@.@.@.T <     : -.w.j.k.b.M.N.N.B.B.B.D.D.D.D.D.D.D.D.D.D.D.D.D.D.Z.V.V.Z.D.D.D.",
"D.D.Z.D.D.D.D.D.D.D.D.D.D.D.D.M.s.y.y.<.0 t Q @.$.@.@.T ,     p -.w.j.l.b.M.N.B.D.D.D.D.Z.D.D.D.D.D.D.D.D.D.Z.F.F.Z.D.D.D.D.D.D.",
"D.D.D.D.F.Z.D.D.D.D.D.D.D.F.F.s.k a a 0 F !  .$.$.@.@.A ,     i M w.w.k.b.M.N.B.B.D.D.D.D.D.D.D.D.D.D.D.D.D.D.D.D.D.D.D.F.D.D.D.",
"D.D.D.D.D.D.D.D.D.D.D.D.D.F.F.y.a     < E %.@.$.$.@.@.T , .   p -.w.j.k.b.M.N.B.B.D.D.D.D.D.D.D.D.D.D.D.D.D.D.D.D.D.D.D.D.D.D.D.",
"D.D.D.D.D.D.D.D.D.D.D.D.D.F.F.r.a     , E %.@.$.$.@.@.T <     = M w.f.j.b.M.N.B.B.D.D.D.D.D.D.D.D.D.D.D.D.D.F.D.D.D.D.D.D.D.D.D.",
"D.D.D.D.D.D.D.D.D.D.D.D.D.F.F.r.s     3 S @.@.$.$.$.@.T <     = -.f.j.k.z.M.N.B.B.D.B.D.D.D.D.D.D.D.D.D.D.D.Z.D.D.D.D.D.D.D.D.D.",
"D.D.D.D.D.D.D.D.D.D.D.D.D.F.F.y.s     < T @.$.$.$.@.@.A <     u M f.f.l.z.m.N.B.B.D.D.D.Z.D.D.D.D.D.D.D.D.D.D.D.D.D.D.D.D.Z.D.D.",
"D.D.D.D.D.D.D.D.D.D.D.D.D.D.F.r.s     < T @.@.$.$.@.@.Q y < ; 5 y -.,.5.j.m.N.N.Z.B.D.Z.D.D.D.D.D.D.D.D.D.D.D.D.Z.D.D.D.D.D.D.D.",
"D.D.D.D.D.F.F.D.D.D.D.D.D.D.F.t.s     , T @.@.$.$.$.$. .Q E E F f i i f 8.N.N.N.B.D.D.D.D.D.D.D.D.D.D.D.D.D.D.D.F.D.D.D.D.D.D.D.",
"D.D.A.Z.V.V.Z.D.D.D.D.D.D.D.F.y.s     1 T @.@.$.$.$.$.$.@.%.%.E <     p >.h.M.N.B.D.B.D.D.D.D.D.D.D.D.D.D.D.D.D.D.D.D.D.D.D.D.D.",
"D.D.D.V.=.=.V.D.D.D.D.D.D.D.F.r.s     < A @.@.$.$.$.$.$.$.@.%.E <     * D { x.N.B.B.B.D.B.D.D.D.D.D.D.D.D.D.D.D.D.Z.F.D.D.D.D.D.",
"D.D.D.V.=.=.V.D.D.D.D.D.D.F.F.y.s     , A @.@.$.$.$.$.$.$.@.@.A <     * v T d.m.N.N.B.D.D.D.Z.D.D.D.D.D.D.D.D.D.D.Z.V.V.Z.D.D.D.",
"D.D.D.Z.V.V.Z.D.D.D.D.D.D.D.F.r.s     , E @.@.$.$.$.$.$.$.$.@.T ;     # v H h.m.N.N.N.B.Z.Z.D.D.D.D.D.D.D.D.D.D.D.V.=.=.V.D.D.D.",
"D.D.D.D.D.F.D.D.D.D.D.D.D.D.F.r.s     , E @.$.$.$.$.$.$.$.@.@.W t ; ; 2 y G q.v.m.N.N.D.Z.D.Z.D.D.D.D.D.D.D.D.D.D.V.=.=.V.F.D.D.",
"D.D.D.D.D.D.D.D.D.D.D.D.D.D.F.r.s   . , E @.@.$.$.$.$.$.$.$.$. .Q T E V 1 7 4.v.b.m.N.B.B.D.D.D.D.D.D.D.D.D.D.D.D.Z.V.V.Z.D.D.D.",
"D.D.D.D.D.D.D.D.D.D.D.D.D.D.F.r.s     , A @.@.$.$.$.$.$.$.$.$.$.@.%.%.S ; u <.l.b.m.N.N.B.D.D.Z.D.D.D.D.D.D.D.D.D.F.D.D.D.D.D.D.",
"D.D.D.D.D.D.D.Z.D.D.D.D.D.F.F.8.s     , T @.@.$.$.$.#.$.$.$.$.$.$.@.%.A ; u ,.l.v.b.M.N.B.D.D.B.D.D.D.D.D.D.D.D.Z.D.D.D.D.D.D.D.",
"D.F.Z.D.D.D.D.D.D.D.D.D.D.F.F.y.s     , A @.@.$.$.$.$.$.$.$.$.$.$.@.$.A < i -.j.l.v.M.N.B.B.Z.Z.D.D.D.D.D.D.D.D.D.D.D.D.D.D.D.D.",
"D.D.D.D.D.D.D.D.D.D.D.D.D.D.F.y.d     < T @.@.$.$.$.$.$.$.$.$.$.$.@.@.A > u -.j.k.v.m.M.N.B.D.D.D.D.D.D.D.D.D.D.D.D.D.D.D.D.D.D.",
"D.D.D.D.D.D.D.D.D.D.D.D.D.D.F.y.s     , T @.$.$.$.$.$.$.$.$.$.$.$.@.@.A + u ;.f.k.l.m.M.N.B.B.D.D.D.D.D.D.D.D.D.D.D.D.D.D.D.D.D.",
"D.D.D.D.D.D.D.D.D.D.D.D.D.D.F.8.s     < A @.@.$.$.$.$.$.$.$.$.$.$.$.$.A + u -.e.k.l.b.M.N.B.B.Z.B.D.D.D.D.D.D.D.D.D.D.D.D.F.D.D.",
"D.D.D.D.D.D.D.D.D.D.D.D.D.D.F.y.a     , E %.@.$.$.$.$.$.$.$.$.$.$.@.@.Q e 3 l -.;.6.k.M.N.N.B.D.Z.D.D.D.D.D.D.D.D.D.D.D.D.Z.V.V.",
"D.D.Z.F.D.D.D.D.D.D.D.D.D.F.F.t.a     , E %.$.$.$.$.$.$.$.$.$.$.$.@.$.| Y c 3 u u f 9.N.N.N.B.Z.B.Z.D.D.D.D.D.D.D.D.D.D.D.V.=.*.",
"D.D.D.D.D.D.D.D.D.D.D.D.D.D.F.i.j p p 9 F !  .O.O.#.#.$.$.$.$.$.#.O.O.X...I w & O 3 m y.z.N.N.N.B.D.D.D.B.D.D.D.D.D.D.D.D.V.=.*.",
"D.D.D.D.D.Z.F.D.D.D.D.D.D.D.D.m.i.8.7.-.5 w I ' ' [ #.$.$.$.$.#.o.] ] [ X._ I Z Z c 4 f r.N.N.N.B.B.D.D.B.D.D.D.D.D.D.D.D.Z.V.V.",
"D.D.D.D.D.D.D.D.D.D.D.D.D.Z.D.Z.Z.Z.Z.7.p O Z ` / ] O.$.$.$.$.#.] ) ) ] O.#.[ ` ` Z O i 1.N.n.N.N.B.B.B.D.D.D.D.D.D.D.D.D.D.D.F.",
"D.D.D.F.D.D.D.D.D.D.Z.D.D.D.B.Z.Z.Z.Z.7.p O Z / / ] #.$.$.$.$.O.] ) ) ] O.#.[ ` ` Z O u 1.b.M.n.N.N.B.D.D.B.D.D.D.D.D.D.D.D.D.D.",
"V.V.Z.Z.D.D.D.D.D.D.D.D.D.D.D.B.B.B.B.7.p O Z ` ` ] o.O.#.#.#.o.[ ] ] [ X.o.] ) ` L q 3 n 2.4.y.v.N.B.D.B.D.B.D.D.D.D.D.D.D.D.D.",
"*.=.V.D.D.D.D.D.D.D.D.D.D.D.D.B.B.Z.D.7.p O Z ` ` ` ] ] ] ] [ [ o.O.O.o.[ ] ) ) ) ~ P b 4 p : g r.N.B.B.D.D.B.D.D.D.D.D.D.D.D.D.",
"*.=.V.F.D.D.D.D.D.D.D.D.D.D.D.D.D.D.D.p.j 4 b J J P ^ ] ] ] ] [ o.#.O.o.] ) ) ) ) ` ` K >     p 3.M.N.N.B.B.D.Z.Z.D.D.D.D.D.D.D.",
"V.V.Z.Z.D.D.D.D.D.D.D.D.D.Z.B.D.D.Z.Z.m.i.;.6 O O w W +.#.O.X.o.[ ] [ ] ] ) ) ) ) ) ` K >     a 2.m.M.M.N.B.Z.Z.Z.D.Z.D.D.D.Z.F.",
"D.D.D.D.D.D.D.D.D.D.D.D.D.D.D.D.D.Z.D.D.D.8.a     @ E %.@.@.@.#.[ ) ) ) ) ) ) ) ) ` ` K >     : 2.v.b.M.N.B.Z.Z.Z.D.D.D.D.D.D.D.",
"D.D.D.D.D.D.D.D.D.D.D.D.D.D.D.D.Z.Z.D.D.Z.8.a     , T %.%.@.@.#.] ) ) ) ) ) ) ] ) ` ` K >     p :.l.v.v.M.N.Z.D.B.D.Z.D.D.D.D.D.",
"D.D.D.D.Z.F.D.D.D.D.F.Z.D.D.D.Z.D.B.Z.Z.Z.i.j p p 5 C A A A A R ^ ` / / ` ) / ` ` ( Y x &     : ,.g.v.v.m.N.B.Z.B.D.D.D.D.D.D.D.",
"D.D.D.D.D.D.D.D.D.D.D.D.D.D.D.D.D.D.Z.Z.Z.m.p.7.4.M 5 + + @ ; w U ` ` ` ` ` ` ` ` U r & X     : ,.f.l.l.m.M.N.B.Z.D.D.D.D.D.D.D.",
"D.D.D.D.D.D.D.D.D.D.D.D.D.D.D.D.D.D.D.D.D.Z.B.B.N.r.f i u u u 3 b K J J Z Z Z K K x & . $ : % 7 >.e.j.l.m.M.N.B.B.D.B.D.D.D.D.D.",
"D.D.D.D.D.D.D.D.Z.D.D.D.D.D.D.D.D.D.D.B.Z.Z.B.B.N.k.7.:.<.,.;.z 4 > > > > > > > > & o $ k -.-.:.9.e.j.z.b.M.N.B.B.D.D.D.D.D.D.D.",
"D.D.D.D.D.D.D.D.F.D.D.D.D.D.D.D.D.D.D.D.D.Z.B.N.N.m.b.b.l.l.k.:.i         .           = -.q.0.q.e.e.j.v.m.M.N.B.B.D.D.V.V.V.D.D.",
"D.D.D.D.D.D.D.D.D.D.D.D.D.D.D.D.D.D.D.Z.Z.Z.Z.B.N.N.M.b.b.z.l.>.i       .             * -.q.q.w.e.j.l.v.m.N.B.B.D.Z.Z.V.=.=.V.D.",
"D.D.D.D.D.D.D.D.D.D.D.D.D.D.F.Z.D.D.D.D.D.D.Z.Z.B.N.N.m.b.b.b.8.f p p p : : : p : i i d :.q.q.i.e.l.v.b.M.B.B.D.B.D.Z.C.=.c.V.D.",
"D.D.D.D.D.D.D.D.D.D.D.D.D.D.D.D.D.D.D.D.D.Z.D.Z.D.B.N.N.M.m.m.k.r.4.2.1.:.,.-.-.-.-.-.:.9.q.e.e.l.l.b.M.N.N.B.Z.D.D.Z.Z.V.V.Z.D.",
"D.D.D.D.D.D.D.D.D.D.D.D.D.D.D.D.D.D.Z.F.D.D.Z.D.D.B.B.B.N.N.N.M.N.m.b.z.k.g.f.f.e.e.w.e.e.e.j.k.l.m.m.N.N.B.D.Z.D.D.D.D.D.D.D.D.",
"D.D.D.D.D.D.D.D.D.D.D.D.D.D.D.D.D.D.D.D.D.D.D.Z.D.B.B.B.D.B.N.N.N.n.m.b.b.l.k.g.j.j.j.j.j.k.k.l.b.m.N.N.B.D.Z.D.D.D.D.D.D.D.D.D.",
"F.Z.V.V.Z.F.D.D.D.D.D.Z.D.D.D.D.D.D.D.D.D.D.D.D.D.D.D.D.D.B.B.B.N.N.N.m.b.z.l.g.h.h.g.l.l.l.v.m.m.N.N.B.B.D.Z.D.D.D.D.D.D.D.D.D.",
"D.V.=.=.V.D.D.D.D.D.D.D.F.Z.F.D.F.Z.D.D.D.D.D.D.D.D.D.B.D.B.D.B.Z.B.N.N.N.m.b.x.&.} x.m.m.m.m.N.N.N.B.D.Z.D.Z.D.D.D.D.D.D.D.D.D.",
"F.V.=.=.V.D.D.D.D.D.D.D.D.Z.V.V.Z.D.D.D.D.D.D.D.D.D.D.D.D.B.B.D.D.B.B.B.N.N.N.c.&.&.x.M.M.M.N.N.B.B.B.D.Z.D.D.D.D.D.D.D.D.D.D.D.",
"D.Z.Z.V.Z.D.D.D.D.D.D.D.D.V.=.=.V.D.D.D.Z.D.D.D.D.D.D.D.D.D.D.B.D.B.Z.Z.B.B.N.N.n.n.N.N.N.N.B.B.B.B.D.D.D.D.D.D.D.D.D.D.D.D.D.D.",
"Z.D.D.D.D.D.D.D.D.D.D.D.D.V.*.*.V.D.D.D.D.D.D.D.D.D.D.D.D.D.D.D.D.Z.Z.Z.Z.B.B.B.B.B.N.B.N.B.B.D.D.D.B.D.D.D.D.D.D.D.D.D.D.D.D.D."
};
