/* XPM */
static char *monke_idle_64x64_7[] = {
/* columns rows colors chars-per-pixel */
"64 64 164 2 ",
"   c #02033B",
".  c #07083B",
"X  c #090A3B",
"o  c #110E38",
"O  c #161437",
"+  c #14143B",
"@  c #1A1838",
"#  c #201F3E",
"$  c #3F2D2F",
"%  c #3D362E",
"&  c #3F382F",
"*  c #2D2132",
"=  c #2D2B3E",
"-  c #24233E",
";  c #312E3E",
":  c #322932",
">  c #363133",
",  c #383231",
"<  c #3F3830",
"1  c #34313F",
"2  c #412E2E",
"3  c #43312F",
"4  c #443C2F",
"5  c #402F30",
"6  c #403930",
"7  c #4C3D34",
"8  c #49412E",
"9  c #584E2A",
"0  c #544B2A",
"q  c #4D4634",
"w  c #524234",
"e  c #544C35",
"r  c #594937",
"t  c #544538",
"y  c #5C4C39",
"u  c #5E563A",
"i  c #6D4D24",
"p  c #6D5824",
"a  c #6C5724",
"s  c #705325",
"d  c #715B25",
"f  c #6E6025",
"g  c #716325",
"h  c #72663F",
"j  c #73693F",
"k  c #2E2C41",
"l  c #312E40",
"z  c #363342",
"x  c #393643",
"c  c #3D3944",
"v  c #494542",
"b  c #4D4941",
"n  c #524C41",
"m  c #565045",
"M  c #5D5746",
"N  c #595549",
"B  c #645D49",
"V  c #635D42",
"C  c #67604B",
"Z  c #68604B",
"A  c #7D7343",
"S  c #7F764C",
"D  c #8F641D",
"F  c #9A6F1F",
"G  c #9C701F",
"H  c #837622",
"J  c #9F7220",
"K  c #A07420",
"L  c #877C45",
"P  c #897E45",
"I  c #8A7E4A",
"U  c #94821D",
"Y  c #99861E",
"T  c #9C891D",
"R  c #BF8514",
"E  c #BEA614",
"W  c #A08D20",
"Q  c #AD9E2E",
"!  c #A0922C",
"~  c #C18714",
"^  c #C38913",
"/  c #CD8F11",
"(  c #CE9311",
")  c #CE9B11",
"_  c #D09210",
"`  c #D09B10",
"'  c #CDA711",
"]  c #C2A913",
"[  c #C9AF12",
"{  c #CDB211",
"}  c #D1B510",
"|  c #EDA50A",
" . c #EAAA0B",
".. c #FCAF07",
"X. c #F8AD08",
"o. c #EABC0B",
"O. c #FEB207",
"+. c #FDBB07",
"@. c #F8B608",
"#. c #F8BD08",
"$. c #EDC60A",
"%. c #EBCD0B",
"&. c #FCC807",
"*. c #F8C208",
"=. c #F8CD08",
"-. c #FDD207",
";. c #FDDC07",
":. c #F0D10A",
">. c #F8D208",
",. c #F8D808",
"<. c #FFE106",
"1. c #D5C436",
"2. c #DBC939",
"3. c #DBC836",
"4. c #E3D02F",
"5. c #E1CF3A",
"6. c #E3D13B",
"7. c #8B8246",
"8. c #8E844A",
"9. c #908645",
"0. c #948946",
"q. c #92864B",
"w. c #958A4B",
"e. c #998E4C",
"r. c #9D924F",
"t. c #A79B47",
"y. c #A2964E",
"u. c #A99D4B",
"i. c #A29650",
"p. c #A49851",
"a. c #AA9D54",
"s. c #ADA04A",
"d. c #B5A747",
"f. c #B4A749",
"g. c #B7A94A",
"h. c #BBAD4C",
"j. c #BFB04E",
"k. c #AFA256",
"l. c #AEA258",
"z. c #B1A456",
"x. c #B9AB56",
"c. c #BCAF59",
"v. c #BEB051",
"b. c #C1B24F",
"n. c #CEBF4A",
"m. c #C4B551",
"M. c #C7B853",
"N. c #CBBC54",
"B. c #CEBF59",
"V. c #D3C34D",
"C. c #D9C94F",
"Z. c #CFC055",
"A. c #CFC05A",
"S. c #D2C357",
"D. c #DECD51",
"F. c #D6C659",
"G. c #DCCB5C",
"H. c #E0CF52",
"J. c #E0CF5E",
"K. c #E4D353",
"L. c #E3D25E",
"P. c #E5D460",
"I. c #E8D760",
"U. c #EBD960",
/* pixels */
"P.P.P.P.P.P.P.P.P.P.P.P.P.P.P.P.I.P.P.P.P.P.P.P.P.P.P.P.I.I.I.P.P.P.P.P.P.P.P.P.P.P.P.P.P.P.P.P.P.P.L.P.P.I.P.P.P.P.P.P.P.P.P.P.",
"P.P.P.P.P.P.P.P.P.P.P.P.P.P.P.P.L.P.P.P.P.P.P.P.P.P.L.L.K.K.P.P.P.P.P.P.P.P.P.P.P.P.P.P.P.P.P.P.P.P.P.L.K.K.P.P.P.P.P.P.P.P.P.P.",
"P.P.P.P.P.P.P.P.P.P.P.P.P.P.P.P.P.P.P.P.P.P.P.P.P.P.I.K.6.6.K.P.P.P.P.P.P.P.P.P.P.P.P.P.P.P.P.P.P.P.P.K.6.6.K.P.P.P.P.P.P.P.P.P.",
"P.L.P.P.P.P.P.P.P.P.P.P.P.P.P.P.P.P.P.P.P.P.L.P.P.P.I.K.6.6.K.P.P.P.P.I.I.I.I.P.P.P.P.P.L.P.P.P.P.P.P.K.6.6.K.P.P.P.P.P.P.P.P.P.",
"P.P.P.L.P.P.P.P.P.I.P.P.P.P.P.P.P.P.P.P.P.P.L.P.P.P.P.L.K.K.L.P.P.I.L.L.I.I.I.I.P.P.P.P.P.P.P.P.P.P.P.L.K.K.L.P.P.P.P.P.P.P.P.P.",
"P.P.P.P.P.P.I.L.K.K.L.P.P.P.P.P.P.P.P.P.P.P.I.P.P.P.P.P.P.P.P.P.I.G.M.k.z.l.k.c.F.L.P.J.L.L.L.P.P.P.P.P.P.P.P.P.P.P.P.P.P.P.P.P.",
"P.P.P.P.P.P.P.K.6.6.K.P.P.P.P.L.L.P.P.P.P.P.P.P.P.P.P.P.P.I.P.I.I.c.C c c c x B x.L.L.J.J.P.P.P.P.P.P.P.P.P.P.P.P.P.P.P.P.P.P.P.",
"P.P.P.P.P.P.P.K.6.6.K.P.P.P.P.I.P.P.P.P.P.P.P.P.P.P.P.P.P.P.P.I.I.l.x         c a.L.L.J.L.J.J.P.P.P.P.P.P.P.P.P.P.P.P.P.P.P.P.P.",
"P.P.P.P.P.P.L.L.K.K.L.P.P.P.P.P.P.P.P.P.P.P.P.P.P.P.P.P.P.P.P.I.I.l.c     .   x a.L.L.G.J.J.L.L.P.P.P.P.P.P.P.P.P.P.P.P.P.P.P.P.",
"P.P.P.P.P.P.I.P.I.P.P.P.P.P.P.P.P.P.P.P.P.P.P.P.P.P.P.P.P.P.P.I.I.l.c . X X . k L p.a.z.S.J.J.L.J.J.P.P.P.P.P.P.P.P.P.P.P.P.P.P.",
"P.P.P.L.P.P.P.P.I.P.P.P.P.P.P.P.P.P.P.P.P.I.P.P.P.P.P.P.P.P.P.P.I.k.c X X X   + ; c x B z.G.J.L.J.P.P.J.P.P.P.P.P.P.P.P.P.P.P.P.",
"P.P.P.P.P.P.P.P.P.P.P.P.P.P.P.P.P.L.P.P.P.L.P.P.P.P.P.P.P.L.P.I.I.z.c .   @ , > O     1 i.D.G.G.J.J.J.P.P.P.P.P.P.P.P.P.P.P.P.P.",
"P.P.P.P.P.P.P.L.P.P.P.P.P.P.P.P.P.P.P.P.P.P.P.I.P.P.P.P.P.P.P.P.I.z.c   . , Y U >     z r.F.F.G.G.J.P.J.J.P.P.P.P.I.P.P.P.P.L.I.",
"P.P.I.L.P.P.P.P.P.P.P.P.P.P.P.P.P.P.P.P.P.P.P.L.L.P.P.P.P.P.P.I.I.k.c     8 { [ 4     z r.S.F.F.G.J.J.P.P.P.P.P.P.L.K.K.L.L.P.P.",
"P.P.P.P.P.P.P.P.P.P.P.P.P.P.P.P.P.P.P.P.P.P.P.P.P.P.P.P.P.P.I.L.L.z.c     8 [ [ 4     z e.n.N.S.F.G.G.P.J.P.P.P.P.K.6.6.K.P.P.P.",
"P.P.P.P.P.P.P.P.P.P.P.P.P.P.P.P.I.L.P.P.P.P.P.P.P.P.P.P.P.L.I.I.U.z.c     6 ] } g 4 % e L r.v.B.F.G.G.J.P.J.P.P.I.K.6.6.K.P.P.P.",
"P.P.P.P.P.P.P.P.I.P.P.P.P.P.P.P.P.P.P.P.P.P.P.P.P.P.P.P.P.I.I.U.U.z.x     4 ] :.} E ] Y e m y.Z.S.F.G.J.J.P.P.P.P.L.K.K.L.P.P.P.",
"P.P.P.P.P.P.P.L.L.P.P.P.P.P.P.P.P.P.I.L.P.P.P.P.P.P.P.P.P.G.c.l.z.w.u % % g { ;.<.<.<.E & = q.N.S.S.G.J.J.P.P.J.P.P.P.P.I.P.P.P.",
"P.I.P.P.P.P.P.P.P.P.P.P.P.P.P.P.P.P.P.P.P.I.P.P.P.P.P.P.P.c.Z x c u W ] E { %.,.;.;.<.E & = q.M.B.S.F.G.J.P.L.L.P.P.P.P.P.P.P.P.",
"P.L.P.P.P.P.P.P.P.P.P.P.P.P.L.P.P.P.P.P.P.L.P.P.P.P.P.I.I.z.c     6 ] <.;.;.,.,.,.;.;.E & k 8.N.N.S.F.G.J.L.L.L.L.P.P.P.P.P.P.P.",
"P.P.P.P.P.P.P.P.I.P.P.P.P.P.P.P.P.P.P.P.P.P.P.P.P.P.P.I.L.k.c     4 ] ;.;.;.,.,.,.;.;.E % k 8.m.N.B.F.G.G.J.L.L.P.P.P.P.P.P.P.P.",
"P.P.P.P.P.P.P.P.L.P.P.P.P.P.L.P.P.P.P.P.P.P.P.P.P.P.P.I.U.k.c     6 ] ;.;.,.,.,.,.,.,.{ f e A 8.w.u.N.F.G.G.J.L.P.P.L.P.P.P.P.P.",
"P.P.P.P.P.P.P.L.P.P.P.P.P.P.P.P.P.I.P.P.P.P.P.P.P.P.P.P.I.z.c .   4 E ;.,.,.,.,.,.,.,.:.{ T y l l M a.F.G.G.L.L.L.P.P.P.P.P.P.P.",
"P.P.P.P.P.P.P.I.P.P.P.P.P.P.P.P.P.L.P.P.P.L.P.P.P.P.P.I.I.z.c     4 ] ;.;.,.,.,.,.,.,.;.<.] 4     z y.F.F.G.J.L.L.J.P.P.P.P.P.P.",
"P.P.P.P.I.P.P.P.P.P.P.P.P.P.P.P.P.P.P.P.P.P.P.P.P.P.P.I.I.l.c     6 ] ;.;.,.,.,.,.,.,.;.;.] 6     1 r.F.F.G.G.J.J.P.L.P.P.P.P.P.",
"P.P.L.L.K.K.L.P.P.P.P.P.P.P.P.P.P.P.P.P.P.P.P.P.P.P.L.L.K.s.c     6 E ;.;.,.,.,.,.,.,.;.;.E 4   . 1 e.N.F.F.G.J.J.P.P.P.P.P.P.P.",
"P.P.I.K.6.6.K.P.P.P.P.P.P.P.P.P.L.P.P.P.P.P.P.P.P.P.I.K.2.! >     6 E ;.;.>.,.,.>.,.,.;.;.E 6     1 w.M.N.S.F.G.J.L.L.P.J.P.P.P.",
"P.P.I.K.6.6.K.P.P.P.P.P.I.P.P.P.I.P.P.P.P.P.P.L.P.P.P.V.Q H 9 < 6 g { ;.;.,.,.,.,.,.,.;.;.E 6 . . x q.m.n.S.S.G.J.L.H.K.L.P.P.P.",
"P.P.P.L.K.K.L.P.P.P.P.P.P.P.P.P.P.P.L.I.P.P.P.P.P.I.I.x.u 0 Y E E [ %.,.,.,.,.,.,.,.,.;.;.] 4     1 9.b.m.B.S.G.G.H.5.5.K.P.P.P.",
"P.P.P.P.I.P.P.P.P.P.P.P.P.P.P.P.P.P.P.P.P.P.P.P.P.I.I.a.z < E <.<.;.,.,.,.,.,.,.,.,.,.,.;.] 4     1 7.b.m.N.S.G.G.H.5.5.K.P.P.P.",
"P.P.P.P.P.P.P.P.P.P.P.P.P.P.P.P.P.P.P.P.P.P.P.P.P.I.I.l.x < E <.;.;.,.,.,.,.,.,.,.,.,.;.;.] 4   . 1 7.j.b.N.B.G.G.J.H.K.J.P.P.P.",
"P.P.P.P.P.P.P.P.P.P.P.P.P.P.P.P.P.P.P.P.P.P.P.P.P.I.U.l.x , E ;.;.,.,.,.,.,.,.>.,.,.,.;.;.E 4     1 7.h.b.M.S.G.G.J.J.P.L.P.P.P.",
"P.P.P.P.P.P.P.P.P.P.P.P.P.P.P.P.P.P.P.P.P.P.P.P.U.U.U.l.x , E ;.;.,.,.,.,.,.,.>.,.,.,.;.;.E 8     z 7.h.b.m.S.G.G.G.P.P.P.L.P.P.",
"P.P.P.P.P.P.P.P.P.P.P.P.P.P.P.P.P.P.P.P.P.P.P.G.m.l.z.q.y a ] ;.;.,.,.,.,.,.,.,.,.,.,.,.;.E 6   . z 7.h.b.M.S.G.G.G.J.J.J.P.P.P.",
"P.P.P.P.P.P.P.P.P.P.P.P.P.P.P.P.P.P.P.P.P.P.I.b.Z x x y J ) $.;.,.,.,.,.,.,.,.,.,.,.,.;.;.E 6     1 7.h.b.m.B.F.G.J.J.P.P.L.P.P.",
"P.P.P.P.P.P.P.P.P.P.P.P.P.P.P.P.P.P.P.P.P.I.U.l.x     5 ~ +.-.,.,.,.,.,.,.,.,.,.,.,.,.;.;.E 6 X   ; 7.h.b.m.S.F.G.J.J.P.L.P.P.P.",
"P.P.P.P.P.P.P.P.P.P.P.P.P.P.P.P.P.P.P.P.P.I.I.l.c     5 R +.-.;.,.,.,.,.,.,.,.,.,.,.,.;.;.] 6   . 1 7.g.j.M.S.F.G.J.J.L.L.L.P.P.",
"P.P.P.P.P.P.P.P.P.P.P.P.P.P.P.P.P.P.I.I.I.U.U.l.c     5 R +.*.>.=.>.,.,.,.,.,.,.,.,.,.;.<.] 8     1 7.h.b.m.B.G.G.J.L.P.P.L.K.K.",
"P.P.P.P.P.P.P.P.P.P.P.P.P.P.P.P.P.P.I.I.U.U.U.z.c     $ R O.@.@.@.#.>.,.,.,.,.,.,.,.;.;.<.] 4     1 7.h.b.N.S.F.G.J.J.P.L.K.5.4.",
"P.P.P.P.P.P.P.P.P.P.P.P.P.P.P.P.P.G.c.l.l.z.z.q.m $ $ s ( +.+.@.@.#.*.>.=.=.>.>.=.=.=.$.} U >   . 1 7.h.b.m.S.G.G.J.J.P.P.K.6.4.",
"P.P.P.L.P.P.P.P.P.P.P.P.P.P.I.I.I.c.B c c c c y K ~ R ) o.=.>.>.=.$.#.@.@.#.>.>.#.+.+.) d > + X . 1 7.h.m.M.S.G.G.J.L.L.L.J.K.K.",
"P.P.I.P.P.P.P.P.P.P.P.P.I.I.U.U.U.l.x         5 ^ O.O.+.=.;.,.,.,.>.@.X.X.@.=.>.@.X...R ,     X . ; 7.h.m.N.S.F.G.J.J.L.P.P.P.P.",
"P.P.P.P.P.P.P.P.P.P.P.P.I.U.I.U.U.z.c         5 ~ O.X.+.=.,.,.,.;.=.@.X.X.@.=.>.@.....R 5     .   ; P h.m.M.S.G.G.J.J.P.L.P.P.P.",
"K.K.L.P.P.P.P.P.P.P.P.G.c.l.l.l.l.q.m 3 5 5 5 i / O.X.@.*.>.,.,.,.>.#.@.@.#.&.*.@.O.O.~ 5 o - 1 ; n w.h.m.N.S.G.G.J.J.L.P.P.P.P.",
"4.6.K.P.P.P.P.P.P.I.I.m.B x c c x y J ^ ~ R R /  .X.X.X.O.*.>.,.,.,.>.=.=.*.#.@.O.O.O.~ $ k u 7.P 0.f.h.m.N.S.F.G.J.J.L.P.L.P.P.",
"4.6.K.I.P.P.P.P.P.I.I.l.c     o * i _ O.O.O.O...O.X.X.X.X.@.$.=.=.=.,.,.,.,.*. .( ~ ~ F 7 v 8.f.g.g.h.b.m.N.S.G.G.J.L.L.L.P.P.P.",
"K.K.L.L.P.P.P.P.P.I.I.l.c     : D ( | O.........X.X.X.X.X.X.O.@.@.#.>.,.,.;.>.' s $ $ w h 9.t.f.g.h.c.b.M.B.F.G.J.L.L.L.L.L.P.P.",
"P.I.P.P.P.P.P.P.P.I.U.a.c     3 ^ O.O.X.X.X.X.X.X.X.X.X.X.X.X.X.X.@.=.,.,.;.<.E <     k L d.f.f.g.b.b.N.B.F.F.G.J.L.L.L.P.P.P.P.",
"P.P.P.P.P.P.P.P.P.I.I.l.c     2 ^ O.O.X.X.X.X.X.X.X.X.X.X.X.X.X.X.@.=.;.;.;.<.] <     = L g.g.h.b.m.m.B.S.F.G.J.P.J.L.P.P.P.P.P.",
"P.P.P.P.P.P.P.L.P.I.P.x.B x z r F / | O...O...........O.O.X.O.X.X.+.*.-.>.$.{ Y e = = n 9.g.h.h.m.N.B.S.F.G.G.J.J.P.P.P.P.P.P.P.",
"P.P.P.P.P.P.P.P.P.P.L.F.x.a.a.I r i / O.O.O.O.O...O.O.O.O.O.O.O.O.O.+.+.+.` a q h L L 9.u.g.h.m.N.N.S.F.G.G.J.J.P.L.P.P.P.P.P.P.",
"P.P.P.P.P.P.P.P.P.P.P.L.L.L.L.z.N w F ~ ~ R R R R R R R R ^ R R R ~ R ~ ^ F 7 q 8.d.g.g.h.h.m.m.N.S.G.G.G.J.L.P.P.P.P.P.P.P.P.P.",
"P.P.P.P.P.P.P.P.P.P.L.L.L.L.J.B.a.L r 2 3 3 2 4 3 3 4 3 3 3 3 3 3 5 3 3 2 w h 8.t.d.g.h.h.m.m.N.S.F.G.G.J.L.L.L.P.P.P.P.P.P.P.P.",
"P.P.P.P.P.P.P.P.P.P.L.L.L.L.G.G.G.i.z         .               .   . .     = L d.d.f.h.h.m.M.B.S.F.G.G.J.L.L.P.L.P.P.P.P.H.K.L.P.",
"P.P.P.P.P.P.P.P.P.P.L.L.L.L.G.G.D.i.z       .     .   .     .             = L g.g.h.h.m.M.N.S.F.G.G.L.L.L.L.P.P.P.P.P.K.6.6.K.I.",
"P.P.P.P.P.P.P.P.P.P.L.L.L.L.J.L.G.z.B x z x 1 z z 1 1 1 1 1 1 1 1 = z z ; n w.h.h.v.m.M.B.S.G.G.G.J.L.L.P.P.P.P.P.P.P.K.6.6.K.P.",
"P.P.P.P.P.P.P.P.P.P.P.L.L.P.L.L.G.A.z.p.r.r.w.q.8.7.7.7.7.7.7.7.7.7.7.7.7.0.s.h.v.m.N.B.S.G.G.G.J.J.L.P.P.P.P.P.P.P.P.L.K.K.L.P.",
"P.P.P.P.P.P.P.P.P.P.P.P.P.L.L.L.L.G.G.G.F.S.N.m.b.j.j.j.h.h.h.h.h.h.h.h.j.h.j.j.m.M.N.S.F.G.G.G.L.P.L.L.P.P.P.P.P.P.P.P.P.I.P.P.",
"P.P.P.I.P.P.P.P.L.P.P.P.P.P.P.L.L.J.L.G.F.F.S.n.m.m.m.j.b.b.j.b.j.b.b.m.m.b.m.m.N.N.S.F.G.G.P.L.P.L.P.P.P.P.P.P.P.P.P.P.P.P.P.P.",
"P.P.K.K.L.P.P.P.P.P.P.P.P.P.P.P.L.L.J.G.G.F.S.Z.Z.N.N.M.N.M.M.M.M.M.M.N.N.N.N.N.n.V.F.G.G.G.P.P.L.P.L.P.P.P.P.P.P.P.P.P.P.P.P.P.",
"P.K.6.6.K.P.P.P.P.P.P.P.P.L.P.P.L.L.L.J.G.G.F.F.S.S.S.S.S.S.S.S.S.S.S.S.S.S.F.V.1.1.D.G.J.L.L.L.P.P.P.P.P.P.P.P.P.P.P.P.P.P.P.P.",
"P.L.6.6.K.P.I.P.P.P.P.P.P.L.K.K.L.L.L.L.L.J.G.G.G.F.F.G.G.G.G.F.G.F.G.G.G.F.G.C.2.2.D.J.P.L.P.L.P.P.P.P.P.P.P.P.P.P.P.P.P.P.P.P.",
"P.L.K.K.L.P.P.P.P.P.P.P.P.K.5.5.K.P.L.L.L.J.L.G.J.G.J.G.G.G.G.G.G.G.G.G.G.G.G.G.H.H.J.J.J.P.P.P.L.P.P.P.P.P.P.P.P.P.P.P.P.P.P.P.",
"P.P.P.P.P.P.P.P.P.P.P.P.P.K.4.4.K.P.P.L.L.L.L.L.J.G.G.J.G.G.J.J.G.G.G.J.G.J.G.J.J.P.L.L.P.P.P.P.P.P.P.P.P.P.P.P.P.P.P.P.P.P.P.P."
};
