/* XPM */
static char *monke_idle_64x64_6[] = {
/* columns rows colors chars-per-pixel */
"64 64 140 2 ",
"   c #02033B",
".  c #08083B",
"X  c #120F38",
"o  c #0E103F",
"O  c #11113E",
"+  c #191738",
"@  c #3C2B2E",
"#  c #3D362E",
"$  c #3F382E",
"%  c #2C2A3F",
"&  c #322532",
"*  c #312E3F",
"=  c #363132",
"-  c #34313F",
";  c #402E2F",
":  c #44322E",
">  c #443C2F",
",  c #403930",
"<  c #4F4035",
"1  c #4F4835",
"2  c #524234",
"3  c #544C35",
"4  c #594937",
"5  c #5A4A39",
"6  c #5D5438",
"7  c #6D4E24",
"8  c #6E5725",
"9  c #6E5925",
"0  c #715525",
"q  c #6E6025",
"w  c #706225",
"e  c #72673F",
"r  c #746A3F",
"t  c #2B2941",
"y  c #312E41",
"u  c #363343",
"i  c #393643",
"p  c #3E3A44",
"a  c #4E4942",
"s  c #524C41",
"d  c #5E5746",
"f  c #5E5749",
"g  c #5F5849",
"h  c #645E4A",
"j  c #67604B",
"k  c #68604B",
"l  c #7C7243",
"z  c #7C744D",
"x  c #91671E",
"c  c #9B6F1F",
"v  c #9B701F",
"b  c #9E7220",
"n  c #847B45",
"m  c #887E45",
"M  c #93811E",
"N  c #9C891F",
"B  c #BD8414",
"V  c #BEA614",
"C  c #A08D20",
"Z  c #C08714",
"A  c #C28813",
"S  c #CB8E11",
"D  c #CC9411",
"F  c #CC9911",
"G  c #D19310",
"H  c #D09A10",
"J  c #C0A713",
"K  c #CCA711",
"L  c #C1A913",
"P  c #CCAB11",
"I  c #CCB211",
"U  c #D0B410",
"Y  c #ECA50A",
"T  c #EBAC0B",
"R  c #FCAF07",
"E  c #F0A70A",
"W  c #F8AC08",
"Q  c #ECBE0A",
"!  c #FEB206",
"~  c #FBBA07",
"^  c #F8B608",
"/  c #F8BA08",
"(  c #ECC60A",
")  c #EBCD0B",
"_  c #FFC306",
"`  c #FCCD07",
"'  c #F8C408",
"]  c #F8CD08",
"[  c #FCD107",
"{  c #FDDC07",
"}  c #F8D208",
"|  c #F8D808",
" . c #FFE106",
".. c #E3D02F",
"X. c #E1CF3A",
"o. c #E3D13B",
"O. c #8B8147",
"+. c #8D8248",
"@. c #928747",
"#. c #948946",
"$. c #91864B",
"%. c #968A4B",
"&. c #998E4D",
"*. c #9E924F",
"=. c #9C9150",
"-. c #AB9E4A",
";. c #A29652",
":. c #A69A53",
">. c #AA9E55",
",. c #ADA04A",
"<. c #B5A747",
"1. c #B5A748",
"2. c #B7A949",
"3. c #BBAC4C",
"4. c #BEB04E",
"5. c #AFA256",
"6. c #ADA158",
"7. c #B1A556",
"8. c #B9AB57",
"9. c #BCAE59",
"0. c #BFB15A",
"q. c #C0B24F",
"w. c #C4B551",
"e. c #C7B852",
"r. c #CBBC54",
"t. c #CEBF59",
"y. c #CFC056",
"u. c #CFC05A",
"i. c #D1C157",
"p. c #DFCE51",
"a. c #D5C559",
"s. c #D8C75A",
"d. c #DCCC5C",
"f. c #E0CF52",
"g. c #E0CF5D",
"h. c #E4D354",
"j. c #E3D25E",
"k. c #E5D460",
"l. c #E8D760",
"z. c #EBD961",
/* pixels */
"k.k.k.k.k.k.k.k.k.k.k.k.k.k.k.k.k.k.k.k.k.k.k.k.k.k.k.k.l.l.k.k.k.k.k.k.k.k.k.k.k.k.k.k.j.k.k.k.k.k.k.k.k.k.k.k.k.k.k.k.k.k.k.k.",
"k.k.k.k.k.k.k.k.k.k.l.k.k.k.k.k.k.k.k.k.k.k.k.k.k.k.j.j.h.h.k.k.k.k.k.k.k.k.k.k.k.k.k.k.k.k.k.k.k.k.j.j.h.h.k.k.k.k.k.k.k.k.l.k.",
"k.k.k.k.k.k.k.k.k.k.k.k.k.k.k.k.k.k.k.k.k.k.k.k.k.k.k.h.o.o.j.k.k.k.k.k.k.k.k.k.k.k.k.k.k.k.k.k.k.k.k.h.o.o.h.k.k.k.k.k.k.k.k.k.",
"k.j.k.k.k.k.k.k.k.k.k.k.k.k.k.k.k.k.k.k.k.k.k.k.k.k.k.h.X.X.h.k.l.l.l.l.l.k.k.k.k.k.k.k.k.k.k.k.k.k.l.h.o.o.h.k.k.k.k.k.k.k.k.k.",
"k.k.k.k.k.j.k.k.k.k.k.k.k.k.k.k.k.k.k.k.k.k.k.k.k.k.k.j.h.h.k.k.l.l.l.z.l.l.k.j.k.j.k.j.k.k.k.k.k.k.k.j.h.h.j.l.k.k.k.k.k.k.k.k.",
"k.k.k.k.k.k.k.j.h.h.j.k.k.k.k.k.k.k.k.k.k.k.k.k.k.k.k.k.k.l.k.d.q.5.7.7.>.9.s.j.j.k.j.k.k.g.k.k.k.k.k.k.k.k.k.k.k.k.k.k.k.k.k.k.",
"k.k.k.k.k.k.k.h.o.o.h.l.k.j.k.k.k.k.k.k.k.k.k.k.k.k.k.k.k.l.l.q.j p i p i h 8.k.k.g.g.k.k.g.k.k.k.k.k.k.k.k.k.k.k.k.k.k.k.k.k.k.",
"k.k.k.k.k.l.k.h.o.o.h.k.k.k.k.k.k.k.k.k.k.k.k.k.k.k.k.k.k.z.z.6.i         i >.j.j.g.g.g.k.k.k.k.k.k.k.k.k.k.k.k.k.k.k.k.k.k.k.k.",
"k.k.k.k.k.k.j.j.h.h.k.k.k.k.k.k.k.k.k.k.k.k.k.k.k.k.k.k.k.l.z.6.p   .     i >.j.g.g.g.g.j.j.j.k.k.k.k.k.k.k.k.k.k.k.k.k.k.k.k.k.",
"k.k.k.k.k.k.l.k.l.k.k.k.k.k.k.k.k.k.k.k.k.k.k.k.k.k.k.k.k.l.l.6.p   . . . t z ;.;.7.i.j.j.j.k.g.k.g.k.k.k.k.k.k.k.k.k.k.k.k.k.k.",
"k.k.j.l.k.k.k.k.k.k.k.k.k.k.k.k.k.k.k.k.k.k.k.k.k.k.k.k.k.l.l.7.p . . . . O t u y h 7.g.g.g.j.j.g.k.k.k.k.k.k.k.k.k.k.k.k.k.k.k.",
"k.k.k.k.k.k.k.k.k.k.k.k.k.k.k.k.k.k.k.k.k.k.k.k.k.k.k.k.k.l.l.7.p   . + = , , # # 3 O.7.u.d.d.j.g.k.k.g.k.k.k.k.k.k.k.k.k.k.k.k.",
"k.k.k.j.k.k.j.k.k.k.k.k.k.k.k.k.k.k.k.k.k.k.k.k.k.k.k.k.k.k.l.>.p .   = M L V V J N 3 f 6.d.p.d.g.g.k.k.k.k.k.k.k.k.k.l.k.j.k.k.",
"k.k.k.k.k.k.l.k.k.k.k.k.k.k.k.k.k.k.k.k.k.k.k.k.k.k.k.k.k.l.l.7.p   . > L  . . . .V # y *.a.s.s.g.k.k.g.k.k.k.k.k.j.h.h.j.l.k.k.",
"k.k.k.k.k.k.k.k.k.k.k.k.k.k.k.k.k.k.k.k.k.k.k.k.k.k.k.k.k.k.l.7.p     > L  . .{ { V $ y %.i.a.s.d.g.g.k.k.k.k.k.k.h.o.o.h.k.k.k.",
"k.k.k.k.k.k.k.k.k.k.k.k.k.k.k.k.k.k.k.k.k.k.k.k.k.k.k.k.k.k.l.>.p     > J { { { { V # * %.r.i.a.d.d.g.k.k.k.k.k.k.h.o.o.h.k.k.k.",
"k.k.k.k.k.k.k.k.k.k.k.k.j.l.k.k.k.k.k.k.k.k.j.l.k.k.k.k.k.k.l.7.p     > V { { { { V # t @.r.y.i.a.s.d.g.j.k.k.k.k.j.h.h.j.k.k.k.",
"k.k.k.k.k.k.k.k.k.k.k.k.k.k.k.k.l.j.k.k.k.k.k.k.k.k.k.k.k.l.l.7.p     > V { { | { I q 3 l #.&.:.e.s.d.g.j.k.j.k.j.k.k.k.k.k.k.k.",
"k.k.k.k.k.l.k.k.k.k.k.k.k.k.k.k.k.k.k.k.k.k.k.k.k.k.k.k.k.k.l.>.p .   > V { { | { ) I N 3 - - d 6.s.d.d.j.j.j.j.k.k.k.k.k.k.k.k.",
"k.k.j.l.k.j.k.k.k.k.k.k.k.k.k.k.k.k.k.k.k.k.k.k.k.k.k.k.k.k.l.7.p     , V { { | | {  .J >     i ;.a.s.s.d.j.j.j.k.k.k.k.k.k.k.k.",
"k.k.k.k.k.k.k.k.k.j.k.k.l.j.k.k.k.j.k.k.k.k.k.k.k.k.k.k.k.l.l.7.p     > V { { | | { { V >     - &.i.s.s.d.j.j.j.j.k.k.k.k.k.k.k.",
"k.k.k.k.k.k.k.k.k.k.k.k.k.k.k.k.k.k.k.k.k.k.j.k.k.k.k.l.l.l.z.7.p     , V { { | | { { V >     - &.r.i.a.d.d.j.j.j.j.k.k.k.k.k.k.",
"k.k.k.k.k.k.k.k.k.k.k.k.k.k.k.k.k.k.k.k.k.k.k.k.k.k.k.k.l.z.z.7.p     , V { { | { { { J <   . - %.r.r.a.s.d.j.j.k.j.k.k.k.k.k.k.",
"k.k.k.k.k.k.k.k.k.k.k.k.k.k.k.k.k.k.k.k.k.l.k.k.k.k.k.s.9.7.7.%.6 , , w I { | | | { { J >     u %.q.r.r.a.s.g.j.j.k.j.k.k.k.k.k.",
"k.k.k.k.l.k.k.k.k.k.k.k.k.k.k.k.k.k.k.k.k.k.k.k.l.l.l.0.h i i 6 C L L I ) | | | | | { V <   . * @.q.e.r.i.d.d.g.g.k.k.k.k.k.k.k.",
"k.k.j.j.h.h.j.k.k.k.k.k.k.k.k.k.k.k.k.k.k.k.k.k.k.l.l.6.i     , L { { { | | | | | { { V >   . - +.4.w.e.u.s.d.j.d.k.k.k.k.k.k.k.",
"k.k.l.h.o.o.h.k.k.k.k.k.k.k.k.k.j.k.k.k.k.j.k.k.k.l.l.5.i     , L  .{ { | | | | | {  .V >     - +.4.w.e.i.s.d.d.k.j.k.k.k.k.k.k.",
"k.k.l.h.o.o.h.k.k.k.k.k.k.k.k.k.l.k.k.k.k.k.k.k.k.l.z.7.p     , V { { | | | | | | { { V >     = O.4.q.e.y.s.d.j.g.j.h.h.g.k.k.k.",
"k.k.k.j.h.h.j.k.k.k.k.k.k.k.k.k.k.k.k.k.j.l.k.k.k.l.l.7.p     $ V { { | | | | | | | { V <     - O.3.q.e.i.a.d.d.g.h.o.X.h.k.k.k.",
"k.k.k.k.l.k.k.k.k.k.k.k.k.k.k.k.k.k.k.k.k.k.k.k.k.d.0.$.6 # $ w I { | | | | | | | { { V $     - O.3.4.e.i.s.d.j.k.h.o.X.h.k.k.k.",
"k.k.k.k.k.k.k.k.k.k.k.l.k.k.k.k.k.k.k.k.k.k.k.l.k.9.h 6 C J V I ) | | | | | | | | { { V <     - O.4.q.e.t.s.d.d.g.j.h.h.j.k.k.k.",
"k.k.k.k.k.k.k.k.k.k.k.k.k.k.k.k.k.k.k.k.k.k.k.l.l.6.u # V  . .{ | | | | | | | | | |  .V <     - O.3.4.e.i.d.d.g.g.j.k.k.k.k.k.k.",
"k.k.k.k.k.k.k.k.k.k.k.k.k.k.k.k.k.k.k.k.k.k.k.l.l.>.u # V  . .| | | | | | | | | | { { V ,     - O.3.4.w.y.s.g.g.g.k.k.k.k.k.k.k.",
"k.k.k.k.k.k.k.k.k.k.k.k.k.k.k.k.k.k.k.k.k.k.k.l.l.>.i > V { { | | | | | | | | | | { { V ,     - O.4.4.e.y.s.d.g.g.k.j.j.k.k.k.k.",
"k.k.k.k.k.k.k.k.k.k.k.k.k.k.k.k.k.k.k.k.k.k.k.l.l.>.i # V | { | | | | | | | | | | { { V <   . - O.4.4.e.u.s.d.g.j.k.j.k.k.k.k.k.",
"k.k.k.j.k.k.k.k.k.k.k.k.k.k.k.k.k.k.k.k.k.k.l.l.z.6.u # V { | | | | | | | } | | { { { J >     - O.3.4.e.y.s.d.g.g.k.j.k.k.k.k.k.",
"k.k.k.j.k.k.k.l.k.k.k.k.k.k.k.k.k.k.k.k.k.k.l.z.z.6.u = V { | | | | | | | | | | | { { V ,     - O.3.q.e.i.s.d.g.k.g.g.k.k.j.k.k.",
"k.k.k.l.k.k.k.j.k.k.k.k.k.k.k.k.k.k.k.k.l.d.9.>.7.$.s 9 I { { | | | | | | | | | | { { J >     * O.3.4.e.y.s.d.g.g.k.k.j.k.j.h.h.",
"k.k.k.k.k.k.k.k.k.k.k.k.k.k.k.k.k.k.k.l.z.0.h y u 5 b H ( | | | | | | | | | | | { {  .J >     * O.4.q.r.i.s.d.g.g.k.k.k.l.h.o...",
"k.k.k.k.k.k.k.k.k.l.j.k.k.k.k.k.k.k.k.d.0.$.5 @ @ 7 H _ ` ] ] } } | | | | | ] ] ] ( U N 3 % t 5 #.4.w.r.i.s.d.g.g.k.k.k.k.h.o...",
"k.k.k.k.k.k.k.k.k.k.k.k.k.j.k.k.k.l.z.9.h 5 c B B F Q ` ~ / ^ / } | | | | } ' ^ ~ F 9 1 e n n @.,.4.4.e.u.s.d.g.g.k.j.k.k.j.h.h.",
"k.k.l.k.k.k.k.j.k.k.k.k.k.k.k.k.l.z.z.6.u * Z R ! ~ } ] ^ W W ^ ] | | | | ] ^ R R B @ t n 1.2.2.3.4.w.y.u.s.g.g.g.k.j.k.k.k.k.k.",
"k.k.k.l.k.k.k.k.k.k.k.k.k.k.k.k.l.z.z.6.u @ B R ! ~ ] } ^ W W ^ } | | | | ] ^ R R B @ t n 1.2.2.4.4.e.y.a.d.g.g.k.j.k.j.k.k.k.k.",
"h.h.j.j.k.k.k.k.k.k.k.k.k.k.l.s.0.6.7.$.5 7 S R W ^ } } / / ^ / ' ] ] } ] ' ^ ! ! Z ; t n 2.2.3.4.e.y.u.a.d.g.k.k.j.k.k.k.k.k.k.",
"..o.h.l.k.k.k.k.k.k.k.k.k.l.l.9.h i p 5 b G Y W W / ] | } ] ] ] / / ^ ^ ^ ^ ! ! ! Z : t m 2.3.q.e.y.u.a.d.g.g.j.j.k.k.k.k.k.k.k.",
"..o.h.l.k.k.k.k.k.k.k.k.k.l.l.7.i     ; Z ! ! W W ^ ' ] ] ] ] ] / ^ ^ / ^ T D Z Z c > a $.3.8.q.e.u.a.s.g.g.g.k.k.k.k.k.k.k.k.k.",
"h.h.j.j.k.k.k.k.k.k.k.k.k.l.l.6.p     : Z ! R W W W ^ / / ^ ^ / ] ] ] } ` K 9 @ ; 2 l @.-.2.q.w.y.i.s.d.g.j.j.j.k.k.k.k.k.k.k.k.",
"k.k.k.k.k.k.k.k.k.k.k.k.k.l.l.7.p     : A ! ! W W W W W W W W ^ ] { |  . .L ,     t n 2.2.3.q.e.y.s.s.g.g.j.j.j.k.k.k.k.k.k.k.k.",
"k.k.k.k.k.k.k.k.k.k.k.k.k.k.l.7.p     : S ! ! W W W W W W W W / } { { {  .J ,     % n 3.3.4.w.r.y.s.d.g.g.k.k.k.k.k.k.k.k.k.k.k.",
"k.k.k.k.k.k.k.k.k.k.k.l.k.l.j.6.i     & x G E ! ! ! ! W ! ! R T K V V V J N 3 % % s #.2.4.4.e.y.a.s.d.g.g.k.k.k.k.k.k.k.k.k.k.k.",
"k.k.k.k.k.k.k.k.k.k.k.j.k.l.z.7.i     X & 0 G ! ! ! ! ! ! ! ! D 8 # # # $ 3 r n O.#.,.3.4.q.r.i.s.d.g.k.j.j.k.k.k.k.k.k.k.k.k.j.",
"k.k.k.k.k.k.k.k.k.k.k.k.k.l.j.9.j p - % o & x A A B B B B A A v < t % % % a @.1.2.2.4.4.q.e.y.a.d.g.g.j.k.j.k.k.k.k.k.k.k.k.k.k.",
"k.k.k.k.k.k.k.k.k.k.k.k.k.k.j.s.8.>.>.z t X & : : : : : : : : 2 e n n n n @.-.3.3.3.4.q.e.r.u.s.d.d.g.k.k.k.j.k.k.k.k.l.k.k.k.k.",
"k.k.k.k.k.k.k.k.k.k.k.k.k.k.k.g.j.j.j.:.p     .               % n <.<.<.2.2.3.3.4.4.w.r.y.y.s.s.d.g.g.k.k.k.k.k.k.k.k.k.h.h.j.k.",
"k.k.k.k.k.k.k.k.k.k.k.k.k.k.k.g.j.j.j.:.i       . .   . .     % n 1.2.2.3.4.4.q.w.e.r.y.u.a.s.d.g.g.k.j.k.k.k.k.k.k.k.h.o.o.h.k.",
"k.k.k.k.k.k.k.k.k.k.k.k.k.g.k.k.j.j.p.7.h - - - u - - - u * % s @.<.3.3.4.4.e.e.r.y.i.a.s.d.d.g.k.k.k.k.k.k.k.k.k.k.k.h.o.o.h.k.",
"k.k.k.k.k.k.k.k.k.k.k.k.k.k.k.g.g.k.d.i.7.;.*.&.&.%.@.@.O.O.O.%.,.3.3.4.e.r.r.y.u.a.s.d.d.d.g.k.j.j.j.k.k.k.k.k.k.k.k.j.h.h.k.k.",
"k.k.k.k.k.k.k.k.k.k.k.k.k.k.k.k.j.k.g.d.d.d.a.i.r.q.q.q.4.4.4.3.4.4.w.e.r.u.a.a.s.d.d.d.g.g.g.k.k.k.k.k.k.k.k.k.k.k.k.k.l.k.k.k.",
"k.k.l.k.k.k.k.k.k.k.k.k.k.k.k.j.k.g.k.d.d.d.d.i.r.r.q.q.q.e.w.w.w.e.e.r.i.i.a.d.d.d.g.g.k.k.g.k.k.k.k.k.k.k.k.k.k.k.k.k.k.k.k.k.",
"k.k.h.h.j.k.k.k.k.k.k.k.k.k.k.k.k.g.k.k.j.d.d.i.i.r.r.r.r.r.r.r.r.r.t.y.a.d.d.d.f.f.j.g.k.g.k.k.k.k.k.k.l.j.k.k.k.k.k.k.k.k.k.k.",
"k.h.o.o.h.k.k.k.k.k.k.k.k.k.k.k.k.k.g.g.j.j.d.d.s.a.i.i.i.a.u.i.i.i.a.a.d.d.j.h.o.X.f.k.k.k.k.j.k.k.k.j.k.k.k.k.k.k.k.k.k.k.k.k.",
"k.h.f.o.h.k.k.k.k.k.k.k.k.j.h.h.j.k.k.k.j.j.j.d.d.d.d.s.s.s.s.s.d.a.d.d.d.j.d.h.o.o.h.k.k.k.k.k.k.k.k.l.k.k.k.k.k.k.k.k.k.k.k.k.",
"z.h.h.h.j.k.k.k.k.k.k.k.k.h.o.o.h.k.k.k.k.d.j.j.j.d.d.d.d.d.d.d.d.d.d.k.d.j.k.j.h.h.j.k.k.k.k.k.k.k.k.k.k.k.k.k.k.k.k.k.k.k.k.k.",
"l.j.j.j.k.k.k.k.k.k.k.k.k.h.....f.k.k.k.k.k.j.j.j.j.g.d.g.g.d.j.d.d.j.k.k.k.j.j.k.k.j.k.k.k.k.k.k.k.k.k.k.k.k.k.k.k.k.k.k.k.k.k."
};
