/* XPM */
static char *monke_idle_64x64_9[] = {
/* columns rows colors chars-per-pixel */
"64 64 41 1 ",
"  c #CAB71B",
". c #CAB81B",
"X c #CBB81B",
"o c #CEBB23",
"O c #CEBB24",
"+ c #CEBB25",
"@ c #CEBC25",
"# c #D0BD29",
"$ c #D0BD2A",
"% c #D0BE2A",
"& c #D0BE2B",
"* c #D5C337",
"= c #D5C338",
"- c #D6C338",
"; c #E3D02F",
": c #E3D13B",
"> c #E3D13C",
", c #D9C740",
"< c #D9C741",
"1 c #DECD4E",
"2 c #DECD4F",
"3 c #DFCD4F",
"4 c #DFCD50",
"5 c #DFCE51",
"6 c #E0CF53",
"7 c #E0CF54",
"8 c #E1CF54",
"9 c #E4D350",
"0 c #E1D055",
"q c #E4D354",
"w c #E3D25C",
"e c #E4D35E",
"r c #E5D45C",
"t c #E5D460",
"y c #E5D461",
"u c #E5D561",
"i c #E6D562",
"p c #E6D563",
"a c #E6D664",
"s c #E7D664",
"d c #E7D665",
/* pixels */
"tttttttttttttttttttttttttttttttttttttttttttttttttttttttttttttttt",
"ttttttttttttttttttttttttttteqqetttttttttttttttttttteqqeitttttttt",
"tttttttttttttttttttttttttttq>>qptttttttttttttttttttq>>qttttttttt",
"tttttttttttttttttttttttttttq>>qttttttttttttttttttttq>>qttttttttt",
"ttttttttttttttttttttttttttteqqetttttttttttttttttttteqqeitttttttt",
"ttttttteqqetttttttttttttttttttttttttttttttttttttttttiitttttttttt",
"tttttttq>>qptttttttttttttttttttttttttttttttttttttttttttttttttttt",
"tttttttq:>qttttttttttttttttttttttttttttttttttttttttttttttttttttt",
"ttttttteqqettttttttttttttttttttttttttttttttttttttttttttttttttttt",
"tttttttttttttttttttttttttttttttttttttttttttttttttttttttttttttttt",
"tttttttttttttttttttttttttttttttttttttttttttttttttttttttttttttttt",
"ttttttttttttttttttttttttttttttttttttttttttttttttttietttttttttttt",
"ttttttttttttttttttttttttttttttttttttttttttttttttttttttttiettteit",
"ttttttttttttttttttttttttttttttttttttttttttttttttttttttttieqqeiit",
"tttttttttttttttttttttttttttttttttttttttttttttttttttttttitq>>qtte",
"ttttttttttttttttttttttttttttttttttttttttttttttttettttttttq>>qtti",
"tttttttttttttttttttttttttttttttttieipeeiiittieieittttteeirqqettt",
"tttttttttttttttttttttttttttttttteeieetieeetteieittttttiittttittt",
"ttttttttttttttttttttttttttttttttpeepieeiieeiiieitttttttttitttttt",
"tttttttttttttttttttttttttttttttteitieipeeiieieietttttttttetttttt",
"ttttttttttttttttttttttttttttttttitepitttitttiieitteitttttttttttt",
"tttttttttttttttttttttttttttttttteiieeitttteteiietttttttttttttttt",
"tttttttttttttttttttttttttttttttteeeiietteiiiieiitttttttttttttttt",
"tttttttttttttttttttttttttttttpttpiiieiitieieeieetttttttttttttttt",
"ttttttttttttttttttttttttttttttttpireetteieiteieittietttttttttttt",
"ttteqqettttttttttttttttttiee615111111qwteitteiietttttttttttttttt",
"tttq>>qtttttttttttttttttttiq*$$$*@**$-0tiettieiitttttttttttttttt",
"tttq>>qtttttttttttttttetttt1$.@$o@oX.$5tittieiiettttttttirqqettt",
"ttteqqetttttttttttttttttttt5$@<5151<o#1tieieieiitttteiettq>>qttt",
"ttttttttttttttttttttttttttt1$@<0epp5$$1tpeeieieettttieiitq>>qitt",
"tttttpttttttttttttttttttttp5$X@-0pp5$$1tieetittttttteiieteqqettt",
"tttttttttttttttttttttttttpt5$Xo*6e0<@$5tiiitttttttttiieieittittt",
"tttttttttttttttttttttttttpt1$@<0e6*o.$5ttttttttttttttttttttttttt",
"ttttttttttttttttttttttttttt1$$1dt0*@.$5tpttttttttttttttttttttttt",
"tttttttttttettttttttttttttt1$$0dpe0<@$1ttttttttttttttttttttttttt",
"ttttttttttttttttttttttttttt1$@-1555<@$5ttttttttttttttttttttttttt",
"ttttttttttttttttttttttttttp1$.@$$$$@X$1tpttttttttttttttttttttttp",
"tttttttttttttttttttttttttpt0-@$$$$$$$-0tttttttttttttttttttttteqq",
"ttttttttttttttttttttttttttteq111111110wttttttttttttttttttttttq>;",
"ttttttttttttttttttttttttttttiiiittpttttttttttttttttttttttttttq>;",
"tttttttttttttttttttttttepeiepiiitpttttttttttttttttttttttttttteqq",
"tttttttttttttttttttttttteieiieietttttttttttttttttttttttttttttttt",
"tttettttttttttttttttttttiepeeieitttttttttttttttttttttttttttttttt",
"qqetittttttttttttttttttteieiiepetttttttttttttttttttttttttttttttt",
";>qtttttttttttttttttttttpeiepeietttttttttttttttttttttttttttttttt",
";>qttttttttttttttttttttteieieieitttttttttttttttttttttttttttttttt",
"qqeittttttttttttttttttttiepeiepetttttttttttttttttttttttttttttttt",
"ietttttttttttttttttttttteieieieitttttttttttttttttttttttttttttttt",
"ttttttttttttttttpeieepepepeepeietttttttttttttttttttttttttttttttt",
"tttttttttttttttteeepiettieepeieitttttttttttttttttttttttttttttttt",
"ttttttttttttttttepeeepetepieiepetttttttttttttttttttttttttttttttt",
"ttttttttttttttttieppiettieepeieitttttttttttttttttttttttttttttttt",
"tttttttttttttttteepettttepieieietttttttttttttttttttttttttttttttt",
"ttttttttttttttttpeeitttteeeiepeittttttttttttttttttttttttttteqqet",
"tttttttttttttttteipetettpeieieietttttttttttttttttttttttttttq>>qt",
"ttttttttttttttttpeeieptteiepeieptttttttttttttttttttttttttttq>>qp",
"tttttttttttttitttttttttttteeetttttttttttttttttttttttttttttteqqet",
"tttttttttttttetttttttttttepppttttttttttttttttttttttttttttttttttt",
"ttitttttttttttttttttttttttieeptttttteptttitttttttttttttttttttttt",
"ieqqettttttttttittttttttttepeetttttteeieqqettttttttttttttttttttt",
"iq>>qtttttttteiirpetpeepttttttttttttpetq>>qttttttttttttttttttttt",
"tq>>qtttttttteqqetpeepeetttttttttttteptq>>qttttttttttttttttttttt",
"ieqqeitttttttq>>qeepeppeepttttttttttttteqqettttttttttttttttttttt",
"tttttttttttti9;;qiteieepeepettttttttttepttpttttttttttttttttttttt"
};
