/* XPM */
static char * Right_xpm[] = {
"64 64 73 1",
" 	c #E5D460",
".	c #E4D35E",
"+	c #E4D354",
"@	c #E6D562",
"#	c #E3D13C",
"$	c #E6D563",
"%	c #071821",
"&	c #051720",
"*	c #E3D13B",
"=	c #171E24",
"-	c #191F25",
";	c #7C4436",
">	c #8C4A39",
",	c #8A4938",
"'	c #9C503C",
")	c #9B503C",
"!	c #171E23",
"~	c #041720",
"{	c #262426",
"]	c #9A4F3C",
"^	c #9A4F3B",
"/	c #9B4F3B",
"(	c #081821",
"_	c #E5D45C",
":	c #894838",
"<	c #03161F",
"[	c #05161F",
"}	c #A55B49",
"|	c #A65C4B",
"1	c #7E4638",
"2	c #2E2E33",
"3	c #222A32",
"4	c #232B33",
"5	c #222A33",
"6	c #302F34",
"7	c #8D4B3A",
"8	c #E9A7A3",
"9	c #F3B3B0",
"0	c #F3B4B2",
"a	c #151D23",
"b	c #C99B9D",
"c	c #E2AEAE",
"d	c #E2ACAD",
"e	c #DBA3A2",
"f	c #A35A48",
"g	c #FFC0C0",
"h	c #FFC2C2",
"i	c #F3B4B1",
"j	c #994E39",
"k	c #202831",
"l	c #3C3C43",
"m	c #E5AFAF",
"n	c #FBBDBD",
"o	c #AD6556",
"p	c #A55C4A",
"q	c #945446",
"r	c #FFBFBF",
"s	c #DAA2A0",
"t	c #393941",
"u	c #F4B4B2",
"v	c #F5B4B2",
"w	c #D8A1A0",
"x	c #212932",
"y	c #FDBEBE",
"z	c #B06858",
"A	c #CC9E9F",
"B	c #CC9D9F",
"C	c #E3D02F",
"D	c #7B4336",
"E	c #A75D4B",
"F	c #E4ADAE",
"G	c #161D23",
"H	c #E4D350",
"                                                                ",
"                           .++.                    .++.@        ",
"                           +##+$                   +##+         ",
"                           +##+                    +##+         ",
"                        %%%%%%%%%%%%%%%%%%%%%%%%   .++.@        ",
"       .++.             %%%%%%%%%%%%%%%%%%%%%%%%    @@          ",
"       +##+$            &&&&&&&&&&&&&&&&&&&&&&&&                ",
"       +*#+             =======================-                ",
"       .++.         %%&=;>,,,,,,,,,,,,,,,,,,,,,;=&%%            ",
"                    %%&=,'''''''''''')'''''''''>=&%%            ",
"                    &&&!,'))))))))))))))))))))',=~&&            ",
"                    ==={>')))))))))))))))))))'',{!==            ",
"                %%&=;>,>]))))))))))))))))))))))^,,>;=&%%@.   .@ ",
"                %%&=,''')]))))))))))))))))))))])/'',=&%%@.++.@@ ",
"                %%&=,'))))))))))))))))])''''''''']',=&%% +##+  .",
"                (&&-,')))))))))))))))))^>,,,,,,>]'',=&%% +##+  @",
"                %%&=,'))//')))))))))''/>{!====!{,'',=&%%@_++.   ",
"                %%&=,'))//))))))))))''/:!&&&~~<!,'',=&%%    @   ",
"                %%&=,')^]^^^]^^^])])''/>!<&[[[~!,'',=&%% @      ",
"                %%&=,))'}|}||||})])]>,:1234453567'',=&%% .      ",
"                %%%=,'^}89909098|^)>{aa2bcddddcef)),=&%%        ",
"                %%[=,'^|0gggggg0|^',a~[3dhgghgh0|^),=&%%        ",
"                %%[=,'^|9gggggg0|^',=~~5dhggghgi|j^,!&%%        ",
"                %%[!,'^|0gggggg9|))>25klmggnmddeop|q-&%%        ",
"                %%%!,'^|9grgggg0|^)fsddmnggml53teuvw3[%%        ",
"   .++.         %%~=,'^|9rggggg0|jj|9gghgghdx~<3dhhd3[%%        ",
"   +##+         %%~=,'^|igggggg0|jj|igrggggd5[[4dggd3&%%        ",
"   +##+         %%%=,)^|8uiuygg0|))|iggggggd4&[3dhgd4[%%@_++.   ",
"   .++.         %%~=,)^'||}zirgi|)^|iggggggd3[&4dhgd4[(% +##+   ",
"                %%~=,)']^)j|iggi|j^|9ggggggd4[[5dghd4[%% +##+@  ",
"     $          %%<=,''')^^|iggi|j)|iggggggd3<<3chhc3&%% .++.   ",
"                %%%!;>,>^)^f8iu8f))|8uiugggmt35tAdmA3[%%.@  @   ",
"                    ==!{>')'}||}))^'}|}z9ggnmdcAtk53            ",
"                    &&~!,))^^^^^)))^)jj|0ggggghc5~[&            ",
"           .        &&&=,''''']'))''''^|vhgghghc3[(&            ",
"                    ((&=;>,,,,,,,,,,,,,qwdddddmB3&((            ",
"                        -===========!!!-34444433               $",
"                        [&&&&&&&%<%<[[%[[[[[[[&&             .++",
"                        %%%&~~&%<%[%[[[[[[[&&(%%             +#C",
"                        %(&(=====!!=34444443(&%(             +#C",
"                       .%%&!D,,,,,,qwcdcddmb3[&(             .++",
"                        %%&=,''')))|ihggghhc4[(&                ",
"   .                    %%&=,''))))|ihgggggd4&%%                ",
"++. @                   %%&=,'))))^feddmnggd3[%%                ",
"C#+                     %%&=,')))))>63xtmghd4&%%                ",
"C#+                     %%&=,'))))),![<3dhgd5&%%                ",
"++.@                    %%&=,''^^)^,!%[3chhc5[%%                ",
"@.                      %%&=,')'f||q![[3wvvw3[%%                ",
"                $.@..$.$%%&=,']}89vw3[&-qE|q-&%%                ",
"                ...$@.  %%&=,']|vhhc3[&!,/],=&%%                ",
"                .$...$. %%&=>//|0hgc3~&!,/',=&%%                ",
"                @.$$@.  %%&=;,,qwcFb2a={>'',=&%%                ",
"                ..$.    .$@.==--k4521,,>])',=&&%                ",
"                $..@    ...@&&&&&&&G,''')]',=&%%           .++. ",
"                .@$. .  $.@.%%%&&&~a,'])'''>=&%%           +##+ ",
"                $..@.$  .@.$%%&(GGa{>)))>,,D=&%%           +##+$",
"             @            ..(&&!;:>>]''>{!=!&&%%           .++. ",
"             .           .$$(&&=>////]',!&~&&&%%                ",
"  @                       @.&(&!://]^^],=&%((&(%                ",
"@.++.          @          .$%(&-qE|||||q-&%((((%                ",
"@+##+        .@@_$. $..$    %%&3wv0i909w3[&&%%%%                ",
" +##+        .++. $..$..    %%&3cgghgggd4[((%%%%                ",
"@.++.@       +##+..$.$$..$  ((&4dggggggc4&%%%%%%                ",
"            @HCC+@ .@..$..$.&(&5dhgggggd3&%%%%%(                "};
