/* XPM */
static char *tiger_1[] = {
/* columns rows colors chars-per-pixel */
"64 64 25 1 ",
"  c black",
". c #780000",
"X c gray25",
"o c gray44",
"O c #A80810",
"+ c #805018",
"@ c #906028",
"# c #A87838",
"$ c #E3D02F",
"% c #E3D13B",
"& c #E3D13C",
"* c #C09050",
"= c #E0B840",
"- c #E4D354",
"; c #E4D35E",
": c #E5D45C",
"> c #E5D460",
", c #E6D562",
"< c #E6D563",
"1 c #E0E878",
"2 c #909090",
"3 c gray66",
"4 c #C0C0C0",
"5 c #D8D8D8",
"6 c #F8F8F8",
/* pixels */
">>>>>>>>>>>>>>>>>>>>+++++++++>>>>>>>>>>>>>>>>>>>>>>>>>>>>>>>>>>>",
">>>>>>>>>>>>>>>>>>>+###**++;-->>>>>>>>>>>>>>>>>>>>>;-->>>>>>>>>>",
">>>>>>>>>>>>>>>>>>>+###**++-&&->>>>>>>>>>>>>>>>>>>>-&&->>>>>>>>>",
">>>>>>>>>>>>>>>>>>>+###**++-&&->>>>>>>>>>>>>>>>>>>>-&&->>>>>>>>>",
">>>>>>>>>>>>>>>>>>>+***++>>;--;>>>>>>>>>>>>>>>>>>>>;--;>>>>>>>>>",
">>>>>>>;-->>>>>>>>>++++++>>>>>>>>>>>>>>>>>>>>>>>>>>><>>>>>>>>>>>",
">>>>>>>-&&->>>>>>>>++++++>>>>>>>>>>>>>>>>>>>>>>>>>>>>>>>>>>>>>>>",
">>>>>>>-&&->>>>>>>>++++++>>>>>>>>>>>>>>>>>>>>>>>>>>>>>>>>>>>>>>>",
">>>>>>>;--;>>>>>>>>>++++++++++>>>>>>>>>>>>>>>>>>>>>>>>>>>>>>>>>>",
">>>>>>>>>>>>>>>>>>>>++++++++++>>>>>>>>>>>>>>>>>>>>>>>>>>>>>>>>>>",
">>>>>>>>>>>>>>>>>>>>>>>>>>>>>++++>>>>>>>>>>>>>>>>>>>>>>>>>>>>>>>",
">>>>>>>>>>>>>>>>>>>>>>>>>>>>>++++>>>>>>>>>>>>>>>>>>>>>>>>>>>>>>>",
">>>>>>>>>>>>>>>>>>>>>>>>>>>++++++>>>>>>>>>>>>>>>>>>>>>>>>;>>>>>>",
">>>>>>>>>>>>>>>>>>>>>>>>>>>++++++>>>>>>>>>>>>>>>>>>>>>>><>-->><>",
">>>>>>>>>>>>>>>>>>>>>>>>>++**=***+>>>>>>>>>>>>>>>>>>>>>>>-&&->>>",
">>>>>>>>>>>>>>>>>>>>>>>++**======*+++>>>>>>>>>>>>>>>>>>>>-&&->>>",
">>>>>>>>>>>>>>>>>>>>>>>++**======*+++;;<<><;<;<;>>>>>>>>>;--;<;<",
">>>>>>>>>>>>>>>>>>>>>>>++**======*+++;<;:;;;:<;<>>>>>>><>>>><;:;",
">>>>>>>>>>>>>>>>>>>>+++**==111===****+;<<>;<><:>>>>>>>>>><>>>><>",
">>>>>>>>>>>>>>>>>>>>+++==+++++++++***+<;>><;<;<;>>>>>>>>>;>>>>>>",
">>>>>>>>>>>>>>>>>>>>+++==+++++++++***+>>>>>>><;<>>>>>>>>>>>>>>>>",
">>>>>>>>>>>>>>>>>>>>+++==+++++++++***+>>:<>>:<<;>>>>>>>>>>>>>>>>",
">>>>>>>>>>>>>>>++++++++++##===####++++++++++<;<<>>>>>>>>>>>>>>>>",
">>>>>>>>>>>>>>>+===+###@@##==#===@@@@#+++==+:<;;>>>>>>>>>>>>>>>>",
">>>>>>>>>>>>>>>+===+###@@##==#===@@@@#+++==+;<;<<;<;>><:>>:<>>>>",
">>>;--;>>>>>>>>+===+###@@##==#===@@@@#+++==+;<<;;<;>>>>;>>;<>>>>",
">>>-&&->>>>>>>>+###+===33##@@@@@@#333#+++##+<;<<:<>>>>;<>;<;>>>>",
">>>-&&->>>>>>>>+###+===33##@@@@@@#333#+++##+:<:;>>>>>><;<:--;>>>",
">>>;-->>>>>>>>>>+++#===66  ==#=== 666####++;<;<<>>>>:>;;>-&%-;<;",
">>>>>>>>>>>>>>>>+++=11111==      =***#===##+;<;;>>>><;<<>-&&-<;<",
">>>>>>>>>>>>>>>>+++=11111==      =***#===##+<;>>>>>>:<<;>;--;>:<",
">>>>>>>>>>>>>>>>+++=11111==      =***#===##+<:>>>>>><<;<>><;<>>>",
">>>>>>>>>>>>>>>+===1111====== ====###*=====#+++>>>>>>>>>>>>>>>>>",
">>>>>>>>>>>>>>>+###====55oo######o333====##+>>>>>>>>>>>>>>>>>>>>",
">>>>>>>>>>>;>>>+###====55oo######o333====##+>>>>>>>>>>>>>>>>>>>>",
">>>>>>>>>>>>>>>+###====55oo######o333====##+>>>>>>>>>>>>>>>>>>>>",
">>>>>>>>>>>>>>>>+++#ooo..44oo+ooo4...o###++>>>>>>>>>>>>>>>>>>>><",
">>>>>>>>>>>>>>>>>>>++++..6622.2226...++++++>>>>>>>>>>>>>>>>>>;--",
">>>>>>>>>>>>>>>>>>>++++..6622.2226...++++++>>>>>>>>>>>>>>>>>>-&$",
">>>>>>>>>>>>>>>>>>>++++..6622.2226...++++++>>>>>>>>>>>>>>>>>>-&$",
">>>>>>>>>>>>>>>>++++***..55oo.ooo5...++++;:<>>>>>>>>>>>>>>>>>;--",
">>>>>>>>>>>>>>>>++++***..55oo.ooo5...++++<>>>>>>>>>>>>>>>>>>>>>>",
">>>;>>>>>>>>>>>>++++***++33OO.OOO3+++#+++++>>>>>>>>>>>>>>>>>>>>>",
"--;><>>>>>>>>>>>++++***++33OO.OOO3+++#+++++>>>>>>>>>>>>>>>>>>>>>",
"$%-<;<;:>>>>>>>+***+===++..OOOOOO.+++*+++++>>>>>>>>>>>>>>>>>>>>>",
"$&-;<;><>>>>>>>+***+===++..OOOOOO.+++*+++++>>>>>>>>>>>>>>>>>>>>>",
"--;<>>>>>>>>>>>+===+###==++**=###+===#+++##+>>>>>>>>>>>>>>>>>>>>",
">;>>>>>>>>>>>>>X+++++++====++++++====+###==+>>>>>>>>>>>>>>>>>>>>",
"><;:>>>>>>>>>>>X+++++++====++++++====+###==+>>>>>>>>>>>>>>>>>>>>",
"<;><>>>>>>>>>>>X+++++++====++++++====+###==+>>>>>>>>>>>>>>>>>>>>",
">>>>>>>>>>>>>>>>    +++####++ +++*###++++++X   >>>>>>>>>>>>>>>>>",
">>>>>>>>>>>>>>>><;<    ++++      ++++          >>>>>>>>>>>>>>>>>",
">>>>>>>>>>>>>>>>;;<    ++++      ++++          >>>>>>>>>>>>>>>>>",
">>>>>>>>>>>>>>>><;;    ++++      ++++          >>>>>>>>>>>>;--;>",
">>>>>>>>>>>>>>>>;<<                            >>>>>>>>>>>>-&&->",
">>>>>>>>>>>>>>>><;;<                           >>>>>>>>>>>>-&&-<",
"><<;>>>>>>>>><;<>>>>                           >>>>>>>>>>>>;--;>",
">:;<>>>>>>>>>;<;>>>>                           >>>>>>>>>>>>>>>>>",
">><;>>>>>>>>;<;:>>:;                        >>>>>>>>>>>>>>>>>>>>",
"<;--;>><>>>><;<<>><<                        >>>>>>>>>>>>>>>>>>>>",
"<-&&-<;:>>;<;;<<:<;;<;;                  &->>>>>>>>>>>>>>>>>>>>>",
";-&&-;<;>>;>:>--;<<;;<;;>            <>-&&->>>>>>>>>>>>>>>>>>>>>",
"<>--><>>>>:<;-&&->;<;<<;;            >>;--;>>>>>>>>>>>>>>>>>>>>>",
">:;<>>>>>><:>-$$->;;<;;<;            >;<>><>>>>>>>>>>>>>>>>>>>>>"
};
