/* XPM */
static char *tiger_3[] = {
/* columns rows colors chars-per-pixel */
"64 64 21 1 ",
"  c black",
". c gray25",
"X c gray44",
"o c #805018",
"O c #906028",
"+ c #A87838",
"@ c #E3D02F",
"# c #E3D13B",
"$ c #E3D13C",
"% c #C09050",
"& c #E0B840",
"* c #E4D354",
"= c #E4D35E",
"- c #E5D45C",
"; c #E5D460",
": c #E6D563",
"> c #E0E878",
", c #909090",
"< c gray66",
"1 c #D8D8D8",
"2 c #F8F8F8",
/* pixels */
";;;;;;;;;;;;;;;;;;;ooooooooooo;;;;;;;;;;;;;;;;;;;;;;;;;;;;;;;;;;",
";;;;;;;;;;;;;;;;;;;ooooooooooo=;;;;;;;;;;;;;;;;;;;;=**;;;;;;;;;;",
";;;;;;;;;;;;;;;;;oo%%oo;;;oooooo;;;;;;;;;;;;;;;;;;;*$$*;;;;;;;;;",
";;;;;;;;;;;;;;;;;oo%%oo;;;oooooo;;;;;;;;;;;;;;;;;;;*$$*;;;;;;;;;",
";;;;;;;;;;;;;;;oo%%++oo;;;;=**oooo;;;;;;;;;;;;;;;;;=**;;;;;;;;;;",
";;;;;;;=**;;;;;oo%%++oo;;;;;;;oooo;;;;;;;;;;;;;;;;;;;;;;;;;;;;;;",
";;;;;;;*$$*;;;;oo++oo;;;;;;;;;oooo;;;;;;;;;;;;;;;;;;;;;;;;;;;;;;",
";;;;;;;*$$*;;;;oo++oo;;;;;;;;;oooo;;;;;;;;;;;;;;;;;;;;;;;;;;;;;;",
";;;;;;;=**=;;;;oo++oo;;;;;;;;;oooo;;;;;;;;;;;;;;;;;;;;;;;;;;;;;;",
";;;;;;;;;;;;;;;oooo;;;;;;;;;oooooo;;;;;;;;;;;;;;;;;;;;;;;;;;;;;;",
";;;;;;;;;;;;;;;oooo;;;;;;;;;oooooo;;;;;;;;;;;;;;;;;;;;;;;;;;;;;;",
";;;;;;;;;;;;;;;oo;;;;;;;;;oo%%&&%%oo;;;;;;;;;;;;;;;;;;;;;;;;;;;;",
";;;;;;;;;;;;;;;oo;;;;;;;;;oo%%&&%%oo;;;;;;;;;;;;;;;;;;;;;=;;;;;;",
";;;;;;;;;;;;;;;;;;;;;;;ooo%%&&&&&&%%oo;;;;;;;;;;;;;;;;;;:;**;;:;",
";;;;;;;;;;;;;;;;;;;;;;;ooo%%&&&&&&%%oo;;;;;;;;;;;;;;;;;;;*$$*;;;",
";;;;;;;;;;;;;;;;;;;;;oo%%%&&>>>>&&%%++oo;;;;;;;;;;;;;;;;;*$$*;;;",
";;;;;;;;;;;;;;;;;;;;;oo%%%&&>>>>&&%%++oo::;;:-:-;;;;;;;;;=**=:=:",
";;;;;;;;;;;;;;;;;;;;;oo&&&>>>>&&&&%%%%oo==;;=:=:;;;;;;;:;;;;:=-=",
";;;;;;;;;;;;;;;;;;;;;oo&&&>>>>&&&&%%%%oo:==::--:;;;;;;;;;:;;;;:;",
";;;;;;;;;;;;;;;;;;;oo%%&&&>>&&&&%%%%%%++ooo=:=:=;;;;;;;;;=;;;;;;",
";;;;;;;;;;;;;;;;;;;oo%%&&&>>&&&&%%%%%%++ooo=::=:;;;;;;;;;;;;;;;;",
";;;;;;;;;;;;;;;;;;;oo&&&&&&&>>&&%%%%++++ooo-=::=;;;;;;;;;;;;;;;;",
";;;;;;;;;;;;;;;;;;;oo&&&&&&&>>&&%%%%++++ooo:-=::;;;;;;;;;;;;;;;;",
";;;;;;;;;;;;;;;;;oo%%%%&&&>>&&%%%%%%+++++++oo:==;;;;;;;;;;;;;;;;",
";;;;;;;;;;;;;;;;;oo%%%%&&&>>&&%%%%%%+++++++oo:=::=:=;;:-;;-:;;;;",
";;;=**=;;;;;;;;;;oo%%%%&&&>>&&%%%%%%+++++++oo::==:=;;;;=;;=:;;;;",
";;;*$$*;;;;;;;;;;oo%%%%%%%&&%%%%%%%%+++++++oo=::-:;;;;=:;=:=;;;;",
";;;*$$*;;;;;;;;;;oo%%%%%%%&&%%%%%%%%+++++++oo:-=;;;;;;:=:-**=;;;",
";;;=**;;;;;;;;;oooooooo%%%oooooooooo++ooooooooo:;;;;-;==;*$#*=:=",
";;;;;;;;;;;;;;;oooooooo%%%oooooooooo++ooooooooo=;;;;:=::;*$$*:=:",
";;;;;;;;;;;;;;;oo&&++ooooo++&&&&++++oooo+++&&oo;;;;;-::=;=**=;-:",
";;;;;;;;;;;;;;;oo&&++ooooo++&&&&++++oooo+++&&oo;;;;;::=:;;:=:;;;",
";;;;;;;;;;;;;;;oo++&&oo&&&>>>>>>&&%%++oo&&&++oo;;;;;;;;;;;;;;;;;",
";;;;;;;;;;;;;;;oo++&&oo&&&>>>>>>&&%%++oo&&&++oo;;;;;;;;;;;;;;;;;",
";;;;;;;;;;;=;;;;;oo++&&&&&>>>>&&&&&&%%+++++oo;;;;;;;;;;;;;;;;;;;",
";;;;;;;;;;;;;;;;;oo++&&&&&>>>>&&&&&&%%+++++oo;;;;;;;;;;;;;;;;;;;",
";;;;;;;;;;;;;;;;;oooo&&%%%&&>>&&&&&&OO++ooooo;:-;;;;;;;;;;;;;;;:",
";;;;;;;;;;;;;;;;;oooo&&%%%&&>>&&&&&&OO++ooooo;;=;;;;;;;;;;;;;=**",
";;;;;;;;;;;;;;;;;oo&&>>OOO++&&++&&OOOO++&&&++oo:;;;;;;;;;;;;;*$@",
";;;;;;;;;;;;;;;;;oo&&>>OOO++&&++&&OOOO++&&&++oo=;;;;;;;;;;;;;*$@",
";;;;;;;;;;;;;;;;;oo&&>>OOO++&&++&&OOOO++&&&++oo:;;;;;;;;;;;;;=**",
";;;;;;;;;;;;;;;oo&&>>>><<<  OOOOOO  <<++&&&&&++oo;;;;;;;;;;;;;;;",
";;;=;;;;;;;;;;;oo&&>>>><<<  OOOOOO  <<++&&&&&++oo;;;;;;;;;;;;;;;",
"**=;:;;;;;;;;;;oo++&&&&222  &&++&&  22++&&&++oo=;;;;;;;;;;;;;;;;",
"@#*:=:=-;;;;;;;oo++&&&&222  &&++&&  22++&&&++oo:;;;;;;;;;;;;;;;;",
"@$*=:=;:;;;;;;;;;oo++%%>>>&&>>&&&&%%++&&+++oo    ;;;;;;;;;;;;;;;",
"**=:;;;;;;;;;;;;;oo++%%>>>&&>>&&&&%%++&&+++oo    ;;;;;;;;;;;;;;;",
";=;;;;;;;;;;;;;;;  oooo&&&&&      &&++%%ooooo    ;;;;;;;;;;;;;;;",
";:=-;;;;;;;;;;;;:  oooo&&&&&      &&++%%ooooo    ;;;;;;;;;;;;;;;",
":=;:;;;;;;;;;;;;=  oooo%%%&&&&  &&&&%%oo%%%oo    ;;;;;;;;;;;;;;;",
";;;;;;;;;;;;;;;;=  oooo%%%&&&&  &&&&%%oo%%%oo    ;;;;;;;;;;;;;;;",
";;;;;;;;;;;;;;;;:  oo%%ooo,,XXooXXXXoo%%+++oo    ;;;;;;;;;;;;;;;",
";;;;;;;;;;;;;;;;=  oo%%ooo,,XXooXXXXoo%%+++oo    ;;;;;;;;;;;;;;;",
";;;;;;;;;;;;;;;;:==oo&&%%%22,,oo,,22oo&&%%%oo    ;;;;;;;;;;=**=;",
";;;;;;;;;;;;;;;;=::oo&&%%%22,,oo,,22oo&&%%%oo    ;;;;;;;;;;*$$*;",
";;;;;;;;;;;;;;;;:==oo&&%%%11      11oo&&%%%oo    ;;;;;;;;;;*$$*:",
";::=;;;;;;;;;:=:-:;oo&&%%%11      11oo&&%%%oo    ;;;;;;;;;;=**=;",
";-=:;;;;;;;;;=:==:;oo&&%%%11      11oo&&%%%oo    ;;;;;;;;;;;;;;;",
";;:=;;;;;;;;=:=-=  oo%%%%%<<oo    <<oo%%%%%oo    ;;;;;;;;;;;;;;;",
":=**=;;:;;;;:=:::  oo%%%%%<<oo    <<oo%%%%%oo    ;;;;;;;;;;;;;;;",
":*$$*:=-;;:-==::=oo++&&+++&&oo    oo&&++&&&++oo;;;;;;;;;;;;;;;;;",
"=*$$*=:=;;;=-;**=oo++&&+++&&oo    oo&&++&&&++oo;;;;;;;;;;;;;;;;;",
":;**=:;;;;;:=*$$*..oo..ooo..        ..oo...oo..;;;;;;;;;;;;;;;;;",
";-=:;;;;;;:-;*@@*..oo..ooo..        ..oo...oo..;;;;;;;;;;;;;;;;;"
};
