/* XPM */
static char *tigre[] = {
/* columns rows colors chars-per-pixel */
"64 64 214 2 ",
"   c #000000",
".  c #080705",
"X  c #140C02",
"o  c #1A0F01",
"O  c #110F0D",
"+  c #1D1205",
"@  c #1A1C1F",
"#  c #221706",
"$  c #221B09",
"%  c #341F08",
"&  c #2D230A",
"*  c #38250C",
"=  c #2F2815",
"-  c #332E11",
";  c #363218",
":  c #1E1F20",
">  c #3E3329",
",  c #2B2D31",
"<  c #35363B",
"1  c #462B0B",
"2  c #5D380D",
"3  c #422D11",
"4  c #523B17",
"5  c #5E3A11",
"6  c #643D12",
"7  c #42372B",
"8  c #443C32",
"9  c #544017",
"0  c #5B4C19",
"q  c #6D4617",
"w  c #794B15",
"e  c #7E4E17",
"r  c #724A1B",
"t  c #77541E",
"y  c #5B5425",
"u  c #544A36",
"i  c #5F4A31",
"p  c #644B21",
"a  c #734E27",
"s  c #645B26",
"d  c #745025",
"f  c #7D5525",
"g  c #6E5C38",
"h  c #715D39",
"j  c #6A6128",
"k  c #786A29",
"l  c #786F2F",
"z  c #6E673B",
"x  c #79683B",
"c  c #7B7131",
"v  c #615B42",
"b  c #616365",
"n  c #7C7162",
"m  c #804F18",
"M  c #83531B",
"N  c #89571C",
"B  c #865B1E",
"V  c #89591E",
"C  c #92631F",
"Z  c #825B25",
"A  c #8C5C22",
"S  c #805B2F",
"D  c #905F24",
"F  c #8A612D",
"G  c #936423",
"H  c #9A6A22",
"J  c #95652A",
"K  c #956829",
"L  c #9B6B2D",
"P  c #997726",
"I  c #96732D",
"U  c #9A752E",
"Y  c #8C6839",
"T  c #9D6D31",
"R  c #9C6E38",
"E  c #887C3C",
"W  c #9E7C32",
"Q  c #977F38",
"!  c #A2732D",
"~  c #A97F2B",
"^  c #A37334",
"/  c #A87733",
"(  c #A27C34",
")  c #A87837",
"_  c #AB7C34",
"`  c #A57539",
"'  c #AB7C3C",
"]  c #916C40",
"[  c #847942",
"{  c #887C43",
"}  c #9B7549",
"|  c #897550",
" . c #AB7E46",
".. c #A37E50",
"X. c #847A70",
"o. c #9F8034",
"O. c #988139",
"+. c #998E3E",
"@. c #9D913F",
"#. c #A5872F",
"$. c #B5892E",
"%. c #A28234",
"&. c #AD8636",
"*. c #B28236",
"=. c #B78C35",
"-. c #B4853B",
";. c #BA8B3E",
":. c #A9953B",
">. c #BD9333",
",. c #B79835",
"<. c #B3913C",
"1. c #B9A13D",
"2. c #C19535",
"3. c #C79B35",
"4. c #C2963B",
"5. c #C69A3A",
"6. c #CA9E3C",
"7. c #CDA337",
"8. c #CDA33C",
"9. c #D5AB3C",
"0. c #D6AC3D",
"q. c #DBB23E",
"w. c #D7C73D",
"e. c #E3D02F",
"r. c #E3D13C",
"t. c #9F8F5A",
"y. c #A6894A",
"u. c #B28243",
"i. c #B68942",
"p. c #BA8B43",
"a. c #BC8C4B",
"s. c #BF9146",
"d. c #B49A42",
"f. c #BC9944",
"g. c #A68757",
"h. c #B58C57",
"j. c #A29851",
"k. c #B6965A",
"l. c #B3A44A",
"z. c #BAAA4D",
"x. c #B3AA57",
"c. c #9A8563",
"v. c #8E8775",
"b. c #958C73",
"n. c #B79465",
"m. c #BE996A",
"M. c #B19877",
"N. c #B6A47C",
"B. c #C39345",
"V. c #C49A46",
"C. c #C5964C",
"Z. c #C99B4E",
"A. c #C19151",
"S. c #CFA342",
"D. c #CEAD44",
"F. c #C7A448",
"G. c #C3AC4C",
"H. c #D1A543",
"J. c #D3AC42",
"K. c #D9AE43",
"L. c #D1A84B",
"P. c #CDBD4D",
"I. c #DCB342",
"U. c #D6B549",
"Y. c #DBBB4C",
"T. c #CBBC54",
"R. c #CDBE59",
"E. c #D2BE55",
"W. c #D5BA58",
"Q. c #E2B943",
"!. c #E2BC42",
"~. c #C29D60",
"^. c #CBA96F",
"/. c #DFC34C",
"(. c #D4C256",
"). c #D6C459",
"_. c #D8C659",
"`. c #D5C85C",
"'. c #DBCC5C",
"]. c #E1C34A",
"[. c #E4C74C",
"{. c #E2C15D",
"}. c #E0CF5C",
"|. c #E4D354",
" X c #E3D25E",
".X c #DCD566",
"XX c #DEDC6C",
"oX c #E5D460",
"OX c #E0DE6B",
"+X c #DFE373",
"@X c #E1E16E",
"#X c #E0E574",
"$X c #988D81",
"%X c #888B90",
"&X c #959695",
"*X c #AB9F92",
"=X c #B6A685",
"-X c #B8AC9E",
";X c #9FA2A7",
":X c #B5ADA4",
">X c #BEB3A5",
",X c #B2B4B9",
"<X c #C5B7A5",
"1X c #CABFB1",
"2X c #DAC99D",
"3X c #E4E989",
"4X c #E8F196",
"5X c #CDC6AB",
"6X c #CEC6BD",
"7X c #DACCBA",
"8X c #DADADC",
"9X c #E1D5C7",
"0X c #F7FDCD",
"qX c #ECE5D3",
/* pixels */
"oXoXoXoXoXoXoXoXoXoXoXoXoXoXoXoXoXoXoXoXoXoXoXoXoXoXoXoX(.#.w m m e W E. XoXoXoXoXoXoXoXoXoXoXoXoXoXoXoXoXoXoXoXoXoXoXoXoXoXoXoX",
"oXoXoXoXoXoXoXoXoXoXoXoXoXoXoXoXoXoXoXoXoXoXoXoXoXoX X_.z.P m V G V W G._. XoXoXoXoX XoXoXoXoXoXoXoXoX X|.|.oXoXoXoXoXoXoXoXoXoX",
"oXoXoXoXoXoXoXoX XoXoXoXoX XoXoXoXoX XoXoXoXoX XoXoX_.,.P M A ` ' ^ L W d._.oXoXoXoXoXoXoXoXoXoXoXoXoX|.r.r.|.oXoXoXoXoXoXoXoXoX",
"oX XoXoXoXoXoXoXoXoXoXoXoXoXoXoXoXoXoXoXoXoXoXoXoX XE.o.e e A ` u.u.^ A o.E.oXoXoXoXoXoXoXoXoXoXoX XoX|.r.r.|.oXoXoXoXoXoXoXoXoX",
"oXoXoXoXoXoXoXoXoXoXoXoXoXoXoXoXoXoXoXoXoXoXoXoXoXoXE.o.e e M A T u.' A o.E.oXoXoXoXoXoXoXoXoXoXoXoXoX X|.|. XoXoXoXoXoXoXoXoXoX",
"oXoXoXoXoXoXoX X|.|. XoXoXoXoXoXoXoXoXoXoX XoXoX X_.G.I B U o.W ( ' ` A o.E.oXoXoXoXoXoXoXoXoXoXoXoXoXoXoXoXoXoXoXoXoXoXoXoXoXoX",
"oXoXoXoXoXoXoX|.r.r.|.oXoXoXoXoXoXoXoXoXoXoXoXoX_.d.I M U G.(.(.G.%.A M o.E.oXoXoXoXoXoXoXoXoXoXoXoXoXoXoXoXoXoXoXoXoXoXoXoXoXoX",
"oXoXoXoX XoXoX|.r.r.|.oXoXoXoXoXoXoXoXoXoXoXoXoXE.o.e M o.(.oXoX_.d.I M o.E.oXoXoX XoXoXoXoXoXoXoXoXoXoXoXoXoXoX XoXoXoXoXoXoXoX",
"oXoXoXoXoXoXoX X|.|. XoXoXoXoXoXoXoXoXoXoXoXoXoXE.o.e e %.E.oXoX.X_.G.I W E.oXoXoXoXoXoX XoXoXoXoXoXoXoXoXoXoXoXoXoXoXoXoXoXoXoX",
"oXoXoXoXoXoXoX XoXoXoXoXoXoXoXoXoXoXoXoXoXoXoXoXE.o.M M U G._.}. X X_.<.d.(.oXoXoXoXoXoXoXoXoXoXoXoXoXoXoXoXoXoXoXoXoXoXoXoXoXoX",
"oXoXoXoXoXoXoXoXoXoXoXoXoXoXoXoXoXoXoXoXoXoXoXoXE.%.e e A I d.).oXoX'._.(.}.oXoXoXoX XoXoXoXoXoXoXoXoXoXoXoXoXoXoXoXoXoXoXoX XoX",
" XoXoXoXoXoXoXoXoXoXoXoXoXoXoXoXoXoXoXoXoXoXoXoX_.d.I B e e I z._. XoXoXoXoXoXoXoXoXoXoXoXoXoXoXoXoXoXoXoXoXoXoXoXoXoXoXoXoXoXoX",
"oXoXoXoXoXoXoXoXoXoXoXoXoXoXoXoXoXoXoXoXoXoXoXoX X_.G.W m e N I d.(.oXoXoXoXoXoXoXoXoXoXoX XoXoXoXoXoXoXoXoXoXoXoXoXoXoXoX XoXoX",
"oXoXoXoXoXoXoXoX XoXoXoX XoXoXoXoXoXoXoXoXoXoXoX X_.G.W D H G G ( G._.}.oXoXoXoXoXoXoXoXoXoXoXoXoXoXoXoXoXoXoXoXoXoX|.|. XoXoXoX",
"oXoXoXoXoXoXoXoXoXoXoXoXoXoXoXoXoXoXoXoXoXoXoXoX_.d.( ' i.4.4.-.' W d.).oXoXoXoXoXoXoXoXoXoXoXoXoXoXoXoXoXoXoXoXoX|.r.r.|.oXoXoX",
"oXoXoXoXoXoXoXoXoXoXoXoXoXoXoXoXoXoXoXoXoXoX'._.G.W T p.H.I.I.L.i.T ( G._.}.oXoXoXoXoXoXoXoXoXoX XoXoXoXoXoXoXoXoX|.r.r.|.oXoXoX",
"oXoXoXoXoXoXoXoXoXoXoXoX XoXoXoXoXoXoXoXoXoX_.d.( ` p.S.K.Q.Q.K.L.p.' W d._. XoXoXoXoXoXoXoXoXoXoXoXoXoXoXoX XoXoX X|.|.oXoXoXoX",
"oXoXoXoXoXoXoXoXoXoXoXoXoXoXoXoXoXoXoXoX X_.G.W L i.L.Y.].].].Q.K.Z.u.T W G._.}.oXoXoXoXoXoXoXoXoXoXoXoXoXoXoXoXoXoXoXoXoXoXoXoX",
"oXoXoXoXoXoXoXoXoXoXoXoXoXoXoXoXoXoXoXoX_.d.W ' i.H.Y..X@XXXoX].K.C.a.u.' W d._.oXoXoXoXoXoXoXoXoXoXoXoXoXoXoXoXoXoXoXoXoXoXoXoX",
"oXoX XoXoXoXoXoXoXoXoXoXoXoXoXoXoXoXoX XE.W G u.L.Y.|.+X#X#X.X].K.C.A.A.u.A W E.oXoXoXoXoXoXoXoXoXoXoXoXoXoXoXoXoX XoXoXoXoXoXoX",
"oXoXoXoXoXoXoXoXoXoXoXoXoXoXoXoXoXoXoXoXT.o.C 2.Y.oX+X+X+X}.!.Q.K.Z.A.A.u.A o.E.oXoXoXoXoXoXoXoXoXoX XoXoXoXoXoXoXoXoXoXoXoXoXoX",
"oXoXoXoXoX XoXoXoXoXoXoXoXoXoXoXoXoX}._.G.( ! 7./. XXXXXoXQ.Q.K.H.C.A.A.u.J W G._.oXoXoXoXoXoXoXoXoXoXoXoXoXoXoXoXoXoXoXoXoXoXoX",
" XoXoXoXoXoXoXoXoX XoXoXoXoXoXoXoXoX_.d.W ' p.J.!././././.I.K.S.C.A.A.A.a.` T W d._.oXoXoXoXoXoXoXoXoXoXoXoXoXoXoXoXoXoXoXoXoXoX",
"oXoXoXoXoXoXoXoXoXoXoXoXoXoXoXoXoXoXE.o.A u.Z.I.!.].].Q.Q.I.H.Z.A.A.a.a.u.' T A W E.oXoXoXoXoXoXoXoXoXoXoXoXoXoXoXoXoXoXoXoXoXoX",
"oXoXoXoXoXoXoXoXoXoXoXoXoXoXoX XoXoXE.W D  .Z.K.].oXoX/.I.F.C.C.A.A.a.u.' ' T N o.E.oXoX XoXoXoXoXoXoXoXoXoXoXoXoXoXoXoXoXoXoXoX",
"oXoXoX X|.|. XoXoXoXoXoXoXoX X_.E.(.G.U V R B.H.U.R.T.F.>.-. . .u.u.' ' ) ! J N I G.(.(.(.oXoXoXoXoXoXoXoXoXoXoXoXoXoXoXoXoXoXoX",
"oXoXoX|.r.r.|.oXoXoXoXoX XoX_.d.o.W I Z M A L p.s.%.I G G G A G A A J ` ^ F N e Z P W W d.).oXoXoXoXoXoXoXoXoXoXoXoXoXoXoXoXoXoX",
"oXoXoX|.r.r.|.oXoXoXoXoX X XE.o.M C G C N m A ` ` A B C C C G V Z N A J J N e N C C C B W (.oXoXoXoXoXoXoXoXoXoXoXoX|.|. XoXoXoX",
"oXoXoX X|.|.oXoXoXoXoXoXoXoXE.( C $.2._ J M m V F J ^ >.7.3.>.^ L L J A M e N J _ 2.$.C %./.oXoXoXoXoXoXoXoXoXoXoX|.r.r.|.oXoXoX",
"oXoXoXoXoXoXoXoX XoXoXoXoXoXE.%.C 2.8._ L A V C U -.f.W.[.[.Y.4.-.;._ K N N A J _ 8.2.H o._.oXoXoXoXoXoXoXoXoXoXoX|.r.r.|.oXoXoX",
"oXoXoXoXoXoXoXoXoXoXoXoXoXoX_.%.C _ _ K A J / 2.D.)..XXX@X+X.XU.9.9.6._ L T L A K _ _ A o.E.oXoXoXoXoXoXoXoXoXoXoX X|.|.oXoXoXoX",
"oXoXoX XoXoXoXoXoXoXoXoXoXoX_.d.W I J M V _ =.6.J.`..X+XXX.X`.Y.q.9.2._ ` ` T A M J L W d._.oXoXoXoXoXoXoXoXoXoXoXoXoXoXoXoXoXoX",
"oXoXoXoXoXoXoXoXoXoXoXoXoXoX X_.G.W N m C 2.6._ ` d.F.Y.Y.f.V.I.0.=.U J L ) T N e Z W G._.}.oXoXoXoXoXoXoXoXoXoXoXoXoXoXoXoXoXoX",
"oXoXoXoXoXoXoX XoXoXoXoXoXoXoXoXE.W e M ! 7.9.y.] f F =.4._ _ 2.$.A a Y } ` ^ D M e ( E.oX XoXoXoXoXoXoXoXoXoXoXoXoXoXoXoXoXoXoX",
"oXoXoXoXoXoXoXoXoXoXoX XoXoXoXoXE.o.M J _ 7.W.=XX.7 3 A U J L T f * > X.M.g.` T J N W E.oXoXoXoXoXoXoXoXoXoXoXoXoXoXoXoXoXoXoXoX",
"oX XoXoXoXoXoXoXoXoXoX XoXoXoXoXE.W V _ 4.I..X5X&X, # t ! L L ! t $ , &X>Xh._ *._ G W z._.}.oXoXoXoXoXoXoXoXoXoXoXoX XoXoXoXoXoX",
"oXoXoXoXoXoXoXoXoXoXoXoXoXoXoXoXE.W C =.U.}.3XqX,X< $ I 2._ _ 5.I % < ,X9X~.' 6.5._ T W d._.oXoXoXoXoXoXoXoXoX XoXoXoXoXoXoX XoX",
"oXoXoXoXoXoXoXoXoXoXoXoXoXoX X_.G.&.#.D.|.@X4X0X5Xv 0 1.Y.6.5.I.,.4 u <X7Xh.-.H.q.5._ G U G._.}.oXoXoXoXoXoXoXoXoXoXoXoXoX X|.|.",
"oXoXoXoXoXoXoXoXoXoXoXoXoXoX_.d.#.>.9.}.@X+X3X4X+Xl.1..XOXY.q.!.8.I Y h.k. .-.9.I.q.5._ T U d.E.oXoXoXoXoXoXoXoXoXoXoXoXoX|.r.e.",
"oXoXoXoXoXoXoXoXoXoX XoXoXoXT.W C >.Y..X@X@X.XXX'.[.U.x.l.:.#.#.&.&.' _ ) _ 2.0.q.I.6._ T U d.).oX XoXoXoXoXoXoXoXoXoXoXoX|.r.e.",
"oXoXoX XoXoXoXoXoXoXoXoXoXoX(.o.V _ 4.Y.].].].].].r.,.y = - * & 0 &.7.*._ 5.K.q.q.4._ G W G.).}.oXoXoXoXoXoXoXoXoXoXoXoXoX X|.|.",
"oXoXoXoXoXoXoXoXoXoXoXoXoXoX_.f.W L _ 4.9.J.Y.W.{.].>.0 + . . # 0 ,.I.k.h.L.I.J.5._ L W d._. XoXoXoXoX XoXoXoXoXoXoXoXoXoXoXoXoX",
"oXoXoX XoXoXoXoXoXoXoXoXoXoX}._.G.W G _ 4.B.^.2X2X/.q.,.k $ $ k ,.q.W.N.=XA.B.;._ G W G._. XoXoXoXoXoXoXoXoXoXoXoXoXoXoXoXoXoXoX",
"|.|. XoXoXoXoXoXoX XoXoXoXoX}._.G.( A J T ) n.<X5X^.9.I.,.4 9 ,.].D.~.=X*Xh.' ! J A ( G._. XoXoXoXoXoXoXoXoXoXoXoXoXoXoXoXoXoXoX",
"e.r.|.oXoXoXoXoXoXoXoXoXoXoX_.d.) ^ L D N A R n.m.b.t.D.8.I I 7.J.j.c.n.g.R A Z A L R ( d._.oXoXoXoXoXoX XoXoXoXoXoXoXoXoXoXoXoX",
"e.r.|.oXoXoXoXoXoXoXoXoXoXoXR.Q f J J N m A D ` ..v.v.k.f._ _ V.k.v.X.g.` J N M N L J f Q (.oX XoXoXoXoXoXoXoXoXoXoXoXoXoXoXoXoX",
"|.|. XoXoXoXoXoXoXoXoXoXoXoXR.[ i f N m A T ` D Y $X&Xv.| F S | v.&X$X] K ` ) A m N f i { R.oX XoX XoXoXoXoXoXoXoXoXoXoXoXoXoXoX",
"oX XoXoXoXoXoXoXoXoXoXoXoXoX).j.x p 6 w D B.B.T } -X,X%Xn Y I n %X,X-X} L p.i.G w 6 4 > z l.(..XoXoXoXoXoXoXoXoXoXoX XoXoXoXoXoX",
"oXoXoXoXoXoXoXoXoXoXoXoXoXoXoX).l.j % 6 G 5.H.;.~.9X8X;Xb.f.f.b.;X8X9X^.;.H.5.H 6 & + O ; s +.(.oXoXoXoXoXoXoXoXoXoXoXoXoXoXoXoX",
"oXoXoXoXoXoX XoXoXoXoXoXoXoXoXoXT.l X 5 H 2.8.B.^.qX8X*Xc.f.f.c.*X8X8X^.B.8.2.C 6 +         l T.oXoXoXoXoXoXoXoXoXoXoXoXoXoXoXoX",
"oXoXoXoXoXoXoXoXoXoXoXoXoXoXoXoXP.l + 5 C ~ -.' n.9X9XX.F K K F ..6X7X~._ -./ D 6 o         l T.oXoXoXoXoXoXoXoXoXoXoXoXoXoXoXoX",
"oXoXoXoXoXoXoXoXoXoXoXoXoXoXoXoX(.l + 5 A R ' ' n.1X-Xh 2 2 2 2 v :X1Xn.' ' ^ D 6 +         l T.oXoXoXoXoXoXoX XoXoX XoXoXoXoXoX",
"oXoXoXoXoXoXoXoXoXoXoXoXoXoXoXoXP.l o 5 D ' a.a.~.<X&X8 o o o o 8 &X<X~.a.a.' D 5 +         l (.oXoXoXoXoXoXoXoXoXoXoXoXoXoXoXoX",
"oXoXoXoXoXoXoXoXoXoXoXoXoXoXoXoX`.y.j p G i.B.p...X.b :         : b $X..i.C.i.G 5 o     - s @.(.oXoXoXoXoXoXoXoXoXoXoXoX|.|. X X",
"oXoXoXoXoXoXoXoXoXoXoXoXoXoXoXoX}.).z.I H 4.6.! a 7 @ .         O @ 7 a ! 7.5.H 5 o     s l.`.}.oX XoXoXoXoXoXoXoXoXoX|.r.r.|.oX",
"oXoXoXoXoXoXoXoXoXoXoXoXoXoXoXoXoX_.G.( ! 5.6.L 6 * X .         . X % 6 L 6.6.^ r * X . l (. X XoXoXoXoXoXoXoXoXoXoXoX|.r.r.|.oX",
"oXoXoXoXoXoXoXoXoXoXoXoXoXoXoXoX_.d.( ' p.C.p._ D q 1 X         X 1 q D ) B.C.a.R r 1 o l T..X XoXoXoXoXoXoXoXoXoXoXoX X|.|. XoX",
"oXoXoXoXoXoXoXoXoXoXoXoXoX X X_.G.W L i.Z.a.a.;._ G 6 +         + 6 D _ ;.p.A.C.s.L r * s l.(.'.oXoXoXoXoXoXoXoXoXoXoXoXoXoXoXoX",
"oXoXoXoXoXoXoXoXoXoX XoXoXoX_.d.W L *.8.H.i.;.8.5.H 5 +         + 6 J 2.8.i.;.H.S.*.G r 9 s y.(.oX XoXoXoXoXoX XoXoXoXoXoXoXoXoX",
"oX X|.|. XoXoXoXoXoXoXoXoXoXT.Q d J ( <.<.^ ( <.&.t 1 o         X 1 t &.<.^ ^ =.<.( K f q s +.(.oXoXoXoXoXoXoXoXoXoXoXoXoXoXoXoX",
"oX|.r.r.|.oXoXoXoXoXoXoXoX X).[ i f Z g g f Z h u = X .           o = u h Z Z g g t f i x l._. XoXoXoXoXoXoXoXoX XoXoXoX XoXoXoX",
"oX|.r.r.|.oXoXoXoXoXoXoXoX X(.j.[ O.O.{ { O.O.{ c c c c c c c c c c c [ { O.O.{ E o.o.E j._. XoXoXoXoXoXoXoXoXoXoXoXoXoXoXoXoXoX",
"oXoX|.|. XoXoXoXoXoXoXoX X|.w.w.T.E.T.R.(.R.E.R.T.R.T.T.T.T.T.T.T.T.T.T.R.R.E.T.T.P.T.R.`.oXoXoXoXoXoXoXoXoXoXoXoXoXoXoXoXoXoXoX",
"oXoXoXoXoXoXoX XoXoX X X X|.e.e.|.oXoXoXoXoXoXoX XoXoXoXoXoXoXoXoX XoXoXoXoXoXoXoXoXoXoXoXoXoXoXoXoXoXoXoXoXoXoXoXoXoXoXoXoXoXoX"
};
